<?xml version="1.0" encoding="utf-8"?>
<!-- Generator: Adobe Illustrator 22.1.0, SVG Export Plug-In . SVG Version: 6.00 Build 0)  -->
<svg version="1.1" id="Layer_1" xmlns="http://www.w3.org/2000/svg" xmlns:xlink="http://www.w3.org/1999/xlink" x="0px" y="0px"
	 viewBox="0 0 500 500" style="enable-background:new 0 0 500 500;" xml:space="preserve">
<style type="text/css">
	.st0{fill:#FF6600;}
	.st1{fill:url(#SVGID_1_);}
	.st2{fill:#B5B5B5;}
	.st3{display:none;}
	.st4{display:inline;}
	.st5{fill:none;stroke:#EDEDED;stroke-width:0.5;stroke-miterlimit:10;}
	.st6{fill:none;stroke:#BDBDBD;stroke-miterlimit:10;}
	.st7{fill:#FCFCFC;}
	.st8{fill:#FFFFFF;}
</style>
<circle class="st0" cx="250" cy="250" r="250"/>
<g id="Layer_1_1_">
	<g id="Layer_3_copy">
		
			<linearGradient id="SVGID_1_" gradientUnits="userSpaceOnUse" x1="771" y1="-131.4" x2="771" y2="-131.4" gradientTransform="matrix(1 0 0 -1 0 212)">
			<stop  offset="0" style="stop-color:#FF6600"/>
			<stop  offset="1" style="stop-color:#231F20"/>
		</linearGradient>
		<path class="st1" d="M771,343.4"/>
	</g>
	<path class="st2" d="M68.8,358.8"/>
</g>
<g id="Layer_7" class="st3">
	<g id="Layer_1_2_" class="st4">
		<g>
			<rect x="250" y="375" class="st5" width="31.3" height="31.3"/>
			<rect x="156.3" y="375" class="st5" width="31.3" height="31.3"/>
			<rect x="218.8" y="375" class="st5" width="31.3" height="31.3"/>
			<rect x="187.5" y="375" class="st5" width="31.3" height="31.3"/>
			<rect x="93.8" y="343.8" class="st5" width="31.3" height="31.3"/>
			<rect x="93.8" y="375" class="st5" width="31.3" height="31.3"/>
			<rect x="125" y="375" class="st5" width="31.3" height="31.3"/>
			<rect x="281.3" y="375" class="st5" width="31.3" height="31.3"/>
			<rect x="375" y="312.5" class="st5" width="31.3" height="31.3"/>
			<rect x="93.8" y="312.5" class="st5" width="31.3" height="31.3"/>
			<rect x="375" y="343.8" class="st5" width="31.3" height="31.3"/>
			<rect x="375" y="281.3" class="st5" width="31.3" height="31.3"/>
			<rect x="312.5" y="375" class="st5" width="31.3" height="31.3"/>
			<rect x="375" y="375" class="st5" width="31.3" height="31.3"/>
			<rect x="375" y="250" class="st5" width="31.3" height="31.3"/>
			<rect x="343.8" y="375" class="st5" width="31.3" height="31.3"/>
			<rect x="250" y="93.8" class="st5" width="31.3" height="31.3"/>
			<rect x="218.8" y="93.8" class="st5" width="31.3" height="31.3"/>
			<rect x="187.5" y="93.8" class="st5" width="31.3" height="31.3"/>
			<rect x="312.5" y="93.8" class="st5" width="31.3" height="31.3"/>
			<rect x="343.8" y="93.8" class="st5" width="31.3" height="31.3"/>
			<rect x="156.3" y="93.8" class="st5" width="31.3" height="31.3"/>
			<rect x="281.3" y="93.8" class="st5" width="31.3" height="31.3"/>
			<rect x="93.8" y="156.3" class="st5" width="31.3" height="31.3"/>
			<rect x="93.8" y="187.5" class="st5" width="31.3" height="31.3"/>
			<rect x="93.8" y="218.8" class="st5" width="31.3" height="31.3"/>
			<rect x="93.8" y="250" class="st5" width="31.3" height="31.3"/>
			<rect x="93.8" y="281.3" class="st5" width="31.3" height="31.3"/>
			<rect x="125" y="93.8" class="st5" width="31.3" height="31.3"/>
			<rect x="93.8" y="93.8" class="st5" width="31.3" height="31.3"/>
			<rect x="93.8" y="125" class="st5" width="31.3" height="31.3"/>
			<rect x="375" y="125" class="st5" width="31.3" height="31.3"/>
			<rect x="62.5" y="281.3" class="st5" width="31.3" height="31.3"/>
			<rect x="62.5" y="312.5" class="st5" width="31.3" height="31.3"/>
			<rect x="62.5" y="250" class="st5" width="31.3" height="31.3"/>
			<rect x="62.5" y="156.3" class="st5" width="31.3" height="31.3"/>
			<rect x="62.5" y="125" class="st5" width="31.3" height="31.3"/>
			<rect x="62.5" y="187.5" class="st5" width="31.3" height="31.3"/>
			<rect x="62.5" y="218.8" class="st5" width="31.3" height="31.3"/>
			<rect x="62.5" y="343.8" class="st5" width="31.3" height="31.3"/>
			<rect x="187.5" y="406.3" class="st5" width="31.3" height="31.3"/>
			<rect x="218.8" y="406.3" class="st5" width="31.3" height="31.3"/>
			<rect x="156.3" y="406.3" class="st5" width="31.3" height="31.3"/>
			<rect x="125" y="406.3" class="st5" width="31.3" height="31.3"/>
			<rect x="62.5" y="406.3" class="st5" width="31.3" height="31.3"/>
			<rect x="93.8" y="406.3" class="st5" width="31.3" height="31.3"/>
			<rect x="62.5" y="375" class="st5" width="31.3" height="31.3"/>
			<rect x="62.5" y="93.8" class="st5" width="31.3" height="31.3"/>
			<rect x="375" y="62.5" class="st5" width="31.3" height="31.3"/>
			<rect x="312.5" y="62.5" class="st5" width="31.3" height="31.3"/>
			<rect x="281.3" y="62.5" class="st5" width="31.3" height="31.3"/>
			<rect x="375" y="93.8" class="st5" width="31.3" height="31.3"/>
			<rect x="343.8" y="125" class="st5" width="31.3" height="31.3"/>
			<rect x="375" y="187.5" class="st5" width="31.3" height="31.3"/>
			<rect x="375" y="156.3" class="st5" width="31.3" height="31.3"/>
			<rect x="62.5" y="62.5" class="st5" width="31.3" height="31.3"/>
			<rect x="93.8" y="62.5" class="st5" width="31.3" height="31.3"/>
			<rect x="375" y="218.8" class="st5" width="31.3" height="31.3"/>
			<rect x="125" y="62.5" class="st5" width="31.3" height="31.3"/>
			<rect x="250" y="62.5" class="st5" width="31.3" height="31.3"/>
			<rect x="218.8" y="62.5" class="st5" width="31.3" height="31.3"/>
			<rect x="187.5" y="62.5" class="st5" width="31.3" height="31.3"/>
			<rect x="156.3" y="62.5" class="st5" width="31.3" height="31.3"/>
			<rect x="281.3" y="156.3" class="st5" width="31.3" height="31.3"/>
			<rect x="156.3" y="156.3" class="st5" width="31.3" height="31.3"/>
			<rect x="156.3" y="218.8" class="st5" width="31.3" height="31.3"/>
			<rect x="156.3" y="187.5" class="st5" width="31.3" height="31.3"/>
			<rect x="187.5" y="156.3" class="st5" width="31.3" height="31.3"/>
			<rect x="250" y="406.3" class="st5" width="31.3" height="31.3"/>
			<rect x="250" y="156.3" class="st5" width="31.3" height="31.3"/>
			<rect x="281.3" y="187.5" class="st5" width="31.3" height="31.3"/>
			<rect x="218.8" y="156.3" class="st5" width="31.3" height="31.3"/>
			<rect x="250" y="312.5" class="st5" width="31.3" height="31.3"/>
			<rect x="312.5" y="312.5" class="st5" width="31.3" height="31.3"/>
			<rect x="281.3" y="312.5" class="st5" width="31.3" height="31.3"/>
			<rect x="218.8" y="312.5" class="st5" width="31.3" height="31.3"/>
			<rect x="156.3" y="281.3" class="st5" width="31.3" height="31.3"/>
			<rect x="156.3" y="312.5" class="st5" width="31.3" height="31.3"/>
			<rect x="187.5" y="312.5" class="st5" width="31.3" height="31.3"/>
			<rect x="156.3" y="250" class="st5" width="31.3" height="31.3"/>
			<rect x="187.5" y="187.5" class="st5" width="31.3" height="31.3"/>
			<rect x="218.8" y="187.5" class="st5" width="31.3" height="31.3"/>
			<rect x="250" y="218.8" class="st5" width="31.3" height="31.3"/>
			<rect x="250" y="187.5" class="st5" width="31.3" height="31.3"/>
			<rect x="281.3" y="218.8" class="st5" width="31.3" height="31.3"/>
			<rect x="218.8" y="250" class="st5" width="31.3" height="31.3"/>
			<rect x="250" y="250" class="st5" width="31.3" height="31.3"/>
			<rect x="218.8" y="218.8" class="st5" width="31.3" height="31.3"/>
			<rect x="281.3" y="281.3" class="st5" width="31.3" height="31.3"/>
			<rect x="250" y="281.3" class="st5" width="31.3" height="31.3"/>
			<rect x="281.3" y="250" class="st5" width="31.3" height="31.3"/>
			<rect x="187.5" y="218.8" class="st5" width="31.3" height="31.3"/>
			<rect x="187.5" y="250" class="st5" width="31.3" height="31.3"/>
			<rect x="187.5" y="281.3" class="st5" width="31.3" height="31.3"/>
			<rect x="218.8" y="281.3" class="st5" width="31.3" height="31.3"/>
			<rect x="343.8" y="156.3" class="st5" width="31.3" height="31.3"/>
			<rect x="218.8" y="343.8" class="st5" width="31.3" height="31.3"/>
			<rect x="187.5" y="343.8" class="st5" width="31.3" height="31.3"/>
			<rect x="250" y="343.8" class="st5" width="31.3" height="31.3"/>
			<rect x="156.3" y="343.8" class="st5" width="31.3" height="31.3"/>
			<rect x="125" y="312.5" class="st5" width="31.3" height="31.3"/>
			<rect x="125" y="343.8" class="st5" width="31.3" height="31.3"/>
			<rect x="281.3" y="343.8" class="st5" width="31.3" height="31.3"/>
			<rect x="343.8" y="312.5" class="st5" width="31.3" height="31.3"/>
			<rect x="343.8" y="250" class="st5" width="31.3" height="31.3"/>
			<rect x="343.8" y="218.8" class="st5" width="31.3" height="31.3"/>
			<rect x="312.5" y="343.8" class="st5" width="31.3" height="31.3"/>
			<rect x="343.8" y="187.5" class="st5" width="31.3" height="31.3"/>
			<rect x="343.8" y="343.8" class="st5" width="31.3" height="31.3"/>
			<rect x="125" y="281.3" class="st5" width="31.3" height="31.3"/>
			<rect x="343.8" y="281.3" class="st5" width="31.3" height="31.3"/>
			<rect x="312.5" y="218.8" class="st5" width="31.3" height="31.3"/>
			<rect x="125" y="250" class="st5" width="31.3" height="31.3"/>
			<rect x="281.3" y="125" class="st5" width="31.3" height="31.3"/>
			<rect x="312.5" y="156.3" class="st5" width="31.3" height="31.3"/>
			<rect x="312.5" y="187.5" class="st5" width="31.3" height="31.3"/>
			<rect x="312.5" y="250" class="st5" width="31.3" height="31.3"/>
			<rect x="312.5" y="281.3" class="st5" width="31.3" height="31.3"/>
			<rect x="250" y="125" class="st5" width="31.3" height="31.3"/>
			<rect x="312.5" y="125" class="st5" width="31.3" height="31.3"/>
			<rect x="125" y="187.5" class="st5" width="31.3" height="31.3"/>
			<rect x="125" y="218.8" class="st5" width="31.3" height="31.3"/>
			<rect x="125" y="156.3" class="st5" width="31.3" height="31.3"/>
			<rect x="156.3" y="125" class="st5" width="31.3" height="31.3"/>
			<rect x="187.5" y="125" class="st5" width="31.3" height="31.3"/>
			<rect x="125" y="125" class="st5" width="31.3" height="31.3"/>
			<rect x="218.8" y="125" class="st5" width="31.3" height="31.3"/>
			<rect x="343.8" y="62.5" class="st5" width="31.3" height="31.3"/>
			<rect y="93.8" class="st5" width="31.3" height="31.3"/>
			<rect y="125" class="st5" width="31.3" height="31.3"/>
			<rect y="62.5" class="st5" width="31.3" height="31.3"/>
			<rect y="156.3" class="st5" width="31.3" height="31.3"/>
			<rect class="st5" width="31.3" height="31.3"/>
			<rect x="31.3" class="st5" width="31.3" height="31.3"/>
			<rect y="187.5" class="st5" width="31.3" height="31.3"/>
			<rect y="31.3" class="st5" width="31.3" height="31.3"/>
			<rect y="343.8" class="st5" width="31.3" height="31.3"/>
			<rect x="62.5" class="st5" width="31.3" height="31.3"/>
			<rect y="375" class="st5" width="31.3" height="31.3"/>
			<rect y="218.8" class="st5" width="31.3" height="31.3"/>
			<rect y="406.3" class="st5" width="31.3" height="31.3"/>
			<rect y="250" class="st5" width="31.3" height="31.3"/>
			<rect y="312.5" class="st5" width="31.3" height="31.3"/>
			<rect y="281.3" class="st5" width="31.3" height="31.3"/>
			<rect x="312.5" class="st5" width="31.3" height="31.3"/>
			<rect x="406.3" class="st5" width="31.3" height="31.3"/>
			<rect x="375" class="st5" width="31.3" height="31.3"/>
			<rect x="437.5" class="st5" width="31.3" height="31.3"/>
			<rect x="437.5" y="31.3" class="st5" width="31.3" height="31.3"/>
			<rect x="437.5" y="93.8" class="st5" width="31.3" height="31.3"/>
			<rect x="437.5" y="62.5" class="st5" width="31.3" height="31.3"/>
			<rect x="93.8" class="st5" width="31.3" height="31.3"/>
			<rect x="343.8" class="st5" width="31.3" height="31.3"/>
			<rect x="156.3" class="st5" width="31.3" height="31.3"/>
			<rect x="125" class="st5" width="31.3" height="31.3"/>
			<rect x="437.5" y="125" class="st5" width="31.3" height="31.3"/>
			<rect x="281.3" class="st5" width="31.3" height="31.3"/>
			<rect x="218.8" class="st5" width="31.3" height="31.3"/>
			<rect y="437.5" class="st5" width="31.3" height="31.3"/>
			<rect x="250" class="st5" width="31.3" height="31.3"/>
			<rect x="187.5" class="st5" width="31.3" height="31.3"/>
			<rect x="468.8" y="281.3" class="st5" width="31.3" height="31.3"/>
			<rect x="468.8" y="312.5" class="st5" width="31.3" height="31.3"/>
			<rect x="468.8" y="250" class="st5" width="31.3" height="31.3"/>
			<rect x="468.8" y="375" class="st5" width="31.3" height="31.3"/>
			<rect x="468.8" y="406.3" class="st5" width="31.3" height="31.3"/>
			<rect x="468.8" y="218.8" class="st5" width="31.3" height="31.3"/>
			<rect x="468.8" y="343.8" class="st5" width="31.3" height="31.3"/>
			<rect x="468.8" y="437.5" class="st5" width="31.3" height="31.3"/>
			<rect x="468.8" y="62.5" class="st5" width="31.3" height="31.3"/>
			<rect x="468.8" y="31.3" class="st5" width="31.3" height="31.3"/>
			<rect x="468.8" class="st5" width="31.3" height="31.3"/>
			<rect x="468.8" y="125" class="st5" width="31.3" height="31.3"/>
			<rect x="468.8" y="156.3" class="st5" width="31.3" height="31.3"/>
			<rect x="468.8" y="93.8" class="st5" width="31.3" height="31.3"/>
			<rect x="468.8" y="187.5" class="st5" width="31.3" height="31.3"/>
			<rect x="343.8" y="468.8" class="st5" width="31.3" height="31.3"/>
			<rect x="218.8" y="468.8" class="st5" width="31.3" height="31.3"/>
			<rect x="125" y="468.8" class="st5" width="31.3" height="31.3"/>
			<rect x="468.8" y="468.8" class="st5" width="31.3" height="31.3"/>
			<rect x="156.3" y="468.8" class="st5" width="31.3" height="31.3"/>
			<rect x="93.8" y="468.8" class="st5" width="31.3" height="31.3"/>
			<rect x="31.3" y="468.8" class="st5" width="31.3" height="31.3"/>
			<rect x="62.5" y="468.8" class="st5" width="31.3" height="31.3"/>
			<rect x="187.5" y="468.8" class="st5" width="31.3" height="31.3"/>
			<rect x="406.3" y="468.8" class="st5" width="31.3" height="31.3"/>
			<rect x="250" y="468.8" class="st5" width="31.3" height="31.3"/>
			<rect x="437.5" y="468.8" class="st5" width="31.3" height="31.3"/>
			<rect x="375" y="468.8" class="st5" width="31.3" height="31.3"/>
			<rect x="281.3" y="468.8" class="st5" width="31.3" height="31.3"/>
			<rect x="312.5" y="468.8" class="st5" width="31.3" height="31.3"/>
			<rect y="468.8" class="st5" width="31.3" height="31.3"/>
			<rect x="187.5" y="31.3" class="st5" width="31.3" height="31.3"/>
			<rect x="281.3" y="31.3" class="st5" width="31.3" height="31.3"/>
			<rect x="250" y="31.3" class="st5" width="31.3" height="31.3"/>
			<rect x="218.8" y="31.3" class="st5" width="31.3" height="31.3"/>
			<rect x="343.8" y="31.3" class="st5" width="31.3" height="31.3"/>
			<rect x="375" y="31.3" class="st5" width="31.3" height="31.3"/>
			<rect x="312.5" y="31.3" class="st5" width="31.3" height="31.3"/>
			<rect x="281.3" y="406.3" class="st5" width="31.3" height="31.3"/>
			<rect x="31.3" y="31.3" class="st5" width="31.3" height="31.3"/>
			<rect x="406.3" y="31.3" class="st5" width="31.3" height="31.3"/>
			<rect x="156.3" y="31.3" class="st5" width="31.3" height="31.3"/>
			<rect x="31.3" y="93.8" class="st5" width="31.3" height="31.3"/>
			<rect x="31.3" y="62.5" class="st5" width="31.3" height="31.3"/>
			<rect x="62.5" y="31.3" class="st5" width="31.3" height="31.3"/>
			<rect x="125" y="31.3" class="st5" width="31.3" height="31.3"/>
			<rect x="93.8" y="31.3" class="st5" width="31.3" height="31.3"/>
			<rect x="312.5" y="406.3" class="st5" width="31.3" height="31.3"/>
			<rect x="406.3" y="312.5" class="st5" width="31.3" height="31.3"/>
			<rect x="406.3" y="343.8" class="st5" width="31.3" height="31.3"/>
			<rect x="406.3" y="406.3" class="st5" width="31.3" height="31.3"/>
			<rect x="406.3" y="62.5" class="st5" width="31.3" height="31.3"/>
			<rect x="31.3" y="125" class="st5" width="31.3" height="31.3"/>
			<rect x="343.8" y="406.3" class="st5" width="31.3" height="31.3"/>
			<rect x="375" y="406.3" class="st5" width="31.3" height="31.3"/>
			<rect x="406.3" y="375" class="st5" width="31.3" height="31.3"/>
			<rect x="406.3" y="156.3" class="st5" width="31.3" height="31.3"/>
			<rect x="406.3" y="125" class="st5" width="31.3" height="31.3"/>
			<rect x="406.3" y="93.8" class="st5" width="31.3" height="31.3"/>
			<rect x="406.3" y="281.3" class="st5" width="31.3" height="31.3"/>
			<rect x="406.3" y="250" class="st5" width="31.3" height="31.3"/>
			<rect x="406.3" y="187.5" class="st5" width="31.3" height="31.3"/>
			<rect x="406.3" y="218.8" class="st5" width="31.3" height="31.3"/>
			<rect x="437.5" y="187.5" class="st5" width="31.3" height="31.3"/>
			<rect x="31.3" y="156.3" class="st5" width="31.3" height="31.3"/>
			<rect x="375" y="437.5" class="st5" width="31.3" height="31.3"/>
			<rect x="250" y="437.5" class="st5" width="31.3" height="31.3"/>
			<rect x="437.5" y="406.3" class="st5" width="31.3" height="31.3"/>
			<rect x="281.3" y="437.5" class="st5" width="31.3" height="31.3"/>
			<rect x="312.5" y="437.5" class="st5" width="31.3" height="31.3"/>
			<rect x="343.8" y="437.5" class="st5" width="31.3" height="31.3"/>
			<rect x="437.5" y="437.5" class="st5" width="31.3" height="31.3"/>
			<rect x="437.5" y="218.8" class="st5" width="31.3" height="31.3"/>
			<rect x="437.5" y="156.3" class="st5" width="31.3" height="31.3"/>
			<rect x="437.5" y="250" class="st5" width="31.3" height="31.3"/>
			<rect x="437.5" y="375" class="st5" width="31.3" height="31.3"/>
			<rect x="437.5" y="343.8" class="st5" width="31.3" height="31.3"/>
			<rect x="437.5" y="312.5" class="st5" width="31.3" height="31.3"/>
			<rect x="437.5" y="281.3" class="st5" width="31.3" height="31.3"/>
			<rect x="406.3" y="437.5" class="st5" width="31.3" height="31.3"/>
			<rect x="31.3" y="312.5" class="st5" width="31.3" height="31.3"/>
			<rect x="31.3" y="343.8" class="st5" width="31.3" height="31.3"/>
			<rect x="31.3" y="281.3" class="st5" width="31.3" height="31.3"/>
			<rect x="31.3" y="218.8" class="st5" width="31.3" height="31.3"/>
			<rect x="31.3" y="187.5" class="st5" width="31.3" height="31.3"/>
			<rect x="31.3" y="375" class="st5" width="31.3" height="31.3"/>
			<rect x="31.3" y="250" class="st5" width="31.3" height="31.3"/>
			<rect x="187.5" y="437.5" class="st5" width="31.3" height="31.3"/>
			<rect x="125" y="437.5" class="st5" width="31.3" height="31.3"/>
			<rect x="156.3" y="437.5" class="st5" width="31.3" height="31.3"/>
			<rect x="218.8" y="437.5" class="st5" width="31.3" height="31.3"/>
			<rect x="93.8" y="437.5" class="st5" width="31.3" height="31.3"/>
			<rect x="31.3" y="406.3" class="st5" width="31.3" height="31.3"/>
			<rect x="31.3" y="437.5" class="st5" width="31.3" height="31.3"/>
			<rect x="62.5" y="437.5" class="st5" width="31.3" height="31.3"/>
		</g>
		<g>
			<rect class="st6" width="500" height="500"/>
			<rect class="st6" width="62.5" height="62.5"/>
			<rect x="437.5" class="st6" width="62.5" height="62.5"/>
			<rect y="437.5" class="st6" width="62.5" height="62.5"/>
			<rect x="437.5" y="437.5" class="st6" width="62.5" height="62.5"/>
			<rect x="62.5" y="62.5" class="st6" width="187.5" height="187.5"/>
			<rect x="250" y="62.5" class="st6" width="187.5" height="187.5"/>
			<rect x="62.5" y="250" class="st6" width="187.5" height="187.5"/>
			<rect x="250" y="250" class="st6" width="187.5" height="187.5"/>
			<line class="st6" x1="0" y1="0" x2="500" y2="500"/>
			<line class="st6" x1="500" y1="0" x2="0" y2="500"/>
			<circle class="st6" cx="250" cy="250" r="187.5"/>
			<circle class="st6" cx="250" cy="250" r="250"/>
		</g>
		<polygon class="st6" points="62.5,0 437.6,-11.2 437.6,488.8 62.5,500 		"/>
	</g>
</g>
<g>
	<path class="st7" d="M31.3,312.6c3.3,4.8,6.5,9.5,10,14c0.9,1.1,1.8,2.2,2.6,3.3c0.9,1.1,1.8,2.2,2.7,3.2c0.9,1.1,1.8,2.1,2.7,3.2
		l2.8,3.1c7.6,8.1,15.7,15.3,24.4,21.4c17.4,12.4,36.8,20.6,56.7,24.7c5,1,10,1.8,15.1,2.3c5.1,0.5,10.1,0.8,15.2,0.9
		c1.3,0,2.5,0,3.8,0c1.3,0,2.5,0,3.8-0.1l3.8-0.2c1.3-0.1,2.3-0.2,3.5-0.2c4.6-0.4,9.1-1.2,13.5-2.4c8.8-2.3,17.2-6.2,25.2-11.4
		c8.1-5.2,15.8-11.6,23.2-18.8c3.7-3.6,7.4-7.4,11-11.3c3.6-3.9,7.2-8,10.7-12.2c3.6-4.2,7.1-8.4,10.7-12.8l10.9-13.2
		c7.4-8.8,15.1-17.9,24.1-26.6c4.5-4.3,9.3-8.6,14.7-12.6c5.4-4,11.3-7.5,17.7-10.3c6.3-2.9,13.2-4.9,20.2-6c3.5-0.5,7-0.8,10.5-0.9
		c3.5,0,7,0.2,10.4,0.6c6.8,0.9,13.3,2.6,19.4,5c6.1,2.4,11.7,5.3,17,8.5c5.3,3.3,10.2,6.9,14.8,10.6c4.6,3.8,9,7.8,13.2,11.9
		c8.3,8.2,15.9,17,23.1,26.1c-5.2-2.7-10.2-5.6-15.2-8.3c-2.5-1.4-5-2.8-7.5-4.2c-2.5-1.4-5-2.7-7.5-4.1c-5-2.6-9.9-5.2-15-7.4
		c-5-2.3-10-4.3-15-6c-9.9-3.4-19.8-5.2-28.9-4.7c-9.1,0.5-17.3,3.3-24.8,7.9c-7.6,4.7-14.4,11-21.2,18.8c-3.4,3.9-6.8,8-10.1,12.2
		c-3.4,4.2-6.7,8.7-10.1,13.1c-13.5,17.9-27.5,37-45.4,54.3c-4.5,4.3-9.2,8.5-14.2,12.5c-5,4-10.3,7.7-15.9,11.2
		c-5.6,3.4-11.6,6.5-17.9,9.1c-6.3,2.6-12.8,4.6-19.5,6c-6.7,1.4-13.5,2.2-20.3,2.4l-2.5,0c-0.8,0-1.7,0-2.5,0l-4.7-0.2
		c-1.6,0-3.1-0.2-4.7-0.3c-1.6-0.1-3.1-0.2-4.7-0.4c-6.3-0.6-12.5-1.7-18.7-3c-6.2-1.4-12.2-3.1-18.2-5.1
		c-5.9-2.1-11.8-4.5-17.4-7.3c-5.6-2.8-11.1-5.9-16.3-9.3c-5.2-3.5-10.2-7.2-14.9-11.2c-4.7-4.1-9.1-8.4-13.1-12.9
		c-4.1-4.6-7.8-9.4-11.2-14.4c-1.7-2.5-3.3-5.1-4.8-7.7l-1.1-1.9l-1.1-2c-0.7-1.3-1.4-2.6-2.1-4c-1.3-2.7-2.6-5.4-3.7-8.1
		c-0.6-1.4-1.1-2.7-1.6-4.1c-0.5-1.4-1-2.8-1.5-4.1C33.9,324,32.3,318.3,31.3,312.6z"/>
</g>
<path class="st7" d="M250,312.6c0,0,15.6-78.2-56.9-80c-53.6-1.3-66.1-82.8-4.7-117.3c39.2-22,101.1,5.9,101.2,73.9
	C289.7,261,250,312.6,250,312.6z"/>
<g>
	<path class="st7" d="M125,437.6c15.6,4.2,31.1,6.7,46.6,7.9c3.9,0.2,7.7,0.5,11.6,0.6c1.9,0.1,3.8,0.1,5.8,0.1c1.9,0,3.8,0,5.7,0
		c7.6-0.2,15.2-0.6,22.6-1.5c7.4-0.9,14.7-2.3,21.7-4.1c7-1.8,13.8-4.2,20.2-7.1c6.5-2.9,12.8-6.4,18.8-10.3c6-3.9,11.8-8.3,17.3-13
		c5.5-4.8,10.8-9.9,15.8-15.3c5-5.4,9.9-11.2,14.7-17.1c4.7-6,9.4-12.1,14.1-18.4c2.3-3.2,4.7-6.4,7.2-9.6c2.5-3.2,5-6.5,7.8-9.8
		l2.2-2.5l2.3-2.5c1.6-1.6,3.1-3.1,4.8-4.6c3.4-3,7-5.9,11.2-8.5c4.2-2.5,8.8-4.7,13.8-5.9c2.5-0.6,5-1,7.5-1.2
		c2.5-0.1,5-0.2,7.4,0.1c4.8,0.5,9.2,1.5,13.3,2.9c1,0.4,2.1,0.7,3.1,1.1c1,0.4,2,0.8,3,1.2c1,0.4,1.9,0.8,2.9,1.3
		c1,0.4,1.9,0.9,2.8,1.4c7.4,3.7,14.4,8,21.1,12.8c-8.2-0.8-16.2-2.1-24-3c-7.8-0.8-15.4-1.4-21.8-0.1c-1.6,0.3-3.1,0.7-4.5,1.1
		c-1.4,0.5-2.7,1.1-4,1.8c-2.5,1.3-4.9,3.1-7.2,5.2c-2.3,2.1-4.5,4.6-6.7,7.3l-1.6,2.1l-1.6,2.1l-1.5,2.1l-1.5,2.2
		c-4.2,6-8.3,12.7-12.7,19.4c-4.4,6.7-9,13.5-14,20.2c-5,6.7-10.3,13.2-16,19.5c-5.7,6.3-11.9,12.2-18.5,17.8
		c-6.6,5.5-13.7,10.6-21.2,15.1c-7.5,4.4-15.4,8.2-23.7,11.3c-16.8,6.1-34.3,8.4-51.2,8c-17-0.4-33.6-3.3-49.3-8.2
		c-3.9-1.3-7.8-2.6-11.7-4.1c-1.9-0.7-3.8-1.5-5.7-2.3c-1.9-0.8-3.7-1.7-5.6-2.6C138.6,446.7,131.4,442.5,125,437.6z"/>
</g>
<path class="st8" d="M71.3,75.2c5,6.5,10.9,12.8,17.7,18.6c43,36,36,25.2,51.7,31.5c10.7,4.3,62.5-37.3,62.5-37.3
	s6.3-25.1-15.5-56.7c-4.2-6.1-9.7-12.4-15.9-18.8C133.3,25.2,98.9,47,71.3,75.2z"/>
</svg>
