<?xml version="1.0" encoding="utf-8"?>
<!-- Generator: Adobe Illustrator 22.1.0, SVG Export Plug-In . SVG Version: 6.00 Build 0)  -->
<svg version="1.1" id="Layer_1" xmlns="http://www.w3.org/2000/svg" xmlns:xlink="http://www.w3.org/1999/xlink" x="0px" y="0px"
	 viewBox="0 0 512 512" style="enable-background:new 0 0 512 512;" xml:space="preserve">
<style type="text/css">
	.st0{fill:#FFFFFF;}
	.st1{fill:#010101;}
</style>
<g>
	<path class="st0" d="M323,164c-0.3-0.1-0.5-0.1-0.8-0.2l-1.5-0.2l-97.8-10.3c62-61.1,149.8-82,229.4-61.6
		c-3.9-4.6-7.9-9.1-12.1-13.5c-18.6-3.6-37.6-5.1-57-4.4c-66.3,2.3-127.8,30-173.4,78.1c-0.2,0.2-0.4,0.4-0.6,0.6l-0.9,1.2
		l-57.8,79.5C128.7,149,154.5,62.5,212.1,3.8c-6,1-12,2.3-17.9,3.8c-12.4,14.3-23.3,30.1-32.4,47.2
		c-31.2,58.6-37.9,125.8-19.1,189.3c0,0.1,0.1,0.3,0.1,0.4l0.8,1.7l40,89.8c-84-23.1-146-88.7-168.1-168c-2.1,5.7-3.9,11.4-5.6,17.3
		c6.2,17.9,14.4,35.2,24.7,51.7C69.8,293.2,124.6,332.6,189,348c0.3,0.1,0.5,0.1,0.8,0.2l1.5,0.2l97.8,10.3
		c-43.1,42.6-99.8,67-160.7,69.2c-23.4,0.8-46.5-1.7-68.6-7.4c3.8,4.6,7.8,9,12,13.3c15.7,3,31.7,4.6,48,4.6c3,0,6-0.1,9-0.2
		c66.3-2.3,127.8-30,173.4-78.1c0.2-0.2,0.4-0.4,0.6-0.6l0.9-1.2l57.8-79.6c15.3,58.6,8.2,119.9-20.4,173.7
		c-11,20.7-24.8,39.4-40.7,55.8c5.9-1,11.7-2.3,17.5-3.7c12.4-14.3,23.3-30.1,32.4-47.2c31.1-58.6,37.9-125.7,19.1-189.3
		c-0.1-0.3-0.2-0.5-0.2-0.8l-0.6-1.4l-40-89.8c58.4,16.1,107.9,52.9,140.3,104.5c12.5,19.9,21.8,41.2,27.9,63.2
		c2-5.6,3.9-11.2,5.5-17c-6.2-17.9-14.4-35.2-24.7-51.7C442.2,218.8,387.4,179.4,323,164z"/>
	<path class="st1" d="M150.6,233.3l57.8-79.5l0.9-1.2c0.2-0.2,0.4-0.4,0.6-0.6c45.6-48.1,107.1-75.8,173.4-78.1
		c19.4-0.7,38.4,0.8,57,4.4C393.7,30,328.3,0,256,0c-15,0-29.6,1.3-43.9,3.8C154.5,62.5,128.7,149,150.6,233.3z"/>
	<path class="st1" d="M183.6,336l-40-89.8l-0.8-1.7c0-0.1-0.1-0.3-0.1-0.4c-18.8-63.6-12.1-130.7,19.1-189.3
		c9.1-17.1,20-32.9,32.4-47.2C111.4,28.1,44.5,88.9,15.5,168C37.6,247.2,99.7,312.9,183.6,336z"/>
	<path class="st1" d="M128.4,427.8c60.9-2.1,117.6-26.6,160.7-69.2l-97.8-10.3l-1.5-0.2c-0.3-0.1-0.5-0.1-0.8-0.2
		c-64.4-15.5-119.2-54.8-154.4-111.1c-10.3-16.4-18.5-33.8-24.7-51.7C3.5,207.7,0,231.5,0,256c0,62.6,22.5,119.9,59.8,164.4
		C81.9,426.1,105,428.6,128.4,427.8z"/>
	<path class="st1" d="M452.4,91.8c-79.6-20.5-167.5,0.5-229.4,61.6l97.8,10.3l1.5,0.2c0.3,0.1,0.5,0.1,0.8,0.2
		c64.4,15.5,119.2,54.9,154.4,111.1c10.3,16.4,18.5,33.8,24.7,51.7c6.5-22.5,9.9-46.2,9.9-70.8C512,193.5,489.6,136.2,452.4,91.8z"
		/>
	<path class="st1" d="M328.4,176l40,89.8l0.6,1.4c0.1,0.3,0.2,0.5,0.2,0.8c18.8,63.5,12.1,130.7-19.1,189.3
		c-9.1,17.1-20,32.9-32.4,47.2c82.9-20.5,149.9-81.5,178.8-160.7c-6.2-22-15.5-43.3-27.9-63.2C436.3,228.9,386.8,192.1,328.4,176z"
		/>
	<path class="st1" d="M361.4,278.7l-57.8,79.6l-0.9,1.2c-0.2,0.2-0.4,0.4-0.6,0.6c-45.6,48.1-107.1,75.8-173.4,78.1
		c-3,0.1-6,0.2-9,0.2c-16.3,0-32.3-1.6-48-4.6C118.3,482,183.6,512,256,512c15.1,0,29.9-1.3,44.3-3.8c16-16.3,29.7-35,40.7-55.8
		C369.6,398.6,376.7,337.3,361.4,278.7z"/>
	<path d="M315.4,174.2l-100.5-10.6l-59.4,81.8l41.1,92.4l100.5,10.6l59.4-81.8L315.4,174.2z M260.5,256.5l51.4-70.8l35.6,79.9
		l-51.4,70.8L260.5,256.5z M218.6,171.9l87,9.1l-51.4,70.8l-87-9.1L218.6,171.9z M166.3,250.5l87,9.1l35.6,79.9l-87-9.1L166.3,250.5
		z"/>
</g>
</svg>
