<?xml version="1.0" encoding="utf-8"?>
<!-- Generator: Adobe Illustrator 22.1.0, SVG Export Plug-In . SVG Version: 6.00 Build 0)  -->
<svg version="1.1" id="Layer_1" xmlns="http://www.w3.org/2000/svg" xmlns:xlink="http://www.w3.org/1999/xlink" x="0px" y="0px"
	 viewBox="0 0 500 500" style="enable-background:new 0 0 500 500;" xml:space="preserve">
<style type="text/css">
	.st0{display:none;opacity:0.5;fill:url(#SVGID_1_);enable-background:new    ;}
	.st1{display:none;opacity:0.5;fill:url(#SVGID_2_);enable-background:new    ;}
	.st2{fill:#FF6600;}
	.st3{fill:#CC5200;}
	.st4{display:none;}
	.st5{display:inline;opacity:0.5;}
	.st6{fill:none;stroke:#EDEDED;stroke-width:0.5;stroke-miterlimit:10;}
	.st7{display:inline;}
	.st8{fill:none;stroke:#BDBDBD;stroke-miterlimit:10;}
</style>
<g id="Layer_2_1_">
	
		<linearGradient id="SVGID_1_" gradientUnits="userSpaceOnUse" x1="443.9214" y1="800.0851" x2="337.4459" y2="615.6641" gradientTransform="matrix(1 0 0 1 0 -290)">
		<stop  offset="0" style="stop-color:#BFBFBF"/>
		<stop  offset="1" style="stop-color:#231F20"/>
	</linearGradient>
	<path class="st0" d="M253.5,499.7h58.9H448c28.6,0,51.7-23.1,51.7-51.7V281.2L468.5,250L250,499.7"/>
	
		<linearGradient id="SVGID_2_" gradientUnits="userSpaceOnUse" x1="499.7" y1="430.75" x2="343.6" y2="430.75" gradientTransform="matrix(1 0 0 1 0 -290)">
		<stop  offset="0" style="stop-color:#B7BFBF"/>
		<stop  offset="1" style="stop-color:#231F20"/>
	</linearGradient>
	<polyline class="st1" points="468.5,250 499.7,281.2 499.7,281.2 499.7,156.4 343.6,0.3 343.6,250 	"/>
	<g>
		<g>
			<polygon class="st2" points="343.6,250 343.6,0.3 156.4,0.3 156.4,250 31.5,250 250,499.7 468.5,250 			"/>
		</g>
	</g>
	<g>
		<g>
			<polygon class="st3" points="343.6,250 343.6,0.3 250,0.3 250,250 250,250 250,499.7 468.5,250 			"/>
		</g>
	</g>
</g>
<g id="Layer_4" class="st4">
</g>
<g id="Layer_3" class="st4">
</g>
<g id="Layer_1_1_" class="st4">
	<g class="st5">
		<rect x="250" y="374.8" class="st6" width="31.2" height="31.2"/>
		<rect x="156.4" y="374.8" class="st6" width="31.2" height="31.2"/>
		<rect x="218.8" y="374.8" class="st6" width="31.2" height="31.2"/>
		<rect x="187.6" y="374.8" class="st6" width="31.2" height="31.2"/>
		<rect x="94" y="343.6" class="st6" width="31.2" height="31.2"/>
		<rect x="94" y="374.8" class="st6" width="31.2" height="31.2"/>
		<rect x="125.2" y="374.8" class="st6" width="31.2" height="31.2"/>
		<rect x="281.2" y="374.8" class="st6" width="31.2" height="31.2"/>
		<rect x="374.8" y="312.4" class="st6" width="31.2" height="31.2"/>
		<rect x="94" y="312.4" class="st6" width="31.2" height="31.2"/>
		<rect x="374.8" y="343.6" class="st6" width="31.2" height="31.2"/>
		<rect x="374.8" y="281.2" class="st6" width="31.2" height="31.2"/>
		<rect x="312.4" y="374.8" class="st6" width="31.2" height="31.2"/>
		<rect x="374.8" y="374.8" class="st6" width="31.2" height="31.2"/>
		<rect x="374.8" y="250" class="st6" width="31.2" height="31.2"/>
		<rect x="343.6" y="374.8" class="st6" width="31.2" height="31.2"/>
		<rect x="250" y="94" class="st6" width="31.2" height="31.2"/>
		<rect x="218.8" y="94" class="st6" width="31.2" height="31.2"/>
		<rect x="187.6" y="94" class="st6" width="31.2" height="31.2"/>
		<rect x="312.4" y="94" class="st6" width="31.2" height="31.2"/>
		<rect x="343.6" y="94" class="st6" width="31.2" height="31.2"/>
		<rect x="156.4" y="94" class="st6" width="31.2" height="31.2"/>
		<rect x="281.2" y="94" class="st6" width="31.2" height="31.2"/>
		<rect x="94" y="156.4" class="st6" width="31.2" height="31.2"/>
		<rect x="94" y="187.6" class="st6" width="31.2" height="31.2"/>
		<rect x="94" y="218.8" class="st6" width="31.2" height="31.2"/>
		<rect x="94" y="250" class="st6" width="31.2" height="31.2"/>
		<rect x="94" y="281.2" class="st6" width="31.2" height="31.2"/>
		<rect x="125.2" y="94" class="st6" width="31.2" height="31.2"/>
		<rect x="94" y="94" class="st6" width="31.2" height="31.2"/>
		<rect x="94" y="125.2" class="st6" width="31.2" height="31.2"/>
		<rect x="374.8" y="125.2" class="st6" width="31.2" height="31.2"/>
		<rect x="62.8" y="281.2" class="st6" width="31.2" height="31.2"/>
		<rect x="62.8" y="312.4" class="st6" width="31.2" height="31.2"/>
		<rect x="62.8" y="250" class="st6" width="31.2" height="31.2"/>
		<rect x="62.8" y="156.4" class="st6" width="31.2" height="31.2"/>
		<rect x="62.8" y="125.2" class="st6" width="31.2" height="31.2"/>
		<rect x="62.8" y="187.6" class="st6" width="31.2" height="31.2"/>
		<rect x="62.8" y="218.8" class="st6" width="31.2" height="31.2"/>
		<rect x="62.8" y="343.6" class="st6" width="31.2" height="31.2"/>
		<rect x="187.6" y="406" class="st6" width="31.2" height="31.2"/>
		<rect x="218.8" y="406" class="st6" width="31.2" height="31.2"/>
		<rect x="156.4" y="406" class="st6" width="31.2" height="31.2"/>
		<rect x="125.2" y="406" class="st6" width="31.2" height="31.2"/>
		<rect x="62.8" y="406" class="st6" width="31.2" height="31.2"/>
		<rect x="94" y="406" class="st6" width="31.2" height="31.2"/>
		<rect x="62.8" y="374.8" class="st6" width="31.2" height="31.2"/>
		<rect x="62.8" y="94" class="st6" width="31.2" height="31.2"/>
		<rect x="374.8" y="62.8" class="st6" width="31.2" height="31.2"/>
		<rect x="312.4" y="62.8" class="st6" width="31.2" height="31.2"/>
		<rect x="281.2" y="62.8" class="st6" width="31.2" height="31.2"/>
		<rect x="374.8" y="94" class="st6" width="31.2" height="31.2"/>
		<rect x="343.6" y="125.2" class="st6" width="31.2" height="31.2"/>
		<rect x="374.8" y="187.6" class="st6" width="31.2" height="31.2"/>
		<rect x="374.8" y="156.4" class="st6" width="31.2" height="31.2"/>
		<rect x="62.8" y="62.8" class="st6" width="31.2" height="31.2"/>
		<rect x="94" y="62.8" class="st6" width="31.2" height="31.2"/>
		<rect x="374.8" y="218.8" class="st6" width="31.2" height="31.2"/>
		<rect x="125.2" y="62.8" class="st6" width="31.2" height="31.2"/>
		<rect x="250" y="62.8" class="st6" width="31.2" height="31.2"/>
		<rect x="218.8" y="62.8" class="st6" width="31.2" height="31.2"/>
		<rect x="187.6" y="62.8" class="st6" width="31.2" height="31.2"/>
		<rect x="156.4" y="62.8" class="st6" width="31.2" height="31.2"/>
		<rect x="281.2" y="156.4" class="st6" width="31.2" height="31.2"/>
		<rect x="156.4" y="156.4" class="st6" width="31.2" height="31.2"/>
		<rect x="156.4" y="218.8" class="st6" width="31.2" height="31.2"/>
		<rect x="156.4" y="187.6" class="st6" width="31.2" height="31.2"/>
		<rect x="187.6" y="156.4" class="st6" width="31.2" height="31.2"/>
		<rect x="250" y="406" class="st6" width="31.2" height="31.2"/>
		<rect x="250" y="156.4" class="st6" width="31.2" height="31.2"/>
		<rect x="281.2" y="187.6" class="st6" width="31.2" height="31.2"/>
		<rect x="218.8" y="156.4" class="st6" width="31.2" height="31.2"/>
		<rect x="250" y="312.4" class="st6" width="31.2" height="31.2"/>
		<rect x="312.4" y="312.4" class="st6" width="31.2" height="31.2"/>
		<rect x="281.2" y="312.4" class="st6" width="31.2" height="31.2"/>
		<rect x="218.8" y="312.4" class="st6" width="31.2" height="31.2"/>
		<rect x="156.4" y="281.2" class="st6" width="31.2" height="31.2"/>
		<rect x="156.4" y="312.4" class="st6" width="31.2" height="31.2"/>
		<rect x="187.6" y="312.4" class="st6" width="31.2" height="31.2"/>
		<rect x="156.4" y="250" class="st6" width="31.2" height="31.2"/>
		<rect x="187.6" y="187.6" class="st6" width="31.2" height="31.2"/>
		<rect x="218.8" y="187.6" class="st6" width="31.2" height="31.2"/>
		<rect x="250" y="218.8" class="st6" width="31.2" height="31.2"/>
		<rect x="250" y="187.6" class="st6" width="31.2" height="31.2"/>
		<rect x="281.2" y="218.8" class="st6" width="31.2" height="31.2"/>
		<rect x="218.8" y="250" class="st6" width="31.2" height="31.2"/>
		<rect x="250" y="250" class="st6" width="31.2" height="31.2"/>
		<rect x="218.8" y="218.8" class="st6" width="31.2" height="31.2"/>
		<rect x="281.2" y="281.2" class="st6" width="31.2" height="31.2"/>
		<rect x="250" y="281.2" class="st6" width="31.2" height="31.2"/>
		<rect x="281.2" y="250" class="st6" width="31.2" height="31.2"/>
		<rect x="187.6" y="218.8" class="st6" width="31.2" height="31.2"/>
		<rect x="187.6" y="250" class="st6" width="31.2" height="31.2"/>
		<rect x="187.6" y="281.2" class="st6" width="31.2" height="31.2"/>
		<rect x="218.8" y="281.2" class="st6" width="31.2" height="31.2"/>
		<rect x="343.6" y="156.4" class="st6" width="31.2" height="31.2"/>
		<rect x="218.8" y="343.6" class="st6" width="31.2" height="31.2"/>
		<rect x="187.6" y="343.6" class="st6" width="31.2" height="31.2"/>
		<rect x="250" y="343.6" class="st6" width="31.2" height="31.2"/>
		<rect x="156.4" y="343.6" class="st6" width="31.2" height="31.2"/>
		<rect x="125.2" y="312.4" class="st6" width="31.2" height="31.2"/>
		<rect x="125.2" y="343.6" class="st6" width="31.2" height="31.2"/>
		<rect x="281.2" y="343.6" class="st6" width="31.2" height="31.2"/>
		<rect x="343.6" y="312.4" class="st6" width="31.2" height="31.2"/>
		<rect x="343.6" y="250" class="st6" width="31.2" height="31.2"/>
		<rect x="343.6" y="218.8" class="st6" width="31.2" height="31.2"/>
		<rect x="312.4" y="343.6" class="st6" width="31.2" height="31.2"/>
		<rect x="343.6" y="187.6" class="st6" width="31.2" height="31.2"/>
		<rect x="343.6" y="343.6" class="st6" width="31.2" height="31.2"/>
		<rect x="125.2" y="281.2" class="st6" width="31.2" height="31.2"/>
		<rect x="343.6" y="281.2" class="st6" width="31.2" height="31.2"/>
		<rect x="312.4" y="218.8" class="st6" width="31.2" height="31.2"/>
		<rect x="125.2" y="250" class="st6" width="31.2" height="31.2"/>
		<rect x="281.2" y="125.2" class="st6" width="31.2" height="31.2"/>
		<rect x="312.4" y="156.4" class="st6" width="31.2" height="31.2"/>
		<rect x="312.4" y="187.6" class="st6" width="31.2" height="31.2"/>
		<rect x="312.4" y="250" class="st6" width="31.2" height="31.2"/>
		<rect x="312.4" y="281.2" class="st6" width="31.2" height="31.2"/>
		<rect x="250" y="125.2" class="st6" width="31.2" height="31.2"/>
		<rect x="312.4" y="125.2" class="st6" width="31.2" height="31.2"/>
		<rect x="125.2" y="187.6" class="st6" width="31.2" height="31.2"/>
		<rect x="125.2" y="218.8" class="st6" width="31.2" height="31.2"/>
		<rect x="125.2" y="156.4" class="st6" width="31.2" height="31.2"/>
		<rect x="156.4" y="125.2" class="st6" width="31.2" height="31.2"/>
		<rect x="187.6" y="125.2" class="st6" width="31.2" height="31.2"/>
		<rect x="125.2" y="125.2" class="st6" width="31.2" height="31.2"/>
		<rect x="218.8" y="125.2" class="st6" width="31.2" height="31.2"/>
		<rect x="343.6" y="62.8" class="st6" width="31.2" height="31.2"/>
		<rect x="0.3" y="94" class="st6" width="31.2" height="31.2"/>
		<rect x="0.3" y="125.2" class="st6" width="31.2" height="31.2"/>
		<rect x="0.3" y="62.8" class="st6" width="31.2" height="31.2"/>
		<rect x="0.3" y="156.4" class="st6" width="31.2" height="31.2"/>
		<rect x="0.3" y="0.3" class="st6" width="31.2" height="31.2"/>
		<rect x="31.5" y="0.3" class="st6" width="31.2" height="31.2"/>
		<rect x="0.3" y="187.6" class="st6" width="31.2" height="31.2"/>
		<rect x="0.3" y="31.5" class="st6" width="31.2" height="31.2"/>
		<rect x="0.3" y="343.6" class="st6" width="31.2" height="31.2"/>
		<rect x="62.8" y="0.3" class="st6" width="31.2" height="31.2"/>
		<rect x="0.3" y="374.8" class="st6" width="31.2" height="31.2"/>
		<rect x="0.3" y="218.8" class="st6" width="31.2" height="31.2"/>
		<rect x="0.3" y="406" class="st6" width="31.2" height="31.2"/>
		<rect x="0.3" y="250" class="st6" width="31.2" height="31.2"/>
		<rect x="0.3" y="312.4" class="st6" width="31.2" height="31.2"/>
		<rect x="0.3" y="281.2" class="st6" width="31.2" height="31.2"/>
		<rect x="312.4" y="0.3" class="st6" width="31.2" height="31.2"/>
		<rect x="406" y="0.3" class="st6" width="31.2" height="31.2"/>
		<rect x="374.8" y="0.3" class="st6" width="31.2" height="31.2"/>
		<rect x="437.3" y="0.3" class="st6" width="31.2" height="31.2"/>
		<rect x="437.3" y="31.5" class="st6" width="31.2" height="31.2"/>
		<rect x="437.3" y="94" class="st6" width="31.2" height="31.2"/>
		<rect x="437.3" y="62.8" class="st6" width="31.2" height="31.2"/>
		<rect x="94" y="0.3" class="st6" width="31.2" height="31.2"/>
		<rect x="343.6" y="0.3" class="st6" width="31.2" height="31.2"/>
		<rect x="156.4" y="0.3" class="st6" width="31.2" height="31.2"/>
		<rect x="125.2" y="0.3" class="st6" width="31.2" height="31.2"/>
		<rect x="437.3" y="125.2" class="st6" width="31.2" height="31.2"/>
		<rect x="281.2" y="0.3" class="st6" width="31.2" height="31.2"/>
		<rect x="218.8" y="0.3" class="st6" width="31.2" height="31.2"/>
		<rect x="0.3" y="437.3" class="st6" width="31.2" height="31.2"/>
		<rect x="250" y="0.3" class="st6" width="31.2" height="31.2"/>
		<rect x="187.6" y="0.3" class="st6" width="31.2" height="31.2"/>
		<rect x="468.5" y="281.2" class="st6" width="31.2" height="31.2"/>
		<polyline class="st6" points="468.5,312.4 468.5,343.6 499.7,343.6 		"/>
		<rect x="468.5" y="250" class="st6" width="31.2" height="31.2"/>
		<rect x="468.5" y="374.8" class="st6" width="31.2" height="31.2"/>
		<rect x="468.5" y="406" class="st6" width="31.2" height="31.2"/>
		<rect x="468.5" y="218.8" class="st6" width="31.2" height="31.2"/>
		<rect x="468.5" y="343.6" class="st6" width="31.2" height="31.2"/>
		<rect x="468.5" y="437.3" class="st6" width="31.2" height="31.2"/>
		<rect x="468.5" y="62.8" class="st6" width="31.2" height="31.2"/>
		<rect x="468.5" y="31.5" class="st6" width="31.2" height="31.2"/>
		<rect x="468.5" y="0.3" class="st6" width="31.2" height="31.2"/>
		<rect x="468.5" y="125.2" class="st6" width="31.2" height="31.2"/>
		<rect x="468.5" y="156.4" class="st6" width="31.2" height="31.2"/>
		<rect x="468.5" y="94" class="st6" width="31.2" height="31.2"/>
		<rect x="468.5" y="187.6" class="st6" width="31.2" height="31.2"/>
		<rect x="343.6" y="468.5" class="st6" width="31.2" height="31.2"/>
		<rect x="218.8" y="468.5" class="st6" width="31.2" height="31.2"/>
		<rect x="125.2" y="468.5" class="st6" width="31.2" height="31.2"/>
		<rect x="468.5" y="468.5" class="st6" width="31.2" height="31.2"/>
		<rect x="156.4" y="468.5" class="st6" width="31.2" height="31.2"/>
		<rect x="94" y="468.5" class="st6" width="31.2" height="31.2"/>
		<rect x="31.5" y="468.5" class="st6" width="31.2" height="31.2"/>
		<rect x="62.8" y="468.5" class="st6" width="31.2" height="31.2"/>
		<rect x="187.6" y="468.5" class="st6" width="31.2" height="31.2"/>
		<rect x="406" y="468.5" class="st6" width="31.2" height="31.2"/>
		<rect x="250" y="468.5" class="st6" width="31.2" height="31.2"/>
		<rect x="437.3" y="468.5" class="st6" width="31.2" height="31.2"/>
		<rect x="374.8" y="468.5" class="st6" width="31.2" height="31.2"/>
		<rect x="281.2" y="468.5" class="st6" width="31.2" height="31.2"/>
		<rect x="312.4" y="468.5" class="st6" width="31.2" height="31.2"/>
		<rect x="0.3" y="468.5" class="st6" width="31.2" height="31.2"/>
		<rect x="187.6" y="31.5" class="st6" width="31.2" height="31.2"/>
		<rect x="281.2" y="31.5" class="st6" width="31.2" height="31.2"/>
		<rect x="250" y="31.5" class="st6" width="31.2" height="31.2"/>
		<rect x="218.8" y="31.5" class="st6" width="31.2" height="31.2"/>
		<rect x="343.6" y="31.5" class="st6" width="31.2" height="31.2"/>
		<rect x="374.8" y="31.5" class="st6" width="31.2" height="31.2"/>
		<rect x="312.4" y="31.5" class="st6" width="31.2" height="31.2"/>
		<rect x="281.2" y="406" class="st6" width="31.2" height="31.2"/>
		<rect x="31.5" y="31.5" class="st6" width="31.2" height="31.2"/>
		<rect x="406" y="31.5" class="st6" width="31.2" height="31.2"/>
		<rect x="156.4" y="31.5" class="st6" width="31.2" height="31.2"/>
		<rect x="31.5" y="94" class="st6" width="31.2" height="31.2"/>
		<rect x="31.5" y="62.8" class="st6" width="31.2" height="31.2"/>
		<rect x="62.8" y="31.5" class="st6" width="31.2" height="31.2"/>
		<rect x="125.2" y="31.5" class="st6" width="31.2" height="31.2"/>
		<rect x="94" y="31.5" class="st6" width="31.2" height="31.2"/>
		<rect x="312.4" y="406" class="st6" width="31.2" height="31.2"/>
		<rect x="406" y="312.4" class="st6" width="31.2" height="31.2"/>
		<rect x="406" y="343.6" class="st6" width="31.2" height="31.2"/>
		<rect x="406" y="406" class="st6" width="31.2" height="31.2"/>
		<rect x="406" y="62.8" class="st6" width="31.2" height="31.2"/>
		<rect x="31.5" y="125.2" class="st6" width="31.2" height="31.2"/>
		<rect x="343.6" y="406" class="st6" width="31.2" height="31.2"/>
		<rect x="374.8" y="406" class="st6" width="31.2" height="31.2"/>
		<rect x="406" y="374.8" class="st6" width="31.2" height="31.2"/>
		<rect x="406" y="156.4" class="st6" width="31.2" height="31.2"/>
		<rect x="406" y="125.2" class="st6" width="31.2" height="31.2"/>
		<rect x="406" y="94" class="st6" width="31.2" height="31.2"/>
		<rect x="406" y="281.2" class="st6" width="31.2" height="31.2"/>
		<rect x="406" y="250" class="st6" width="31.2" height="31.2"/>
		<rect x="406" y="187.6" class="st6" width="31.2" height="31.2"/>
		<rect x="406" y="218.8" class="st6" width="31.2" height="31.2"/>
		<rect x="437.3" y="187.6" class="st6" width="31.2" height="31.2"/>
		<rect x="31.5" y="156.4" class="st6" width="31.2" height="31.2"/>
		<rect x="374.8" y="437.3" class="st6" width="31.2" height="31.2"/>
		<rect x="250" y="437.3" class="st6" width="31.2" height="31.2"/>
		<rect x="437.3" y="406" class="st6" width="31.2" height="31.2"/>
		<rect x="281.2" y="437.3" class="st6" width="31.2" height="31.2"/>
		<rect x="312.4" y="437.3" class="st6" width="31.2" height="31.2"/>
		<rect x="343.6" y="437.3" class="st6" width="31.2" height="31.2"/>
		<rect x="437.3" y="437.3" class="st6" width="31.2" height="31.2"/>
		<rect x="437.3" y="218.8" class="st6" width="31.2" height="31.2"/>
		<rect x="437.3" y="156.4" class="st6" width="31.2" height="31.2"/>
		<rect x="437.3" y="250" class="st6" width="31.2" height="31.2"/>
		<rect x="437.3" y="374.8" class="st6" width="31.2" height="31.2"/>
		<rect x="437.3" y="343.6" class="st6" width="31.2" height="31.2"/>
		<rect x="437.3" y="312.4" class="st6" width="31.2" height="31.2"/>
		<rect x="437.3" y="281.2" class="st6" width="31.2" height="31.2"/>
		<rect x="406" y="437.3" class="st6" width="31.2" height="31.2"/>
		<rect x="31.5" y="312.4" class="st6" width="31.2" height="31.2"/>
		<rect x="31.5" y="343.6" class="st6" width="31.2" height="31.2"/>
		<rect x="31.5" y="281.2" class="st6" width="31.2" height="31.2"/>
		<rect x="31.5" y="218.8" class="st6" width="31.2" height="31.2"/>
		<rect x="31.5" y="187.6" class="st6" width="31.2" height="31.2"/>
		<rect x="31.5" y="374.8" class="st6" width="31.2" height="31.2"/>
		<rect x="31.5" y="250" class="st6" width="31.2" height="31.2"/>
		<rect x="187.6" y="437.3" class="st6" width="31.2" height="31.2"/>
		<rect x="125.2" y="437.3" class="st6" width="31.2" height="31.2"/>
		<rect x="156.4" y="437.3" class="st6" width="31.2" height="31.2"/>
		<rect x="218.8" y="437.3" class="st6" width="31.2" height="31.2"/>
		<rect x="94" y="437.3" class="st6" width="31.2" height="31.2"/>
		<rect x="31.5" y="406" class="st6" width="31.2" height="31.2"/>
		<rect x="31.5" y="437.3" class="st6" width="31.2" height="31.2"/>
		<rect x="62.8" y="437.3" class="st6" width="31.2" height="31.2"/>
	</g>
	<g class="st7">
		<rect x="0.3" y="0.3" class="st8" width="499.3" height="499.3"/>
		<rect x="0.3" y="0.3" class="st8" width="62.4" height="62.4"/>
		<rect x="437.3" y="0.3" class="st8" width="62.4" height="62.4"/>
		<rect x="0.3" y="437.3" class="st8" width="62.4" height="62.4"/>
		<rect x="437.3" y="437.3" class="st8" width="62.4" height="62.4"/>
		<rect x="62.8" y="62.8" class="st8" width="187.3" height="187.3"/>
		<rect x="250" y="62.8" class="st8" width="187.3" height="187.3"/>
		<rect x="62.8" y="250" class="st8" width="187.3" height="187.3"/>
		<rect x="250" y="250" class="st8" width="187.3" height="187.3"/>
		<polyline class="st8" points="250,437.3 343.6,499.7 499.7,499.7 0.3,0.3 		"/>
		<line class="st8" x1="499.7" y1="0.3" x2="0.3" y2="499.7"/>
		<circle class="st8" cx="250" cy="250" r="187.3"/>
		<circle class="st8" cx="250" cy="250" r="249.7"/>
	</g>
</g>
</svg>
