<?xml version="1.0" encoding="utf-8"?>
<!-- Generator: Adobe Illustrator 22.1.0, SVG Export Plug-In . SVG Version: 6.00 Build 0)  -->
<svg version="1.1" id="Layer_1" xmlns="http://www.w3.org/2000/svg" xmlns:xlink="http://www.w3.org/1999/xlink" x="0px" y="0px"
	 viewBox="0 0 500 500" style="enable-background:new 0 0 500 500;" xml:space="preserve">
<style type="text/css">
	.st0{fill:url(#SVGID_1_);}
	.st1{display:none;}
	.st2{display:inline;}
	.st3{fill:none;stroke:#EDEDED;stroke-width:0.5;stroke-miterlimit:10;}
	.st4{fill:none;stroke:#BDBDBD;stroke-miterlimit:10;}
	.st5{display:inline;fill:none;stroke:#BDBDBD;stroke-miterlimit:10;}
	.st6{fill:#FF6600;}
</style>
<g id="Layer_3_copy">
	
		<linearGradient id="SVGID_1_" gradientUnits="userSpaceOnUse" x1="781" y1="633.4" x2="781" y2="633.4" gradientTransform="matrix(1 0 0 1 0 -290)">
		<stop  offset="0" style="stop-color:#FF6600"/>
		<stop  offset="1" style="stop-color:#231F20"/>
	</linearGradient>
	<path class="st0" d="M781,343.4"/>
</g>
<g id="Layer_3">
</g>
<g id="Layer_3_copy_2">
</g>
<g id="Layer_6">
</g>
<g id="Layer_4">
</g>
<g id="Layer_1_1_" class="st1">
	<g class="st2">
		<rect x="250" y="375" class="st3" width="31.3" height="31.3"/>
		<rect x="156.3" y="375" class="st3" width="31.3" height="31.3"/>
		<rect x="218.8" y="375" class="st3" width="31.3" height="31.3"/>
		<rect x="187.5" y="375" class="st3" width="31.3" height="31.3"/>
		<rect x="93.8" y="343.8" class="st3" width="31.3" height="31.3"/>
		<rect x="93.8" y="375" class="st3" width="31.3" height="31.3"/>
		<rect x="125" y="375" class="st3" width="31.3" height="31.3"/>
		<rect x="281.3" y="375" class="st3" width="31.3" height="31.3"/>
		<rect x="375" y="312.5" class="st3" width="31.3" height="31.3"/>
		<rect x="93.8" y="312.5" class="st3" width="31.3" height="31.3"/>
		<rect x="375" y="343.8" class="st3" width="31.3" height="31.3"/>
		<rect x="375" y="281.3" class="st3" width="31.3" height="31.3"/>
		<rect x="312.5" y="375" class="st3" width="31.3" height="31.3"/>
		<rect x="375" y="375" class="st3" width="31.3" height="31.3"/>
		<rect x="375" y="250" class="st3" width="31.3" height="31.3"/>
		<rect x="343.8" y="375" class="st3" width="31.3" height="31.3"/>
		<rect x="250" y="93.8" class="st3" width="31.3" height="31.3"/>
		<rect x="218.8" y="93.8" class="st3" width="31.3" height="31.3"/>
		<rect x="187.5" y="93.8" class="st3" width="31.3" height="31.3"/>
		<rect x="312.5" y="93.8" class="st3" width="31.3" height="31.3"/>
		<rect x="343.8" y="93.8" class="st3" width="31.3" height="31.3"/>
		<rect x="156.3" y="93.8" class="st3" width="31.3" height="31.3"/>
		<rect x="281.3" y="93.8" class="st3" width="31.3" height="31.3"/>
		<rect x="93.8" y="156.3" class="st3" width="31.3" height="31.3"/>
		<rect x="93.8" y="187.5" class="st3" width="31.3" height="31.3"/>
		<rect x="93.8" y="218.8" class="st3" width="31.3" height="31.3"/>
		<rect x="93.8" y="250" class="st3" width="31.3" height="31.3"/>
		<rect x="93.8" y="281.3" class="st3" width="31.3" height="31.3"/>
		<rect x="125" y="93.8" class="st3" width="31.3" height="31.3"/>
		<rect x="93.8" y="93.8" class="st3" width="31.3" height="31.3"/>
		<rect x="93.8" y="125" class="st3" width="31.3" height="31.3"/>
		<rect x="375" y="125" class="st3" width="31.3" height="31.3"/>
		<rect x="62.5" y="281.3" class="st3" width="31.3" height="31.3"/>
		<rect x="62.5" y="312.5" class="st3" width="31.3" height="31.3"/>
		<rect x="62.5" y="250" class="st3" width="31.3" height="31.3"/>
		<rect x="62.5" y="156.3" class="st3" width="31.3" height="31.3"/>
		<rect x="62.5" y="125" class="st3" width="31.3" height="31.3"/>
		<rect x="62.5" y="187.5" class="st3" width="31.3" height="31.3"/>
		<rect x="62.5" y="218.8" class="st3" width="31.3" height="31.3"/>
		<rect x="62.5" y="343.8" class="st3" width="31.3" height="31.3"/>
		<rect x="187.5" y="406.3" class="st3" width="31.3" height="31.3"/>
		<rect x="218.8" y="406.3" class="st3" width="31.3" height="31.3"/>
		<rect x="156.3" y="406.3" class="st3" width="31.3" height="31.3"/>
		<rect x="125" y="406.3" class="st3" width="31.3" height="31.3"/>
		<rect x="62.5" y="406.3" class="st3" width="31.3" height="31.3"/>
		<rect x="93.8" y="406.3" class="st3" width="31.3" height="31.3"/>
		<rect x="62.5" y="375" class="st3" width="31.3" height="31.3"/>
		<rect x="62.5" y="93.8" class="st3" width="31.3" height="31.3"/>
		<rect x="375" y="62.5" class="st3" width="31.3" height="31.3"/>
		<rect x="312.5" y="62.5" class="st3" width="31.3" height="31.3"/>
		<rect x="281.3" y="62.5" class="st3" width="31.3" height="31.3"/>
		<rect x="375" y="93.8" class="st3" width="31.3" height="31.3"/>
		<rect x="343.8" y="125" class="st3" width="31.3" height="31.3"/>
		<rect x="375" y="187.5" class="st3" width="31.3" height="31.3"/>
		<rect x="375" y="156.3" class="st3" width="31.3" height="31.3"/>
		<rect x="62.5" y="62.5" class="st3" width="31.3" height="31.3"/>
		<rect x="93.8" y="62.5" class="st3" width="31.3" height="31.3"/>
		<rect x="375" y="218.8" class="st3" width="31.3" height="31.3"/>
		<rect x="125" y="62.5" class="st3" width="31.3" height="31.3"/>
		<rect x="250" y="62.5" class="st3" width="31.3" height="31.3"/>
		<rect x="218.8" y="62.5" class="st3" width="31.3" height="31.3"/>
		<rect x="187.5" y="62.5" class="st3" width="31.3" height="31.3"/>
		<rect x="156.3" y="62.5" class="st3" width="31.3" height="31.3"/>
		<rect x="281.3" y="156.3" class="st3" width="31.3" height="31.3"/>
		<rect x="156.3" y="156.3" class="st3" width="31.3" height="31.3"/>
		<rect x="156.3" y="218.8" class="st3" width="31.3" height="31.3"/>
		<rect x="156.3" y="187.5" class="st3" width="31.3" height="31.3"/>
		<rect x="187.5" y="156.3" class="st3" width="31.3" height="31.3"/>
		<rect x="250" y="406.3" class="st3" width="31.3" height="31.3"/>
		<rect x="250" y="156.3" class="st3" width="31.3" height="31.3"/>
		<rect x="281.3" y="187.5" class="st3" width="31.3" height="31.3"/>
		<rect x="218.8" y="156.3" class="st3" width="31.3" height="31.3"/>
		<rect x="250" y="312.5" class="st3" width="31.3" height="31.3"/>
		<rect x="312.5" y="312.5" class="st3" width="31.3" height="31.3"/>
		<rect x="281.3" y="312.5" class="st3" width="31.3" height="31.3"/>
		<rect x="218.8" y="312.5" class="st3" width="31.3" height="31.3"/>
		<rect x="156.3" y="281.3" class="st3" width="31.3" height="31.3"/>
		<rect x="156.3" y="312.5" class="st3" width="31.3" height="31.3"/>
		<rect x="187.5" y="312.5" class="st3" width="31.3" height="31.3"/>
		<rect x="156.3" y="250" class="st3" width="31.3" height="31.3"/>
		<rect x="187.5" y="187.5" class="st3" width="31.3" height="31.3"/>
		<rect x="218.8" y="187.5" class="st3" width="31.3" height="31.3"/>
		<rect x="250" y="218.8" class="st3" width="31.3" height="31.3"/>
		<rect x="250" y="187.5" class="st3" width="31.3" height="31.3"/>
		<rect x="281.3" y="218.8" class="st3" width="31.3" height="31.3"/>
		<rect x="218.8" y="250" class="st3" width="31.3" height="31.3"/>
		<rect x="250" y="250" class="st3" width="31.3" height="31.3"/>
		<rect x="218.8" y="218.8" class="st3" width="31.3" height="31.3"/>
		<rect x="281.3" y="281.3" class="st3" width="31.3" height="31.3"/>
		<rect x="250" y="281.3" class="st3" width="31.3" height="31.3"/>
		<rect x="281.3" y="250" class="st3" width="31.3" height="31.3"/>
		<rect x="187.5" y="218.8" class="st3" width="31.3" height="31.3"/>
		<rect x="187.5" y="250" class="st3" width="31.3" height="31.3"/>
		<rect x="187.5" y="281.3" class="st3" width="31.3" height="31.3"/>
		<rect x="218.8" y="281.3" class="st3" width="31.3" height="31.3"/>
		<rect x="343.8" y="156.3" class="st3" width="31.3" height="31.3"/>
		<rect x="218.8" y="343.8" class="st3" width="31.3" height="31.3"/>
		<rect x="187.5" y="343.8" class="st3" width="31.3" height="31.3"/>
		<rect x="250" y="343.8" class="st3" width="31.3" height="31.3"/>
		<rect x="156.3" y="343.8" class="st3" width="31.3" height="31.3"/>
		<rect x="125" y="312.5" class="st3" width="31.3" height="31.3"/>
		<rect x="125" y="343.8" class="st3" width="31.3" height="31.3"/>
		<rect x="281.3" y="343.8" class="st3" width="31.3" height="31.3"/>
		<rect x="343.8" y="312.5" class="st3" width="31.3" height="31.3"/>
		<rect x="343.8" y="250" class="st3" width="31.3" height="31.3"/>
		<rect x="343.8" y="218.8" class="st3" width="31.3" height="31.3"/>
		<rect x="312.5" y="343.8" class="st3" width="31.3" height="31.3"/>
		<rect x="343.8" y="187.5" class="st3" width="31.3" height="31.3"/>
		<rect x="343.8" y="343.8" class="st3" width="31.3" height="31.3"/>
		<rect x="125" y="281.3" class="st3" width="31.3" height="31.3"/>
		<rect x="343.8" y="281.3" class="st3" width="31.3" height="31.3"/>
		<rect x="312.5" y="218.8" class="st3" width="31.3" height="31.3"/>
		<rect x="125" y="250" class="st3" width="31.3" height="31.3"/>
		<rect x="281.3" y="125" class="st3" width="31.3" height="31.3"/>
		<rect x="312.5" y="156.3" class="st3" width="31.3" height="31.3"/>
		<rect x="312.5" y="187.5" class="st3" width="31.3" height="31.3"/>
		<rect x="312.5" y="250" class="st3" width="31.3" height="31.3"/>
		<rect x="312.5" y="281.3" class="st3" width="31.3" height="31.3"/>
		<rect x="250" y="125" class="st3" width="31.3" height="31.3"/>
		<rect x="312.5" y="125" class="st3" width="31.3" height="31.3"/>
		<rect x="125" y="187.5" class="st3" width="31.3" height="31.3"/>
		<rect x="125" y="218.8" class="st3" width="31.3" height="31.3"/>
		<rect x="125" y="156.3" class="st3" width="31.3" height="31.3"/>
		<rect x="156.3" y="125" class="st3" width="31.3" height="31.3"/>
		<rect x="187.5" y="125" class="st3" width="31.3" height="31.3"/>
		<rect x="125" y="125" class="st3" width="31.3" height="31.3"/>
		<rect x="218.8" y="125" class="st3" width="31.3" height="31.3"/>
		<rect x="343.8" y="62.5" class="st3" width="31.3" height="31.3"/>
		<rect y="93.8" class="st3" width="31.3" height="31.3"/>
		<rect y="125" class="st3" width="31.3" height="31.3"/>
		<rect y="62.5" class="st3" width="31.3" height="31.3"/>
		<rect y="156.3" class="st3" width="31.3" height="31.3"/>
		<rect class="st3" width="31.3" height="31.3"/>
		<rect x="31.3" class="st3" width="31.3" height="31.3"/>
		<rect y="187.5" class="st3" width="31.3" height="31.3"/>
		<rect y="31.3" class="st3" width="31.3" height="31.3"/>
		<rect y="343.8" class="st3" width="31.3" height="31.3"/>
		<rect x="62.5" class="st3" width="31.3" height="31.3"/>
		<rect y="375" class="st3" width="31.3" height="31.3"/>
		<rect y="218.8" class="st3" width="31.3" height="31.3"/>
		<rect y="406.3" class="st3" width="31.3" height="31.3"/>
		<rect y="250" class="st3" width="31.3" height="31.3"/>
		<rect y="312.5" class="st3" width="31.3" height="31.3"/>
		<rect y="281.3" class="st3" width="31.3" height="31.3"/>
		<rect x="312.5" class="st3" width="31.3" height="31.3"/>
		<rect x="406.3" class="st3" width="31.3" height="31.3"/>
		<rect x="375" class="st3" width="31.3" height="31.3"/>
		<rect x="437.5" class="st3" width="31.3" height="31.3"/>
		<rect x="437.5" y="31.3" class="st3" width="31.3" height="31.3"/>
		<rect x="437.5" y="93.8" class="st3" width="31.3" height="31.3"/>
		<rect x="437.5" y="62.5" class="st3" width="31.3" height="31.3"/>
		<rect x="93.8" class="st3" width="31.3" height="31.3"/>
		<rect x="343.8" class="st3" width="31.3" height="31.3"/>
		<rect x="156.3" class="st3" width="31.3" height="31.3"/>
		<rect x="125" class="st3" width="31.3" height="31.3"/>
		<rect x="437.5" y="125" class="st3" width="31.3" height="31.3"/>
		<rect x="281.3" class="st3" width="31.3" height="31.3"/>
		<rect x="218.8" class="st3" width="31.3" height="31.3"/>
		<rect y="437.5" class="st3" width="31.3" height="31.3"/>
		<rect x="250" class="st3" width="31.3" height="31.3"/>
		<rect x="187.5" class="st3" width="31.3" height="31.3"/>
		<rect x="468.8" y="281.3" class="st3" width="31.3" height="31.3"/>
		<rect x="468.8" y="312.5" class="st3" width="31.3" height="31.3"/>
		<rect x="468.8" y="250" class="st3" width="31.3" height="31.3"/>
		<rect x="468.8" y="375" class="st3" width="31.3" height="31.3"/>
		<rect x="468.8" y="406.3" class="st3" width="31.3" height="31.3"/>
		<rect x="468.8" y="218.8" class="st3" width="31.3" height="31.3"/>
		<rect x="468.8" y="343.8" class="st3" width="31.3" height="31.3"/>
		<rect x="468.8" y="437.5" class="st3" width="31.3" height="31.3"/>
		<rect x="468.8" y="62.5" class="st3" width="31.3" height="31.3"/>
		<rect x="468.8" y="31.3" class="st3" width="31.3" height="31.3"/>
		<rect x="468.8" class="st3" width="31.3" height="31.3"/>
		<rect x="468.8" y="125" class="st3" width="31.3" height="31.3"/>
		<rect x="468.8" y="156.3" class="st3" width="31.3" height="31.3"/>
		<rect x="468.8" y="93.8" class="st3" width="31.3" height="31.3"/>
		<rect x="468.8" y="187.5" class="st3" width="31.3" height="31.3"/>
		<rect x="343.8" y="468.8" class="st3" width="31.3" height="31.3"/>
		<rect x="218.8" y="468.8" class="st3" width="31.3" height="31.3"/>
		<rect x="125" y="468.8" class="st3" width="31.3" height="31.3"/>
		<rect x="468.8" y="468.8" class="st3" width="31.3" height="31.3"/>
		<rect x="156.3" y="468.8" class="st3" width="31.3" height="31.3"/>
		<rect x="93.8" y="468.8" class="st3" width="31.3" height="31.3"/>
		<rect x="31.3" y="468.8" class="st3" width="31.3" height="31.3"/>
		<rect x="62.5" y="468.8" class="st3" width="31.3" height="31.3"/>
		<rect x="187.5" y="468.8" class="st3" width="31.3" height="31.3"/>
		<rect x="406.3" y="468.8" class="st3" width="31.3" height="31.3"/>
		<rect x="250" y="468.8" class="st3" width="31.3" height="31.3"/>
		<rect x="437.5" y="468.8" class="st3" width="31.3" height="31.3"/>
		<rect x="375" y="468.8" class="st3" width="31.3" height="31.3"/>
		<rect x="281.3" y="468.8" class="st3" width="31.3" height="31.3"/>
		<rect x="312.5" y="468.8" class="st3" width="31.3" height="31.3"/>
		<rect y="468.8" class="st3" width="31.3" height="31.3"/>
		<rect x="187.5" y="31.3" class="st3" width="31.3" height="31.3"/>
		<rect x="281.3" y="31.3" class="st3" width="31.3" height="31.3"/>
		<rect x="250" y="31.3" class="st3" width="31.3" height="31.3"/>
		<rect x="218.8" y="31.3" class="st3" width="31.3" height="31.3"/>
		<rect x="343.8" y="31.3" class="st3" width="31.3" height="31.3"/>
		<rect x="375" y="31.3" class="st3" width="31.3" height="31.3"/>
		<rect x="312.5" y="31.3" class="st3" width="31.3" height="31.3"/>
		<rect x="281.3" y="406.3" class="st3" width="31.3" height="31.3"/>
		<rect x="31.3" y="31.3" class="st3" width="31.3" height="31.3"/>
		<rect x="406.3" y="31.3" class="st3" width="31.3" height="31.3"/>
		<rect x="156.3" y="31.3" class="st3" width="31.3" height="31.3"/>
		<rect x="31.3" y="93.8" class="st3" width="31.3" height="31.3"/>
		<rect x="31.3" y="62.5" class="st3" width="31.3" height="31.3"/>
		<rect x="62.5" y="31.3" class="st3" width="31.3" height="31.3"/>
		<rect x="125" y="31.3" class="st3" width="31.3" height="31.3"/>
		<rect x="93.8" y="31.3" class="st3" width="31.3" height="31.3"/>
		<rect x="312.5" y="406.3" class="st3" width="31.3" height="31.3"/>
		<rect x="406.3" y="312.5" class="st3" width="31.3" height="31.3"/>
		<rect x="406.3" y="343.8" class="st3" width="31.3" height="31.3"/>
		<rect x="406.3" y="406.3" class="st3" width="31.3" height="31.3"/>
		<rect x="406.3" y="62.5" class="st3" width="31.3" height="31.3"/>
		<rect x="31.3" y="125" class="st3" width="31.3" height="31.3"/>
		<rect x="343.8" y="406.3" class="st3" width="31.3" height="31.3"/>
		<rect x="375" y="406.3" class="st3" width="31.3" height="31.3"/>
		<rect x="406.3" y="375" class="st3" width="31.3" height="31.3"/>
		<rect x="406.3" y="156.3" class="st3" width="31.3" height="31.3"/>
		<rect x="406.3" y="125" class="st3" width="31.3" height="31.3"/>
		<rect x="406.3" y="93.8" class="st3" width="31.3" height="31.3"/>
		<rect x="406.3" y="281.3" class="st3" width="31.3" height="31.3"/>
		<rect x="406.3" y="250" class="st3" width="31.3" height="31.3"/>
		<rect x="406.3" y="187.5" class="st3" width="31.3" height="31.3"/>
		<rect x="406.3" y="218.8" class="st3" width="31.3" height="31.3"/>
		<rect x="437.5" y="187.5" class="st3" width="31.3" height="31.3"/>
		<rect x="31.3" y="156.3" class="st3" width="31.3" height="31.3"/>
		<rect x="375" y="437.5" class="st3" width="31.3" height="31.3"/>
		<rect x="250" y="437.5" class="st3" width="31.3" height="31.3"/>
		<rect x="437.5" y="406.3" class="st3" width="31.3" height="31.3"/>
		<rect x="281.3" y="437.5" class="st3" width="31.3" height="31.3"/>
		<rect x="312.5" y="437.5" class="st3" width="31.3" height="31.3"/>
		<rect x="343.8" y="437.5" class="st3" width="31.3" height="31.3"/>
		<rect x="437.5" y="437.5" class="st3" width="31.3" height="31.3"/>
		<rect x="437.5" y="218.8" class="st3" width="31.3" height="31.3"/>
		<rect x="437.5" y="156.3" class="st3" width="31.3" height="31.3"/>
		<rect x="437.5" y="250" class="st3" width="31.3" height="31.3"/>
		<rect x="437.5" y="375" class="st3" width="31.3" height="31.3"/>
		<rect x="437.5" y="343.8" class="st3" width="31.3" height="31.3"/>
		<rect x="437.5" y="312.5" class="st3" width="31.3" height="31.3"/>
		<rect x="437.5" y="281.3" class="st3" width="31.3" height="31.3"/>
		<rect x="406.3" y="437.5" class="st3" width="31.3" height="31.3"/>
		<rect x="31.3" y="312.5" class="st3" width="31.3" height="31.3"/>
		<rect x="31.3" y="343.8" class="st3" width="31.3" height="31.3"/>
		<rect x="31.3" y="281.3" class="st3" width="31.3" height="31.3"/>
		<rect x="31.3" y="218.8" class="st3" width="31.3" height="31.3"/>
		<rect x="31.3" y="187.5" class="st3" width="31.3" height="31.3"/>
		<rect x="31.3" y="375" class="st3" width="31.3" height="31.3"/>
		<rect x="31.3" y="250" class="st3" width="31.3" height="31.3"/>
		<rect x="187.5" y="437.5" class="st3" width="31.3" height="31.3"/>
		<rect x="125" y="437.5" class="st3" width="31.3" height="31.3"/>
		<rect x="156.3" y="437.5" class="st3" width="31.3" height="31.3"/>
		<rect x="218.8" y="437.5" class="st3" width="31.3" height="31.3"/>
		<rect x="93.8" y="437.5" class="st3" width="31.3" height="31.3"/>
		<rect x="31.3" y="406.3" class="st3" width="31.3" height="31.3"/>
		<rect x="31.3" y="437.5" class="st3" width="31.3" height="31.3"/>
		<rect x="62.5" y="437.5" class="st3" width="31.3" height="31.3"/>
	</g>
	<g class="st2">
		<rect class="st4" width="500" height="500"/>
		<rect class="st4" width="62.5" height="62.5"/>
		<rect x="437.5" class="st4" width="62.5" height="62.5"/>
		<rect y="437.5" class="st4" width="62.5" height="62.5"/>
		<rect x="437.5" y="437.5" class="st4" width="62.5" height="62.5"/>
		<rect x="62.5" y="62.5" class="st4" width="187.5" height="187.5"/>
		<rect x="250" y="62.5" class="st4" width="187.5" height="187.5"/>
		<rect x="62.5" y="250" class="st4" width="187.5" height="187.5"/>
		<rect x="250" y="250" class="st4" width="187.5" height="187.5"/>
		<line class="st4" x1="0" y1="0" x2="500" y2="500"/>
		<line class="st4" x1="500" y1="0" x2="0" y2="500"/>
		<circle class="st4" cx="250" cy="250" r="187.5"/>
		<circle class="st4" cx="250" cy="250" r="250"/>
	</g>
	<rect x="62.5" class="st5" width="375" height="500"/>
</g>
<path class="st6" d="M418.6,81.6"/>
<path class="st6" d="M79.6,420.6"/>
<path class="st6" d="M136.5,403H27.8c-6.6,0-12-5.4-12-12V282.3c0-6.6,5.4-12,12-12h108.7c6.6,0,12,5.4,12,12V391
	C148.5,397.6,143.1,403,136.5,403z"/>
<path class="st6" d="M313.5,403H181.2c-6.6,0-12-5.4-12-12V77.7c0-6.6,5.4-12,12-12h132.3c6.6,0,12,5.4,12,12V391
	C325.5,397.6,320.1,403,313.5,403z"/>
<path class="st6" d="M479,403H358.2c-6.6,0-12-5.4-12-12V184.6c0-6.6,5.4-12,12-12H479c6.6,0,12,5.4,12,12V391
	C491,397.6,485.6,403,479,403z"/>
</svg>
