<?xml version="1.0" encoding="utf-8"?>
<!-- Generator: Adobe Illustrator 23.1.0, SVG Export Plug-In . SVG Version: 6.00 Build 0)  -->
<svg version="1.1" id="Layer_1" xmlns="http://www.w3.org/2000/svg" xmlns:xlink="http://www.w3.org/1999/xlink" x="0px" y="0px"
	 viewBox="0 0 500 500" style="enable-background:new 0 0 500 500;" xml:space="preserve">
<style type="text/css">
	.st0{display:none;}
	.st1{display:inline;}
	.st2{fill:none;stroke:#EDEDED;stroke-width:0.5;stroke-miterlimit:10;}
	.st3{display:inline;fill:none;stroke:#BDBDBD;stroke-miterlimit:10;}
	.st4{fill:#FFFFFF;}
	.st5{fill:#ACACAF;}
	.st6{fill:#FF6600;stroke:#000000;stroke-width:2;stroke-miterlimit:10;}
</style>
<g id="Layer_3" class="st0">
</g>
<g id="Layer_7" class="st0">
	<g class="st1">
		<rect x="250" y="375" class="st2" width="31.3" height="31.3"/>
		<rect x="156.3" y="375" class="st2" width="31.3" height="31.3"/>
		<rect x="218.8" y="375" class="st2" width="31.3" height="31.3"/>
		<rect x="187.5" y="375" class="st2" width="31.3" height="31.3"/>
		<rect x="93.8" y="343.8" class="st2" width="31.3" height="31.3"/>
		<rect x="93.8" y="375" class="st2" width="31.3" height="31.3"/>
		<rect x="125" y="375" class="st2" width="31.3" height="31.3"/>
		<rect x="281.3" y="375" class="st2" width="31.3" height="31.3"/>
		<rect x="375" y="312.5" class="st2" width="31.3" height="31.3"/>
		<rect x="93.8" y="312.5" class="st2" width="31.3" height="31.3"/>
		<rect x="375" y="343.8" class="st2" width="31.3" height="31.3"/>
		<rect x="375" y="281.3" class="st2" width="31.3" height="31.3"/>
		<rect x="312.5" y="375" class="st2" width="31.3" height="31.3"/>
		<rect x="375" y="375" class="st2" width="31.3" height="31.3"/>
		<rect x="375" y="250" class="st2" width="31.3" height="31.3"/>
		<rect x="343.8" y="375" class="st2" width="31.3" height="31.3"/>
		<rect x="250" y="93.8" class="st2" width="31.3" height="31.3"/>
		<rect x="218.8" y="93.8" class="st2" width="31.3" height="31.3"/>
		<rect x="187.5" y="93.8" class="st2" width="31.3" height="31.3"/>
		<rect x="312.5" y="93.8" class="st2" width="31.3" height="31.3"/>
		<rect x="343.8" y="93.8" class="st2" width="31.3" height="31.3"/>
		<rect x="156.3" y="93.8" class="st2" width="31.3" height="31.3"/>
		<rect x="281.3" y="93.8" class="st2" width="31.3" height="31.3"/>
		<rect x="93.8" y="156.3" class="st2" width="31.3" height="31.3"/>
		<rect x="93.8" y="187.5" class="st2" width="31.3" height="31.3"/>
		<rect x="93.8" y="218.8" class="st2" width="31.3" height="31.3"/>
		<rect x="93.8" y="250" class="st2" width="31.3" height="31.3"/>
		<rect x="93.8" y="281.3" class="st2" width="31.3" height="31.3"/>
		<rect x="125" y="93.8" class="st2" width="31.3" height="31.3"/>
		<rect x="93.8" y="93.8" class="st2" width="31.3" height="31.3"/>
		<rect x="93.8" y="125" class="st2" width="31.3" height="31.3"/>
		<rect x="375" y="125" class="st2" width="31.3" height="31.3"/>
		<rect x="62.5" y="281.3" class="st2" width="31.3" height="31.3"/>
		<rect x="62.5" y="312.5" class="st2" width="31.3" height="31.3"/>
		<rect x="62.5" y="250" class="st2" width="31.3" height="31.3"/>
		<rect x="62.5" y="156.3" class="st2" width="31.3" height="31.3"/>
		<rect x="62.5" y="125" class="st2" width="31.3" height="31.3"/>
		<rect x="62.5" y="187.5" class="st2" width="31.3" height="31.3"/>
		<rect x="62.5" y="218.8" class="st2" width="31.3" height="31.3"/>
		<rect x="62.5" y="343.8" class="st2" width="31.3" height="31.3"/>
		<rect x="187.5" y="406.3" class="st2" width="31.3" height="31.3"/>
		<rect x="218.8" y="406.3" class="st2" width="31.3" height="31.3"/>
		<rect x="156.3" y="406.3" class="st2" width="31.3" height="31.3"/>
		<rect x="125" y="406.3" class="st2" width="31.3" height="31.3"/>
		<rect x="62.5" y="406.3" class="st2" width="31.3" height="31.3"/>
		<rect x="93.8" y="406.3" class="st2" width="31.3" height="31.3"/>
		<rect x="62.5" y="375" class="st2" width="31.3" height="31.3"/>
		<rect x="62.5" y="93.8" class="st2" width="31.3" height="31.3"/>
		<rect x="375" y="62.5" class="st2" width="31.3" height="31.3"/>
		<rect x="312.5" y="62.5" class="st2" width="31.3" height="31.3"/>
		<rect x="281.3" y="62.5" class="st2" width="31.3" height="31.3"/>
		<rect x="375" y="93.8" class="st2" width="31.3" height="31.3"/>
		<rect x="343.8" y="125" class="st2" width="31.3" height="31.3"/>
		<rect x="375" y="187.5" class="st2" width="31.3" height="31.3"/>
		<rect x="375" y="156.3" class="st2" width="31.3" height="31.3"/>
		<rect x="62.5" y="62.5" class="st2" width="31.3" height="31.3"/>
		<rect x="93.8" y="62.5" class="st2" width="31.3" height="31.3"/>
		<rect x="375" y="218.8" class="st2" width="31.3" height="31.3"/>
		<rect x="125" y="62.5" class="st2" width="31.3" height="31.3"/>
		<rect x="250" y="62.5" class="st2" width="31.3" height="31.3"/>
		<rect x="218.8" y="62.5" class="st2" width="31.3" height="31.3"/>
		<rect x="187.5" y="62.5" class="st2" width="31.3" height="31.3"/>
		<rect x="156.3" y="62.5" class="st2" width="31.3" height="31.3"/>
		<rect x="281.3" y="156.3" class="st2" width="31.3" height="31.3"/>
		<rect x="156.3" y="156.3" class="st2" width="31.3" height="31.3"/>
		<rect x="156.3" y="218.8" class="st2" width="31.3" height="31.3"/>
		<rect x="156.3" y="187.5" class="st2" width="31.3" height="31.3"/>
		<rect x="187.5" y="156.3" class="st2" width="31.3" height="31.3"/>
		<rect x="250" y="406.3" class="st2" width="31.3" height="31.3"/>
		<rect x="250" y="156.3" class="st2" width="31.3" height="31.3"/>
		<rect x="281.3" y="187.5" class="st2" width="31.3" height="31.3"/>
		<rect x="218.8" y="156.3" class="st2" width="31.3" height="31.3"/>
		<rect x="250" y="312.5" class="st2" width="31.3" height="31.3"/>
		<rect x="312.5" y="312.5" class="st2" width="31.3" height="31.3"/>
		<rect x="281.3" y="312.5" class="st2" width="31.3" height="31.3"/>
		<rect x="218.8" y="312.5" class="st2" width="31.3" height="31.3"/>
		<rect x="156.3" y="281.3" class="st2" width="31.3" height="31.3"/>
		<rect x="156.3" y="312.5" class="st2" width="31.3" height="31.3"/>
		<rect x="187.5" y="312.5" class="st2" width="31.3" height="31.3"/>
		<rect x="156.3" y="250" class="st2" width="31.3" height="31.3"/>
		<rect x="187.5" y="187.5" class="st2" width="31.3" height="31.3"/>
		<rect x="218.8" y="187.5" class="st2" width="31.3" height="31.3"/>
		<rect x="250" y="218.8" class="st2" width="31.3" height="31.3"/>
		<rect x="250" y="187.5" class="st2" width="31.3" height="31.3"/>
		<rect x="281.3" y="218.8" class="st2" width="31.3" height="31.3"/>
		<rect x="218.8" y="250" class="st2" width="31.3" height="31.3"/>
		<rect x="250" y="250" class="st2" width="31.3" height="31.3"/>
		<rect x="218.8" y="218.8" class="st2" width="31.3" height="31.3"/>
		<rect x="281.3" y="281.3" class="st2" width="31.3" height="31.3"/>
		<rect x="250" y="281.3" class="st2" width="31.3" height="31.3"/>
		<rect x="281.3" y="250" class="st2" width="31.3" height="31.3"/>
		<rect x="187.5" y="218.8" class="st2" width="31.3" height="31.3"/>
		<rect x="187.5" y="250" class="st2" width="31.3" height="31.3"/>
		<rect x="187.5" y="281.3" class="st2" width="31.3" height="31.3"/>
		<rect x="218.8" y="281.3" class="st2" width="31.3" height="31.3"/>
		<rect x="343.8" y="156.3" class="st2" width="31.3" height="31.3"/>
		<rect x="218.8" y="343.8" class="st2" width="31.3" height="31.3"/>
		<rect x="187.5" y="343.8" class="st2" width="31.3" height="31.3"/>
		<rect x="250" y="343.8" class="st2" width="31.3" height="31.3"/>
		<rect x="156.3" y="343.8" class="st2" width="31.3" height="31.3"/>
		<rect x="125" y="312.5" class="st2" width="31.3" height="31.3"/>
		<rect x="125" y="343.8" class="st2" width="31.3" height="31.3"/>
		<rect x="281.3" y="343.8" class="st2" width="31.3" height="31.3"/>
		<rect x="343.8" y="312.5" class="st2" width="31.3" height="31.3"/>
		<rect x="343.8" y="250" class="st2" width="31.3" height="31.3"/>
		<rect x="343.8" y="218.8" class="st2" width="31.3" height="31.3"/>
		<rect x="312.5" y="343.8" class="st2" width="31.3" height="31.3"/>
		<rect x="343.8" y="187.5" class="st2" width="31.3" height="31.3"/>
		<rect x="343.8" y="343.8" class="st2" width="31.3" height="31.3"/>
		<rect x="125" y="281.3" class="st2" width="31.3" height="31.3"/>
		<rect x="343.8" y="281.3" class="st2" width="31.3" height="31.3"/>
		<rect x="312.5" y="218.8" class="st2" width="31.3" height="31.3"/>
		<rect x="125" y="250" class="st2" width="31.3" height="31.3"/>
		<rect x="281.3" y="125" class="st2" width="31.3" height="31.3"/>
		<rect x="312.5" y="156.3" class="st2" width="31.3" height="31.3"/>
		<rect x="312.5" y="187.5" class="st2" width="31.3" height="31.3"/>
		<rect x="312.5" y="250" class="st2" width="31.3" height="31.3"/>
		<rect x="312.5" y="281.3" class="st2" width="31.3" height="31.3"/>
		<rect x="250" y="125" class="st2" width="31.3" height="31.3"/>
		<rect x="312.5" y="125" class="st2" width="31.3" height="31.3"/>
		<rect x="125" y="187.5" class="st2" width="31.3" height="31.3"/>
		<rect x="125" y="218.8" class="st2" width="31.3" height="31.3"/>
		<rect x="125" y="156.3" class="st2" width="31.3" height="31.3"/>
		<rect x="156.3" y="125" class="st2" width="31.3" height="31.3"/>
		<rect x="187.5" y="125" class="st2" width="31.3" height="31.3"/>
		<rect x="125" y="125" class="st2" width="31.3" height="31.3"/>
		<rect x="218.8" y="125" class="st2" width="31.3" height="31.3"/>
		<rect x="343.8" y="62.5" class="st2" width="31.3" height="31.3"/>
		<rect y="93.8" class="st2" width="31.3" height="31.3"/>
		<rect y="125" class="st2" width="31.3" height="31.3"/>
		<rect y="62.5" class="st2" width="31.3" height="31.3"/>
		<rect y="156.3" class="st2" width="31.3" height="31.3"/>
		<rect class="st2" width="31.3" height="31.3"/>
		<rect x="31.3" class="st2" width="31.3" height="31.3"/>
		<rect y="187.5" class="st2" width="31.3" height="31.3"/>
		<rect y="31.3" class="st2" width="31.3" height="31.3"/>
		<rect y="343.8" class="st2" width="31.3" height="31.3"/>
		<rect x="62.5" class="st2" width="31.3" height="31.3"/>
		<rect y="375" class="st2" width="31.3" height="31.3"/>
		<rect y="218.8" class="st2" width="31.3" height="31.3"/>
		<rect y="406.3" class="st2" width="31.3" height="31.3"/>
		<rect y="250" class="st2" width="31.3" height="31.3"/>
		<rect y="312.5" class="st2" width="31.3" height="31.3"/>
		<rect y="281.3" class="st2" width="31.3" height="31.3"/>
		<rect x="312.5" class="st2" width="31.3" height="31.3"/>
		<rect x="406.3" class="st2" width="31.3" height="31.3"/>
		<rect x="375" class="st2" width="31.3" height="31.3"/>
		<rect x="437.5" class="st2" width="31.3" height="31.3"/>
		<rect x="437.5" y="31.3" class="st2" width="31.3" height="31.3"/>
		<rect x="437.5" y="93.8" class="st2" width="31.3" height="31.3"/>
		<rect x="437.5" y="62.5" class="st2" width="31.3" height="31.3"/>
		<rect x="93.8" class="st2" width="31.3" height="31.3"/>
		<rect x="343.8" class="st2" width="31.3" height="31.3"/>
		<rect x="156.3" class="st2" width="31.3" height="31.3"/>
		<rect x="125" class="st2" width="31.3" height="31.3"/>
		<rect x="437.5" y="125" class="st2" width="31.3" height="31.3"/>
		<rect x="281.3" class="st2" width="31.3" height="31.3"/>
		<rect x="218.8" class="st2" width="31.3" height="31.3"/>
		<rect y="437.5" class="st2" width="31.3" height="31.3"/>
		<rect x="250" class="st2" width="31.3" height="31.3"/>
		<rect x="187.5" class="st2" width="31.3" height="31.3"/>
		<rect x="468.8" y="281.3" class="st2" width="31.3" height="31.3"/>
		<rect x="468.8" y="312.5" class="st2" width="31.3" height="31.3"/>
		<rect x="468.8" y="250" class="st2" width="31.3" height="31.3"/>
		<rect x="468.8" y="375" class="st2" width="31.3" height="31.3"/>
		<rect x="468.8" y="406.3" class="st2" width="31.3" height="31.3"/>
		<rect x="468.8" y="218.8" class="st2" width="31.3" height="31.3"/>
		<rect x="468.8" y="343.8" class="st2" width="31.3" height="31.3"/>
		<rect x="468.8" y="437.5" class="st2" width="31.3" height="31.3"/>
		<rect x="468.8" y="62.5" class="st2" width="31.3" height="31.3"/>
		<rect x="468.8" y="31.3" class="st2" width="31.3" height="31.3"/>
		<rect x="468.8" class="st2" width="31.3" height="31.3"/>
		<rect x="468.8" y="125" class="st2" width="31.3" height="31.3"/>
		<rect x="468.8" y="156.3" class="st2" width="31.3" height="31.3"/>
		<rect x="468.8" y="93.8" class="st2" width="31.3" height="31.3"/>
		<rect x="468.8" y="187.5" class="st2" width="31.3" height="31.3"/>
		<rect x="343.8" y="468.8" class="st2" width="31.3" height="31.3"/>
		<rect x="218.8" y="468.8" class="st2" width="31.3" height="31.3"/>
		<rect x="125" y="468.8" class="st2" width="31.3" height="31.3"/>
		<rect x="468.8" y="468.8" class="st2" width="31.3" height="31.3"/>
		<rect x="156.3" y="468.8" class="st2" width="31.3" height="31.3"/>
		<rect x="93.8" y="468.8" class="st2" width="31.3" height="31.3"/>
		<rect x="31.3" y="468.8" class="st2" width="31.3" height="31.3"/>
		<rect x="62.5" y="468.8" class="st2" width="31.3" height="31.3"/>
		<rect x="187.5" y="468.8" class="st2" width="31.3" height="31.3"/>
		<rect x="406.3" y="468.8" class="st2" width="31.3" height="31.3"/>
		<rect x="250" y="468.8" class="st2" width="31.3" height="31.3"/>
		<rect x="437.5" y="468.8" class="st2" width="31.3" height="31.3"/>
		<rect x="375" y="468.8" class="st2" width="31.3" height="31.3"/>
		<rect x="281.3" y="468.8" class="st2" width="31.3" height="31.3"/>
		<rect x="312.5" y="468.8" class="st2" width="31.3" height="31.3"/>
		<rect y="468.8" class="st2" width="31.3" height="31.3"/>
		<rect x="187.5" y="31.3" class="st2" width="31.3" height="31.3"/>
		<rect x="281.3" y="31.3" class="st2" width="31.3" height="31.3"/>
		<rect x="250" y="31.3" class="st2" width="31.3" height="31.3"/>
		<rect x="218.8" y="31.3" class="st2" width="31.3" height="31.3"/>
		<rect x="343.8" y="31.3" class="st2" width="31.3" height="31.3"/>
		<rect x="375" y="31.3" class="st2" width="31.3" height="31.3"/>
		<rect x="312.5" y="31.3" class="st2" width="31.3" height="31.3"/>
		<rect x="281.3" y="406.3" class="st2" width="31.3" height="31.3"/>
		<rect x="31.3" y="31.3" class="st2" width="31.3" height="31.3"/>
		<rect x="406.3" y="31.3" class="st2" width="31.3" height="31.3"/>
		<rect x="156.3" y="31.3" class="st2" width="31.3" height="31.3"/>
		<rect x="31.3" y="93.8" class="st2" width="31.3" height="31.3"/>
		<rect x="31.3" y="62.5" class="st2" width="31.3" height="31.3"/>
		<rect x="62.5" y="31.3" class="st2" width="31.3" height="31.3"/>
		<rect x="125" y="31.3" class="st2" width="31.3" height="31.3"/>
		<rect x="93.8" y="31.3" class="st2" width="31.3" height="31.3"/>
		<rect x="312.5" y="406.3" class="st2" width="31.3" height="31.3"/>
		<rect x="406.3" y="312.5" class="st2" width="31.3" height="31.3"/>
		<rect x="406.3" y="343.8" class="st2" width="31.3" height="31.3"/>
		<rect x="406.3" y="406.3" class="st2" width="31.3" height="31.3"/>
		<rect x="406.3" y="62.5" class="st2" width="31.3" height="31.3"/>
		<rect x="31.3" y="125" class="st2" width="31.3" height="31.3"/>
		<rect x="343.8" y="406.3" class="st2" width="31.3" height="31.3"/>
		<rect x="375" y="406.3" class="st2" width="31.3" height="31.3"/>
		<rect x="406.3" y="375" class="st2" width="31.3" height="31.3"/>
		<rect x="406.3" y="156.3" class="st2" width="31.3" height="31.3"/>
		<rect x="406.3" y="125" class="st2" width="31.3" height="31.3"/>
		<rect x="406.3" y="93.8" class="st2" width="31.3" height="31.3"/>
		<rect x="406.3" y="281.3" class="st2" width="31.3" height="31.3"/>
		<rect x="406.3" y="250" class="st2" width="31.3" height="31.3"/>
		<rect x="406.3" y="187.5" class="st2" width="31.3" height="31.3"/>
		<rect x="406.3" y="218.8" class="st2" width="31.3" height="31.3"/>
		<rect x="437.5" y="187.5" class="st2" width="31.3" height="31.3"/>
		<rect x="31.3" y="156.3" class="st2" width="31.3" height="31.3"/>
		<rect x="375" y="437.5" class="st2" width="31.3" height="31.3"/>
		<rect x="250" y="437.5" class="st2" width="31.3" height="31.3"/>
		<rect x="437.5" y="406.3" class="st2" width="31.3" height="31.3"/>
		<rect x="281.3" y="437.5" class="st2" width="31.3" height="31.3"/>
		<rect x="312.5" y="437.5" class="st2" width="31.3" height="31.3"/>
		<rect x="343.8" y="437.5" class="st2" width="31.3" height="31.3"/>
		<rect x="437.5" y="437.5" class="st2" width="31.3" height="31.3"/>
		<rect x="437.5" y="218.8" class="st2" width="31.3" height="31.3"/>
		<rect x="437.5" y="156.3" class="st2" width="31.3" height="31.3"/>
		<rect x="437.5" y="250" class="st2" width="31.3" height="31.3"/>
		<rect x="437.5" y="375" class="st2" width="31.3" height="31.3"/>
		<rect x="437.5" y="343.8" class="st2" width="31.3" height="31.3"/>
		<rect x="437.5" y="312.5" class="st2" width="31.3" height="31.3"/>
		<rect x="437.5" y="281.3" class="st2" width="31.3" height="31.3"/>
		<rect x="406.3" y="437.5" class="st2" width="31.3" height="31.3"/>
		<rect x="31.3" y="312.5" class="st2" width="31.3" height="31.3"/>
		<rect x="31.3" y="343.8" class="st2" width="31.3" height="31.3"/>
		<rect x="31.3" y="281.3" class="st2" width="31.3" height="31.3"/>
		<rect x="31.3" y="218.8" class="st2" width="31.3" height="31.3"/>
		<rect x="31.3" y="187.5" class="st2" width="31.3" height="31.3"/>
		<rect x="31.3" y="375" class="st2" width="31.3" height="31.3"/>
		<rect x="31.3" y="250" class="st2" width="31.3" height="31.3"/>
		<rect x="187.5" y="437.5" class="st2" width="31.3" height="31.3"/>
		<rect x="125" y="437.5" class="st2" width="31.3" height="31.3"/>
		<rect x="156.3" y="437.5" class="st2" width="31.3" height="31.3"/>
		<rect x="218.8" y="437.5" class="st2" width="31.3" height="31.3"/>
		<rect x="93.8" y="437.5" class="st2" width="31.3" height="31.3"/>
		<rect x="31.3" y="406.3" class="st2" width="31.3" height="31.3"/>
		<rect x="31.3" y="437.5" class="st2" width="31.3" height="31.3"/>
		<rect x="62.5" y="437.5" class="st2" width="31.3" height="31.3"/>
	</g>
	<rect class="st3" width="500" height="500"/>
	<rect class="st3" width="62.5" height="62.5"/>
	<rect x="437.5" class="st3" width="62.5" height="62.5"/>
	<rect y="437.5" class="st3" width="62.5" height="62.5"/>
	<rect x="437.5" y="437.5" class="st3" width="62.5" height="62.5"/>
	<rect x="62.5" y="62.5" class="st3" width="187.5" height="187.5"/>
	<rect x="250" y="62.5" class="st3" width="187.5" height="187.5"/>
	<rect x="62.5" y="250" class="st3" width="187.5" height="187.5"/>
	<rect x="250" y="250" class="st3" width="187.5" height="187.5"/>
	<line class="st3" x1="0" y1="0" x2="500" y2="500"/>
	<line class="st3" x1="500" y1="0" x2="0" y2="500"/>
	<circle class="st3" cx="250" cy="250" r="187.5"/>
	<circle class="st3" cx="250" cy="250" r="250"/>
	<rect x="62.5" class="st3" width="375" height="500"/>
</g>
<g>
	<path class="st4" d="M250,496c-65.2,0-126.4-25.4-172.5-71.5C31.4,378.4,6,317.2,6,252S31.4,125.6,77.5,79.5
		C123.6,33.4,184.8,8,250,8s126.4,25.4,172.5,71.5C468.6,125.6,494,186.8,494,252s-25.4,126.4-71.5,172.5
		C376.4,470.6,315.2,496,250,496z"/>
	<path d="M250,9c32.8,0,64.6,6.4,94.6,19.1c28.9,12.2,54.9,29.8,77.2,52.1s39.8,48.3,52.1,77.2c12.7,30,19.1,61.8,19.1,94.6
		s-6.4,64.6-19.1,94.6c-12.2,28.9-29.8,54.9-52.1,77.2c-22.3,22.3-48.3,39.8-77.2,52.1c-30,12.7-61.8,19.1-94.6,19.1
		s-64.6-6.4-94.6-19.1c-28.9-12.2-54.9-29.8-77.2-52.1c-22.3-22.3-39.8-48.3-52.1-77.2C13.4,316.6,7,284.8,7,252s6.4-64.6,19.1-94.6
		c12.2-28.9,29.8-54.9,52.1-77.2s48.3-39.8,77.2-52.1C185.4,15.4,217.2,9,250,9 M250,7C114.7,7,5,116.7,5,252s109.7,245,245,245
		s245-109.7,245-245S385.3,7,250,7L250,7z"/>
</g>
<ellipse class="st5" cx="245" cy="376" rx="188.8" ry="54.5"/>
<circle class="st6" cx="250" cy="250" r="150.9"/>
</svg>
