<?xml version="1.0" encoding="utf-8"?>
<!-- Generator: Adobe Illustrator 22.1.0, SVG Export Plug-In . SVG Version: 6.00 Build 0)  -->
<svg version="1.1" id="Layer_1" xmlns="http://www.w3.org/2000/svg" xmlns:xlink="http://www.w3.org/1999/xlink" x="0px" y="0px"
	 viewBox="0 0 500 500" style="enable-background:new 0 0 500 500;" xml:space="preserve">
<style type="text/css">
	.st0{display:none;fill:#FF6600;}
	.st1{fill:#FF6600;}
	.st2{fill:url(#SVGID_1_);}
	.st3{fill:#B5B5B5;}
	.st4{opacity:0.5;fill:url(#SVGID_2_);enable-background:new    ;}
	.st5{fill:#FFFFFF;}
	.st6{display:none;}
	.st7{display:inline;}
	.st8{fill:none;stroke:#EDEDED;stroke-width:0.5;stroke-miterlimit:10;}
	.st9{fill:none;stroke:#BDBDBD;stroke-miterlimit:10;}
</style>
<g id="Layer_1_1_">
	<g id="Layer_2_1_">
		<path class="st0" d="M400,500H100C44.8,500,0,455.2,0,400V100C0,44.8,44.8,0,100,0h300c55.2,0,100,44.8,100,100v300
			C500,455.2,455.2,500,400,500z"/>
	</g>
	<path class="st1" d="M500.1,251.7C500.1,390.5,388.8,500,250,500S0,388.8,0,250S112.9,0.4,251.7,0.4S500.1,112.9,500.1,251.7z"/>
	<g id="Layer_3_copy">
		
			<linearGradient id="SVGID_1_" gradientUnits="userSpaceOnUse" x1="771" y1="633.4" x2="771" y2="633.4" gradientTransform="matrix(1 0 0 1 0 -290)">
			<stop  offset="0" style="stop-color:#FF6600"/>
			<stop  offset="1" style="stop-color:#231F20"/>
		</linearGradient>
		<path class="st2" d="M771,343.4"/>
	</g>
	<path class="st3" d="M68.8,358.8"/>
	
		<linearGradient id="SVGID_2_" gradientUnits="userSpaceOnUse" x1="460.4615" y1="675.0775" x2="107.0751" y2="471.0498" gradientTransform="matrix(1 0 0 1 0 -290)">
		<stop  offset="0" style="stop-color:#FF6600"/>
		<stop  offset="1" style="stop-color:#231F20"/>
	</linearGradient>
	<path class="st4" d="M191,97l105-66.1l96.6,102.4l69.2,46.9L500,247l-7.9,65.6L461,384.1C406.3,476,306,501,250,500l-47.2-4.4
		L84.2,399.3L112.3,172"/>
	<circle class="st5" cx="252.3" cy="251.7" r="120.7"/>
	<g>
		<path d="M312.7,187.5l41.9,0.1c-10.5-16.7-24.9-30.6-41.9-40.4V187.5z"/>
		<path d="M312.5,187.7l-62.4-0.1V131c-23,0.4-44.4,7.3-62.6,18.8l0.1,37.6l62.4,0.1l0.1,62.4l62.4,0.1l0.1,62.4l43.9,0.1
			c10.5-17.9,16.5-38.7,16.5-60.9c0-0.5,0-1,0-1.6l-60.5-0.1V187.7z"/>
		<path d="M312.5,312.6l-62.5-0.1v-62.4l-62.5-0.1v-62.4l-37.4-0.1C138.7,205.6,132,227,131.7,250l55.8,0.1l0.1,62.4l62.4,0.1
			l0.1,59.7c0.7,0,1.5,0,2.2,0c21.9,0,42.5-5.8,60.2-16L312.5,312.6L312.5,312.6z"/>
		<path d="M187.5,312.6l-39.4-0.1c9.7,16.6,23.2,30.6,39.4,40.9V312.6z"/>
	</g>
</g>
<g id="Layer_3">
	<path class="st5" d="M421.6,249.7c0-29.8,16.2-55.7,40.3-69.6l-22.8-39.6L416,100.2c-11.7,6.7-25.3,10.7-39.8,10.7
		c-44.3,0-80.2-36.4-80.2-80h-91.7c0,43.6-35.9,80-80.2,80c-14.5,0-28.2-3.9-39.9-10.7l-45.9,79.9c24.2,13.8,40.5,39.8,40.5,69.6
		s-16.3,55.8-40.5,69.6l23.6,41.1c18.2-18.5,37.2-36.1,57.1-52.8c-7.9-17.7-12.2-37.4-12.2-58c0-79.2,64.2-143.4,143.4-143.4
		c47.1,0,89,22.8,115.1,57.9c17.7,23.9,28.3,53.4,28.3,85.5c0,79.2-64.2,143.4-143.4,143.4c-58.5,0-108.9-35.1-131.1-85.4
		c-19.8,16.7-38.9,34.3-57.1,52.8l22.3,38.8c11.8-6.8,25.4-10.5,39.9-10.5c44.3,0,80.2,35.8,80.2,80.3H296
		c0-44.5,35.9-80.3,80.2-80.3c14.5,0,28.1,3.8,39.8,10.5l45.9-80C437.8,305.5,421.6,279.5,421.6,249.7z"/>
</g>
<g id="Layer_7" class="st6">
	<g id="Layer_1_2_" class="st7">
		<g>
			<rect x="250" y="375" class="st8" width="31.3" height="31.3"/>
			<rect x="156.3" y="375" class="st8" width="31.3" height="31.3"/>
			<rect x="218.8" y="375" class="st8" width="31.3" height="31.3"/>
			<rect x="187.5" y="375" class="st8" width="31.3" height="31.3"/>
			<rect x="93.8" y="343.8" class="st8" width="31.3" height="31.3"/>
			<rect x="93.8" y="375" class="st8" width="31.3" height="31.3"/>
			<rect x="125" y="375" class="st8" width="31.3" height="31.3"/>
			<rect x="281.3" y="375" class="st8" width="31.3" height="31.3"/>
			<rect x="375" y="312.5" class="st8" width="31.3" height="31.3"/>
			<rect x="93.8" y="312.5" class="st8" width="31.3" height="31.3"/>
			<rect x="375" y="343.8" class="st8" width="31.3" height="31.3"/>
			<rect x="375" y="281.3" class="st8" width="31.3" height="31.3"/>
			<rect x="312.5" y="375" class="st8" width="31.3" height="31.3"/>
			<rect x="375" y="375" class="st8" width="31.3" height="31.3"/>
			<rect x="375" y="250" class="st8" width="31.3" height="31.3"/>
			<rect x="343.8" y="375" class="st8" width="31.3" height="31.3"/>
			<rect x="250" y="93.8" class="st8" width="31.3" height="31.3"/>
			<rect x="218.8" y="93.8" class="st8" width="31.3" height="31.3"/>
			<rect x="187.5" y="93.8" class="st8" width="31.3" height="31.3"/>
			<rect x="312.5" y="93.8" class="st8" width="31.3" height="31.3"/>
			<rect x="343.8" y="93.8" class="st8" width="31.3" height="31.3"/>
			<rect x="156.3" y="93.8" class="st8" width="31.3" height="31.3"/>
			<rect x="281.3" y="93.8" class="st8" width="31.3" height="31.3"/>
			<rect x="93.8" y="156.3" class="st8" width="31.3" height="31.3"/>
			<rect x="93.8" y="187.5" class="st8" width="31.3" height="31.3"/>
			<rect x="93.8" y="218.8" class="st8" width="31.3" height="31.3"/>
			<rect x="93.8" y="250" class="st8" width="31.3" height="31.3"/>
			<rect x="93.8" y="281.3" class="st8" width="31.3" height="31.3"/>
			<rect x="125" y="93.8" class="st8" width="31.3" height="31.3"/>
			<rect x="93.8" y="93.8" class="st8" width="31.3" height="31.3"/>
			<rect x="93.8" y="125" class="st8" width="31.3" height="31.3"/>
			<rect x="375" y="125" class="st8" width="31.3" height="31.3"/>
			<rect x="62.5" y="281.3" class="st8" width="31.3" height="31.3"/>
			<rect x="62.5" y="312.5" class="st8" width="31.3" height="31.3"/>
			<rect x="62.5" y="250" class="st8" width="31.3" height="31.3"/>
			<rect x="62.5" y="156.3" class="st8" width="31.3" height="31.3"/>
			<rect x="62.5" y="125" class="st8" width="31.3" height="31.3"/>
			<rect x="62.5" y="187.5" class="st8" width="31.3" height="31.3"/>
			<rect x="62.5" y="218.8" class="st8" width="31.3" height="31.3"/>
			<rect x="62.5" y="343.8" class="st8" width="31.3" height="31.3"/>
			<rect x="187.5" y="406.3" class="st8" width="31.3" height="31.3"/>
			<rect x="218.8" y="406.3" class="st8" width="31.3" height="31.3"/>
			<rect x="156.3" y="406.3" class="st8" width="31.3" height="31.3"/>
			<rect x="125" y="406.3" class="st8" width="31.3" height="31.3"/>
			<rect x="62.5" y="406.3" class="st8" width="31.3" height="31.3"/>
			<rect x="93.8" y="406.3" class="st8" width="31.3" height="31.3"/>
			<rect x="62.5" y="375" class="st8" width="31.3" height="31.3"/>
			<rect x="62.5" y="93.8" class="st8" width="31.3" height="31.3"/>
			<rect x="375" y="62.5" class="st8" width="31.3" height="31.3"/>
			<rect x="312.5" y="62.5" class="st8" width="31.3" height="31.3"/>
			<rect x="281.3" y="62.5" class="st8" width="31.3" height="31.3"/>
			<rect x="375" y="93.8" class="st8" width="31.3" height="31.3"/>
			<rect x="343.8" y="125" class="st8" width="31.3" height="31.3"/>
			<rect x="375" y="187.5" class="st8" width="31.3" height="31.3"/>
			<rect x="375" y="156.3" class="st8" width="31.3" height="31.3"/>
			<rect x="62.5" y="62.5" class="st8" width="31.3" height="31.3"/>
			<rect x="93.8" y="62.5" class="st8" width="31.3" height="31.3"/>
			<rect x="375" y="218.8" class="st8" width="31.3" height="31.3"/>
			<rect x="125" y="62.5" class="st8" width="31.3" height="31.3"/>
			<rect x="250" y="62.5" class="st8" width="31.3" height="31.3"/>
			<rect x="218.8" y="62.5" class="st8" width="31.3" height="31.3"/>
			<rect x="187.5" y="62.5" class="st8" width="31.3" height="31.3"/>
			<rect x="156.3" y="62.5" class="st8" width="31.3" height="31.3"/>
			<rect x="281.3" y="156.3" class="st8" width="31.3" height="31.3"/>
			<rect x="156.3" y="156.3" class="st8" width="31.3" height="31.3"/>
			<rect x="156.3" y="218.8" class="st8" width="31.3" height="31.3"/>
			<rect x="156.3" y="187.5" class="st8" width="31.3" height="31.3"/>
			<rect x="187.5" y="156.3" class="st8" width="31.3" height="31.3"/>
			<rect x="250" y="406.3" class="st8" width="31.3" height="31.3"/>
			<rect x="250" y="156.3" class="st8" width="31.3" height="31.3"/>
			<rect x="281.3" y="187.5" class="st8" width="31.3" height="31.3"/>
			<rect x="218.8" y="156.3" class="st8" width="31.3" height="31.3"/>
			<rect x="250" y="312.5" class="st8" width="31.3" height="31.3"/>
			<rect x="312.5" y="312.5" class="st8" width="31.3" height="31.3"/>
			<rect x="281.3" y="312.5" class="st8" width="31.3" height="31.3"/>
			<rect x="218.8" y="312.5" class="st8" width="31.3" height="31.3"/>
			<rect x="156.3" y="281.3" class="st8" width="31.3" height="31.3"/>
			<rect x="156.3" y="312.5" class="st8" width="31.3" height="31.3"/>
			<rect x="187.5" y="312.5" class="st8" width="31.3" height="31.3"/>
			<rect x="156.3" y="250" class="st8" width="31.3" height="31.3"/>
			<rect x="187.5" y="187.5" class="st8" width="31.3" height="31.3"/>
			<rect x="218.8" y="187.5" class="st8" width="31.3" height="31.3"/>
			<rect x="250" y="218.8" class="st8" width="31.3" height="31.3"/>
			<rect x="250" y="187.5" class="st8" width="31.3" height="31.3"/>
			<rect x="281.3" y="218.8" class="st8" width="31.3" height="31.3"/>
			<rect x="218.8" y="250" class="st8" width="31.3" height="31.3"/>
			<rect x="250" y="250" class="st8" width="31.3" height="31.3"/>
			<rect x="218.8" y="218.8" class="st8" width="31.3" height="31.3"/>
			<rect x="281.3" y="281.3" class="st8" width="31.3" height="31.3"/>
			<rect x="250" y="281.3" class="st8" width="31.3" height="31.3"/>
			<rect x="281.3" y="250" class="st8" width="31.3" height="31.3"/>
			<rect x="187.5" y="218.8" class="st8" width="31.3" height="31.3"/>
			<rect x="187.5" y="250" class="st8" width="31.3" height="31.3"/>
			<rect x="187.5" y="281.3" class="st8" width="31.3" height="31.3"/>
			<rect x="218.8" y="281.3" class="st8" width="31.3" height="31.3"/>
			<rect x="343.8" y="156.3" class="st8" width="31.3" height="31.3"/>
			<rect x="218.8" y="343.8" class="st8" width="31.3" height="31.3"/>
			<rect x="187.5" y="343.8" class="st8" width="31.3" height="31.3"/>
			<rect x="250" y="343.8" class="st8" width="31.3" height="31.3"/>
			<rect x="156.3" y="343.8" class="st8" width="31.3" height="31.3"/>
			<rect x="125" y="312.5" class="st8" width="31.3" height="31.3"/>
			<rect x="125" y="343.8" class="st8" width="31.3" height="31.3"/>
			<rect x="281.3" y="343.8" class="st8" width="31.3" height="31.3"/>
			<rect x="343.8" y="312.5" class="st8" width="31.3" height="31.3"/>
			<rect x="343.8" y="250" class="st8" width="31.3" height="31.3"/>
			<rect x="343.8" y="218.8" class="st8" width="31.3" height="31.3"/>
			<rect x="312.5" y="343.8" class="st8" width="31.3" height="31.3"/>
			<rect x="343.8" y="187.5" class="st8" width="31.3" height="31.3"/>
			<rect x="343.8" y="343.8" class="st8" width="31.3" height="31.3"/>
			<rect x="125" y="281.3" class="st8" width="31.3" height="31.3"/>
			<rect x="343.8" y="281.3" class="st8" width="31.3" height="31.3"/>
			<rect x="312.5" y="218.8" class="st8" width="31.3" height="31.3"/>
			<rect x="125" y="250" class="st8" width="31.3" height="31.3"/>
			<rect x="281.3" y="125" class="st8" width="31.3" height="31.3"/>
			<rect x="312.5" y="156.3" class="st8" width="31.3" height="31.3"/>
			<rect x="312.5" y="187.5" class="st8" width="31.3" height="31.3"/>
			<rect x="312.5" y="250" class="st8" width="31.3" height="31.3"/>
			<rect x="312.5" y="281.3" class="st8" width="31.3" height="31.3"/>
			<rect x="250" y="125" class="st8" width="31.3" height="31.3"/>
			<rect x="312.5" y="125" class="st8" width="31.3" height="31.3"/>
			<rect x="125" y="187.5" class="st8" width="31.3" height="31.3"/>
			<rect x="125" y="218.8" class="st8" width="31.3" height="31.3"/>
			<rect x="125" y="156.3" class="st8" width="31.3" height="31.3"/>
			<rect x="156.3" y="125" class="st8" width="31.3" height="31.3"/>
			<rect x="187.5" y="125" class="st8" width="31.3" height="31.3"/>
			<rect x="125" y="125" class="st8" width="31.3" height="31.3"/>
			<rect x="218.8" y="125" class="st8" width="31.3" height="31.3"/>
			<rect x="343.8" y="62.5" class="st8" width="31.3" height="31.3"/>
			<rect y="93.8" class="st8" width="31.3" height="31.3"/>
			<rect y="125" class="st8" width="31.3" height="31.3"/>
			<rect y="62.5" class="st8" width="31.3" height="31.3"/>
			<rect y="156.3" class="st8" width="31.3" height="31.3"/>
			<rect class="st8" width="31.3" height="31.3"/>
			<rect x="31.3" class="st8" width="31.3" height="31.3"/>
			<rect y="187.5" class="st8" width="31.3" height="31.3"/>
			<rect y="31.3" class="st8" width="31.3" height="31.3"/>
			<rect y="343.8" class="st8" width="31.3" height="31.3"/>
			<rect x="62.5" class="st8" width="31.3" height="31.3"/>
			<rect y="375" class="st8" width="31.3" height="31.3"/>
			<rect y="218.8" class="st8" width="31.3" height="31.3"/>
			<rect y="406.3" class="st8" width="31.3" height="31.3"/>
			<rect y="250" class="st8" width="31.3" height="31.3"/>
			<rect y="312.5" class="st8" width="31.3" height="31.3"/>
			<rect y="281.3" class="st8" width="31.3" height="31.3"/>
			<rect x="312.5" class="st8" width="31.3" height="31.3"/>
			<rect x="406.3" class="st8" width="31.3" height="31.3"/>
			<rect x="375" class="st8" width="31.3" height="31.3"/>
			<rect x="437.5" class="st8" width="31.3" height="31.3"/>
			<rect x="437.5" y="31.3" class="st8" width="31.3" height="31.3"/>
			<rect x="437.5" y="93.8" class="st8" width="31.3" height="31.3"/>
			<rect x="437.5" y="62.5" class="st8" width="31.3" height="31.3"/>
			<rect x="93.8" class="st8" width="31.3" height="31.3"/>
			<rect x="343.8" class="st8" width="31.3" height="31.3"/>
			<rect x="156.3" class="st8" width="31.3" height="31.3"/>
			<rect x="125" class="st8" width="31.3" height="31.3"/>
			<rect x="437.5" y="125" class="st8" width="31.3" height="31.3"/>
			<rect x="281.3" class="st8" width="31.3" height="31.3"/>
			<rect x="218.8" class="st8" width="31.3" height="31.3"/>
			<rect y="437.5" class="st8" width="31.3" height="31.3"/>
			<rect x="250" class="st8" width="31.3" height="31.3"/>
			<rect x="187.5" class="st8" width="31.3" height="31.3"/>
			<rect x="468.8" y="281.3" class="st8" width="31.3" height="31.3"/>
			<rect x="468.8" y="312.5" class="st8" width="31.3" height="31.3"/>
			<rect x="468.8" y="250" class="st8" width="31.3" height="31.3"/>
			<rect x="468.8" y="375" class="st8" width="31.3" height="31.3"/>
			<rect x="468.8" y="406.3" class="st8" width="31.3" height="31.3"/>
			<rect x="468.8" y="218.8" class="st8" width="31.3" height="31.3"/>
			<rect x="468.8" y="343.8" class="st8" width="31.3" height="31.3"/>
			<rect x="468.8" y="437.5" class="st8" width="31.3" height="31.3"/>
			<rect x="468.8" y="62.5" class="st8" width="31.3" height="31.3"/>
			<rect x="468.8" y="31.3" class="st8" width="31.3" height="31.3"/>
			<rect x="468.8" class="st8" width="31.3" height="31.3"/>
			<rect x="468.8" y="125" class="st8" width="31.3" height="31.3"/>
			<rect x="468.8" y="156.3" class="st8" width="31.3" height="31.3"/>
			<rect x="468.8" y="93.8" class="st8" width="31.3" height="31.3"/>
			<rect x="468.8" y="187.5" class="st8" width="31.3" height="31.3"/>
			<rect x="343.8" y="468.8" class="st8" width="31.3" height="31.3"/>
			<rect x="218.8" y="468.8" class="st8" width="31.3" height="31.3"/>
			<rect x="125" y="468.8" class="st8" width="31.3" height="31.3"/>
			<rect x="468.8" y="468.8" class="st8" width="31.3" height="31.3"/>
			<rect x="156.3" y="468.8" class="st8" width="31.3" height="31.3"/>
			<rect x="93.8" y="468.8" class="st8" width="31.3" height="31.3"/>
			<rect x="31.3" y="468.8" class="st8" width="31.3" height="31.3"/>
			<rect x="62.5" y="468.8" class="st8" width="31.3" height="31.3"/>
			<rect x="187.5" y="468.8" class="st8" width="31.3" height="31.3"/>
			<rect x="406.3" y="468.8" class="st8" width="31.3" height="31.3"/>
			<rect x="250" y="468.8" class="st8" width="31.3" height="31.3"/>
			<rect x="437.5" y="468.8" class="st8" width="31.3" height="31.3"/>
			<rect x="375" y="468.8" class="st8" width="31.3" height="31.3"/>
			<rect x="281.3" y="468.8" class="st8" width="31.3" height="31.3"/>
			<rect x="312.5" y="468.8" class="st8" width="31.3" height="31.3"/>
			<rect y="468.8" class="st8" width="31.3" height="31.3"/>
			<rect x="187.5" y="31.3" class="st8" width="31.3" height="31.3"/>
			<rect x="281.3" y="31.3" class="st8" width="31.3" height="31.3"/>
			<rect x="250" y="31.3" class="st8" width="31.3" height="31.3"/>
			<rect x="218.8" y="31.3" class="st8" width="31.3" height="31.3"/>
			<rect x="343.8" y="31.3" class="st8" width="31.3" height="31.3"/>
			<rect x="375" y="31.3" class="st8" width="31.3" height="31.3"/>
			<rect x="312.5" y="31.3" class="st8" width="31.3" height="31.3"/>
			<rect x="281.3" y="406.3" class="st8" width="31.3" height="31.3"/>
			<rect x="31.3" y="31.3" class="st8" width="31.3" height="31.3"/>
			<rect x="406.3" y="31.3" class="st8" width="31.3" height="31.3"/>
			<rect x="156.3" y="31.3" class="st8" width="31.3" height="31.3"/>
			<rect x="31.3" y="93.8" class="st8" width="31.3" height="31.3"/>
			<rect x="31.3" y="62.5" class="st8" width="31.3" height="31.3"/>
			<rect x="62.5" y="31.3" class="st8" width="31.3" height="31.3"/>
			<rect x="125" y="31.3" class="st8" width="31.3" height="31.3"/>
			<rect x="93.8" y="31.3" class="st8" width="31.3" height="31.3"/>
			<rect x="312.5" y="406.3" class="st8" width="31.3" height="31.3"/>
			<rect x="406.3" y="312.5" class="st8" width="31.3" height="31.3"/>
			<rect x="406.3" y="343.8" class="st8" width="31.3" height="31.3"/>
			<rect x="406.3" y="406.3" class="st8" width="31.3" height="31.3"/>
			<rect x="406.3" y="62.5" class="st8" width="31.3" height="31.3"/>
			<rect x="31.3" y="125" class="st8" width="31.3" height="31.3"/>
			<rect x="343.8" y="406.3" class="st8" width="31.3" height="31.3"/>
			<rect x="375" y="406.3" class="st8" width="31.3" height="31.3"/>
			<rect x="406.3" y="375" class="st8" width="31.3" height="31.3"/>
			<rect x="406.3" y="156.3" class="st8" width="31.3" height="31.3"/>
			<rect x="406.3" y="125" class="st8" width="31.3" height="31.3"/>
			<rect x="406.3" y="93.8" class="st8" width="31.3" height="31.3"/>
			<rect x="406.3" y="281.3" class="st8" width="31.3" height="31.3"/>
			<rect x="406.3" y="250" class="st8" width="31.3" height="31.3"/>
			<rect x="406.3" y="187.5" class="st8" width="31.3" height="31.3"/>
			<rect x="406.3" y="218.8" class="st8" width="31.3" height="31.3"/>
			<rect x="437.5" y="187.5" class="st8" width="31.3" height="31.3"/>
			<rect x="31.3" y="156.3" class="st8" width="31.3" height="31.3"/>
			<rect x="375" y="437.5" class="st8" width="31.3" height="31.3"/>
			<rect x="250" y="437.5" class="st8" width="31.3" height="31.3"/>
			<rect x="437.5" y="406.3" class="st8" width="31.3" height="31.3"/>
			<rect x="281.3" y="437.5" class="st8" width="31.3" height="31.3"/>
			<rect x="312.5" y="437.5" class="st8" width="31.3" height="31.3"/>
			<rect x="343.8" y="437.5" class="st8" width="31.3" height="31.3"/>
			<rect x="437.5" y="437.5" class="st8" width="31.3" height="31.3"/>
			<rect x="437.5" y="218.8" class="st8" width="31.3" height="31.3"/>
			<rect x="437.5" y="156.3" class="st8" width="31.3" height="31.3"/>
			<rect x="437.5" y="250" class="st8" width="31.3" height="31.3"/>
			<rect x="437.5" y="375" class="st8" width="31.3" height="31.3"/>
			<rect x="437.5" y="343.8" class="st8" width="31.3" height="31.3"/>
			<rect x="437.5" y="312.5" class="st8" width="31.3" height="31.3"/>
			<rect x="437.5" y="281.3" class="st8" width="31.3" height="31.3"/>
			<rect x="406.3" y="437.5" class="st8" width="31.3" height="31.3"/>
			<rect x="31.3" y="312.5" class="st8" width="31.3" height="31.3"/>
			<rect x="31.3" y="343.8" class="st8" width="31.3" height="31.3"/>
			<rect x="31.3" y="281.3" class="st8" width="31.3" height="31.3"/>
			<rect x="31.3" y="218.8" class="st8" width="31.3" height="31.3"/>
			<rect x="31.3" y="187.5" class="st8" width="31.3" height="31.3"/>
			<rect x="31.3" y="375" class="st8" width="31.3" height="31.3"/>
			<rect x="31.3" y="250" class="st8" width="31.3" height="31.3"/>
			<rect x="187.5" y="437.5" class="st8" width="31.3" height="31.3"/>
			<rect x="125" y="437.5" class="st8" width="31.3" height="31.3"/>
			<rect x="156.3" y="437.5" class="st8" width="31.3" height="31.3"/>
			<rect x="218.8" y="437.5" class="st8" width="31.3" height="31.3"/>
			<rect x="93.8" y="437.5" class="st8" width="31.3" height="31.3"/>
			<rect x="31.3" y="406.3" class="st8" width="31.3" height="31.3"/>
			<rect x="31.3" y="437.5" class="st8" width="31.3" height="31.3"/>
			<rect x="62.5" y="437.5" class="st8" width="31.3" height="31.3"/>
		</g>
		<g>
			<rect class="st9" width="500" height="500"/>
			<rect class="st9" width="62.5" height="62.5"/>
			<rect x="437.5" class="st9" width="62.5" height="62.5"/>
			<rect y="437.5" class="st9" width="62.5" height="62.5"/>
			<rect x="437.5" y="437.5" class="st9" width="62.5" height="62.5"/>
			<rect x="62.5" y="62.5" class="st9" width="187.5" height="187.5"/>
			<rect x="250" y="62.5" class="st9" width="187.5" height="187.5"/>
			<rect x="62.5" y="250" class="st9" width="187.5" height="187.5"/>
			<rect x="250" y="250" class="st9" width="187.5" height="187.5"/>
			<line class="st9" x1="0" y1="0" x2="500" y2="500"/>
			<line class="st9" x1="500" y1="0" x2="0" y2="500"/>
			<circle class="st9" cx="250" cy="250" r="187.5"/>
			<circle class="st9" cx="250" cy="250" r="250"/>
		</g>
		<rect x="62.5" class="st9" width="375" height="500"/>
	</g>
</g>
</svg>
