<?xml version="1.0" encoding="utf-8"?>
<!-- Generator: Adobe Illustrator 22.1.0, SVG Export Plug-In . SVG Version: 6.00 Build 0)  -->
<svg version="1.1" xmlns="http://www.w3.org/2000/svg" xmlns:xlink="http://www.w3.org/1999/xlink" x="0px" y="0px"
	 viewBox="0 0 500 500" style="enable-background:new 0 0 500 500;" xml:space="preserve">
<style type="text/css">
	.st0{fill:#FF6600;}
	.st1{fill:url(#SVGID_1_);}
	.st2{fill:#B5B5B5;}
	.st3{opacity:0.5;fill:url(#SVGID_2_);enable-background:new    ;}
	.st4{opacity:0.3;fill:url(#SVGID_3_);}
	.st5{opacity:0.3;fill:url(#SVGID_4_);}
	.st6{fill:url(#SVGID_5_);}
	.st7{fill:#FFFFFF;}
	.st8{display:none;}
	.st9{display:inline;}
	.st10{fill:none;stroke:#EDEDED;stroke-width:0.5;stroke-miterlimit:10;}
	.st11{display:inline;fill:none;stroke:#BDBDBD;stroke-miterlimit:10;}
</style>
<g id="Layer_1">
	<g id="Layer_2_1_">
		<path class="st0" d="M400,500H100C44.8,500,0,455.2,0,400V100C0,44.8,44.8,0,100,0h300c55.2,0,100,44.8,100,100v300
			C500,455.2,455.2,500,400,500z"/>
	</g>
	<g id="Layer_3_copy">
		
			<linearGradient id="SVGID_1_" gradientUnits="userSpaceOnUse" x1="771" y1="158.6" x2="771" y2="158.6" gradientTransform="matrix(1 0 0 -1 0 502)">
			<stop  offset="0" style="stop-color:#FF6600"/>
			<stop  offset="1" style="stop-color:#231F20"/>
		</linearGradient>
		<path class="st1" d="M771,343.4"/>
	</g>
	<path class="st2" d="M68.8,358.8"/>
	
		<linearGradient id="SVGID_2_" gradientUnits="userSpaceOnUse" x1="509.4284" y1="91.3856" x2="208.4856" y2="265.135" gradientTransform="matrix(1 0 0 -1 0 502)">
		<stop  offset="0" style="stop-color:#FF6600"/>
		<stop  offset="1" style="stop-color:#231F20"/>
	</linearGradient>
	<path class="st3" d="M133.8,366.2L257,265l109.2-131.2l88.2,92.5l14.4-132.6l31.4,62.6L500,400c0,51.5-41.3,101-97.3,100
		l-246.4,0.1L125,468.8l87.3-23.1"/>
	<linearGradient id="SVGID_3_" gradientUnits="userSpaceOnUse" x1="291.7577" y1="500" x2="291.7577" y2="62.6">
		<stop  offset="0" style="stop-color:#FF6600"/>
		<stop  offset="1" style="stop-color:#231F20"/>
	</linearGradient>
	<polyline class="st4" points="125,62.6 187.5,125 402.7,500 458.5,187.8 375,62.6 	"/>
	<linearGradient id="SVGID_4_" gradientUnits="userSpaceOnUse" x1="406.3" y1="299.4" x2="31.275" y2="299.4">
		<stop  offset="0" style="stop-color:#FF6600"/>
		<stop  offset="1" style="stop-color:#231F20"/>
	</linearGradient>
	<polyline class="st5" points="31.3,406.3 125.1,505 143.7,501.1 406.3,495.2 62.6,93.8 	"/>
	<linearGradient id="SVGID_5_" gradientUnits="userSpaceOnUse" x1="766" y1="140.65" x2="766" y2="140.65">
		<stop  offset="0" style="stop-color:#FF6600"/>
		<stop  offset="1" style="stop-color:#231F20"/>
	</linearGradient>
	<path class="st6" d="M766,140.6"/>
</g>
<g id="Layer_3">
</g>
<g id="Layer_4">
	<path class="st7" d="M344.9,375.1H155.3c-16.7,0-30.1-13.5-30.1-30.1V155.3c0-16.7,13.5-30.1,30.1-30.1h189.7
		c16.7,0,30.1,13.5,30.1,30.1v189.7C375.1,361.6,361.6,375.1,344.9,375.1z"/>
	<polygon class="st7" points="468.8,406.3 437.5,406.3 437.5,93.9 468.7,93.8 	"/>
	<polygon class="st7" points="62.6,406.1 31.3,406.3 31.3,93.8 62.6,93.8 	"/>
	<polygon class="st7" points="375.1,468.8 125,468.8 125,437.5 375,437.5 	"/>
	<polygon class="st7" points="375,62.5 125,62.5 125.1,31.3 375,31.3 	"/>
</g>
<g id="Layer_7" class="st8">
	<g class="st9">
		<rect x="250" y="375" class="st10" width="31.3" height="31.3"/>
		<rect x="156.3" y="375" class="st10" width="31.3" height="31.3"/>
		<rect x="218.8" y="375" class="st10" width="31.3" height="31.3"/>
		<rect x="187.5" y="375" class="st10" width="31.3" height="31.3"/>
		<rect x="93.8" y="343.8" class="st10" width="31.3" height="31.3"/>
		<rect x="93.8" y="375" class="st10" width="31.3" height="31.3"/>
		<rect x="125" y="375" class="st10" width="31.3" height="31.3"/>
		<rect x="281.3" y="375" class="st10" width="31.3" height="31.3"/>
		<rect x="375" y="312.5" class="st10" width="31.3" height="31.3"/>
		<rect x="93.8" y="312.5" class="st10" width="31.3" height="31.3"/>
		<rect x="375" y="343.8" class="st10" width="31.3" height="31.3"/>
		<rect x="375" y="281.3" class="st10" width="31.3" height="31.3"/>
		<rect x="312.5" y="375" class="st10" width="31.3" height="31.3"/>
		<rect x="375" y="375" class="st10" width="31.3" height="31.3"/>
		<rect x="375" y="250" class="st10" width="31.3" height="31.3"/>
		<rect x="343.8" y="375" class="st10" width="31.3" height="31.3"/>
		<rect x="250" y="93.8" class="st10" width="31.3" height="31.3"/>
		<rect x="218.8" y="93.8" class="st10" width="31.3" height="31.3"/>
		<rect x="187.5" y="93.8" class="st10" width="31.3" height="31.3"/>
		<rect x="312.5" y="93.8" class="st10" width="31.3" height="31.3"/>
		<rect x="343.8" y="93.8" class="st10" width="31.3" height="31.3"/>
		<rect x="156.3" y="93.8" class="st10" width="31.3" height="31.3"/>
		<rect x="281.3" y="93.8" class="st10" width="31.3" height="31.3"/>
		<rect x="93.8" y="156.3" class="st10" width="31.3" height="31.3"/>
		<rect x="93.8" y="187.5" class="st10" width="31.3" height="31.3"/>
		<rect x="93.8" y="218.8" class="st10" width="31.3" height="31.3"/>
		<rect x="93.8" y="250" class="st10" width="31.3" height="31.3"/>
		<rect x="93.8" y="281.3" class="st10" width="31.3" height="31.3"/>
		<rect x="125" y="93.8" class="st10" width="31.3" height="31.3"/>
		<rect x="93.8" y="93.8" class="st10" width="31.3" height="31.3"/>
		<rect x="93.8" y="125" class="st10" width="31.3" height="31.3"/>
		<rect x="375" y="125" class="st10" width="31.3" height="31.3"/>
		<rect x="62.5" y="281.3" class="st10" width="31.3" height="31.3"/>
		<rect x="62.5" y="312.5" class="st10" width="31.3" height="31.3"/>
		<rect x="62.5" y="250" class="st10" width="31.3" height="31.3"/>
		<rect x="62.5" y="156.3" class="st10" width="31.3" height="31.3"/>
		<rect x="62.5" y="125" class="st10" width="31.3" height="31.3"/>
		<rect x="62.5" y="187.5" class="st10" width="31.3" height="31.3"/>
		<rect x="62.5" y="218.8" class="st10" width="31.3" height="31.3"/>
		<rect x="62.5" y="343.8" class="st10" width="31.3" height="31.3"/>
		<rect x="187.5" y="406.3" class="st10" width="31.3" height="31.3"/>
		<rect x="218.8" y="406.3" class="st10" width="31.3" height="31.3"/>
		<rect x="156.3" y="406.3" class="st10" width="31.3" height="31.3"/>
		<rect x="125" y="406.3" class="st10" width="31.3" height="31.3"/>
		<rect x="62.5" y="406.3" class="st10" width="31.3" height="31.3"/>
		<rect x="93.8" y="406.3" class="st10" width="31.3" height="31.3"/>
		<rect x="62.5" y="375" class="st10" width="31.3" height="31.3"/>
		<rect x="62.5" y="93.8" class="st10" width="31.3" height="31.3"/>
		<rect x="375" y="62.5" class="st10" width="31.3" height="31.3"/>
		<rect x="312.5" y="62.5" class="st10" width="31.3" height="31.3"/>
		<rect x="281.3" y="62.5" class="st10" width="31.3" height="31.3"/>
		<rect x="375" y="93.8" class="st10" width="31.3" height="31.3"/>
		<rect x="343.8" y="125" class="st10" width="31.3" height="31.3"/>
		<rect x="375" y="187.5" class="st10" width="31.3" height="31.3"/>
		<rect x="375" y="156.3" class="st10" width="31.3" height="31.3"/>
		<rect x="62.5" y="62.5" class="st10" width="31.3" height="31.3"/>
		<rect x="93.8" y="62.5" class="st10" width="31.3" height="31.3"/>
		<rect x="375" y="218.8" class="st10" width="31.3" height="31.3"/>
		<rect x="125" y="62.5" class="st10" width="31.3" height="31.3"/>
		<rect x="250" y="62.5" class="st10" width="31.3" height="31.3"/>
		<rect x="218.8" y="62.5" class="st10" width="31.3" height="31.3"/>
		<rect x="187.5" y="62.5" class="st10" width="31.3" height="31.3"/>
		<rect x="156.3" y="62.5" class="st10" width="31.3" height="31.3"/>
		<rect x="281.3" y="156.3" class="st10" width="31.3" height="31.3"/>
		<rect x="156.3" y="156.3" class="st10" width="31.3" height="31.3"/>
		<rect x="156.3" y="218.8" class="st10" width="31.3" height="31.3"/>
		<rect x="156.3" y="187.5" class="st10" width="31.3" height="31.3"/>
		<rect x="187.5" y="156.3" class="st10" width="31.3" height="31.3"/>
		<rect x="250" y="406.3" class="st10" width="31.3" height="31.3"/>
		<rect x="250" y="156.3" class="st10" width="31.3" height="31.3"/>
		<rect x="281.3" y="187.5" class="st10" width="31.3" height="31.3"/>
		<rect x="218.8" y="156.3" class="st10" width="31.3" height="31.3"/>
		<rect x="250" y="312.5" class="st10" width="31.3" height="31.3"/>
		<rect x="312.5" y="312.5" class="st10" width="31.3" height="31.3"/>
		<rect x="281.3" y="312.5" class="st10" width="31.3" height="31.3"/>
		<rect x="218.8" y="312.5" class="st10" width="31.3" height="31.3"/>
		<rect x="156.3" y="281.3" class="st10" width="31.3" height="31.3"/>
		<rect x="156.3" y="312.5" class="st10" width="31.3" height="31.3"/>
		<rect x="187.5" y="312.5" class="st10" width="31.3" height="31.3"/>
		<rect x="156.3" y="250" class="st10" width="31.3" height="31.3"/>
		<rect x="187.5" y="187.5" class="st10" width="31.3" height="31.3"/>
		<rect x="218.8" y="187.5" class="st10" width="31.3" height="31.3"/>
		<rect x="250" y="218.8" class="st10" width="31.3" height="31.3"/>
		<rect x="250" y="187.5" class="st10" width="31.3" height="31.3"/>
		<rect x="281.3" y="218.8" class="st10" width="31.3" height="31.3"/>
		<rect x="218.8" y="250" class="st10" width="31.3" height="31.3"/>
		<rect x="250" y="250" class="st10" width="31.3" height="31.3"/>
		<rect x="218.8" y="218.8" class="st10" width="31.3" height="31.3"/>
		<rect x="281.3" y="281.3" class="st10" width="31.3" height="31.3"/>
		<rect x="250" y="281.3" class="st10" width="31.3" height="31.3"/>
		<rect x="281.3" y="250" class="st10" width="31.3" height="31.3"/>
		<rect x="187.5" y="218.8" class="st10" width="31.3" height="31.3"/>
		<rect x="187.5" y="250" class="st10" width="31.3" height="31.3"/>
		<rect x="187.5" y="281.3" class="st10" width="31.3" height="31.3"/>
		<rect x="218.8" y="281.3" class="st10" width="31.3" height="31.3"/>
		<rect x="343.8" y="156.3" class="st10" width="31.3" height="31.3"/>
		<rect x="218.8" y="343.8" class="st10" width="31.3" height="31.3"/>
		<rect x="187.5" y="343.8" class="st10" width="31.3" height="31.3"/>
		<rect x="250" y="343.8" class="st10" width="31.3" height="31.3"/>
		<rect x="156.3" y="343.8" class="st10" width="31.3" height="31.3"/>
		<rect x="125" y="312.5" class="st10" width="31.3" height="31.3"/>
		<rect x="125" y="343.8" class="st10" width="31.3" height="31.3"/>
		<rect x="281.3" y="343.8" class="st10" width="31.3" height="31.3"/>
		<rect x="343.8" y="312.5" class="st10" width="31.3" height="31.3"/>
		<rect x="343.8" y="250" class="st10" width="31.3" height="31.3"/>
		<rect x="343.8" y="218.8" class="st10" width="31.3" height="31.3"/>
		<rect x="312.5" y="343.8" class="st10" width="31.3" height="31.3"/>
		<rect x="343.8" y="187.5" class="st10" width="31.3" height="31.3"/>
		<rect x="343.8" y="343.8" class="st10" width="31.3" height="31.3"/>
		<rect x="125" y="281.3" class="st10" width="31.3" height="31.3"/>
		<rect x="343.8" y="281.3" class="st10" width="31.3" height="31.3"/>
		<rect x="312.5" y="218.8" class="st10" width="31.3" height="31.3"/>
		<rect x="125" y="250" class="st10" width="31.3" height="31.3"/>
		<rect x="281.3" y="125" class="st10" width="31.3" height="31.3"/>
		<rect x="312.5" y="156.3" class="st10" width="31.3" height="31.3"/>
		<rect x="312.5" y="187.5" class="st10" width="31.3" height="31.3"/>
		<rect x="312.5" y="250" class="st10" width="31.3" height="31.3"/>
		<rect x="312.5" y="281.3" class="st10" width="31.3" height="31.3"/>
		<rect x="250" y="125" class="st10" width="31.3" height="31.3"/>
		<rect x="312.5" y="125" class="st10" width="31.3" height="31.3"/>
		<rect x="125" y="187.5" class="st10" width="31.3" height="31.3"/>
		<rect x="125" y="218.8" class="st10" width="31.3" height="31.3"/>
		<rect x="125" y="156.3" class="st10" width="31.3" height="31.3"/>
		<rect x="156.3" y="125" class="st10" width="31.3" height="31.3"/>
		<rect x="187.5" y="125" class="st10" width="31.3" height="31.3"/>
		<rect x="125" y="125" class="st10" width="31.3" height="31.3"/>
		<rect x="218.8" y="125" class="st10" width="31.3" height="31.3"/>
		<rect x="343.8" y="62.5" class="st10" width="31.3" height="31.3"/>
		<rect y="93.8" class="st10" width="31.3" height="31.3"/>
		<rect y="125" class="st10" width="31.3" height="31.3"/>
		<rect y="62.5" class="st10" width="31.3" height="31.3"/>
		<rect y="156.3" class="st10" width="31.3" height="31.3"/>
		<rect class="st10" width="31.3" height="31.3"/>
		<rect x="31.3" class="st10" width="31.3" height="31.3"/>
		<rect y="187.5" class="st10" width="31.3" height="31.3"/>
		<rect y="31.3" class="st10" width="31.3" height="31.3"/>
		<rect y="343.8" class="st10" width="31.3" height="31.3"/>
		<rect x="62.5" class="st10" width="31.3" height="31.3"/>
		<rect y="375" class="st10" width="31.3" height="31.3"/>
		<rect y="218.8" class="st10" width="31.3" height="31.3"/>
		<rect y="406.3" class="st10" width="31.3" height="31.3"/>
		<rect y="250" class="st10" width="31.3" height="31.3"/>
		<rect y="312.5" class="st10" width="31.3" height="31.3"/>
		<rect y="281.3" class="st10" width="31.3" height="31.3"/>
		<rect x="312.5" class="st10" width="31.3" height="31.3"/>
		<rect x="406.3" class="st10" width="31.3" height="31.3"/>
		<rect x="375" class="st10" width="31.3" height="31.3"/>
		<rect x="437.5" class="st10" width="31.3" height="31.3"/>
		<rect x="437.5" y="31.3" class="st10" width="31.3" height="31.3"/>
		<rect x="437.5" y="93.8" class="st10" width="31.3" height="31.3"/>
		<rect x="437.5" y="62.5" class="st10" width="31.3" height="31.3"/>
		<rect x="93.8" class="st10" width="31.3" height="31.3"/>
		<rect x="343.8" class="st10" width="31.3" height="31.3"/>
		<rect x="156.3" class="st10" width="31.3" height="31.3"/>
		<rect x="125" class="st10" width="31.3" height="31.3"/>
		<rect x="437.5" y="125" class="st10" width="31.3" height="31.3"/>
		<rect x="281.3" class="st10" width="31.3" height="31.3"/>
		<rect x="218.8" class="st10" width="31.3" height="31.3"/>
		<rect y="437.5" class="st10" width="31.3" height="31.3"/>
		<rect x="250" class="st10" width="31.3" height="31.3"/>
		<rect x="187.5" class="st10" width="31.3" height="31.3"/>
		<rect x="468.8" y="281.3" class="st10" width="31.3" height="31.3"/>
		<rect x="468.8" y="312.5" class="st10" width="31.3" height="31.3"/>
		<rect x="468.8" y="250" class="st10" width="31.3" height="31.3"/>
		<rect x="468.8" y="375" class="st10" width="31.3" height="31.3"/>
		<rect x="468.8" y="406.3" class="st10" width="31.3" height="31.3"/>
		<rect x="468.8" y="218.8" class="st10" width="31.3" height="31.3"/>
		<rect x="468.8" y="343.8" class="st10" width="31.3" height="31.3"/>
		<rect x="468.8" y="437.5" class="st10" width="31.3" height="31.3"/>
		<rect x="468.8" y="62.5" class="st10" width="31.3" height="31.3"/>
		<rect x="468.8" y="31.3" class="st10" width="31.3" height="31.3"/>
		<rect x="468.8" class="st10" width="31.3" height="31.3"/>
		<rect x="468.8" y="125" class="st10" width="31.3" height="31.3"/>
		<rect x="468.8" y="156.3" class="st10" width="31.3" height="31.3"/>
		<rect x="468.8" y="93.8" class="st10" width="31.3" height="31.3"/>
		<rect x="468.8" y="187.5" class="st10" width="31.3" height="31.3"/>
		<rect x="343.8" y="468.8" class="st10" width="31.3" height="31.3"/>
		<rect x="218.8" y="468.8" class="st10" width="31.3" height="31.3"/>
		<rect x="125" y="468.8" class="st10" width="31.3" height="31.3"/>
		<rect x="468.8" y="468.8" class="st10" width="31.3" height="31.3"/>
		<rect x="156.3" y="468.8" class="st10" width="31.3" height="31.3"/>
		<rect x="93.8" y="468.8" class="st10" width="31.3" height="31.3"/>
		<rect x="31.3" y="468.8" class="st10" width="31.3" height="31.3"/>
		<rect x="62.5" y="468.8" class="st10" width="31.3" height="31.3"/>
		<rect x="187.5" y="468.8" class="st10" width="31.3" height="31.3"/>
		<rect x="406.3" y="468.8" class="st10" width="31.3" height="31.3"/>
		<rect x="250" y="468.8" class="st10" width="31.3" height="31.3"/>
		<rect x="437.5" y="468.8" class="st10" width="31.3" height="31.3"/>
		<rect x="375" y="468.8" class="st10" width="31.3" height="31.3"/>
		<rect x="281.3" y="468.8" class="st10" width="31.3" height="31.3"/>
		<rect x="312.5" y="468.8" class="st10" width="31.3" height="31.3"/>
		<rect y="468.8" class="st10" width="31.3" height="31.3"/>
		<rect x="187.5" y="31.3" class="st10" width="31.3" height="31.3"/>
		<rect x="281.3" y="31.3" class="st10" width="31.3" height="31.3"/>
		<rect x="250" y="31.3" class="st10" width="31.3" height="31.3"/>
		<rect x="218.8" y="31.3" class="st10" width="31.3" height="31.3"/>
		<rect x="343.8" y="31.3" class="st10" width="31.3" height="31.3"/>
		<rect x="375" y="31.3" class="st10" width="31.3" height="31.3"/>
		<rect x="312.5" y="31.3" class="st10" width="31.3" height="31.3"/>
		<rect x="281.3" y="406.3" class="st10" width="31.3" height="31.3"/>
		<rect x="31.3" y="31.3" class="st10" width="31.3" height="31.3"/>
		<rect x="406.3" y="31.3" class="st10" width="31.3" height="31.3"/>
		<rect x="156.3" y="31.3" class="st10" width="31.3" height="31.3"/>
		<rect x="31.3" y="93.8" class="st10" width="31.3" height="31.3"/>
		<rect x="31.3" y="62.5" class="st10" width="31.3" height="31.3"/>
		<rect x="62.5" y="31.3" class="st10" width="31.3" height="31.3"/>
		<rect x="125" y="31.3" class="st10" width="31.3" height="31.3"/>
		<rect x="93.8" y="31.3" class="st10" width="31.3" height="31.3"/>
		<rect x="312.5" y="406.3" class="st10" width="31.3" height="31.3"/>
		<rect x="406.3" y="312.5" class="st10" width="31.3" height="31.3"/>
		<rect x="406.3" y="343.8" class="st10" width="31.3" height="31.3"/>
		<rect x="406.3" y="406.3" class="st10" width="31.3" height="31.3"/>
		<rect x="406.3" y="62.5" class="st10" width="31.3" height="31.3"/>
		<rect x="31.3" y="125" class="st10" width="31.3" height="31.3"/>
		<rect x="343.8" y="406.3" class="st10" width="31.3" height="31.3"/>
		<rect x="375" y="406.3" class="st10" width="31.3" height="31.3"/>
		<rect x="406.3" y="375" class="st10" width="31.3" height="31.3"/>
		<rect x="406.3" y="156.3" class="st10" width="31.3" height="31.3"/>
		<rect x="406.3" y="125" class="st10" width="31.3" height="31.3"/>
		<rect x="406.3" y="93.8" class="st10" width="31.3" height="31.3"/>
		<rect x="406.3" y="281.3" class="st10" width="31.3" height="31.3"/>
		<rect x="406.3" y="250" class="st10" width="31.3" height="31.3"/>
		<rect x="406.3" y="187.5" class="st10" width="31.3" height="31.3"/>
		<rect x="406.3" y="218.8" class="st10" width="31.3" height="31.3"/>
		<rect x="437.5" y="187.5" class="st10" width="31.3" height="31.3"/>
		<rect x="31.3" y="156.3" class="st10" width="31.3" height="31.3"/>
		<rect x="375" y="437.5" class="st10" width="31.3" height="31.3"/>
		<rect x="250" y="437.5" class="st10" width="31.3" height="31.3"/>
		<rect x="437.5" y="406.3" class="st10" width="31.3" height="31.3"/>
		<rect x="281.3" y="437.5" class="st10" width="31.3" height="31.3"/>
		<rect x="312.5" y="437.5" class="st10" width="31.3" height="31.3"/>
		<rect x="343.8" y="437.5" class="st10" width="31.3" height="31.3"/>
		<rect x="437.5" y="437.5" class="st10" width="31.3" height="31.3"/>
		<rect x="437.5" y="218.8" class="st10" width="31.3" height="31.3"/>
		<rect x="437.5" y="156.3" class="st10" width="31.3" height="31.3"/>
		<rect x="437.5" y="250" class="st10" width="31.3" height="31.3"/>
		<rect x="437.5" y="375" class="st10" width="31.3" height="31.3"/>
		<rect x="437.5" y="343.8" class="st10" width="31.3" height="31.3"/>
		<rect x="437.5" y="312.5" class="st10" width="31.3" height="31.3"/>
		<rect x="437.5" y="281.3" class="st10" width="31.3" height="31.3"/>
		<rect x="406.3" y="437.5" class="st10" width="31.3" height="31.3"/>
		<rect x="31.3" y="312.5" class="st10" width="31.3" height="31.3"/>
		<rect x="31.3" y="343.8" class="st10" width="31.3" height="31.3"/>
		<rect x="31.3" y="281.3" class="st10" width="31.3" height="31.3"/>
		<rect x="31.3" y="218.8" class="st10" width="31.3" height="31.3"/>
		<rect x="31.3" y="187.5" class="st10" width="31.3" height="31.3"/>
		<rect x="31.3" y="375" class="st10" width="31.3" height="31.3"/>
		<rect x="31.3" y="250" class="st10" width="31.3" height="31.3"/>
		<rect x="187.5" y="437.5" class="st10" width="31.3" height="31.3"/>
		<rect x="125" y="437.5" class="st10" width="31.3" height="31.3"/>
		<rect x="156.3" y="437.5" class="st10" width="31.3" height="31.3"/>
		<rect x="218.8" y="437.5" class="st10" width="31.3" height="31.3"/>
		<rect x="93.8" y="437.5" class="st10" width="31.3" height="31.3"/>
		<rect x="31.3" y="406.3" class="st10" width="31.3" height="31.3"/>
		<rect x="31.3" y="437.5" class="st10" width="31.3" height="31.3"/>
		<rect x="62.5" y="437.5" class="st10" width="31.3" height="31.3"/>
	</g>
	<rect class="st11" width="500" height="500"/>
	<rect class="st11" width="62.5" height="62.5"/>
	<rect x="437.5" class="st11" width="62.5" height="62.5"/>
	<rect y="437.5" class="st11" width="62.5" height="62.5"/>
	<rect x="437.5" y="437.5" class="st11" width="62.5" height="62.5"/>
	<rect x="62.5" y="62.5" class="st11" width="187.5" height="187.5"/>
	<rect x="250" y="62.5" class="st11" width="187.5" height="187.5"/>
	<rect x="62.5" y="250" class="st11" width="187.5" height="187.5"/>
	<rect x="250" y="250" class="st11" width="187.5" height="187.5"/>
	<line class="st11" x1="0" y1="0" x2="500" y2="500"/>
	<line class="st11" x1="500" y1="0" x2="0" y2="500"/>
	<circle class="st11" cx="250" cy="250" r="187.5"/>
	<circle class="st11" cx="250" cy="250" r="250"/>
	<rect x="62.5" class="st11" width="375" height="500"/>
</g>
</svg>
