<?xml version="1.0" encoding="utf-8"?>
<!-- Generator: Adobe Illustrator 22.1.0, SVG Export Plug-In . SVG Version: 6.00 Build 0)  -->
<svg version="1.1" id="Layer_1" xmlns="http://www.w3.org/2000/svg" xmlns:xlink="http://www.w3.org/1999/xlink" x="0px" y="0px"
	 viewBox="0 0 500 500" style="enable-background:new 0 0 500 500;" xml:space="preserve">
<style type="text/css">
	.st0{fill:url(#SVGID_1_);}
	.st1{display:none;}
	.st2{display:inline;}
	.st3{fill:none;stroke:#EDEDED;stroke-width:0.5;stroke-miterlimit:10;}
	.st4{fill:none;stroke:#BDBDBD;stroke-miterlimit:10;}
	.st5{display:inline;fill:none;stroke:#BDBDBD;stroke-miterlimit:10;}
	.st6{display:none;fill:#FF6600;}
	.st7{fill:#FF6600;}
</style>
<g id="Layer_3_copy">
	
		<linearGradient id="SVGID_1_" gradientUnits="userSpaceOnUse" x1="781" y1="633.4" x2="781" y2="633.4" gradientTransform="matrix(1 0 0 1 0 -290)">
		<stop  offset="0" style="stop-color:#FF6600"/>
		<stop  offset="1" style="stop-color:#231F20"/>
	</linearGradient>
	<path class="st0" d="M781,343.4"/>
</g>
<g id="Layer_3">
</g>
<g id="Layer_3_copy_2">
</g>
<g id="Layer_6">
</g>
<g id="Layer_4">
</g>
<g id="Layer_1_1_" class="st1">
	<g class="st2">
		<rect x="250" y="375" class="st3" width="31.3" height="31.3"/>
		<rect x="156.3" y="375" class="st3" width="31.3" height="31.3"/>
		<rect x="218.8" y="375" class="st3" width="31.3" height="31.3"/>
		<rect x="187.5" y="375" class="st3" width="31.3" height="31.3"/>
		<rect x="93.8" y="343.8" class="st3" width="31.3" height="31.3"/>
		<rect x="93.8" y="375" class="st3" width="31.3" height="31.3"/>
		<rect x="125" y="375" class="st3" width="31.3" height="31.3"/>
		<rect x="281.3" y="375" class="st3" width="31.3" height="31.3"/>
		<rect x="375" y="312.5" class="st3" width="31.3" height="31.3"/>
		<rect x="93.8" y="312.5" class="st3" width="31.3" height="31.3"/>
		<rect x="375" y="343.8" class="st3" width="31.3" height="31.3"/>
		<rect x="375" y="281.3" class="st3" width="31.3" height="31.3"/>
		<rect x="312.5" y="375" class="st3" width="31.3" height="31.3"/>
		<rect x="375" y="375" class="st3" width="31.3" height="31.3"/>
		<rect x="375" y="250" class="st3" width="31.3" height="31.3"/>
		<rect x="343.8" y="375" class="st3" width="31.3" height="31.3"/>
		<rect x="250" y="93.8" class="st3" width="31.3" height="31.3"/>
		<rect x="218.8" y="93.8" class="st3" width="31.3" height="31.3"/>
		<rect x="187.5" y="93.8" class="st3" width="31.3" height="31.3"/>
		<rect x="312.5" y="93.8" class="st3" width="31.3" height="31.3"/>
		<rect x="343.8" y="93.8" class="st3" width="31.3" height="31.3"/>
		<rect x="156.3" y="93.8" class="st3" width="31.3" height="31.3"/>
		<rect x="281.3" y="93.8" class="st3" width="31.3" height="31.3"/>
		<rect x="93.8" y="156.3" class="st3" width="31.3" height="31.3"/>
		<rect x="93.8" y="187.5" class="st3" width="31.3" height="31.3"/>
		<rect x="93.8" y="218.8" class="st3" width="31.3" height="31.3"/>
		<rect x="93.8" y="250" class="st3" width="31.3" height="31.3"/>
		<rect x="93.8" y="281.3" class="st3" width="31.3" height="31.3"/>
		<rect x="125" y="93.8" class="st3" width="31.3" height="31.3"/>
		<rect x="93.8" y="93.8" class="st3" width="31.3" height="31.3"/>
		<rect x="93.8" y="125" class="st3" width="31.3" height="31.3"/>
		<rect x="375" y="125" class="st3" width="31.3" height="31.3"/>
		<rect x="62.5" y="281.3" class="st3" width="31.3" height="31.3"/>
		<rect x="62.5" y="312.5" class="st3" width="31.3" height="31.3"/>
		<rect x="62.5" y="250" class="st3" width="31.3" height="31.3"/>
		<rect x="62.5" y="156.3" class="st3" width="31.3" height="31.3"/>
		<rect x="62.5" y="125" class="st3" width="31.3" height="31.3"/>
		<rect x="62.5" y="187.5" class="st3" width="31.3" height="31.3"/>
		<rect x="62.5" y="218.8" class="st3" width="31.3" height="31.3"/>
		<rect x="62.5" y="343.8" class="st3" width="31.3" height="31.3"/>
		<rect x="187.5" y="406.3" class="st3" width="31.3" height="31.3"/>
		<rect x="218.8" y="406.3" class="st3" width="31.3" height="31.3"/>
		<rect x="156.3" y="406.3" class="st3" width="31.3" height="31.3"/>
		<rect x="125" y="406.3" class="st3" width="31.3" height="31.3"/>
		<rect x="62.5" y="406.3" class="st3" width="31.3" height="31.3"/>
		<rect x="93.8" y="406.3" class="st3" width="31.3" height="31.3"/>
		<rect x="62.5" y="375" class="st3" width="31.3" height="31.3"/>
		<rect x="62.5" y="93.8" class="st3" width="31.3" height="31.3"/>
		<rect x="375" y="62.5" class="st3" width="31.3" height="31.3"/>
		<rect x="312.5" y="62.5" class="st3" width="31.3" height="31.3"/>
		<rect x="281.3" y="62.5" class="st3" width="31.3" height="31.3"/>
		<rect x="375" y="93.8" class="st3" width="31.3" height="31.3"/>
		<rect x="343.8" y="125" class="st3" width="31.3" height="31.3"/>
		<rect x="375" y="187.5" class="st3" width="31.3" height="31.3"/>
		<rect x="375" y="156.3" class="st3" width="31.3" height="31.3"/>
		<rect x="62.5" y="62.5" class="st3" width="31.3" height="31.3"/>
		<rect x="93.8" y="62.5" class="st3" width="31.3" height="31.3"/>
		<rect x="375" y="218.8" class="st3" width="31.3" height="31.3"/>
		<rect x="125" y="62.5" class="st3" width="31.3" height="31.3"/>
		<rect x="250" y="62.5" class="st3" width="31.3" height="31.3"/>
		<rect x="218.8" y="62.5" class="st3" width="31.3" height="31.3"/>
		<rect x="187.5" y="62.5" class="st3" width="31.3" height="31.3"/>
		<rect x="156.3" y="62.5" class="st3" width="31.3" height="31.3"/>
		<rect x="281.3" y="156.3" class="st3" width="31.3" height="31.3"/>
		<rect x="156.3" y="156.3" class="st3" width="31.3" height="31.3"/>
		<rect x="156.3" y="218.8" class="st3" width="31.3" height="31.3"/>
		<rect x="156.3" y="187.5" class="st3" width="31.3" height="31.3"/>
		<rect x="187.5" y="156.3" class="st3" width="31.3" height="31.3"/>
		<rect x="250" y="406.3" class="st3" width="31.3" height="31.3"/>
		<rect x="250" y="156.3" class="st3" width="31.3" height="31.3"/>
		<rect x="281.3" y="187.5" class="st3" width="31.3" height="31.3"/>
		<rect x="218.8" y="156.3" class="st3" width="31.3" height="31.3"/>
		<rect x="250" y="312.5" class="st3" width="31.3" height="31.3"/>
		<rect x="312.5" y="312.5" class="st3" width="31.3" height="31.3"/>
		<rect x="281.3" y="312.5" class="st3" width="31.3" height="31.3"/>
		<rect x="218.8" y="312.5" class="st3" width="31.3" height="31.3"/>
		<rect x="156.3" y="281.3" class="st3" width="31.3" height="31.3"/>
		<rect x="156.3" y="312.5" class="st3" width="31.3" height="31.3"/>
		<rect x="187.5" y="312.5" class="st3" width="31.3" height="31.3"/>
		<rect x="156.3" y="250" class="st3" width="31.3" height="31.3"/>
		<rect x="187.5" y="187.5" class="st3" width="31.3" height="31.3"/>
		<rect x="218.8" y="187.5" class="st3" width="31.3" height="31.3"/>
		<rect x="250" y="218.8" class="st3" width="31.3" height="31.3"/>
		<rect x="250" y="187.5" class="st3" width="31.3" height="31.3"/>
		<rect x="281.3" y="218.8" class="st3" width="31.3" height="31.3"/>
		<rect x="218.8" y="250" class="st3" width="31.3" height="31.3"/>
		<rect x="250" y="250" class="st3" width="31.3" height="31.3"/>
		<rect x="218.8" y="218.8" class="st3" width="31.3" height="31.3"/>
		<rect x="281.3" y="281.3" class="st3" width="31.3" height="31.3"/>
		<rect x="250" y="281.3" class="st3" width="31.3" height="31.3"/>
		<rect x="281.3" y="250" class="st3" width="31.3" height="31.3"/>
		<rect x="187.5" y="218.8" class="st3" width="31.3" height="31.3"/>
		<rect x="187.5" y="250" class="st3" width="31.3" height="31.3"/>
		<rect x="187.5" y="281.3" class="st3" width="31.3" height="31.3"/>
		<rect x="218.8" y="281.3" class="st3" width="31.3" height="31.3"/>
		<rect x="343.8" y="156.3" class="st3" width="31.3" height="31.3"/>
		<rect x="218.8" y="343.8" class="st3" width="31.3" height="31.3"/>
		<rect x="187.5" y="343.8" class="st3" width="31.3" height="31.3"/>
		<rect x="250" y="343.8" class="st3" width="31.3" height="31.3"/>
		<rect x="156.3" y="343.8" class="st3" width="31.3" height="31.3"/>
		<rect x="125" y="312.5" class="st3" width="31.3" height="31.3"/>
		<rect x="125" y="343.8" class="st3" width="31.3" height="31.3"/>
		<rect x="281.3" y="343.8" class="st3" width="31.3" height="31.3"/>
		<rect x="343.8" y="312.5" class="st3" width="31.3" height="31.3"/>
		<rect x="343.8" y="250" class="st3" width="31.3" height="31.3"/>
		<rect x="343.8" y="218.8" class="st3" width="31.3" height="31.3"/>
		<rect x="312.5" y="343.8" class="st3" width="31.3" height="31.3"/>
		<rect x="343.8" y="187.5" class="st3" width="31.3" height="31.3"/>
		<rect x="343.8" y="343.8" class="st3" width="31.3" height="31.3"/>
		<rect x="125" y="281.3" class="st3" width="31.3" height="31.3"/>
		<rect x="343.8" y="281.3" class="st3" width="31.3" height="31.3"/>
		<rect x="312.5" y="218.8" class="st3" width="31.3" height="31.3"/>
		<rect x="125" y="250" class="st3" width="31.3" height="31.3"/>
		<rect x="281.3" y="125" class="st3" width="31.3" height="31.3"/>
		<rect x="312.5" y="156.3" class="st3" width="31.3" height="31.3"/>
		<rect x="312.5" y="187.5" class="st3" width="31.3" height="31.3"/>
		<rect x="312.5" y="250" class="st3" width="31.3" height="31.3"/>
		<rect x="312.5" y="281.3" class="st3" width="31.3" height="31.3"/>
		<rect x="250" y="125" class="st3" width="31.3" height="31.3"/>
		<rect x="312.5" y="125" class="st3" width="31.3" height="31.3"/>
		<rect x="125" y="187.5" class="st3" width="31.3" height="31.3"/>
		<rect x="125" y="218.8" class="st3" width="31.3" height="31.3"/>
		<rect x="125" y="156.3" class="st3" width="31.3" height="31.3"/>
		<rect x="156.3" y="125" class="st3" width="31.3" height="31.3"/>
		<rect x="187.5" y="125" class="st3" width="31.3" height="31.3"/>
		<rect x="125" y="125" class="st3" width="31.3" height="31.3"/>
		<rect x="218.8" y="125" class="st3" width="31.3" height="31.3"/>
		<rect x="343.8" y="62.5" class="st3" width="31.3" height="31.3"/>
		<rect y="93.8" class="st3" width="31.3" height="31.3"/>
		<rect y="125" class="st3" width="31.3" height="31.3"/>
		<rect y="62.5" class="st3" width="31.3" height="31.3"/>
		<rect y="156.3" class="st3" width="31.3" height="31.3"/>
		<rect class="st3" width="31.3" height="31.3"/>
		<rect x="31.3" class="st3" width="31.3" height="31.3"/>
		<rect y="187.5" class="st3" width="31.3" height="31.3"/>
		<rect y="31.3" class="st3" width="31.3" height="31.3"/>
		<rect y="343.8" class="st3" width="31.3" height="31.3"/>
		<rect x="62.5" class="st3" width="31.3" height="31.3"/>
		<rect y="375" class="st3" width="31.3" height="31.3"/>
		<rect y="218.8" class="st3" width="31.3" height="31.3"/>
		<rect y="406.3" class="st3" width="31.3" height="31.3"/>
		<rect y="250" class="st3" width="31.3" height="31.3"/>
		<rect y="312.5" class="st3" width="31.3" height="31.3"/>
		<rect y="281.3" class="st3" width="31.3" height="31.3"/>
		<rect x="312.5" class="st3" width="31.3" height="31.3"/>
		<rect x="406.3" class="st3" width="31.3" height="31.3"/>
		<rect x="375" class="st3" width="31.3" height="31.3"/>
		<rect x="437.5" class="st3" width="31.3" height="31.3"/>
		<rect x="437.5" y="31.3" class="st3" width="31.3" height="31.3"/>
		<rect x="437.5" y="93.8" class="st3" width="31.3" height="31.3"/>
		<rect x="437.5" y="62.5" class="st3" width="31.3" height="31.3"/>
		<rect x="93.8" class="st3" width="31.3" height="31.3"/>
		<rect x="343.8" class="st3" width="31.3" height="31.3"/>
		<rect x="156.3" class="st3" width="31.3" height="31.3"/>
		<rect x="125" class="st3" width="31.3" height="31.3"/>
		<rect x="437.5" y="125" class="st3" width="31.3" height="31.3"/>
		<rect x="281.3" class="st3" width="31.3" height="31.3"/>
		<rect x="218.8" class="st3" width="31.3" height="31.3"/>
		<rect y="437.5" class="st3" width="31.3" height="31.3"/>
		<rect x="250" class="st3" width="31.3" height="31.3"/>
		<rect x="187.5" class="st3" width="31.3" height="31.3"/>
		<rect x="468.8" y="281.3" class="st3" width="31.3" height="31.3"/>
		<rect x="468.8" y="312.5" class="st3" width="31.3" height="31.3"/>
		<rect x="468.8" y="250" class="st3" width="31.3" height="31.3"/>
		<rect x="468.8" y="375" class="st3" width="31.3" height="31.3"/>
		<rect x="468.8" y="406.3" class="st3" width="31.3" height="31.3"/>
		<rect x="468.8" y="218.8" class="st3" width="31.3" height="31.3"/>
		<rect x="468.8" y="343.8" class="st3" width="31.3" height="31.3"/>
		<rect x="468.8" y="437.5" class="st3" width="31.3" height="31.3"/>
		<rect x="468.8" y="62.5" class="st3" width="31.3" height="31.3"/>
		<rect x="468.8" y="31.3" class="st3" width="31.3" height="31.3"/>
		<rect x="468.8" class="st3" width="31.3" height="31.3"/>
		<rect x="468.8" y="125" class="st3" width="31.3" height="31.3"/>
		<rect x="468.8" y="156.3" class="st3" width="31.3" height="31.3"/>
		<rect x="468.8" y="93.8" class="st3" width="31.3" height="31.3"/>
		<rect x="468.8" y="187.5" class="st3" width="31.3" height="31.3"/>
		<rect x="343.8" y="468.8" class="st3" width="31.3" height="31.3"/>
		<rect x="218.8" y="468.8" class="st3" width="31.3" height="31.3"/>
		<rect x="125" y="468.8" class="st3" width="31.3" height="31.3"/>
		<rect x="468.8" y="468.8" class="st3" width="31.3" height="31.3"/>
		<rect x="156.3" y="468.8" class="st3" width="31.3" height="31.3"/>
		<rect x="93.8" y="468.8" class="st3" width="31.3" height="31.3"/>
		<rect x="31.3" y="468.8" class="st3" width="31.3" height="31.3"/>
		<rect x="62.5" y="468.8" class="st3" width="31.3" height="31.3"/>
		<rect x="187.5" y="468.8" class="st3" width="31.3" height="31.3"/>
		<rect x="406.3" y="468.8" class="st3" width="31.3" height="31.3"/>
		<rect x="250" y="468.8" class="st3" width="31.3" height="31.3"/>
		<rect x="437.5" y="468.8" class="st3" width="31.3" height="31.3"/>
		<rect x="375" y="468.8" class="st3" width="31.3" height="31.3"/>
		<rect x="281.3" y="468.8" class="st3" width="31.3" height="31.3"/>
		<rect x="312.5" y="468.8" class="st3" width="31.3" height="31.3"/>
		<rect y="468.8" class="st3" width="31.3" height="31.3"/>
		<rect x="187.5" y="31.3" class="st3" width="31.3" height="31.3"/>
		<rect x="281.3" y="31.3" class="st3" width="31.3" height="31.3"/>
		<rect x="250" y="31.3" class="st3" width="31.3" height="31.3"/>
		<rect x="218.8" y="31.3" class="st3" width="31.3" height="31.3"/>
		<rect x="343.8" y="31.3" class="st3" width="31.3" height="31.3"/>
		<rect x="375" y="31.3" class="st3" width="31.3" height="31.3"/>
		<rect x="312.5" y="31.3" class="st3" width="31.3" height="31.3"/>
		<rect x="281.3" y="406.3" class="st3" width="31.3" height="31.3"/>
		<rect x="31.3" y="31.3" class="st3" width="31.3" height="31.3"/>
		<rect x="406.3" y="31.3" class="st3" width="31.3" height="31.3"/>
		<rect x="156.3" y="31.3" class="st3" width="31.3" height="31.3"/>
		<rect x="31.3" y="93.8" class="st3" width="31.3" height="31.3"/>
		<rect x="31.3" y="62.5" class="st3" width="31.3" height="31.3"/>
		<rect x="62.5" y="31.3" class="st3" width="31.3" height="31.3"/>
		<rect x="125" y="31.3" class="st3" width="31.3" height="31.3"/>
		<rect x="93.8" y="31.3" class="st3" width="31.3" height="31.3"/>
		<rect x="312.5" y="406.3" class="st3" width="31.3" height="31.3"/>
		<rect x="406.3" y="312.5" class="st3" width="31.3" height="31.3"/>
		<rect x="406.3" y="343.8" class="st3" width="31.3" height="31.3"/>
		<rect x="406.3" y="406.3" class="st3" width="31.3" height="31.3"/>
		<rect x="406.3" y="62.5" class="st3" width="31.3" height="31.3"/>
		<rect x="31.3" y="125" class="st3" width="31.3" height="31.3"/>
		<rect x="343.8" y="406.3" class="st3" width="31.3" height="31.3"/>
		<rect x="375" y="406.3" class="st3" width="31.3" height="31.3"/>
		<rect x="406.3" y="375" class="st3" width="31.3" height="31.3"/>
		<rect x="406.3" y="156.3" class="st3" width="31.3" height="31.3"/>
		<rect x="406.3" y="125" class="st3" width="31.3" height="31.3"/>
		<rect x="406.3" y="93.8" class="st3" width="31.3" height="31.3"/>
		<rect x="406.3" y="281.3" class="st3" width="31.3" height="31.3"/>
		<rect x="406.3" y="250" class="st3" width="31.3" height="31.3"/>
		<rect x="406.3" y="187.5" class="st3" width="31.3" height="31.3"/>
		<rect x="406.3" y="218.8" class="st3" width="31.3" height="31.3"/>
		<rect x="437.5" y="187.5" class="st3" width="31.3" height="31.3"/>
		<rect x="31.3" y="156.3" class="st3" width="31.3" height="31.3"/>
		<rect x="375" y="437.5" class="st3" width="31.3" height="31.3"/>
		<rect x="250" y="437.5" class="st3" width="31.3" height="31.3"/>
		<rect x="437.5" y="406.3" class="st3" width="31.3" height="31.3"/>
		<rect x="281.3" y="437.5" class="st3" width="31.3" height="31.3"/>
		<rect x="312.5" y="437.5" class="st3" width="31.3" height="31.3"/>
		<rect x="343.8" y="437.5" class="st3" width="31.3" height="31.3"/>
		<rect x="437.5" y="437.5" class="st3" width="31.3" height="31.3"/>
		<rect x="437.5" y="218.8" class="st3" width="31.3" height="31.3"/>
		<rect x="437.5" y="156.3" class="st3" width="31.3" height="31.3"/>
		<rect x="437.5" y="250" class="st3" width="31.3" height="31.3"/>
		<rect x="437.5" y="375" class="st3" width="31.3" height="31.3"/>
		<rect x="437.5" y="343.8" class="st3" width="31.3" height="31.3"/>
		<rect x="437.5" y="312.5" class="st3" width="31.3" height="31.3"/>
		<rect x="437.5" y="281.3" class="st3" width="31.3" height="31.3"/>
		<rect x="406.3" y="437.5" class="st3" width="31.3" height="31.3"/>
		<rect x="31.3" y="312.5" class="st3" width="31.3" height="31.3"/>
		<rect x="31.3" y="343.8" class="st3" width="31.3" height="31.3"/>
		<rect x="31.3" y="281.3" class="st3" width="31.3" height="31.3"/>
		<rect x="31.3" y="218.8" class="st3" width="31.3" height="31.3"/>
		<rect x="31.3" y="187.5" class="st3" width="31.3" height="31.3"/>
		<rect x="31.3" y="375" class="st3" width="31.3" height="31.3"/>
		<rect x="31.3" y="250" class="st3" width="31.3" height="31.3"/>
		<rect x="187.5" y="437.5" class="st3" width="31.3" height="31.3"/>
		<rect x="125" y="437.5" class="st3" width="31.3" height="31.3"/>
		<rect x="156.3" y="437.5" class="st3" width="31.3" height="31.3"/>
		<rect x="218.8" y="437.5" class="st3" width="31.3" height="31.3"/>
		<rect x="93.8" y="437.5" class="st3" width="31.3" height="31.3"/>
		<rect x="31.3" y="406.3" class="st3" width="31.3" height="31.3"/>
		<rect x="31.3" y="437.5" class="st3" width="31.3" height="31.3"/>
		<rect x="62.5" y="437.5" class="st3" width="31.3" height="31.3"/>
	</g>
	<g class="st2">
		<rect class="st4" width="500" height="500"/>
		<rect class="st4" width="62.5" height="62.5"/>
		<rect x="437.5" class="st4" width="62.5" height="62.5"/>
		<rect y="437.5" class="st4" width="62.5" height="62.5"/>
		<rect x="437.5" y="437.5" class="st4" width="62.5" height="62.5"/>
		<rect x="62.5" y="62.5" class="st4" width="187.5" height="187.5"/>
		<rect x="250" y="62.5" class="st4" width="187.5" height="187.5"/>
		<rect x="62.5" y="250" class="st4" width="187.5" height="187.5"/>
		<rect x="250" y="250" class="st4" width="187.5" height="187.5"/>
		<line class="st4" x1="0" y1="0" x2="500" y2="500"/>
		<line class="st4" x1="500" y1="0" x2="0" y2="500"/>
		<circle class="st4" cx="250" cy="250" r="187.5"/>
		<circle class="st4" cx="250" cy="250" r="250"/>
	</g>
	<rect x="62.5" class="st5" width="375" height="500"/>
</g>
<path class="st6" d="M418.6,81.6"/>
<path class="st7" d="M79.6,420.6"/>
<g>
	<path class="st7" d="M111.2,68.4c-7,10.4-13.3,21.2-18.7,32.4c-5.4,11.2-10,22.8-13.9,34.5c-7.7,23.5-12.2,47.9-13.7,72.3
		c-1.4,24.4-0.1,48.9,4.6,72.4c2.3,11.8,5.4,23.3,9.4,34.3c4,11,8.9,21.6,14.7,31.2c5.8,9.6,12.6,18.3,20.2,25.2
		c7.6,7,16,12.1,24.7,15c4.3,1.5,8.7,2.3,13.2,2.7c2.2,0.2,4.5,0.2,6.7,0.2c1.2,0,2.2-0.1,3.6-0.2c1.3-0.1,2.6-0.2,3.8-0.3
		c10.1-1.1,18.7-3.8,24.7-8c3-2.1,5.5-4.5,7.7-7.4c1.1-1.4,2.2-3,3.1-4.7c1-1.7,1.9-3.5,2.7-5.5c3.4-7.9,5.5-18,6.6-28.9
		c1.1-10.9,1.4-22.5,1.3-34.5c-0.1-12-0.7-24.3-1.4-36.9c-0.7-12.6-1.4-25.4-2-38.5c-0.2-3.4-0.3-7.1-0.3-10.8c0-3.7,0-7.4,0.1-11.2
		c0.3-7.6,1-15.3,2.2-23.1c1.3-7.9,3.1-15.9,5.7-24c2.7-8.1,6.1-16.3,10.7-24.2c4.6-7.9,10.3-15.6,17-22.5
		c6.7-6.9,14.4-13,22.6-17.9c8.2-4.9,16.8-8.7,25.4-11.4c4.3-1.4,8.6-2.5,12.9-3.5c4.2-0.9,8.5-1.7,12.7-2.2
		c4.2-0.6,8.3-0.9,12.4-1.1c2-0.1,4-0.2,6.1-0.2c2.3,0,4.5,0,6.8,0.1c9.1,0.3,18.4,1.6,27.6,4.1c9.2,2.4,18.1,6,26.5,10.5
		c8.4,4.5,16.1,9.9,23,15.9c13.8,12.1,24.2,26.3,32,40.7c7.8,14.5,13.1,29.4,16.8,44.2c1.8,7.4,3.3,14.8,4.4,22.1
		c1.1,7.4,1.8,14.7,2.2,22c0.4,7.3,0.5,14.5,0.3,21.8c-0.2,7.2-0.7,14.4-1.5,21.5c-1.5,14.2-4.2,28.2-7.9,41.8
		c-3.7,13.6-8.5,27-14.4,39.7c-5.9,12.8-12.9,25-21.2,36.4c-4.2,5.7-8.5,11.1-13.3,16.3c-4.8,5.1-9.7,10-15.1,14.5
		c-10.6,8.9-22.5,16.3-35,21.2l-4.5-6.6c8.5-9.5,15.5-19.5,21.3-30c1.4-2.6,2.8-5.3,4.1-7.9c1.3-2.7,2.5-5.4,3.7-8.1
		c2.3-5.4,4.4-10.9,6.2-16.5c7.3-22.3,10.9-45.4,12-68.3c0.9-22.9-0.8-45.7-5.3-67.1c-1.2-5.3-2.4-10.6-3.9-15.7
		c-1.5-5.1-3.1-10.1-5-14.9c-1.8-4.8-3.9-9.4-6.1-13.7c-2.2-4.4-4.6-8.4-7.1-12.2c-5-7.5-10.6-13.6-16.2-18
		c-5.7-4.4-11.3-7.3-17.5-9c-3.1-0.9-6.5-1.5-10.1-1.8c-0.9-0.1-1.8-0.1-2.8-0.2l-3.5-0.1c-2.3,0-4.5,0-6.7,0.1
		c-8.7,0.3-16,1.8-21.9,4.2c-3,1.2-5.7,2.6-8.2,4.4c-2.5,1.8-5,4-7.2,6.8c-4.6,5.5-8.5,13.4-11.1,22.6c-1.3,4.6-2.3,9.5-3,14.7
		c-0.4,2.6-0.7,5.2-0.9,7.9c-0.2,2.7-0.4,5.3-0.5,8.3c-0.3,12.3-0.3,25-0.4,37.8c-0.1,12.9-0.3,26-1,39.5
		c-0.7,13.5-1.8,27.3-4.3,41.6c-1.3,7.2-2.9,14.4-5.1,21.9c-2.2,7.4-5.1,15-8.9,22.5c-1.9,3.7-4.1,7.5-6.6,11.1
		c-2.5,3.6-5.2,7.2-8.3,10.5c-6.1,6.7-13.6,12.5-21.5,17c-7.9,4.4-16.3,7.4-24.4,9.3c-8.2,1.9-16.1,2.7-23.8,3
		c-1.9,0.1-3.8,0.1-5.7,0.1c-1.8,0-4-0.1-6-0.2c-4.1-0.2-8.2-0.7-12.3-1.4c-8.1-1.4-16.1-3.9-23.6-7.2c-7.5-3.3-14.4-7.5-20.8-12.2
		c-6.3-4.7-12-10-17.1-15.6c-10.2-11.2-18.1-23.7-24.4-36.5c-6.2-12.8-10.9-26-14.4-39.3c-3.5-13.3-5.8-26.7-7.1-40.2
		c-2.6-26.9-1.6-53.7,2.8-79.9c4.3-26.1,11.9-51.6,22.6-75.6c10.8-23.9,24.8-46.3,41.9-65.8L111.2,68.4z"/>
</g>
</svg>
