<?xml version="1.0" encoding="utf-8"?>
<!-- Generator: Adobe Illustrator 23.1.0, SVG Export Plug-In . SVG Version: 6.00 Build 0)  -->
<svg version="1.1" id="Layer_1" xmlns="http://www.w3.org/2000/svg" xmlns:xlink="http://www.w3.org/1999/xlink" x="0px" y="0px"
	 viewBox="0 0 500 500" style="enable-background:new 0 0 500 500;" xml:space="preserve">
<style type="text/css">
	.st0{display:none;}
	.st1{fill:#FFFFFF;}
	.st2{opacity:0.5;fill:url(#SVGID_1_);enable-background:new    ;}
	.st3{fill:#B24800;}
	.st4{fill:#FF6600;}
	.st5{font-family:'Lato-Bold';}
	.st6{font-size:200px;}
	.st7{display:inline;}
	.st8{fill:none;stroke:#EDEDED;stroke-width:0.5;stroke-miterlimit:10;}
	.st9{fill:none;stroke:#BDBDBD;stroke-miterlimit:10;}
	.st10{display:inline;fill:none;stroke:#BDBDBD;stroke-miterlimit:10;}
</style>
<g id="Layer_7" class="st0">
</g>
<g id="Layer_3">
	<g>
		<path class="st1" d="M100.3,496.5c-18.9,0-34.3-15.4-34.3-34.3V37.8c0-18.9,15.4-34.3,34.3-34.3h300c18.6,0,33.8,15.2,33.8,33.8
			v425c-0.1,18.9-15.5,34.2-34.3,34.2H100.3z"/>
		<path d="M400.3,7c16.7,0,30.3,13.6,30.3,30.3v56.5l0,368.5c-0.1,16.9-13.9,30.7-30.8,30.7H100.3c-17,0-30.8-13.8-30.8-30.8V37.8
			c0-17,13.8-30.8,30.8-30.8H400.3 M400.3,0h-300C79.4,0,62.5,16.9,62.5,37.8v424.4c0,20.9,17,37.8,37.8,37.8h299.5
			c20.8,0,37.7-16.9,37.8-37.7V93.8V37.3C437.6,16.7,420.9,0,400.3,0L400.3,0z"/>
	</g>
	<g id="Layer_5">
		
			<linearGradient id="SVGID_1_" gradientUnits="userSpaceOnUse" x1="436.6325" y1="-276.0351" x2="54.5226" y2="-55.4238" gradientTransform="matrix(1 0 0 -1 0 212)">
			<stop  offset="0" style="stop-color:#FFFFFF"/>
			<stop  offset="1" style="stop-color:#231F20"/>
		</linearGradient>
		<path class="st2" d="M325.5,250l112.3,95.5l-0.3,29.5v46.9v15.6c0,48.1,5.5,67.5-31.3,62.5h-250L64,377.8l-53.4-34.3"/>
		<polyline class="st3" points="6.7,341 64,377.8 64,346.5 		"/>
	</g>
	<path class="st4" d="M481.3,345.4H18.7c-10.1,0-18.3-8.2-18.3-18.3V141.6c0-10.1,8.2-18.3,18.3-18.3h462.6
		c10.1,0,18.3,8.2,18.3,18.3v185.6C499.5,337.2,491.4,345.4,481.3,345.4z"/>
	<text transform="matrix(1 0 0 1 19.9341 301.4152)" class="st1 st5 st6">DDS</text>
</g>
<g id="Layer_6">
</g>
<g id="Layer_1_1_" class="st0">
	<g class="st7">
		<rect x="250" y="375" class="st8" width="31.3" height="31.3"/>
		<rect x="156.3" y="375" class="st8" width="31.3" height="31.3"/>
		<rect x="218.8" y="375" class="st8" width="31.3" height="31.3"/>
		<rect x="187.5" y="375" class="st8" width="31.3" height="31.3"/>
		<rect x="93.8" y="343.8" class="st8" width="31.3" height="31.3"/>
		<rect x="93.8" y="375" class="st8" width="31.3" height="31.3"/>
		<rect x="125" y="375" class="st8" width="31.3" height="31.3"/>
		<rect x="281.3" y="375" class="st8" width="31.3" height="31.3"/>
		<rect x="375" y="312.5" class="st8" width="31.3" height="31.3"/>
		<rect x="93.8" y="312.5" class="st8" width="31.3" height="31.3"/>
		<rect x="375" y="343.8" class="st8" width="31.3" height="31.3"/>
		<rect x="375" y="281.3" class="st8" width="31.3" height="31.3"/>
		<rect x="312.5" y="375" class="st8" width="31.3" height="31.3"/>
		<rect x="375" y="375" class="st8" width="31.3" height="31.3"/>
		<rect x="375" y="250" class="st8" width="31.3" height="31.3"/>
		<rect x="343.8" y="375" class="st8" width="31.3" height="31.3"/>
		<rect x="250" y="93.8" class="st8" width="31.3" height="31.3"/>
		<rect x="218.8" y="93.8" class="st8" width="31.3" height="31.3"/>
		<rect x="187.5" y="93.8" class="st8" width="31.3" height="31.3"/>
		<rect x="312.5" y="93.8" class="st8" width="31.3" height="31.3"/>
		<rect x="343.8" y="93.8" class="st8" width="31.3" height="31.3"/>
		<rect x="156.3" y="93.8" class="st8" width="31.3" height="31.3"/>
		<rect x="281.3" y="93.8" class="st8" width="31.3" height="31.3"/>
		<rect x="93.8" y="156.3" class="st8" width="31.3" height="31.3"/>
		<rect x="93.8" y="187.5" class="st8" width="31.3" height="31.3"/>
		<rect x="93.8" y="218.8" class="st8" width="31.3" height="31.3"/>
		<rect x="93.8" y="250" class="st8" width="31.3" height="31.3"/>
		<rect x="93.8" y="281.3" class="st8" width="31.3" height="31.3"/>
		<rect x="125" y="93.8" class="st8" width="31.3" height="31.3"/>
		<rect x="93.8" y="93.8" class="st8" width="31.3" height="31.3"/>
		<rect x="93.8" y="125" class="st8" width="31.3" height="31.3"/>
		<rect x="375" y="125" class="st8" width="31.3" height="31.3"/>
		<rect x="62.5" y="281.3" class="st8" width="31.3" height="31.3"/>
		<rect x="62.5" y="312.5" class="st8" width="31.3" height="31.3"/>
		<rect x="62.5" y="156.3" class="st8" width="31.3" height="31.3"/>
		<rect x="62.5" y="125" class="st8" width="31.3" height="31.3"/>
		<rect x="62.5" y="187.5" class="st8" width="31.3" height="31.3"/>
		<rect x="62.5" y="218.8" class="st8" width="31.3" height="31.3"/>
		<rect x="62.5" y="343.8" class="st8" width="31.3" height="31.3"/>
		<rect x="187.5" y="406.3" class="st8" width="31.3" height="31.3"/>
		<rect x="218.8" y="406.3" class="st8" width="31.3" height="31.3"/>
		<rect x="156.3" y="406.3" class="st8" width="31.3" height="31.3"/>
		<rect x="125" y="406.3" class="st8" width="31.3" height="31.3"/>
		<rect x="62.5" y="406.3" class="st8" width="31.3" height="31.3"/>
		<rect x="93.8" y="406.3" class="st8" width="31.3" height="31.3"/>
		<rect x="62.5" y="375" class="st8" width="31.3" height="31.3"/>
		<rect x="62.5" y="93.8" class="st8" width="31.3" height="31.3"/>
		<rect x="375" y="62.5" class="st8" width="31.3" height="31.3"/>
		<rect x="312.5" y="62.5" class="st8" width="31.3" height="31.3"/>
		<rect x="281.3" y="62.5" class="st8" width="31.3" height="31.3"/>
		<rect x="375" y="93.8" class="st8" width="31.3" height="31.3"/>
		<rect x="343.8" y="125" class="st8" width="31.3" height="31.3"/>
		<rect x="375" y="187.5" class="st8" width="31.3" height="31.3"/>
		<rect x="375" y="156.3" class="st8" width="31.3" height="31.3"/>
		<rect x="62.5" y="62.5" class="st8" width="31.3" height="31.3"/>
		<rect x="93.8" y="62.5" class="st8" width="31.3" height="31.3"/>
		<rect x="375" y="218.8" class="st8" width="31.3" height="31.3"/>
		<rect x="125" y="62.5" class="st8" width="31.3" height="31.3"/>
		<rect x="250" y="62.5" class="st8" width="31.3" height="31.3"/>
		<rect x="218.8" y="62.5" class="st8" width="31.3" height="31.3"/>
		<rect x="187.5" y="62.5" class="st8" width="31.3" height="31.3"/>
		<rect x="156.3" y="62.5" class="st8" width="31.3" height="31.3"/>
		<rect x="281.3" y="156.3" class="st8" width="31.3" height="31.3"/>
		<rect x="156.3" y="156.3" class="st8" width="31.3" height="31.3"/>
		<rect x="156.3" y="218.8" class="st8" width="31.3" height="31.3"/>
		<rect x="156.3" y="187.5" class="st8" width="31.3" height="31.3"/>
		<rect x="187.5" y="156.3" class="st8" width="31.3" height="31.3"/>
		<rect x="250" y="406.3" class="st8" width="31.3" height="31.3"/>
		<rect x="250" y="156.3" class="st8" width="31.3" height="31.3"/>
		<rect x="281.3" y="187.5" class="st8" width="31.3" height="31.3"/>
		<rect x="218.8" y="156.3" class="st8" width="31.3" height="31.3"/>
		<rect x="250" y="312.5" class="st8" width="31.3" height="31.3"/>
		<rect x="312.5" y="312.5" class="st8" width="31.3" height="31.3"/>
		<rect x="281.3" y="312.5" class="st8" width="31.3" height="31.3"/>
		<rect x="218.8" y="312.5" class="st8" width="31.3" height="31.3"/>
		<rect x="156.3" y="281.3" class="st8" width="31.3" height="31.3"/>
		<rect x="156.3" y="312.5" class="st8" width="31.3" height="31.3"/>
		<rect x="187.5" y="312.5" class="st8" width="31.3" height="31.3"/>
		<rect x="156.3" y="250" class="st8" width="31.3" height="31.3"/>
		<rect x="187.5" y="187.5" class="st8" width="31.3" height="31.3"/>
		<rect x="218.8" y="187.5" class="st8" width="31.3" height="31.3"/>
		<rect x="250" y="218.8" class="st8" width="31.3" height="31.3"/>
		<rect x="250" y="187.5" class="st8" width="31.3" height="31.3"/>
		<rect x="281.3" y="218.8" class="st8" width="31.3" height="31.3"/>
		<rect x="218.8" y="250" class="st8" width="31.3" height="31.3"/>
		<rect x="250" y="250" class="st8" width="31.3" height="31.3"/>
		<rect x="218.8" y="218.8" class="st8" width="31.3" height="31.3"/>
		<rect x="281.3" y="281.3" class="st8" width="31.3" height="31.3"/>
		<rect x="250" y="281.3" class="st8" width="31.3" height="31.3"/>
		<rect x="281.3" y="250" class="st8" width="31.3" height="31.3"/>
		<rect x="187.5" y="218.8" class="st8" width="31.3" height="31.3"/>
		<rect x="187.5" y="250" class="st8" width="31.3" height="31.3"/>
		<rect x="187.5" y="281.3" class="st8" width="31.3" height="31.3"/>
		<rect x="218.8" y="281.3" class="st8" width="31.3" height="31.3"/>
		<rect x="343.8" y="156.3" class="st8" width="31.3" height="31.3"/>
		<rect x="218.8" y="343.8" class="st8" width="31.3" height="31.3"/>
		<rect x="187.5" y="343.8" class="st8" width="31.3" height="31.3"/>
		<rect x="250" y="343.8" class="st8" width="31.3" height="31.3"/>
		<rect x="156.3" y="343.8" class="st8" width="31.3" height="31.3"/>
		<rect x="125" y="312.5" class="st8" width="31.3" height="31.3"/>
		<rect x="125" y="343.8" class="st8" width="31.3" height="31.3"/>
		<rect x="281.3" y="343.8" class="st8" width="31.3" height="31.3"/>
		<rect x="343.8" y="312.5" class="st8" width="31.3" height="31.3"/>
		<rect x="343.8" y="250" class="st8" width="31.3" height="31.3"/>
		<rect x="343.8" y="218.8" class="st8" width="31.3" height="31.3"/>
		<rect x="312.5" y="343.8" class="st8" width="31.3" height="31.3"/>
		<rect x="343.8" y="187.5" class="st8" width="31.3" height="31.3"/>
		<rect x="343.8" y="343.8" class="st8" width="31.3" height="31.3"/>
		<rect x="125" y="281.3" class="st8" width="31.3" height="31.3"/>
		<rect x="343.8" y="281.3" class="st8" width="31.3" height="31.3"/>
		<rect x="312.5" y="218.8" class="st8" width="31.3" height="31.3"/>
		<rect x="125" y="250" class="st8" width="31.3" height="31.3"/>
		<rect x="281.3" y="125" class="st8" width="31.3" height="31.3"/>
		<rect x="312.5" y="156.3" class="st8" width="31.3" height="31.3"/>
		<rect x="312.5" y="187.5" class="st8" width="31.3" height="31.3"/>
		<rect x="312.5" y="250" class="st8" width="31.3" height="31.3"/>
		<rect x="312.5" y="281.3" class="st8" width="31.3" height="31.3"/>
		<rect x="250" y="125" class="st8" width="31.3" height="31.3"/>
		<rect x="312.5" y="125" class="st8" width="31.3" height="31.3"/>
		<rect x="125" y="187.5" class="st8" width="31.3" height="31.3"/>
		<rect x="125" y="218.8" class="st8" width="31.3" height="31.3"/>
		<rect x="125" y="156.3" class="st8" width="31.3" height="31.3"/>
		<rect x="156.3" y="125" class="st8" width="31.3" height="31.3"/>
		<rect x="187.5" y="125" class="st8" width="31.3" height="31.3"/>
		<rect x="125" y="125" class="st8" width="31.3" height="31.3"/>
		<rect x="218.8" y="125" class="st8" width="31.3" height="31.3"/>
		<rect x="343.8" y="62.5" class="st8" width="31.3" height="31.3"/>
		<rect y="93.8" class="st8" width="31.3" height="31.3"/>
		<rect y="125" class="st8" width="31.3" height="31.3"/>
		<rect y="62.5" class="st8" width="31.3" height="31.3"/>
		<rect y="156.3" class="st8" width="31.3" height="31.3"/>
		<rect class="st8" width="31.3" height="31.3"/>
		<rect x="31.3" class="st8" width="31.3" height="31.3"/>
		<rect y="187.5" class="st8" width="31.3" height="31.3"/>
		<rect y="31.3" class="st8" width="31.3" height="31.3"/>
		<rect y="343.8" class="st8" width="31.3" height="31.3"/>
		<rect x="62.5" class="st8" width="31.3" height="31.3"/>
		<rect y="375" class="st8" width="31.3" height="31.3"/>
		<rect y="218.8" class="st8" width="31.3" height="31.3"/>
		<rect y="406.3" class="st8" width="31.3" height="31.3"/>
		<rect y="250" class="st8" width="31.3" height="31.3"/>
		<rect y="312.5" class="st8" width="31.3" height="31.3"/>
		<rect y="281.3" class="st8" width="31.3" height="31.3"/>
		<rect x="312.5" class="st8" width="31.3" height="31.3"/>
		<rect x="406.3" class="st8" width="31.3" height="31.3"/>
		<rect x="375" class="st8" width="31.3" height="31.3"/>
		<rect x="437.5" class="st8" width="31.3" height="31.3"/>
		<rect x="437.5" y="31.3" class="st8" width="31.3" height="31.3"/>
		<rect x="437.5" y="93.8" class="st8" width="31.3" height="31.3"/>
		<rect x="437.5" y="62.5" class="st8" width="31.3" height="31.3"/>
		<rect x="93.8" class="st8" width="31.3" height="31.3"/>
		<rect x="343.8" class="st8" width="31.3" height="31.3"/>
		<rect x="156.3" class="st8" width="31.3" height="31.3"/>
		<rect x="125" class="st8" width="31.3" height="31.3"/>
		<rect x="437.5" y="125" class="st8" width="31.3" height="31.3"/>
		<rect x="281.3" class="st8" width="31.3" height="31.3"/>
		<rect x="218.8" class="st8" width="31.3" height="31.3"/>
		<rect y="437.5" class="st8" width="31.3" height="31.3"/>
		<rect x="250" class="st8" width="31.3" height="31.3"/>
		<rect x="187.5" class="st8" width="31.3" height="31.3"/>
		<rect x="468.8" y="281.3" class="st8" width="31.3" height="31.3"/>
		<rect x="468.8" y="312.5" class="st8" width="31.3" height="31.3"/>
		<rect x="468.8" y="250" class="st8" width="31.3" height="31.3"/>
		<rect x="468.8" y="375" class="st8" width="31.3" height="31.3"/>
		<rect x="468.8" y="406.3" class="st8" width="31.3" height="31.3"/>
		<rect x="468.8" y="218.8" class="st8" width="31.3" height="31.3"/>
		<rect x="468.8" y="343.8" class="st8" width="31.3" height="31.3"/>
		<rect x="468.8" y="437.5" class="st8" width="31.3" height="31.3"/>
		<rect x="468.8" y="62.5" class="st8" width="31.3" height="31.3"/>
		<rect x="468.8" y="31.3" class="st8" width="31.3" height="31.3"/>
		<rect x="468.8" class="st8" width="31.3" height="31.3"/>
		<rect x="468.8" y="125" class="st8" width="31.3" height="31.3"/>
		<rect x="468.8" y="156.3" class="st8" width="31.3" height="31.3"/>
		<rect x="468.8" y="93.8" class="st8" width="31.3" height="31.3"/>
		<rect x="468.8" y="187.5" class="st8" width="31.3" height="31.3"/>
		<rect x="343.8" y="468.8" class="st8" width="31.3" height="31.3"/>
		<rect x="218.8" y="468.8" class="st8" width="31.3" height="31.3"/>
		<rect x="125" y="468.8" class="st8" width="31.3" height="31.3"/>
		<rect x="468.8" y="468.8" class="st8" width="31.3" height="31.3"/>
		<rect x="156.3" y="468.8" class="st8" width="31.3" height="31.3"/>
		<rect x="93.8" y="468.8" class="st8" width="31.3" height="31.3"/>
		<rect x="31.3" y="468.8" class="st8" width="31.3" height="31.3"/>
		<rect x="62.5" y="468.8" class="st8" width="31.3" height="31.3"/>
		<rect x="187.5" y="468.8" class="st8" width="31.3" height="31.3"/>
		<rect x="406.3" y="468.8" class="st8" width="31.3" height="31.3"/>
		<rect x="250" y="468.8" class="st8" width="31.3" height="31.3"/>
		<rect x="437.5" y="468.8" class="st8" width="31.3" height="31.3"/>
		<rect x="375" y="468.8" class="st8" width="31.3" height="31.3"/>
		<rect x="281.3" y="468.8" class="st8" width="31.3" height="31.3"/>
		<rect x="312.5" y="468.8" class="st8" width="31.3" height="31.3"/>
		<rect y="468.8" class="st8" width="31.3" height="31.3"/>
		<rect x="187.5" y="31.3" class="st8" width="31.3" height="31.3"/>
		<rect x="281.3" y="31.3" class="st8" width="31.3" height="31.3"/>
		<rect x="250" y="31.3" class="st8" width="31.3" height="31.3"/>
		<rect x="218.8" y="31.3" class="st8" width="31.3" height="31.3"/>
		<rect x="343.8" y="31.3" class="st8" width="31.3" height="31.3"/>
		<rect x="375" y="31.3" class="st8" width="31.3" height="31.3"/>
		<rect x="312.5" y="31.3" class="st8" width="31.3" height="31.3"/>
		<rect x="281.3" y="406.3" class="st8" width="31.3" height="31.3"/>
		<rect x="31.3" y="31.3" class="st8" width="31.3" height="31.3"/>
		<rect x="406.3" y="31.3" class="st8" width="31.3" height="31.3"/>
		<rect x="156.3" y="31.3" class="st8" width="31.3" height="31.3"/>
		<rect x="31.3" y="93.8" class="st8" width="31.3" height="31.3"/>
		<rect x="31.3" y="62.5" class="st8" width="31.3" height="31.3"/>
		<rect x="62.5" y="31.3" class="st8" width="31.3" height="31.3"/>
		<rect x="125" y="31.3" class="st8" width="31.3" height="31.3"/>
		<rect x="93.8" y="31.3" class="st8" width="31.3" height="31.3"/>
		<rect x="312.5" y="406.3" class="st8" width="31.3" height="31.3"/>
		<rect x="406.3" y="312.5" class="st8" width="31.3" height="31.3"/>
		<rect x="406.3" y="343.8" class="st8" width="31.3" height="31.3"/>
		<rect x="406.3" y="406.3" class="st8" width="31.3" height="31.3"/>
		<rect x="406.3" y="62.5" class="st8" width="31.3" height="31.3"/>
		<rect x="31.3" y="125" class="st8" width="31.3" height="31.3"/>
		<rect x="343.8" y="406.3" class="st8" width="31.3" height="31.3"/>
		<rect x="375" y="406.3" class="st8" width="31.3" height="31.3"/>
		<rect x="406.3" y="375" class="st8" width="31.3" height="31.3"/>
		<rect x="406.3" y="156.3" class="st8" width="31.3" height="31.3"/>
		<rect x="406.3" y="125" class="st8" width="31.3" height="31.3"/>
		<rect x="406.3" y="93.8" class="st8" width="31.3" height="31.3"/>
		<rect x="406.3" y="281.3" class="st8" width="31.3" height="31.3"/>
		<rect x="406.3" y="250" class="st8" width="31.3" height="31.3"/>
		<rect x="406.3" y="187.5" class="st8" width="31.3" height="31.3"/>
		<rect x="406.3" y="218.8" class="st8" width="31.3" height="31.3"/>
		<rect x="437.5" y="187.5" class="st8" width="31.3" height="31.3"/>
		<rect x="31.3" y="156.3" class="st8" width="31.3" height="31.3"/>
		<rect x="375" y="437.5" class="st8" width="31.3" height="31.3"/>
		<rect x="250" y="437.5" class="st8" width="31.3" height="31.3"/>
		<rect x="437.5" y="406.3" class="st8" width="31.3" height="31.3"/>
		<rect x="281.3" y="437.5" class="st8" width="31.3" height="31.3"/>
		<rect x="312.5" y="437.5" class="st8" width="31.3" height="31.3"/>
		<rect x="343.8" y="437.5" class="st8" width="31.3" height="31.3"/>
		<rect x="437.5" y="437.5" class="st8" width="31.3" height="31.3"/>
		<rect x="437.5" y="218.8" class="st8" width="31.3" height="31.3"/>
		<rect x="437.5" y="156.3" class="st8" width="31.3" height="31.3"/>
		<rect x="437.5" y="250" class="st8" width="31.3" height="31.3"/>
		<rect x="437.5" y="375" class="st8" width="31.3" height="31.3"/>
		<rect x="437.5" y="343.8" class="st8" width="31.3" height="31.3"/>
		<rect x="437.5" y="312.5" class="st8" width="31.3" height="31.3"/>
		<rect x="437.5" y="281.3" class="st8" width="31.3" height="31.3"/>
		<rect x="406.3" y="437.5" class="st8" width="31.3" height="31.3"/>
		<rect x="31.3" y="312.5" class="st8" width="31.3" height="31.3"/>
		<rect x="31.3" y="343.8" class="st8" width="31.3" height="31.3"/>
		<rect x="31.3" y="281.3" class="st8" width="31.3" height="31.3"/>
		<rect x="31.3" y="218.8" class="st8" width="31.3" height="31.3"/>
		<rect x="31.3" y="187.5" class="st8" width="31.3" height="31.3"/>
		<rect x="31.3" y="375" class="st8" width="31.3" height="31.3"/>
		<rect x="31.3" y="250" class="st8" width="31.3" height="31.3"/>
		<rect x="187.5" y="437.5" class="st8" width="31.3" height="31.3"/>
		<rect x="125" y="437.5" class="st8" width="31.3" height="31.3"/>
		<rect x="156.3" y="437.5" class="st8" width="31.3" height="31.3"/>
		<rect x="218.8" y="437.5" class="st8" width="31.3" height="31.3"/>
		<rect x="93.8" y="437.5" class="st8" width="31.3" height="31.3"/>
		<rect x="31.3" y="406.3" class="st8" width="31.3" height="31.3"/>
		<rect x="31.3" y="437.5" class="st8" width="31.3" height="31.3"/>
		<rect x="62.5" y="437.5" class="st8" width="31.3" height="31.3"/>
	</g>
	<g class="st7">
		<rect class="st9" width="500" height="500"/>
		<rect class="st9" width="62.5" height="62.5"/>
		<rect x="437.5" class="st9" width="62.5" height="62.5"/>
		<rect y="437.5" class="st9" width="62.5" height="62.5"/>
		<rect x="437.5" y="437.5" class="st9" width="62.5" height="62.5"/>
		<rect x="62.5" y="62.5" class="st9" width="187.5" height="187.5"/>
		<rect x="250" y="62.5" class="st9" width="187.5" height="187.5"/>
		<rect x="62.5" y="250" class="st9" width="187.5" height="187.5"/>
		<rect x="250" y="250" class="st9" width="187.5" height="187.5"/>
		<line class="st9" x1="0" y1="0" x2="500" y2="500"/>
		<line class="st9" x1="500" y1="0" x2="0" y2="500"/>
		<circle class="st9" cx="250" cy="250" r="187.5"/>
		<circle class="st9" cx="250" cy="250" r="250"/>
	</g>
	<rect x="62.5" class="st10" width="375" height="500"/>
	<line class="st10" x1="343.8" y1="0" x2="437.5" y2="93.8"/>
</g>
</svg>
