<?xml version="1.0" encoding="utf-8"?>
<!-- Generator: Adobe Illustrator 23.1.0, SVG Export Plug-In . SVG Version: 6.00 Build 0)  -->
<svg version="1.1" id="Layer_1" xmlns="http://www.w3.org/2000/svg" xmlns:xlink="http://www.w3.org/1999/xlink" x="0px" y="0px"
	 viewBox="0 0 500 500" style="enable-background:new 0 0 500 500;" xml:space="preserve">
<style type="text/css">
	.st0{fill:url(#SVGID_1_);}
	.st1{fill:#B5B5B5;}
	.st2{display:none;}
	.st3{display:inline;}
	.st4{fill:none;stroke:#EDEDED;stroke-width:0.5;stroke-miterlimit:10;}
	.st5{fill:none;stroke:#BDBDBD;stroke-miterlimit:10;}
	.st6{fill:#FCFCFC;}
	.st7{fill:#FF6600;}
</style>
<g id="Layer_1_1_">
	<g id="Layer_3_copy">
		
			<linearGradient id="SVGID_1_" gradientUnits="userSpaceOnUse" x1="771" y1="923.4" x2="771" y2="923.4" gradientTransform="matrix(1 0 0 1 0 -580)">
			<stop  offset="0" style="stop-color:#FF6600"/>
			<stop  offset="1" style="stop-color:#231F20"/>
		</linearGradient>
		<path class="st0" d="M771,343.4"/>
	</g>
	<path class="st1" d="M68.8,358.8"/>
</g>
<g id="Layer_7" class="st2">
	<g id="Layer_1_2_" class="st3">
		<g>
			<rect x="250" y="375" class="st4" width="31.3" height="31.3"/>
			<rect x="156.3" y="375" class="st4" width="31.3" height="31.3"/>
			<rect x="218.8" y="375" class="st4" width="31.3" height="31.3"/>
			<rect x="187.5" y="375" class="st4" width="31.3" height="31.3"/>
			<rect x="93.8" y="343.8" class="st4" width="31.3" height="31.3"/>
			<rect x="93.8" y="375" class="st4" width="31.3" height="31.3"/>
			<rect x="125" y="375" class="st4" width="31.3" height="31.3"/>
			<rect x="281.3" y="375" class="st4" width="31.3" height="31.3"/>
			<rect x="375" y="312.5" class="st4" width="31.3" height="31.3"/>
			<rect x="93.8" y="312.5" class="st4" width="31.3" height="31.3"/>
			<rect x="375" y="343.8" class="st4" width="31.3" height="31.3"/>
			<rect x="375" y="281.3" class="st4" width="31.3" height="31.3"/>
			<rect x="312.5" y="375" class="st4" width="31.3" height="31.3"/>
			<rect x="375" y="375" class="st4" width="31.3" height="31.3"/>
			<rect x="375" y="250" class="st4" width="31.3" height="31.3"/>
			<rect x="343.8" y="375" class="st4" width="31.3" height="31.3"/>
			<rect x="250" y="93.8" class="st4" width="31.3" height="31.3"/>
			<rect x="218.8" y="93.8" class="st4" width="31.3" height="31.3"/>
			<rect x="187.5" y="93.8" class="st4" width="31.3" height="31.3"/>
			<rect x="312.5" y="93.8" class="st4" width="31.3" height="31.3"/>
			<rect x="343.8" y="93.8" class="st4" width="31.3" height="31.3"/>
			<rect x="156.3" y="93.8" class="st4" width="31.3" height="31.3"/>
			<rect x="281.3" y="93.8" class="st4" width="31.3" height="31.3"/>
			<rect x="93.8" y="156.3" class="st4" width="31.3" height="31.3"/>
			<rect x="93.8" y="187.5" class="st4" width="31.3" height="31.3"/>
			<rect x="93.8" y="218.8" class="st4" width="31.3" height="31.3"/>
			<rect x="93.8" y="250" class="st4" width="31.3" height="31.3"/>
			<rect x="93.8" y="281.3" class="st4" width="31.3" height="31.3"/>
			<rect x="125" y="93.8" class="st4" width="31.3" height="31.3"/>
			<rect x="93.8" y="93.8" class="st4" width="31.3" height="31.3"/>
			<rect x="93.8" y="125" class="st4" width="31.3" height="31.3"/>
			<rect x="375" y="125" class="st4" width="31.3" height="31.3"/>
			<rect x="62.5" y="281.3" class="st4" width="31.3" height="31.3"/>
			<rect x="62.5" y="312.5" class="st4" width="31.3" height="31.3"/>
			<rect x="62.5" y="250" class="st4" width="31.3" height="31.3"/>
			<rect x="62.5" y="156.3" class="st4" width="31.3" height="31.3"/>
			<rect x="62.5" y="125" class="st4" width="31.3" height="31.3"/>
			<rect x="62.5" y="187.5" class="st4" width="31.3" height="31.3"/>
			<rect x="62.5" y="218.8" class="st4" width="31.3" height="31.3"/>
			<rect x="62.5" y="343.8" class="st4" width="31.3" height="31.3"/>
			<rect x="187.5" y="406.3" class="st4" width="31.3" height="31.3"/>
			<rect x="218.8" y="406.3" class="st4" width="31.3" height="31.3"/>
			<rect x="156.3" y="406.3" class="st4" width="31.3" height="31.3"/>
			<rect x="125" y="406.3" class="st4" width="31.3" height="31.3"/>
			<rect x="62.5" y="406.3" class="st4" width="31.3" height="31.3"/>
			<rect x="93.8" y="406.3" class="st4" width="31.3" height="31.3"/>
			<rect x="62.5" y="375" class="st4" width="31.3" height="31.3"/>
			<rect x="62.5" y="93.8" class="st4" width="31.3" height="31.3"/>
			<rect x="375" y="62.5" class="st4" width="31.3" height="31.3"/>
			<rect x="312.5" y="62.5" class="st4" width="31.3" height="31.3"/>
			<rect x="281.3" y="62.5" class="st4" width="31.3" height="31.3"/>
			<rect x="375" y="93.8" class="st4" width="31.3" height="31.3"/>
			<rect x="343.8" y="125" class="st4" width="31.3" height="31.3"/>
			<rect x="375" y="187.5" class="st4" width="31.3" height="31.3"/>
			<rect x="375" y="156.3" class="st4" width="31.3" height="31.3"/>
			<rect x="62.5" y="62.5" class="st4" width="31.3" height="31.3"/>
			<rect x="93.8" y="62.5" class="st4" width="31.3" height="31.3"/>
			<rect x="375" y="218.8" class="st4" width="31.3" height="31.3"/>
			<rect x="125" y="62.5" class="st4" width="31.3" height="31.3"/>
			<rect x="250" y="62.5" class="st4" width="31.3" height="31.3"/>
			<rect x="218.8" y="62.5" class="st4" width="31.3" height="31.3"/>
			<rect x="187.5" y="62.5" class="st4" width="31.3" height="31.3"/>
			<rect x="156.3" y="62.5" class="st4" width="31.3" height="31.3"/>
			<rect x="281.3" y="156.3" class="st4" width="31.3" height="31.3"/>
			<rect x="156.3" y="156.3" class="st4" width="31.3" height="31.3"/>
			<rect x="156.3" y="218.8" class="st4" width="31.3" height="31.3"/>
			<rect x="156.3" y="187.5" class="st4" width="31.3" height="31.3"/>
			<rect x="187.5" y="156.3" class="st4" width="31.3" height="31.3"/>
			<rect x="250" y="406.3" class="st4" width="31.3" height="31.3"/>
			<rect x="250" y="156.3" class="st4" width="31.3" height="31.3"/>
			<rect x="281.3" y="187.5" class="st4" width="31.3" height="31.3"/>
			<rect x="218.8" y="156.3" class="st4" width="31.3" height="31.3"/>
			<rect x="250" y="312.5" class="st4" width="31.3" height="31.3"/>
			<rect x="312.5" y="312.5" class="st4" width="31.3" height="31.3"/>
			<rect x="281.3" y="312.5" class="st4" width="31.3" height="31.3"/>
			<rect x="218.8" y="312.5" class="st4" width="31.3" height="31.3"/>
			<rect x="156.3" y="281.3" class="st4" width="31.3" height="31.3"/>
			<rect x="156.3" y="312.5" class="st4" width="31.3" height="31.3"/>
			<rect x="187.5" y="312.5" class="st4" width="31.3" height="31.3"/>
			<rect x="156.3" y="250" class="st4" width="31.3" height="31.3"/>
			<rect x="187.5" y="187.5" class="st4" width="31.3" height="31.3"/>
			<rect x="218.8" y="187.5" class="st4" width="31.3" height="31.3"/>
			<rect x="250" y="218.8" class="st4" width="31.3" height="31.3"/>
			<rect x="250" y="187.5" class="st4" width="31.3" height="31.3"/>
			<rect x="281.3" y="218.8" class="st4" width="31.3" height="31.3"/>
			<rect x="218.8" y="250" class="st4" width="31.3" height="31.3"/>
			<rect x="250" y="250" class="st4" width="31.3" height="31.3"/>
			<rect x="218.8" y="218.8" class="st4" width="31.3" height="31.3"/>
			<rect x="281.3" y="281.3" class="st4" width="31.3" height="31.3"/>
			<rect x="250" y="281.3" class="st4" width="31.3" height="31.3"/>
			<rect x="281.3" y="250" class="st4" width="31.3" height="31.3"/>
			<rect x="187.5" y="218.8" class="st4" width="31.3" height="31.3"/>
			<rect x="187.5" y="250" class="st4" width="31.3" height="31.3"/>
			<rect x="187.5" y="281.3" class="st4" width="31.3" height="31.3"/>
			<rect x="218.8" y="281.3" class="st4" width="31.3" height="31.3"/>
			<rect x="343.8" y="156.3" class="st4" width="31.3" height="31.3"/>
			<rect x="218.8" y="343.8" class="st4" width="31.3" height="31.3"/>
			<rect x="187.5" y="343.8" class="st4" width="31.3" height="31.3"/>
			<rect x="250" y="343.8" class="st4" width="31.3" height="31.3"/>
			<rect x="156.3" y="343.8" class="st4" width="31.3" height="31.3"/>
			<rect x="125" y="312.5" class="st4" width="31.3" height="31.3"/>
			<rect x="125" y="343.8" class="st4" width="31.3" height="31.3"/>
			<rect x="281.3" y="343.8" class="st4" width="31.3" height="31.3"/>
			<rect x="343.8" y="312.5" class="st4" width="31.3" height="31.3"/>
			<rect x="343.8" y="250" class="st4" width="31.3" height="31.3"/>
			<rect x="343.8" y="218.8" class="st4" width="31.3" height="31.3"/>
			<rect x="312.5" y="343.8" class="st4" width="31.3" height="31.3"/>
			<rect x="343.8" y="187.5" class="st4" width="31.3" height="31.3"/>
			<rect x="343.8" y="343.8" class="st4" width="31.3" height="31.3"/>
			<rect x="125" y="281.3" class="st4" width="31.3" height="31.3"/>
			<rect x="343.8" y="281.3" class="st4" width="31.3" height="31.3"/>
			<rect x="312.5" y="218.8" class="st4" width="31.3" height="31.3"/>
			<rect x="125" y="250" class="st4" width="31.3" height="31.3"/>
			<rect x="281.3" y="125" class="st4" width="31.3" height="31.3"/>
			<rect x="312.5" y="156.3" class="st4" width="31.3" height="31.3"/>
			<rect x="312.5" y="187.5" class="st4" width="31.3" height="31.3"/>
			<rect x="312.5" y="250" class="st4" width="31.3" height="31.3"/>
			<rect x="312.5" y="281.3" class="st4" width="31.3" height="31.3"/>
			<rect x="250" y="125" class="st4" width="31.3" height="31.3"/>
			<rect x="312.5" y="125" class="st4" width="31.3" height="31.3"/>
			<rect x="125" y="187.5" class="st4" width="31.3" height="31.3"/>
			<rect x="125" y="218.8" class="st4" width="31.3" height="31.3"/>
			<rect x="125" y="156.3" class="st4" width="31.3" height="31.3"/>
			<rect x="156.3" y="125" class="st4" width="31.3" height="31.3"/>
			<rect x="187.5" y="125" class="st4" width="31.3" height="31.3"/>
			<rect x="125" y="125" class="st4" width="31.3" height="31.3"/>
			<rect x="218.8" y="125" class="st4" width="31.3" height="31.3"/>
			<rect x="343.8" y="62.5" class="st4" width="31.3" height="31.3"/>
			<rect y="93.8" class="st4" width="31.3" height="31.3"/>
			<rect y="125" class="st4" width="31.3" height="31.3"/>
			<rect y="62.5" class="st4" width="31.3" height="31.3"/>
			<rect y="156.3" class="st4" width="31.3" height="31.3"/>
			<rect class="st4" width="31.3" height="31.3"/>
			<rect x="31.3" class="st4" width="31.3" height="31.3"/>
			<rect y="187.5" class="st4" width="31.3" height="31.3"/>
			<rect y="31.3" class="st4" width="31.3" height="31.3"/>
			<rect y="343.8" class="st4" width="31.3" height="31.3"/>
			<rect x="62.5" class="st4" width="31.3" height="31.3"/>
			<rect y="375" class="st4" width="31.3" height="31.3"/>
			<rect y="218.8" class="st4" width="31.3" height="31.3"/>
			<rect y="406.3" class="st4" width="31.3" height="31.3"/>
			<rect y="250" class="st4" width="31.3" height="31.3"/>
			<rect y="312.5" class="st4" width="31.3" height="31.3"/>
			<rect y="281.3" class="st4" width="31.3" height="31.3"/>
			<rect x="312.5" class="st4" width="31.3" height="31.3"/>
			<rect x="406.3" class="st4" width="31.3" height="31.3"/>
			<rect x="375" class="st4" width="31.3" height="31.3"/>
			<rect x="437.5" class="st4" width="31.3" height="31.3"/>
			<rect x="437.5" y="31.3" class="st4" width="31.3" height="31.3"/>
			<rect x="437.5" y="93.8" class="st4" width="31.3" height="31.3"/>
			<rect x="437.5" y="62.5" class="st4" width="31.3" height="31.3"/>
			<rect x="93.8" class="st4" width="31.3" height="31.3"/>
			<rect x="343.8" class="st4" width="31.3" height="31.3"/>
			<rect x="156.3" class="st4" width="31.3" height="31.3"/>
			<rect x="125" class="st4" width="31.3" height="31.3"/>
			<rect x="437.5" y="125" class="st4" width="31.3" height="31.3"/>
			<rect x="281.3" class="st4" width="31.3" height="31.3"/>
			<rect x="218.8" class="st4" width="31.3" height="31.3"/>
			<rect y="437.5" class="st4" width="31.3" height="31.3"/>
			<rect x="250" class="st4" width="31.3" height="31.3"/>
			<rect x="187.5" class="st4" width="31.3" height="31.3"/>
			<rect x="468.8" y="281.3" class="st4" width="31.3" height="31.3"/>
			<rect x="468.8" y="312.5" class="st4" width="31.3" height="31.3"/>
			<rect x="468.8" y="250" class="st4" width="31.3" height="31.3"/>
			<rect x="468.8" y="375" class="st4" width="31.3" height="31.3"/>
			<rect x="468.8" y="406.3" class="st4" width="31.3" height="31.3"/>
			<rect x="468.8" y="218.8" class="st4" width="31.3" height="31.3"/>
			<rect x="468.8" y="343.8" class="st4" width="31.3" height="31.3"/>
			<rect x="468.8" y="437.5" class="st4" width="31.3" height="31.3"/>
			<rect x="468.8" y="62.5" class="st4" width="31.3" height="31.3"/>
			<rect x="468.8" y="31.3" class="st4" width="31.3" height="31.3"/>
			<rect x="468.8" class="st4" width="31.3" height="31.3"/>
			<rect x="468.8" y="125" class="st4" width="31.3" height="31.3"/>
			<rect x="468.8" y="156.3" class="st4" width="31.3" height="31.3"/>
			<rect x="468.8" y="93.8" class="st4" width="31.3" height="31.3"/>
			<rect x="468.8" y="187.5" class="st4" width="31.3" height="31.3"/>
			<rect x="343.8" y="468.8" class="st4" width="31.3" height="31.3"/>
			<rect x="218.8" y="468.8" class="st4" width="31.3" height="31.3"/>
			<rect x="125" y="468.8" class="st4" width="31.3" height="31.3"/>
			<rect x="468.8" y="468.8" class="st4" width="31.3" height="31.3"/>
			<rect x="156.3" y="468.8" class="st4" width="31.3" height="31.3"/>
			<rect x="93.8" y="468.8" class="st4" width="31.3" height="31.3"/>
			<rect x="31.3" y="468.8" class="st4" width="31.3" height="31.3"/>
			<rect x="62.5" y="468.8" class="st4" width="31.3" height="31.3"/>
			<rect x="187.5" y="468.8" class="st4" width="31.3" height="31.3"/>
			<rect x="406.3" y="468.8" class="st4" width="31.3" height="31.3"/>
			<rect x="250" y="468.8" class="st4" width="31.3" height="31.3"/>
			<rect x="437.5" y="468.8" class="st4" width="31.3" height="31.3"/>
			<rect x="375" y="468.8" class="st4" width="31.3" height="31.3"/>
			<rect x="281.3" y="468.8" class="st4" width="31.3" height="31.3"/>
			<rect x="312.5" y="468.8" class="st4" width="31.3" height="31.3"/>
			<rect y="468.8" class="st4" width="31.3" height="31.3"/>
			<rect x="187.5" y="31.3" class="st4" width="31.3" height="31.3"/>
			<rect x="281.3" y="31.3" class="st4" width="31.3" height="31.3"/>
			<rect x="250" y="31.3" class="st4" width="31.3" height="31.3"/>
			<rect x="218.8" y="31.3" class="st4" width="31.3" height="31.3"/>
			<rect x="343.8" y="31.3" class="st4" width="31.3" height="31.3"/>
			<rect x="375" y="31.3" class="st4" width="31.3" height="31.3"/>
			<rect x="312.5" y="31.3" class="st4" width="31.3" height="31.3"/>
			<rect x="281.3" y="406.3" class="st4" width="31.3" height="31.3"/>
			<rect x="31.3" y="31.3" class="st4" width="31.3" height="31.3"/>
			<rect x="406.3" y="31.3" class="st4" width="31.3" height="31.3"/>
			<rect x="156.3" y="31.3" class="st4" width="31.3" height="31.3"/>
			<rect x="31.3" y="93.8" class="st4" width="31.3" height="31.3"/>
			<rect x="31.3" y="62.5" class="st4" width="31.3" height="31.3"/>
			<rect x="62.5" y="31.3" class="st4" width="31.3" height="31.3"/>
			<rect x="125" y="31.3" class="st4" width="31.3" height="31.3"/>
			<rect x="93.8" y="31.3" class="st4" width="31.3" height="31.3"/>
			<rect x="312.5" y="406.3" class="st4" width="31.3" height="31.3"/>
			<rect x="406.3" y="312.5" class="st4" width="31.3" height="31.3"/>
			<rect x="406.3" y="343.8" class="st4" width="31.3" height="31.3"/>
			<rect x="406.3" y="406.3" class="st4" width="31.3" height="31.3"/>
			<rect x="406.3" y="62.5" class="st4" width="31.3" height="31.3"/>
			<rect x="31.3" y="125" class="st4" width="31.3" height="31.3"/>
			<rect x="343.8" y="406.3" class="st4" width="31.3" height="31.3"/>
			<rect x="375" y="406.3" class="st4" width="31.3" height="31.3"/>
			<rect x="406.3" y="375" class="st4" width="31.3" height="31.3"/>
			<rect x="406.3" y="156.3" class="st4" width="31.3" height="31.3"/>
			<rect x="406.3" y="125" class="st4" width="31.3" height="31.3"/>
			<rect x="406.3" y="93.8" class="st4" width="31.3" height="31.3"/>
			<rect x="406.3" y="281.3" class="st4" width="31.3" height="31.3"/>
			<rect x="406.3" y="250" class="st4" width="31.3" height="31.3"/>
			<rect x="406.3" y="187.5" class="st4" width="31.3" height="31.3"/>
			<rect x="406.3" y="218.8" class="st4" width="31.3" height="31.3"/>
			<rect x="437.5" y="187.5" class="st4" width="31.3" height="31.3"/>
			<rect x="31.3" y="156.3" class="st4" width="31.3" height="31.3"/>
			<rect x="375" y="437.5" class="st4" width="31.3" height="31.3"/>
			<rect x="250" y="437.5" class="st4" width="31.3" height="31.3"/>
			<rect x="437.5" y="406.3" class="st4" width="31.3" height="31.3"/>
			<rect x="281.3" y="437.5" class="st4" width="31.3" height="31.3"/>
			<rect x="312.5" y="437.5" class="st4" width="31.3" height="31.3"/>
			<rect x="343.8" y="437.5" class="st4" width="31.3" height="31.3"/>
			<rect x="437.5" y="437.5" class="st4" width="31.3" height="31.3"/>
			<rect x="437.5" y="218.8" class="st4" width="31.3" height="31.3"/>
			<rect x="437.5" y="156.3" class="st4" width="31.3" height="31.3"/>
			<rect x="437.5" y="250" class="st4" width="31.3" height="31.3"/>
			<rect x="437.5" y="375" class="st4" width="31.3" height="31.3"/>
			<rect x="437.5" y="343.8" class="st4" width="31.3" height="31.3"/>
			<rect x="437.5" y="312.5" class="st4" width="31.3" height="31.3"/>
			<rect x="437.5" y="281.3" class="st4" width="31.3" height="31.3"/>
			<rect x="406.3" y="437.5" class="st4" width="31.3" height="31.3"/>
			<rect x="31.3" y="312.5" class="st4" width="31.3" height="31.3"/>
			<rect x="31.3" y="343.8" class="st4" width="31.3" height="31.3"/>
			<rect x="31.3" y="281.3" class="st4" width="31.3" height="31.3"/>
			<rect x="31.3" y="218.8" class="st4" width="31.3" height="31.3"/>
			<rect x="31.3" y="187.5" class="st4" width="31.3" height="31.3"/>
			<rect x="31.3" y="375" class="st4" width="31.3" height="31.3"/>
			<rect x="31.3" y="250" class="st4" width="31.3" height="31.3"/>
			<rect x="187.5" y="437.5" class="st4" width="31.3" height="31.3"/>
			<rect x="125" y="437.5" class="st4" width="31.3" height="31.3"/>
			<rect x="156.3" y="437.5" class="st4" width="31.3" height="31.3"/>
			<rect x="218.8" y="437.5" class="st4" width="31.3" height="31.3"/>
			<rect x="93.8" y="437.5" class="st4" width="31.3" height="31.3"/>
			<rect x="31.3" y="406.3" class="st4" width="31.3" height="31.3"/>
			<rect x="31.3" y="437.5" class="st4" width="31.3" height="31.3"/>
			<rect x="62.5" y="437.5" class="st4" width="31.3" height="31.3"/>
		</g>
		<g>
			<rect class="st5" width="500" height="500"/>
			<rect class="st5" width="62.5" height="62.5"/>
			<rect x="437.5" class="st5" width="62.5" height="62.5"/>
			<rect y="437.5" class="st5" width="62.5" height="62.5"/>
			<rect x="437.5" y="437.5" class="st5" width="62.5" height="62.5"/>
			<rect x="62.5" y="62.5" class="st5" width="187.5" height="187.5"/>
			<rect x="250" y="62.5" class="st5" width="187.5" height="187.5"/>
			<rect x="62.5" y="250" class="st5" width="187.5" height="187.5"/>
			<rect x="250" y="250" class="st5" width="187.5" height="187.5"/>
			<line class="st5" x1="0" y1="0" x2="500" y2="500"/>
			<line class="st5" x1="500" y1="0" x2="0" y2="500"/>
			<circle class="st5" cx="250" cy="250" r="187.5"/>
			<circle class="st5" cx="250" cy="250" r="250"/>
		</g>
		<rect x="62.5" class="st5" width="375" height="500"/>
	</g>
</g>
<g>
	<path class="st6" d="M155,150.3c-18,0-32.6,14.2-32.6,31.6c0,17.5,14.6,31.7,32.6,31.7s32.6-14.2,32.6-31.7
		C187.6,164.5,173,150.3,155,150.3z"/>
	<path class="st7" d="M346.2,77.4c-20.8,0-173,0-191.4,0c-97.7,0-198.7,330-104.2,330c58.5,0,95.9-96.4,205.1-96.4
		c88.3,0,160.3,96.4,193.7,95.2C543.6,402.8,444.3,77.4,346.2,77.4z M155.6,228.7c-27.1,0-49.1-21.4-49.1-47.7s22-47.7,49.1-47.7
		s49.1,21.4,49.1,47.7C204.7,207.3,182.7,228.7,155.6,228.7z M312.6,190.7c-10.3-3.1-16.1-13.8-12.8-23.9
		c3.2-10,14.2-15.6,24.5-12.4c10.3,3.1,16.1,13.8,12.9,23.8C334,188.3,323,193.8,312.6,190.7z M356.9,228.6
		c-3.2,10.1-14.2,15.6-24.6,12.5c-10.3-3.1-16.1-13.8-12.8-23.9c3.2-10,14.2-15.6,24.5-12.4C354.3,207.9,360.1,218.5,356.9,228.6z
		 M363.4,174.1c-10.3-3.1-16.1-13.8-12.8-23.9c3.2-10,14.2-15.6,24.5-12.4c10.3,3.1,16.1,13.8,12.9,23.8
		C384.7,171.7,373.7,177.2,363.4,174.1z M408.9,210.5c-3.3,10.1-14.3,15.6-24.6,12.5c-10.3-3.1-16.1-13.8-12.9-23.9
		c3.3-10,14.3-15.6,24.6-12.5C406.4,189.8,412.2,200.5,408.9,210.5z"/>
</g>
</svg>
