<?xml version="1.0" encoding="utf-8"?>
<!-- Generator: Adobe Illustrator 22.1.0, SVG Export Plug-In . SVG Version: 6.00 Build 0)  -->
<svg version="1.1" xmlns="http://www.w3.org/2000/svg" xmlns:xlink="http://www.w3.org/1999/xlink" x="0px" y="0px"
	 viewBox="0 0 500 500" style="enable-background:new 0 0 500 500;" xml:space="preserve">
<style type="text/css">
	.st0{fill:#FF6600;}
	.st1{opacity:0.5;fill:url(#SVGID_1_);}
	.st2{fill:url(#SVGID_2_);}
	.st3{opacity:0.5;fill:url(#SVGID_3_);}
	.st4{opacity:0.5;fill:url(#SVGID_4_);}
	.st5{opacity:0.5;fill:url(#SVGID_5_);}
	.st6{opacity:0.5;fill:url(#SVGID_6_);}
	.st7{fill:#FFFFFF;}
	.st8{display:none;}
	.st9{display:inline;}
	.st10{fill:none;stroke:#EDEDED;stroke-width:0.5;stroke-miterlimit:10;}
	.st11{fill:none;stroke:#BDBDBD;stroke-miterlimit:10;}
	.st12{display:inline;fill:none;stroke:#BDBDBD;stroke-miterlimit:10;}
</style>
<g id="Layer_2">
	<path class="st0" d="M400,500H100C44.8,500,0,455.2,0,400V100C0,44.8,44.8,0,100,0h300c55.2,0,100,44.8,100,100v300
		C500,455.2,455.2,500,400,500z"/>
</g>
<g id="Layer_3_copy">
	<linearGradient id="SVGID_1_" gradientUnits="userSpaceOnUse" x1="402.8125" y1="514.3514" x2="222.7771" y2="202.5209">
		<stop  offset="0" style="stop-color:#FF6600"/>
		<stop  offset="1" style="stop-color:#231F20"/>
	</linearGradient>
	<path class="st1" d="M378.3,331l71.7-138.2l49.9,88.5V319v87.3c0,48.1-47.4,93.8-93.8,93.8H224L48.1,303.4"/>
	<linearGradient id="SVGID_2_" gradientUnits="userSpaceOnUse" x1="781.0322" y1="343.4201" x2="781.0322" y2="343.4201">
		<stop  offset="0" style="stop-color:#FF6600"/>
		<stop  offset="1" style="stop-color:#231F20"/>
	</linearGradient>
	<path class="st2" d="M781,343.4"/>
	<linearGradient id="SVGID_3_" gradientUnits="userSpaceOnUse" x1="368.7132" y1="345.7703" x2="286.1268" y2="202.7265">
		<stop  offset="0" style="stop-color:#FF6600"/>
		<stop  offset="1" style="stop-color:#231F20"/>
	</linearGradient>
	<polyline class="st3" points="312.5,187.5 417,317.9 311.7,312.3 250,251.7 	"/>
	<linearGradient id="SVGID_4_" gradientUnits="userSpaceOnUse" x1="310.3922" y1="358.4709" x2="185.7527" y2="142.5891">
		<stop  offset="0" style="stop-color:#FF6600"/>
		<stop  offset="1" style="stop-color:#231F20"/>
	</linearGradient>
	<polyline class="st4" points="396.3,205.7 420.3,295 104.3,303.2 60.3,215 	"/>
	<linearGradient id="SVGID_5_" gradientUnits="userSpaceOnUse" x1="401.0187" y1="290.7977" x2="347.8019" y2="198.6235">
		<stop  offset="0" style="stop-color:#FF6600"/>
		<stop  offset="1" style="stop-color:#231F20"/>
	</linearGradient>
	<polyline class="st5" points="401.7,209 433,272.3 363.6,296.5 311.9,219.4 	"/>
	<linearGradient id="SVGID_6_" gradientUnits="userSpaceOnUse" x1="397.1207" y1="230.8082" x2="343.9038" y2="138.6339">
		<stop  offset="0" style="stop-color:#FF6600"/>
		<stop  offset="1" style="stop-color:#231F20"/>
	</linearGradient>
	<polyline class="st6" points="407.7,170.3 433,210.1 339,213 311.9,157.1 	"/>
</g>
<g id="Layer_3">
</g>
<g id="Layer_3_copy_2">
</g>
<g id="Layer_3_copy_3">
	<path class="st7" d="M375,156.3c-1.3,0-2.5,0-3.8,0.1h-58.6l31.2,31.2l-31.9,31.9l63.1,0.2c0,0,31.3-0.8,31.3,30.4
		S375,281.3,375,281.3H125c0,0-31.3-2.9-31.3-31.3c0-28.3,32.4-31.3,31.3-31.3s-1.1,0,0,0l125,0.4V250l62.5-62.5L250,125v31.3H128.8
		c-1.3-0.1-2.5-0.1-3.8-0.1c-51.8,0-93.8,42-93.8,93.8c0,51.8,42,93.8,93.8,93.8h250c51.8,0,93.8-42,93.8-93.8
		C468.8,198.2,426.8,156.3,375,156.3z"/>
</g>
<g id="Layer_6">
</g>
<g id="Layer_4">
</g>
<g id="Layer_1" class="st8">
	<g class="st9">
		<rect x="250" y="375" class="st10" width="31.3" height="31.3"/>
		<rect x="156.3" y="375" class="st10" width="31.3" height="31.3"/>
		<rect x="218.8" y="375" class="st10" width="31.3" height="31.3"/>
		<rect x="187.5" y="375" class="st10" width="31.3" height="31.3"/>
		<rect x="93.8" y="343.8" class="st10" width="31.3" height="31.3"/>
		<rect x="93.8" y="375" class="st10" width="31.3" height="31.3"/>
		<rect x="125" y="375" class="st10" width="31.3" height="31.3"/>
		<rect x="281.3" y="375" class="st10" width="31.3" height="31.3"/>
		<rect x="375" y="312.5" class="st10" width="31.3" height="31.3"/>
		<rect x="93.8" y="312.5" class="st10" width="31.3" height="31.3"/>
		<rect x="375" y="343.8" class="st10" width="31.3" height="31.3"/>
		<rect x="375" y="281.3" class="st10" width="31.3" height="31.3"/>
		<rect x="312.5" y="375" class="st10" width="31.3" height="31.3"/>
		<rect x="375" y="375" class="st10" width="31.3" height="31.3"/>
		<rect x="375" y="250" class="st10" width="31.3" height="31.3"/>
		<rect x="343.8" y="375" class="st10" width="31.3" height="31.3"/>
		<rect x="250" y="93.8" class="st10" width="31.3" height="31.3"/>
		<rect x="218.8" y="93.8" class="st10" width="31.3" height="31.3"/>
		<rect x="187.5" y="93.8" class="st10" width="31.3" height="31.3"/>
		<rect x="312.5" y="93.8" class="st10" width="31.3" height="31.3"/>
		<rect x="343.8" y="93.8" class="st10" width="31.3" height="31.3"/>
		<rect x="156.3" y="93.8" class="st10" width="31.3" height="31.3"/>
		<rect x="281.3" y="93.8" class="st10" width="31.3" height="31.3"/>
		<rect x="93.8" y="156.3" class="st10" width="31.3" height="31.3"/>
		<rect x="93.8" y="187.5" class="st10" width="31.3" height="31.3"/>
		<rect x="93.8" y="218.8" class="st10" width="31.3" height="31.3"/>
		<rect x="93.8" y="250" class="st10" width="31.3" height="31.3"/>
		<rect x="93.8" y="281.3" class="st10" width="31.3" height="31.3"/>
		<rect x="125" y="93.8" class="st10" width="31.3" height="31.3"/>
		<rect x="93.8" y="93.8" class="st10" width="31.3" height="31.3"/>
		<rect x="93.8" y="125" class="st10" width="31.3" height="31.3"/>
		<rect x="375" y="125" class="st10" width="31.3" height="31.3"/>
		<rect x="62.5" y="281.3" class="st10" width="31.3" height="31.3"/>
		<rect x="62.5" y="312.5" class="st10" width="31.3" height="31.3"/>
		<rect x="62.5" y="250" class="st10" width="31.3" height="31.3"/>
		<rect x="62.5" y="156.3" class="st10" width="31.3" height="31.3"/>
		<rect x="62.5" y="125" class="st10" width="31.3" height="31.3"/>
		<rect x="62.5" y="187.5" class="st10" width="31.3" height="31.3"/>
		<rect x="62.5" y="218.8" class="st10" width="31.3" height="31.3"/>
		<rect x="62.5" y="343.8" class="st10" width="31.3" height="31.3"/>
		<rect x="187.5" y="406.3" class="st10" width="31.3" height="31.3"/>
		<rect x="218.8" y="406.3" class="st10" width="31.3" height="31.3"/>
		<rect x="156.3" y="406.3" class="st10" width="31.3" height="31.3"/>
		<rect x="125" y="406.3" class="st10" width="31.3" height="31.3"/>
		<rect x="62.5" y="406.3" class="st10" width="31.3" height="31.3"/>
		<rect x="93.8" y="406.3" class="st10" width="31.3" height="31.3"/>
		<rect x="62.5" y="375" class="st10" width="31.3" height="31.3"/>
		<rect x="62.5" y="93.8" class="st10" width="31.3" height="31.3"/>
		<rect x="375" y="62.5" class="st10" width="31.3" height="31.3"/>
		<rect x="312.5" y="62.5" class="st10" width="31.3" height="31.3"/>
		<rect x="281.3" y="62.5" class="st10" width="31.3" height="31.3"/>
		<rect x="375" y="93.8" class="st10" width="31.3" height="31.3"/>
		<rect x="343.8" y="125" class="st10" width="31.3" height="31.3"/>
		<rect x="375" y="187.5" class="st10" width="31.3" height="31.3"/>
		<rect x="375" y="156.3" class="st10" width="31.3" height="31.3"/>
		<rect x="62.5" y="62.5" class="st10" width="31.3" height="31.3"/>
		<rect x="93.8" y="62.5" class="st10" width="31.3" height="31.3"/>
		<rect x="375" y="218.8" class="st10" width="31.3" height="31.3"/>
		<rect x="125" y="62.5" class="st10" width="31.3" height="31.3"/>
		<rect x="250" y="62.5" class="st10" width="31.3" height="31.3"/>
		<rect x="218.8" y="62.5" class="st10" width="31.3" height="31.3"/>
		<rect x="187.5" y="62.5" class="st10" width="31.3" height="31.3"/>
		<rect x="156.3" y="62.5" class="st10" width="31.3" height="31.3"/>
		<rect x="281.3" y="156.3" class="st10" width="31.3" height="31.3"/>
		<rect x="156.3" y="156.3" class="st10" width="31.3" height="31.3"/>
		<rect x="156.3" y="218.8" class="st10" width="31.3" height="31.3"/>
		<rect x="156.3" y="187.5" class="st10" width="31.3" height="31.3"/>
		<rect x="187.5" y="156.3" class="st10" width="31.3" height="31.3"/>
		<rect x="250" y="406.3" class="st10" width="31.3" height="31.3"/>
		<rect x="250" y="156.3" class="st10" width="31.3" height="31.3"/>
		<rect x="281.3" y="187.5" class="st10" width="31.3" height="31.3"/>
		<rect x="218.8" y="156.3" class="st10" width="31.3" height="31.3"/>
		<rect x="250" y="312.5" class="st10" width="31.3" height="31.3"/>
		<rect x="312.5" y="312.5" class="st10" width="31.3" height="31.3"/>
		<rect x="281.3" y="312.5" class="st10" width="31.3" height="31.3"/>
		<rect x="218.8" y="312.5" class="st10" width="31.3" height="31.3"/>
		<rect x="156.3" y="281.3" class="st10" width="31.3" height="31.3"/>
		<rect x="156.3" y="312.5" class="st10" width="31.3" height="31.3"/>
		<rect x="187.5" y="312.5" class="st10" width="31.3" height="31.3"/>
		<rect x="156.3" y="250" class="st10" width="31.3" height="31.3"/>
		<rect x="187.5" y="187.5" class="st10" width="31.3" height="31.3"/>
		<rect x="218.8" y="187.5" class="st10" width="31.3" height="31.3"/>
		<rect x="250" y="218.8" class="st10" width="31.3" height="31.3"/>
		<rect x="250" y="187.5" class="st10" width="31.3" height="31.3"/>
		<rect x="281.3" y="218.8" class="st10" width="31.3" height="31.3"/>
		<rect x="218.8" y="250" class="st10" width="31.3" height="31.3"/>
		<rect x="250" y="250" class="st10" width="31.3" height="31.3"/>
		<rect x="218.8" y="218.8" class="st10" width="31.3" height="31.3"/>
		<rect x="281.3" y="281.3" class="st10" width="31.3" height="31.3"/>
		<rect x="250" y="281.3" class="st10" width="31.3" height="31.3"/>
		<rect x="281.3" y="250" class="st10" width="31.3" height="31.3"/>
		<rect x="187.5" y="218.8" class="st10" width="31.3" height="31.3"/>
		<rect x="187.5" y="250" class="st10" width="31.3" height="31.3"/>
		<rect x="187.5" y="281.3" class="st10" width="31.3" height="31.3"/>
		<rect x="218.8" y="281.3" class="st10" width="31.3" height="31.3"/>
		<rect x="343.8" y="156.3" class="st10" width="31.3" height="31.3"/>
		<rect x="218.8" y="343.8" class="st10" width="31.3" height="31.3"/>
		<rect x="187.5" y="343.8" class="st10" width="31.3" height="31.3"/>
		<rect x="250" y="343.8" class="st10" width="31.3" height="31.3"/>
		<rect x="156.3" y="343.8" class="st10" width="31.3" height="31.3"/>
		<rect x="125" y="312.5" class="st10" width="31.3" height="31.3"/>
		<rect x="125" y="343.8" class="st10" width="31.3" height="31.3"/>
		<rect x="281.3" y="343.8" class="st10" width="31.3" height="31.3"/>
		<rect x="343.8" y="312.5" class="st10" width="31.3" height="31.3"/>
		<rect x="343.8" y="250" class="st10" width="31.3" height="31.3"/>
		<rect x="343.8" y="218.8" class="st10" width="31.3" height="31.3"/>
		<rect x="312.5" y="343.8" class="st10" width="31.3" height="31.3"/>
		<rect x="343.8" y="187.5" class="st10" width="31.3" height="31.3"/>
		<rect x="343.8" y="343.8" class="st10" width="31.3" height="31.3"/>
		<rect x="125" y="281.3" class="st10" width="31.3" height="31.3"/>
		<rect x="343.8" y="281.3" class="st10" width="31.3" height="31.3"/>
		<rect x="312.5" y="218.8" class="st10" width="31.3" height="31.3"/>
		<rect x="125" y="250" class="st10" width="31.3" height="31.3"/>
		<rect x="281.3" y="125" class="st10" width="31.3" height="31.3"/>
		<rect x="312.5" y="156.3" class="st10" width="31.3" height="31.3"/>
		<rect x="312.5" y="187.5" class="st10" width="31.3" height="31.3"/>
		<rect x="312.5" y="250" class="st10" width="31.3" height="31.3"/>
		<rect x="312.5" y="281.3" class="st10" width="31.3" height="31.3"/>
		<rect x="250" y="125" class="st10" width="31.3" height="31.3"/>
		<rect x="312.5" y="125" class="st10" width="31.3" height="31.3"/>
		<rect x="125" y="187.5" class="st10" width="31.3" height="31.3"/>
		<rect x="125" y="218.8" class="st10" width="31.3" height="31.3"/>
		<rect x="125" y="156.3" class="st10" width="31.3" height="31.3"/>
		<rect x="156.3" y="125" class="st10" width="31.3" height="31.3"/>
		<rect x="187.5" y="125" class="st10" width="31.3" height="31.3"/>
		<rect x="125" y="125" class="st10" width="31.3" height="31.3"/>
		<rect x="218.8" y="125" class="st10" width="31.3" height="31.3"/>
		<rect x="343.8" y="62.5" class="st10" width="31.3" height="31.3"/>
		<rect y="93.8" class="st10" width="31.3" height="31.3"/>
		<rect y="125" class="st10" width="31.3" height="31.3"/>
		<rect y="62.5" class="st10" width="31.3" height="31.3"/>
		<rect y="156.3" class="st10" width="31.3" height="31.3"/>
		<rect class="st10" width="31.3" height="31.3"/>
		<rect x="31.3" class="st10" width="31.3" height="31.3"/>
		<rect y="187.5" class="st10" width="31.3" height="31.3"/>
		<rect y="31.3" class="st10" width="31.3" height="31.3"/>
		<rect y="343.8" class="st10" width="31.3" height="31.3"/>
		<rect x="62.5" class="st10" width="31.3" height="31.3"/>
		<rect y="375" class="st10" width="31.3" height="31.3"/>
		<rect y="218.8" class="st10" width="31.3" height="31.3"/>
		<rect y="406.3" class="st10" width="31.3" height="31.3"/>
		<rect y="250" class="st10" width="31.3" height="31.3"/>
		<rect y="312.5" class="st10" width="31.3" height="31.3"/>
		<rect y="281.3" class="st10" width="31.3" height="31.3"/>
		<rect x="312.5" class="st10" width="31.3" height="31.3"/>
		<rect x="406.3" class="st10" width="31.3" height="31.3"/>
		<rect x="375" class="st10" width="31.3" height="31.3"/>
		<rect x="437.5" class="st10" width="31.3" height="31.3"/>
		<rect x="437.5" y="31.3" class="st10" width="31.3" height="31.3"/>
		<rect x="437.5" y="93.8" class="st10" width="31.3" height="31.3"/>
		<rect x="437.5" y="62.5" class="st10" width="31.3" height="31.3"/>
		<rect x="93.8" class="st10" width="31.3" height="31.3"/>
		<rect x="343.8" class="st10" width="31.3" height="31.3"/>
		<rect x="156.3" class="st10" width="31.3" height="31.3"/>
		<rect x="125" class="st10" width="31.3" height="31.3"/>
		<rect x="437.5" y="125" class="st10" width="31.3" height="31.3"/>
		<rect x="281.3" class="st10" width="31.3" height="31.3"/>
		<rect x="218.8" class="st10" width="31.3" height="31.3"/>
		<rect y="437.5" class="st10" width="31.3" height="31.3"/>
		<rect x="250" class="st10" width="31.3" height="31.3"/>
		<rect x="187.5" class="st10" width="31.3" height="31.3"/>
		<rect x="468.8" y="281.3" class="st10" width="31.3" height="31.3"/>
		<rect x="468.8" y="312.5" class="st10" width="31.3" height="31.3"/>
		<rect x="468.8" y="250" class="st10" width="31.3" height="31.3"/>
		<rect x="468.8" y="375" class="st10" width="31.3" height="31.3"/>
		<rect x="468.8" y="406.3" class="st10" width="31.3" height="31.3"/>
		<rect x="468.8" y="218.8" class="st10" width="31.3" height="31.3"/>
		<rect x="468.8" y="343.8" class="st10" width="31.3" height="31.3"/>
		<rect x="468.8" y="437.5" class="st10" width="31.3" height="31.3"/>
		<rect x="468.8" y="62.5" class="st10" width="31.3" height="31.3"/>
		<rect x="468.8" y="31.3" class="st10" width="31.3" height="31.3"/>
		<rect x="468.8" class="st10" width="31.3" height="31.3"/>
		<rect x="468.8" y="125" class="st10" width="31.3" height="31.3"/>
		<rect x="468.8" y="156.3" class="st10" width="31.3" height="31.3"/>
		<rect x="468.8" y="93.8" class="st10" width="31.3" height="31.3"/>
		<rect x="468.8" y="187.5" class="st10" width="31.3" height="31.3"/>
		<rect x="343.8" y="468.8" class="st10" width="31.3" height="31.3"/>
		<rect x="218.8" y="468.8" class="st10" width="31.3" height="31.3"/>
		<rect x="125" y="468.8" class="st10" width="31.3" height="31.3"/>
		<rect x="468.8" y="468.8" class="st10" width="31.3" height="31.3"/>
		<rect x="156.3" y="468.8" class="st10" width="31.3" height="31.3"/>
		<rect x="93.8" y="468.8" class="st10" width="31.3" height="31.3"/>
		<rect x="31.3" y="468.8" class="st10" width="31.3" height="31.3"/>
		<rect x="62.5" y="468.8" class="st10" width="31.3" height="31.3"/>
		<rect x="187.5" y="468.8" class="st10" width="31.3" height="31.3"/>
		<rect x="406.3" y="468.8" class="st10" width="31.3" height="31.3"/>
		<rect x="250" y="468.8" class="st10" width="31.3" height="31.3"/>
		<rect x="437.5" y="468.8" class="st10" width="31.3" height="31.3"/>
		<rect x="375" y="468.8" class="st10" width="31.3" height="31.3"/>
		<rect x="281.3" y="468.8" class="st10" width="31.3" height="31.3"/>
		<rect x="312.5" y="468.8" class="st10" width="31.3" height="31.3"/>
		<rect y="468.8" class="st10" width="31.3" height="31.3"/>
		<rect x="187.5" y="31.3" class="st10" width="31.3" height="31.3"/>
		<rect x="281.3" y="31.3" class="st10" width="31.3" height="31.3"/>
		<rect x="250" y="31.3" class="st10" width="31.3" height="31.3"/>
		<rect x="218.8" y="31.3" class="st10" width="31.3" height="31.3"/>
		<rect x="343.8" y="31.3" class="st10" width="31.3" height="31.3"/>
		<rect x="375" y="31.3" class="st10" width="31.3" height="31.3"/>
		<rect x="312.5" y="31.3" class="st10" width="31.3" height="31.3"/>
		<rect x="281.3" y="406.3" class="st10" width="31.3" height="31.3"/>
		<rect x="31.3" y="31.3" class="st10" width="31.3" height="31.3"/>
		<rect x="406.3" y="31.3" class="st10" width="31.3" height="31.3"/>
		<rect x="156.3" y="31.3" class="st10" width="31.3" height="31.3"/>
		<rect x="31.3" y="93.8" class="st10" width="31.3" height="31.3"/>
		<rect x="31.3" y="62.5" class="st10" width="31.3" height="31.3"/>
		<rect x="62.5" y="31.3" class="st10" width="31.3" height="31.3"/>
		<rect x="125" y="31.3" class="st10" width="31.3" height="31.3"/>
		<rect x="93.8" y="31.3" class="st10" width="31.3" height="31.3"/>
		<rect x="312.5" y="406.3" class="st10" width="31.3" height="31.3"/>
		<rect x="406.3" y="312.5" class="st10" width="31.3" height="31.3"/>
		<rect x="406.3" y="343.8" class="st10" width="31.3" height="31.3"/>
		<rect x="406.3" y="406.3" class="st10" width="31.3" height="31.3"/>
		<rect x="406.3" y="62.5" class="st10" width="31.3" height="31.3"/>
		<rect x="31.3" y="125" class="st10" width="31.3" height="31.3"/>
		<rect x="343.8" y="406.3" class="st10" width="31.3" height="31.3"/>
		<rect x="375" y="406.3" class="st10" width="31.3" height="31.3"/>
		<rect x="406.3" y="375" class="st10" width="31.3" height="31.3"/>
		<rect x="406.3" y="156.3" class="st10" width="31.3" height="31.3"/>
		<rect x="406.3" y="125" class="st10" width="31.3" height="31.3"/>
		<rect x="406.3" y="93.8" class="st10" width="31.3" height="31.3"/>
		<rect x="406.3" y="281.3" class="st10" width="31.3" height="31.3"/>
		<rect x="406.3" y="250" class="st10" width="31.3" height="31.3"/>
		<rect x="406.3" y="187.5" class="st10" width="31.3" height="31.3"/>
		<rect x="406.3" y="218.8" class="st10" width="31.3" height="31.3"/>
		<rect x="437.5" y="187.5" class="st10" width="31.3" height="31.3"/>
		<rect x="31.3" y="156.3" class="st10" width="31.3" height="31.3"/>
		<rect x="375" y="437.5" class="st10" width="31.3" height="31.3"/>
		<rect x="250" y="437.5" class="st10" width="31.3" height="31.3"/>
		<rect x="437.5" y="406.3" class="st10" width="31.3" height="31.3"/>
		<rect x="281.3" y="437.5" class="st10" width="31.3" height="31.3"/>
		<rect x="312.5" y="437.5" class="st10" width="31.3" height="31.3"/>
		<rect x="343.8" y="437.5" class="st10" width="31.3" height="31.3"/>
		<rect x="437.5" y="437.5" class="st10" width="31.3" height="31.3"/>
		<rect x="437.5" y="218.8" class="st10" width="31.3" height="31.3"/>
		<rect x="437.5" y="156.3" class="st10" width="31.3" height="31.3"/>
		<rect x="437.5" y="250" class="st10" width="31.3" height="31.3"/>
		<rect x="437.5" y="375" class="st10" width="31.3" height="31.3"/>
		<rect x="437.5" y="343.8" class="st10" width="31.3" height="31.3"/>
		<rect x="437.5" y="312.5" class="st10" width="31.3" height="31.3"/>
		<rect x="437.5" y="281.3" class="st10" width="31.3" height="31.3"/>
		<rect x="406.3" y="437.5" class="st10" width="31.3" height="31.3"/>
		<rect x="31.3" y="312.5" class="st10" width="31.3" height="31.3"/>
		<rect x="31.3" y="343.8" class="st10" width="31.3" height="31.3"/>
		<rect x="31.3" y="281.3" class="st10" width="31.3" height="31.3"/>
		<rect x="31.3" y="218.8" class="st10" width="31.3" height="31.3"/>
		<rect x="31.3" y="187.5" class="st10" width="31.3" height="31.3"/>
		<rect x="31.3" y="375" class="st10" width="31.3" height="31.3"/>
		<rect x="31.3" y="250" class="st10" width="31.3" height="31.3"/>
		<rect x="187.5" y="437.5" class="st10" width="31.3" height="31.3"/>
		<rect x="125" y="437.5" class="st10" width="31.3" height="31.3"/>
		<rect x="156.3" y="437.5" class="st10" width="31.3" height="31.3"/>
		<rect x="218.8" y="437.5" class="st10" width="31.3" height="31.3"/>
		<rect x="93.8" y="437.5" class="st10" width="31.3" height="31.3"/>
		<rect x="31.3" y="406.3" class="st10" width="31.3" height="31.3"/>
		<rect x="31.3" y="437.5" class="st10" width="31.3" height="31.3"/>
		<rect x="62.5" y="437.5" class="st10" width="31.3" height="31.3"/>
	</g>
	<g class="st9">
		<rect class="st11" width="500" height="500"/>
		<rect class="st11" width="62.5" height="62.5"/>
		<rect x="437.5" class="st11" width="62.5" height="62.5"/>
		<rect y="437.5" class="st11" width="62.5" height="62.5"/>
		<rect x="437.5" y="437.5" class="st11" width="62.5" height="62.5"/>
		<rect x="62.5" y="62.5" class="st11" width="187.5" height="187.5"/>
		<rect x="250" y="62.5" class="st11" width="187.5" height="187.5"/>
		<rect x="62.5" y="250" class="st11" width="187.5" height="187.5"/>
		<rect x="250" y="250" class="st11" width="187.5" height="187.5"/>
		<line class="st11" x1="0" y1="0" x2="500" y2="500"/>
		<line class="st11" x1="500" y1="0" x2="0" y2="500"/>
		<circle class="st11" cx="250" cy="250" r="187.5"/>
		<circle class="st11" cx="250" cy="250" r="250"/>
	</g>
	<rect x="62.5" class="st12" width="375" height="500"/>
</g>
</svg>
