<?xml version="1.0" encoding="utf-8"?>
<!-- Generator: Adobe Illustrator 23.1.0, SVG Export Plug-In . SVG Version: 6.00 Build 0)  -->
<svg version="1.1" id="Layer_1" xmlns="http://www.w3.org/2000/svg" xmlns:xlink="http://www.w3.org/1999/xlink" x="0px" y="0px"
	 viewBox="0 0 500 500" style="enable-background:new 0 0 500 500;" xml:space="preserve">
<style type="text/css">
	.st0{display:none;}
	.st1{display:inline;}
	.st2{fill:none;stroke:#EDEDED;stroke-width:0.5;stroke-miterlimit:10;}
	.st3{display:inline;fill:none;stroke:#BDBDBD;stroke-miterlimit:10;}
	.st4{fill:#FF6600;}
</style>
<g id="Layer_3" class="st0">
</g>
<g id="Layer_7" class="st0">
	<g class="st1">
		<rect x="250" y="375" class="st2" width="31.3" height="31.3"/>
		<rect x="156.3" y="375" class="st2" width="31.3" height="31.3"/>
		<rect x="218.8" y="375" class="st2" width="31.3" height="31.3"/>
		<rect x="187.5" y="375" class="st2" width="31.3" height="31.3"/>
		<rect x="93.8" y="343.8" class="st2" width="31.3" height="31.3"/>
		<rect x="93.8" y="375" class="st2" width="31.3" height="31.3"/>
		<rect x="125" y="375" class="st2" width="31.3" height="31.3"/>
		<rect x="281.3" y="375" class="st2" width="31.3" height="31.3"/>
		<rect x="375" y="312.5" class="st2" width="31.3" height="31.3"/>
		<rect x="93.8" y="312.5" class="st2" width="31.3" height="31.3"/>
		<rect x="375" y="343.8" class="st2" width="31.3" height="31.3"/>
		<rect x="375" y="281.3" class="st2" width="31.3" height="31.3"/>
		<rect x="312.5" y="375" class="st2" width="31.3" height="31.3"/>
		<rect x="375" y="375" class="st2" width="31.3" height="31.3"/>
		<rect x="375" y="250" class="st2" width="31.3" height="31.3"/>
		<rect x="343.8" y="375" class="st2" width="31.3" height="31.3"/>
		<rect x="250" y="93.8" class="st2" width="31.3" height="31.3"/>
		<rect x="218.8" y="93.8" class="st2" width="31.3" height="31.3"/>
		<rect x="187.5" y="93.8" class="st2" width="31.3" height="31.3"/>
		<rect x="312.5" y="93.8" class="st2" width="31.3" height="31.3"/>
		<rect x="343.8" y="93.8" class="st2" width="31.3" height="31.3"/>
		<rect x="156.3" y="93.8" class="st2" width="31.3" height="31.3"/>
		<rect x="281.3" y="93.8" class="st2" width="31.3" height="31.3"/>
		<rect x="93.8" y="156.3" class="st2" width="31.3" height="31.3"/>
		<rect x="93.8" y="187.5" class="st2" width="31.3" height="31.3"/>
		<rect x="93.8" y="218.8" class="st2" width="31.3" height="31.3"/>
		<rect x="93.8" y="250" class="st2" width="31.3" height="31.3"/>
		<rect x="93.8" y="281.3" class="st2" width="31.3" height="31.3"/>
		<rect x="125" y="93.8" class="st2" width="31.3" height="31.3"/>
		<rect x="93.8" y="93.8" class="st2" width="31.3" height="31.3"/>
		<rect x="93.8" y="125" class="st2" width="31.3" height="31.3"/>
		<rect x="375" y="125" class="st2" width="31.3" height="31.3"/>
		<rect x="62.5" y="281.3" class="st2" width="31.3" height="31.3"/>
		<rect x="62.5" y="312.5" class="st2" width="31.3" height="31.3"/>
		<rect x="62.5" y="250" class="st2" width="31.3" height="31.3"/>
		<rect x="62.5" y="156.3" class="st2" width="31.3" height="31.3"/>
		<rect x="62.5" y="125" class="st2" width="31.3" height="31.3"/>
		<rect x="62.5" y="187.5" class="st2" width="31.3" height="31.3"/>
		<rect x="62.5" y="218.8" class="st2" width="31.3" height="31.3"/>
		<rect x="62.5" y="343.8" class="st2" width="31.3" height="31.3"/>
		<rect x="187.5" y="406.3" class="st2" width="31.3" height="31.3"/>
		<rect x="218.8" y="406.3" class="st2" width="31.3" height="31.3"/>
		<rect x="156.3" y="406.3" class="st2" width="31.3" height="31.3"/>
		<rect x="125" y="406.3" class="st2" width="31.3" height="31.3"/>
		<rect x="62.5" y="406.3" class="st2" width="31.3" height="31.3"/>
		<rect x="93.8" y="406.3" class="st2" width="31.3" height="31.3"/>
		<rect x="62.5" y="375" class="st2" width="31.3" height="31.3"/>
		<rect x="62.5" y="93.8" class="st2" width="31.3" height="31.3"/>
		<rect x="375" y="62.5" class="st2" width="31.3" height="31.3"/>
		<rect x="312.5" y="62.5" class="st2" width="31.3" height="31.3"/>
		<rect x="281.3" y="62.5" class="st2" width="31.3" height="31.3"/>
		<rect x="375" y="93.8" class="st2" width="31.3" height="31.3"/>
		<rect x="343.8" y="125" class="st2" width="31.3" height="31.3"/>
		<rect x="375" y="187.5" class="st2" width="31.3" height="31.3"/>
		<rect x="375" y="156.3" class="st2" width="31.3" height="31.3"/>
		<rect x="62.5" y="62.5" class="st2" width="31.3" height="31.3"/>
		<rect x="93.8" y="62.5" class="st2" width="31.3" height="31.3"/>
		<rect x="375" y="218.8" class="st2" width="31.3" height="31.3"/>
		<rect x="125" y="62.5" class="st2" width="31.3" height="31.3"/>
		<rect x="250" y="62.5" class="st2" width="31.3" height="31.3"/>
		<rect x="218.8" y="62.5" class="st2" width="31.3" height="31.3"/>
		<rect x="187.5" y="62.5" class="st2" width="31.3" height="31.3"/>
		<rect x="156.3" y="62.5" class="st2" width="31.3" height="31.3"/>
		<rect x="281.3" y="156.3" class="st2" width="31.3" height="31.3"/>
		<rect x="156.3" y="156.3" class="st2" width="31.3" height="31.3"/>
		<rect x="156.3" y="218.8" class="st2" width="31.3" height="31.3"/>
		<rect x="156.3" y="187.5" class="st2" width="31.3" height="31.3"/>
		<rect x="187.5" y="156.3" class="st2" width="31.3" height="31.3"/>
		<rect x="250" y="406.3" class="st2" width="31.3" height="31.3"/>
		<rect x="250" y="156.3" class="st2" width="31.3" height="31.3"/>
		<rect x="281.3" y="187.5" class="st2" width="31.3" height="31.3"/>
		<rect x="218.8" y="156.3" class="st2" width="31.3" height="31.3"/>
		<rect x="250" y="312.5" class="st2" width="31.3" height="31.3"/>
		<rect x="312.5" y="312.5" class="st2" width="31.3" height="31.3"/>
		<rect x="281.3" y="312.5" class="st2" width="31.3" height="31.3"/>
		<rect x="218.8" y="312.5" class="st2" width="31.3" height="31.3"/>
		<rect x="156.3" y="281.3" class="st2" width="31.3" height="31.3"/>
		<rect x="156.3" y="312.5" class="st2" width="31.3" height="31.3"/>
		<rect x="187.5" y="312.5" class="st2" width="31.3" height="31.3"/>
		<rect x="156.3" y="250" class="st2" width="31.3" height="31.3"/>
		<rect x="187.5" y="187.5" class="st2" width="31.3" height="31.3"/>
		<rect x="218.8" y="187.5" class="st2" width="31.3" height="31.3"/>
		<rect x="250" y="218.8" class="st2" width="31.3" height="31.3"/>
		<rect x="250" y="187.5" class="st2" width="31.3" height="31.3"/>
		<rect x="281.3" y="218.8" class="st2" width="31.3" height="31.3"/>
		<rect x="218.8" y="250" class="st2" width="31.3" height="31.3"/>
		<rect x="250" y="250" class="st2" width="31.3" height="31.3"/>
		<rect x="218.8" y="218.8" class="st2" width="31.3" height="31.3"/>
		<rect x="281.3" y="281.3" class="st2" width="31.3" height="31.3"/>
		<rect x="250" y="281.3" class="st2" width="31.3" height="31.3"/>
		<rect x="281.3" y="250" class="st2" width="31.3" height="31.3"/>
		<rect x="187.5" y="218.8" class="st2" width="31.3" height="31.3"/>
		<rect x="187.5" y="250" class="st2" width="31.3" height="31.3"/>
		<rect x="187.5" y="281.3" class="st2" width="31.3" height="31.3"/>
		<rect x="218.8" y="281.3" class="st2" width="31.3" height="31.3"/>
		<rect x="343.8" y="156.3" class="st2" width="31.3" height="31.3"/>
		<rect x="218.8" y="343.8" class="st2" width="31.3" height="31.3"/>
		<rect x="187.5" y="343.8" class="st2" width="31.3" height="31.3"/>
		<rect x="250" y="343.8" class="st2" width="31.3" height="31.3"/>
		<rect x="156.3" y="343.8" class="st2" width="31.3" height="31.3"/>
		<rect x="125" y="312.5" class="st2" width="31.3" height="31.3"/>
		<rect x="125" y="343.8" class="st2" width="31.3" height="31.3"/>
		<rect x="281.3" y="343.8" class="st2" width="31.3" height="31.3"/>
		<rect x="343.8" y="312.5" class="st2" width="31.3" height="31.3"/>
		<rect x="343.8" y="250" class="st2" width="31.3" height="31.3"/>
		<rect x="343.8" y="218.8" class="st2" width="31.3" height="31.3"/>
		<rect x="312.5" y="343.8" class="st2" width="31.3" height="31.3"/>
		<rect x="343.8" y="187.5" class="st2" width="31.3" height="31.3"/>
		<rect x="343.8" y="343.8" class="st2" width="31.3" height="31.3"/>
		<rect x="125" y="281.3" class="st2" width="31.3" height="31.3"/>
		<rect x="343.8" y="281.3" class="st2" width="31.3" height="31.3"/>
		<rect x="312.5" y="218.8" class="st2" width="31.3" height="31.3"/>
		<rect x="125" y="250" class="st2" width="31.3" height="31.3"/>
		<rect x="281.3" y="125" class="st2" width="31.3" height="31.3"/>
		<rect x="312.5" y="156.3" class="st2" width="31.3" height="31.3"/>
		<rect x="312.5" y="187.5" class="st2" width="31.3" height="31.3"/>
		<rect x="312.5" y="250" class="st2" width="31.3" height="31.3"/>
		<rect x="312.5" y="281.3" class="st2" width="31.3" height="31.3"/>
		<rect x="250" y="125" class="st2" width="31.3" height="31.3"/>
		<rect x="312.5" y="125" class="st2" width="31.3" height="31.3"/>
		<rect x="125" y="187.5" class="st2" width="31.3" height="31.3"/>
		<rect x="125" y="218.8" class="st2" width="31.3" height="31.3"/>
		<rect x="125" y="156.3" class="st2" width="31.3" height="31.3"/>
		<rect x="156.3" y="125" class="st2" width="31.3" height="31.3"/>
		<rect x="187.5" y="125" class="st2" width="31.3" height="31.3"/>
		<rect x="125" y="125" class="st2" width="31.3" height="31.3"/>
		<rect x="218.8" y="125" class="st2" width="31.3" height="31.3"/>
		<rect x="343.8" y="62.5" class="st2" width="31.3" height="31.3"/>
		<rect y="93.8" class="st2" width="31.3" height="31.3"/>
		<rect y="125" class="st2" width="31.3" height="31.3"/>
		<rect y="62.5" class="st2" width="31.3" height="31.3"/>
		<rect y="156.3" class="st2" width="31.3" height="31.3"/>
		<rect class="st2" width="31.3" height="31.3"/>
		<rect x="31.3" class="st2" width="31.3" height="31.3"/>
		<rect y="187.5" class="st2" width="31.3" height="31.3"/>
		<rect y="31.3" class="st2" width="31.3" height="31.3"/>
		<rect y="343.8" class="st2" width="31.3" height="31.3"/>
		<rect x="62.5" class="st2" width="31.3" height="31.3"/>
		<rect y="375" class="st2" width="31.3" height="31.3"/>
		<rect y="218.8" class="st2" width="31.3" height="31.3"/>
		<rect y="406.3" class="st2" width="31.3" height="31.3"/>
		<rect y="250" class="st2" width="31.3" height="31.3"/>
		<rect y="312.5" class="st2" width="31.3" height="31.3"/>
		<rect y="281.3" class="st2" width="31.3" height="31.3"/>
		<rect x="312.5" class="st2" width="31.3" height="31.3"/>
		<rect x="406.3" class="st2" width="31.3" height="31.3"/>
		<rect x="375" class="st2" width="31.3" height="31.3"/>
		<rect x="437.5" class="st2" width="31.3" height="31.3"/>
		<rect x="437.5" y="31.3" class="st2" width="31.3" height="31.3"/>
		<rect x="437.5" y="93.8" class="st2" width="31.3" height="31.3"/>
		<rect x="437.5" y="62.5" class="st2" width="31.3" height="31.3"/>
		<rect x="93.8" class="st2" width="31.3" height="31.3"/>
		<rect x="343.8" class="st2" width="31.3" height="31.3"/>
		<rect x="156.3" class="st2" width="31.3" height="31.3"/>
		<rect x="125" class="st2" width="31.3" height="31.3"/>
		<rect x="437.5" y="125" class="st2" width="31.3" height="31.3"/>
		<rect x="281.3" class="st2" width="31.3" height="31.3"/>
		<rect x="218.8" class="st2" width="31.3" height="31.3"/>
		<rect y="437.5" class="st2" width="31.3" height="31.3"/>
		<rect x="250" class="st2" width="31.3" height="31.3"/>
		<rect x="187.5" class="st2" width="31.3" height="31.3"/>
		<rect x="468.8" y="281.3" class="st2" width="31.3" height="31.3"/>
		<rect x="468.8" y="312.5" class="st2" width="31.3" height="31.3"/>
		<rect x="468.8" y="250" class="st2" width="31.3" height="31.3"/>
		<rect x="468.8" y="375" class="st2" width="31.3" height="31.3"/>
		<rect x="468.8" y="406.3" class="st2" width="31.3" height="31.3"/>
		<rect x="468.8" y="218.8" class="st2" width="31.3" height="31.3"/>
		<rect x="468.8" y="343.8" class="st2" width="31.3" height="31.3"/>
		<rect x="468.8" y="437.5" class="st2" width="31.3" height="31.3"/>
		<rect x="468.8" y="62.5" class="st2" width="31.3" height="31.3"/>
		<rect x="468.8" y="31.3" class="st2" width="31.3" height="31.3"/>
		<rect x="468.8" class="st2" width="31.3" height="31.3"/>
		<rect x="468.8" y="125" class="st2" width="31.3" height="31.3"/>
		<rect x="468.8" y="156.3" class="st2" width="31.3" height="31.3"/>
		<rect x="468.8" y="93.8" class="st2" width="31.3" height="31.3"/>
		<rect x="468.8" y="187.5" class="st2" width="31.3" height="31.3"/>
		<rect x="343.8" y="468.8" class="st2" width="31.3" height="31.3"/>
		<rect x="218.8" y="468.8" class="st2" width="31.3" height="31.3"/>
		<rect x="125" y="468.8" class="st2" width="31.3" height="31.3"/>
		<rect x="468.8" y="468.8" class="st2" width="31.3" height="31.3"/>
		<rect x="156.3" y="468.8" class="st2" width="31.3" height="31.3"/>
		<rect x="93.8" y="468.8" class="st2" width="31.3" height="31.3"/>
		<rect x="31.3" y="468.8" class="st2" width="31.3" height="31.3"/>
		<rect x="62.5" y="468.8" class="st2" width="31.3" height="31.3"/>
		<rect x="187.5" y="468.8" class="st2" width="31.3" height="31.3"/>
		<rect x="406.3" y="468.8" class="st2" width="31.3" height="31.3"/>
		<rect x="250" y="468.8" class="st2" width="31.3" height="31.3"/>
		<rect x="437.5" y="468.8" class="st2" width="31.3" height="31.3"/>
		<rect x="375" y="468.8" class="st2" width="31.3" height="31.3"/>
		<rect x="281.3" y="468.8" class="st2" width="31.3" height="31.3"/>
		<rect x="312.5" y="468.8" class="st2" width="31.3" height="31.3"/>
		<rect y="468.8" class="st2" width="31.3" height="31.3"/>
		<rect x="187.5" y="31.3" class="st2" width="31.3" height="31.3"/>
		<rect x="281.3" y="31.3" class="st2" width="31.3" height="31.3"/>
		<rect x="250" y="31.3" class="st2" width="31.3" height="31.3"/>
		<rect x="218.8" y="31.3" class="st2" width="31.3" height="31.3"/>
		<rect x="343.8" y="31.3" class="st2" width="31.3" height="31.3"/>
		<rect x="375" y="31.3" class="st2" width="31.3" height="31.3"/>
		<rect x="312.5" y="31.3" class="st2" width="31.3" height="31.3"/>
		<rect x="281.3" y="406.3" class="st2" width="31.3" height="31.3"/>
		<rect x="31.3" y="31.3" class="st2" width="31.3" height="31.3"/>
		<rect x="406.3" y="31.3" class="st2" width="31.3" height="31.3"/>
		<rect x="156.3" y="31.3" class="st2" width="31.3" height="31.3"/>
		<rect x="31.3" y="93.8" class="st2" width="31.3" height="31.3"/>
		<rect x="31.3" y="62.5" class="st2" width="31.3" height="31.3"/>
		<rect x="62.5" y="31.3" class="st2" width="31.3" height="31.3"/>
		<rect x="125" y="31.3" class="st2" width="31.3" height="31.3"/>
		<rect x="93.8" y="31.3" class="st2" width="31.3" height="31.3"/>
		<rect x="312.5" y="406.3" class="st2" width="31.3" height="31.3"/>
		<rect x="406.3" y="312.5" class="st2" width="31.3" height="31.3"/>
		<rect x="406.3" y="343.8" class="st2" width="31.3" height="31.3"/>
		<rect x="406.3" y="406.3" class="st2" width="31.3" height="31.3"/>
		<rect x="406.3" y="62.5" class="st2" width="31.3" height="31.3"/>
		<rect x="31.3" y="125" class="st2" width="31.3" height="31.3"/>
		<rect x="343.8" y="406.3" class="st2" width="31.3" height="31.3"/>
		<rect x="375" y="406.3" class="st2" width="31.3" height="31.3"/>
		<rect x="406.3" y="375" class="st2" width="31.3" height="31.3"/>
		<rect x="406.3" y="156.3" class="st2" width="31.3" height="31.3"/>
		<rect x="406.3" y="125" class="st2" width="31.3" height="31.3"/>
		<rect x="406.3" y="93.8" class="st2" width="31.3" height="31.3"/>
		<rect x="406.3" y="281.3" class="st2" width="31.3" height="31.3"/>
		<rect x="406.3" y="250" class="st2" width="31.3" height="31.3"/>
		<rect x="406.3" y="187.5" class="st2" width="31.3" height="31.3"/>
		<rect x="406.3" y="218.8" class="st2" width="31.3" height="31.3"/>
		<rect x="437.5" y="187.5" class="st2" width="31.3" height="31.3"/>
		<rect x="31.3" y="156.3" class="st2" width="31.3" height="31.3"/>
		<rect x="375" y="437.5" class="st2" width="31.3" height="31.3"/>
		<rect x="250" y="437.5" class="st2" width="31.3" height="31.3"/>
		<rect x="437.5" y="406.3" class="st2" width="31.3" height="31.3"/>
		<rect x="281.3" y="437.5" class="st2" width="31.3" height="31.3"/>
		<rect x="312.5" y="437.5" class="st2" width="31.3" height="31.3"/>
		<rect x="343.8" y="437.5" class="st2" width="31.3" height="31.3"/>
		<rect x="437.5" y="437.5" class="st2" width="31.3" height="31.3"/>
		<rect x="437.5" y="218.8" class="st2" width="31.3" height="31.3"/>
		<rect x="437.5" y="156.3" class="st2" width="31.3" height="31.3"/>
		<rect x="437.5" y="250" class="st2" width="31.3" height="31.3"/>
		<rect x="437.5" y="375" class="st2" width="31.3" height="31.3"/>
		<rect x="437.5" y="343.8" class="st2" width="31.3" height="31.3"/>
		<rect x="437.5" y="312.5" class="st2" width="31.3" height="31.3"/>
		<rect x="437.5" y="281.3" class="st2" width="31.3" height="31.3"/>
		<rect x="406.3" y="437.5" class="st2" width="31.3" height="31.3"/>
		<rect x="31.3" y="312.5" class="st2" width="31.3" height="31.3"/>
		<rect x="31.3" y="343.8" class="st2" width="31.3" height="31.3"/>
		<rect x="31.3" y="281.3" class="st2" width="31.3" height="31.3"/>
		<rect x="31.3" y="218.8" class="st2" width="31.3" height="31.3"/>
		<rect x="31.3" y="187.5" class="st2" width="31.3" height="31.3"/>
		<rect x="31.3" y="375" class="st2" width="31.3" height="31.3"/>
		<rect x="31.3" y="250" class="st2" width="31.3" height="31.3"/>
		<rect x="187.5" y="437.5" class="st2" width="31.3" height="31.3"/>
		<rect x="125" y="437.5" class="st2" width="31.3" height="31.3"/>
		<rect x="156.3" y="437.5" class="st2" width="31.3" height="31.3"/>
		<rect x="218.8" y="437.5" class="st2" width="31.3" height="31.3"/>
		<rect x="93.8" y="437.5" class="st2" width="31.3" height="31.3"/>
		<rect x="31.3" y="406.3" class="st2" width="31.3" height="31.3"/>
		<rect x="31.3" y="437.5" class="st2" width="31.3" height="31.3"/>
		<rect x="62.5" y="437.5" class="st2" width="31.3" height="31.3"/>
	</g>
	<rect class="st3" width="500" height="500"/>
	<rect class="st3" width="62.5" height="62.5"/>
	<rect x="437.5" class="st3" width="62.5" height="62.5"/>
	<rect y="437.5" class="st3" width="62.5" height="62.5"/>
	<rect x="437.5" y="437.5" class="st3" width="62.5" height="62.5"/>
	<rect x="62.5" y="62.5" class="st3" width="187.5" height="187.5"/>
	<rect x="250" y="62.5" class="st3" width="187.5" height="187.5"/>
	<rect x="62.5" y="250" class="st3" width="187.5" height="187.5"/>
	<rect x="250" y="250" class="st3" width="187.5" height="187.5"/>
	<line class="st3" x1="0" y1="0" x2="500" y2="500"/>
	<line class="st3" x1="500" y1="0" x2="0" y2="500"/>
	<circle class="st3" cx="250" cy="250" r="187.5"/>
	<circle class="st3" cx="250" cy="250" r="250"/>
	<rect x="62.5" class="st3" width="375" height="500"/>
</g>
<rect x="31" y="29" class="st4" width="241" height="444"/>
<rect x="277" y="309" class="st4" width="164" height="164"/>
<rect x="277" y="243" class="st4" width="62" height="62"/>
<rect x="302" y="175" class="st4" width="30" height="30"/>
<rect x="359" y="144.5" class="st4" width="30" height="30"/>
<rect x="419" y="90.5" class="st4" width="30" height="30"/>
<rect x="307" y="60.5" class="st4" width="30" height="30"/>
<rect x="411" y="220.5" class="st4" width="30" height="30"/>
</svg>
