<?xml version="1.0" encoding="utf-8"?>
<!-- Generator: Adobe Illustrator 23.1.0, SVG Export Plug-In . SVG Version: 6.00 Build 0)  -->
<svg version="1.1" id="Layer_1" xmlns="http://www.w3.org/2000/svg" xmlns:xlink="http://www.w3.org/1999/xlink" x="0px" y="0px"
	 viewBox="0 0 500 500" style="enable-background:new 0 0 500 500;" xml:space="preserve">
<style type="text/css">
	.st0{display:none;}
	.st1{fill:#FFFFFF;}
	.st2{opacity:0.5;fill:url(#SVGID_1_);enable-background:new    ;}
	.st3{fill:#B24800;}
	.st4{fill:#FF6600;}
	.st5{enable-background:new    ;}
	.st6{display:inline;}
	.st7{fill:none;stroke:#EDEDED;stroke-width:0.5;stroke-miterlimit:10;}
	.st8{fill:none;stroke:#BDBDBD;stroke-miterlimit:10;}
	.st9{display:inline;fill:none;stroke:#BDBDBD;stroke-miterlimit:10;}
</style>
<g id="Layer_7" class="st0">
</g>
<g id="Layer_3">
	<g>
		<path class="st1" d="M100.3,496.5c-18.9,0-34.3-15.4-34.3-34.3V37.8c0-18.9,15.4-34.3,34.3-34.3h300c18.6,0,33.8,15.2,33.8,33.8
			v425c-0.1,18.9-15.5,34.2-34.3,34.2H100.3z"/>
		<path d="M400.3,7c16.7,0,30.3,13.6,30.3,30.3v56.5v368.5c-0.1,16.9-13.9,30.7-30.8,30.7H100.3c-17,0-30.8-13.8-30.8-30.8V37.8
			c0-17,13.8-30.8,30.8-30.8H400.3 M400.3,0h-300C79.4,0,62.5,16.9,62.5,37.8v424.4c0,20.9,17,37.8,37.8,37.8h299.5
			c20.8,0,37.7-16.9,37.8-37.7V93.8V37.3C437.6,16.7,420.9,0,400.3,0L400.3,0z"/>
	</g>
	<g id="Layer_5">
		
			<linearGradient id="SVGID_1_" gradientUnits="userSpaceOnUse" x1="436.6325" y1="1068.0352" x2="54.5226" y2="847.4238" gradientTransform="matrix(1 0 0 1 0 -580)">
			<stop  offset="0" style="stop-color:#FFFFFF"/>
			<stop  offset="1" style="stop-color:#231F20"/>
		</linearGradient>
		<path class="st2" d="M325.5,250l112.3,95.5l-0.3,29.5v46.9v15.6c0,48.1,5.5,67.5-31.3,62.5h-250L64,377.8l-53.4-34.3"/>
		<polyline class="st3" points="6.7,341 64,377.8 64,346.5 		"/>
	</g>
	<path class="st4" d="M481.3,345.4H18.7c-10.1,0-18.3-8.2-18.3-18.3V141.6c0-10.1,8.2-18.3,18.3-18.3h462.6
		c10.1,0,18.3,8.2,18.3,18.3v185.6C499.5,337.2,491.4,345.4,481.3,345.4z"/>
	<g class="st5">
		<path class="st1" d="M173.9,229.1c0,10.6-1.8,20.4-5.3,29.5c-3.5,9-8.5,16.8-14.9,23.4c-6.4,6.6-14.1,11.8-23.1,15.5
			s-19,5.5-30,5.5c-10.9,0-20.9-1.8-29.9-5.5s-16.7-8.8-23.1-15.5c-6.4-6.6-11.4-14.4-15-23.4c-3.5-9-5.3-18.9-5.3-29.5
			c0-10.6,1.8-20.4,5.3-29.5c3.5-9,8.5-16.8,15-23.5c6.4-6.6,14.1-11.8,23.1-15.5c9-3.7,19-5.5,29.9-5.5c7.3,0,14.2,0.9,20.7,2.5
			c6.5,1.7,12.4,4.1,17.8,7.2c5.4,3.1,10.3,6.9,14.6,11.3c4.3,4.4,7.9,9.4,10.9,14.9c3,5.5,5.3,11.4,6.9,17.8
			C173.1,215.3,173.9,222,173.9,229.1z M146.4,229.1c0-7.9-1.1-15-3.2-21.4c-2.1-6.3-5.2-11.6-9.1-16c-3.9-4.4-8.7-7.8-14.4-10.1
			c-5.6-2.3-12-3.5-19.1-3.5c-7.1,0-13.4,1.2-19,3.5c-5.6,2.3-10.4,5.7-14.4,10.1c-4,4.4-7,9.8-9.1,16c-2.1,6.3-3.2,13.4-3.2,21.4
			c0,7.9,1.1,15,3.2,21.3c2.1,6.3,5.2,11.6,9.1,16c4,4.4,8.8,7.7,14.4,10c5.6,2.3,12,3.5,19,3.5c7.1,0,13.4-1.2,19.1-3.5
			c5.6-2.3,10.4-5.7,14.4-10c3.9-4.4,7-9.7,9.1-16C145.4,244.2,146.4,237,146.4,229.1z"/>
		<path class="st1" d="M247.4,156.8c9.5,0,17.6,0.9,24.3,2.7c6.7,1.8,12.3,4.4,16.5,7.7c4.3,3.3,7.5,7.4,9.5,12.1c2,4.7,3,10.1,3,16
			c0,3.4-0.5,6.6-1.5,9.8c-1,3.1-2.6,6-4.7,8.7c-2.1,2.7-4.8,5.2-8,7.4c-3.2,2.2-7.1,4.1-11.5,5.6c19.9,4.5,29.8,15.2,29.8,32.2
			c0,6.1-1.2,11.8-3.5,17c-2.3,5.2-5.7,9.7-10.2,13.5c-4.5,3.8-10,6.7-16.5,8.8c-6.5,2.1-14,3.2-22.4,3.2h-54.6V156.8H247.4z
			 M224.5,177.6v41.8h21.4c9.2,0,16.2-1.7,20.9-5c4.7-3.3,7-8.6,7-15.9c0-7.5-2.1-12.9-6.4-16.1c-4.3-3.2-10.9-4.8-20-4.8H224.5z
			 M251.7,280.4c5,0,9.2-0.6,12.6-1.8s6.1-2.8,8.2-4.8c2-2,3.5-4.3,4.4-7c0.9-2.7,1.4-5.5,1.4-8.5c0-3.1-0.5-6-1.5-8.5
			s-2.6-4.6-4.7-6.4c-2.1-1.8-4.9-3.1-8.3-4c-3.4-0.9-7.4-1.4-12.2-1.4h-27.1v42.4H251.7z"/>
		<path class="st1" d="M383.6,250c0,8.1-1,15.5-3,22c-2,6.5-5,12.1-9,16.7c-4,4.6-8.9,8.1-14.8,10.6c-5.9,2.5-12.8,3.7-20.7,3.7
			c-3.6,0-7.1-0.2-10.6-0.6c-3.5-0.4-7.1-1.1-10.9-2c0.2-2.7,0.4-5.3,0.7-8c0.3-2.7,0.5-5.3,0.7-8c0.2-1.5,0.8-2.7,1.8-3.6
			c1-0.9,2.4-1.3,4.2-1.3c1.1,0,2.6,0.2,4.5,0.7c1.8,0.5,4.1,0.7,7,0.7c3.8,0,7.2-0.6,10.1-1.7c2.9-1.1,5.4-2.8,7.3-5.3
			c2-2.4,3.5-5.5,4.5-9.3c1-3.8,1.5-8.5,1.5-14v-93.8h26.9V250z"/>
	</g>
</g>
<g id="Layer_6">
</g>
<g id="Layer_1_1_" class="st0">
	<g class="st6">
		<rect x="250" y="375" class="st7" width="31.3" height="31.3"/>
		<rect x="156.3" y="375" class="st7" width="31.3" height="31.3"/>
		<rect x="218.8" y="375" class="st7" width="31.3" height="31.3"/>
		<rect x="187.5" y="375" class="st7" width="31.3" height="31.3"/>
		<rect x="93.8" y="343.8" class="st7" width="31.3" height="31.3"/>
		<rect x="93.8" y="375" class="st7" width="31.3" height="31.3"/>
		<rect x="125" y="375" class="st7" width="31.3" height="31.3"/>
		<rect x="281.3" y="375" class="st7" width="31.3" height="31.3"/>
		<rect x="375" y="312.5" class="st7" width="31.3" height="31.3"/>
		<rect x="93.8" y="312.5" class="st7" width="31.3" height="31.3"/>
		<rect x="375" y="343.8" class="st7" width="31.3" height="31.3"/>
		<rect x="375" y="281.3" class="st7" width="31.3" height="31.3"/>
		<rect x="312.5" y="375" class="st7" width="31.3" height="31.3"/>
		<rect x="375" y="375" class="st7" width="31.3" height="31.3"/>
		<rect x="375" y="250" class="st7" width="31.3" height="31.3"/>
		<rect x="343.8" y="375" class="st7" width="31.3" height="31.3"/>
		<rect x="250" y="93.8" class="st7" width="31.3" height="31.3"/>
		<rect x="218.8" y="93.8" class="st7" width="31.3" height="31.3"/>
		<rect x="187.5" y="93.8" class="st7" width="31.3" height="31.3"/>
		<rect x="312.5" y="93.8" class="st7" width="31.3" height="31.3"/>
		<rect x="343.8" y="93.8" class="st7" width="31.3" height="31.3"/>
		<rect x="156.3" y="93.8" class="st7" width="31.3" height="31.3"/>
		<rect x="281.3" y="93.8" class="st7" width="31.3" height="31.3"/>
		<rect x="93.8" y="156.3" class="st7" width="31.3" height="31.3"/>
		<rect x="93.8" y="187.5" class="st7" width="31.3" height="31.3"/>
		<rect x="93.8" y="218.8" class="st7" width="31.3" height="31.3"/>
		<rect x="93.8" y="250" class="st7" width="31.3" height="31.3"/>
		<rect x="93.8" y="281.3" class="st7" width="31.3" height="31.3"/>
		<rect x="125" y="93.8" class="st7" width="31.3" height="31.3"/>
		<rect x="93.8" y="93.8" class="st7" width="31.3" height="31.3"/>
		<rect x="93.8" y="125" class="st7" width="31.3" height="31.3"/>
		<rect x="375" y="125" class="st7" width="31.3" height="31.3"/>
		<rect x="62.5" y="281.3" class="st7" width="31.3" height="31.3"/>
		<rect x="62.5" y="312.5" class="st7" width="31.3" height="31.3"/>
		<rect x="62.5" y="156.3" class="st7" width="31.3" height="31.3"/>
		<rect x="62.5" y="125" class="st7" width="31.3" height="31.3"/>
		<rect x="62.5" y="187.5" class="st7" width="31.3" height="31.3"/>
		<rect x="62.5" y="218.8" class="st7" width="31.3" height="31.3"/>
		<rect x="62.5" y="343.8" class="st7" width="31.3" height="31.3"/>
		<rect x="187.5" y="406.3" class="st7" width="31.3" height="31.3"/>
		<rect x="218.8" y="406.3" class="st7" width="31.3" height="31.3"/>
		<rect x="156.3" y="406.3" class="st7" width="31.3" height="31.3"/>
		<rect x="125" y="406.3" class="st7" width="31.3" height="31.3"/>
		<rect x="62.5" y="406.3" class="st7" width="31.3" height="31.3"/>
		<rect x="93.8" y="406.3" class="st7" width="31.3" height="31.3"/>
		<rect x="62.5" y="375" class="st7" width="31.3" height="31.3"/>
		<rect x="62.5" y="93.8" class="st7" width="31.3" height="31.3"/>
		<rect x="375" y="62.5" class="st7" width="31.3" height="31.3"/>
		<rect x="312.5" y="62.5" class="st7" width="31.3" height="31.3"/>
		<rect x="281.3" y="62.5" class="st7" width="31.3" height="31.3"/>
		<rect x="375" y="93.8" class="st7" width="31.3" height="31.3"/>
		<rect x="343.8" y="125" class="st7" width="31.3" height="31.3"/>
		<rect x="375" y="187.5" class="st7" width="31.3" height="31.3"/>
		<rect x="375" y="156.3" class="st7" width="31.3" height="31.3"/>
		<rect x="62.5" y="62.5" class="st7" width="31.3" height="31.3"/>
		<rect x="93.8" y="62.5" class="st7" width="31.3" height="31.3"/>
		<rect x="375" y="218.8" class="st7" width="31.3" height="31.3"/>
		<rect x="125" y="62.5" class="st7" width="31.3" height="31.3"/>
		<rect x="250" y="62.5" class="st7" width="31.3" height="31.3"/>
		<rect x="218.8" y="62.5" class="st7" width="31.3" height="31.3"/>
		<rect x="187.5" y="62.5" class="st7" width="31.3" height="31.3"/>
		<rect x="156.3" y="62.5" class="st7" width="31.3" height="31.3"/>
		<rect x="281.3" y="156.3" class="st7" width="31.3" height="31.3"/>
		<rect x="156.3" y="156.3" class="st7" width="31.3" height="31.3"/>
		<rect x="156.3" y="218.8" class="st7" width="31.3" height="31.3"/>
		<rect x="156.3" y="187.5" class="st7" width="31.3" height="31.3"/>
		<rect x="187.5" y="156.3" class="st7" width="31.3" height="31.3"/>
		<rect x="250" y="406.3" class="st7" width="31.3" height="31.3"/>
		<rect x="250" y="156.3" class="st7" width="31.3" height="31.3"/>
		<rect x="281.3" y="187.5" class="st7" width="31.3" height="31.3"/>
		<rect x="218.8" y="156.3" class="st7" width="31.3" height="31.3"/>
		<rect x="250" y="312.5" class="st7" width="31.3" height="31.3"/>
		<rect x="312.5" y="312.5" class="st7" width="31.3" height="31.3"/>
		<rect x="281.3" y="312.5" class="st7" width="31.3" height="31.3"/>
		<rect x="218.8" y="312.5" class="st7" width="31.3" height="31.3"/>
		<rect x="156.3" y="281.3" class="st7" width="31.3" height="31.3"/>
		<rect x="156.3" y="312.5" class="st7" width="31.3" height="31.3"/>
		<rect x="187.5" y="312.5" class="st7" width="31.3" height="31.3"/>
		<rect x="156.3" y="250" class="st7" width="31.3" height="31.3"/>
		<rect x="187.5" y="187.5" class="st7" width="31.3" height="31.3"/>
		<rect x="218.8" y="187.5" class="st7" width="31.3" height="31.3"/>
		<rect x="250" y="218.8" class="st7" width="31.3" height="31.3"/>
		<rect x="250" y="187.5" class="st7" width="31.3" height="31.3"/>
		<rect x="281.3" y="218.8" class="st7" width="31.3" height="31.3"/>
		<rect x="218.8" y="250" class="st7" width="31.3" height="31.3"/>
		<rect x="250" y="250" class="st7" width="31.3" height="31.3"/>
		<rect x="218.8" y="218.8" class="st7" width="31.3" height="31.3"/>
		<rect x="281.3" y="281.3" class="st7" width="31.3" height="31.3"/>
		<rect x="250" y="281.3" class="st7" width="31.3" height="31.3"/>
		<rect x="281.3" y="250" class="st7" width="31.3" height="31.3"/>
		<rect x="187.5" y="218.8" class="st7" width="31.3" height="31.3"/>
		<rect x="187.5" y="250" class="st7" width="31.3" height="31.3"/>
		<rect x="187.5" y="281.3" class="st7" width="31.3" height="31.3"/>
		<rect x="218.8" y="281.3" class="st7" width="31.3" height="31.3"/>
		<rect x="343.8" y="156.3" class="st7" width="31.3" height="31.3"/>
		<rect x="218.8" y="343.8" class="st7" width="31.3" height="31.3"/>
		<rect x="187.5" y="343.8" class="st7" width="31.3" height="31.3"/>
		<rect x="250" y="343.8" class="st7" width="31.3" height="31.3"/>
		<rect x="156.3" y="343.8" class="st7" width="31.3" height="31.3"/>
		<rect x="125" y="312.5" class="st7" width="31.3" height="31.3"/>
		<rect x="125" y="343.8" class="st7" width="31.3" height="31.3"/>
		<rect x="281.3" y="343.8" class="st7" width="31.3" height="31.3"/>
		<rect x="343.8" y="312.5" class="st7" width="31.3" height="31.3"/>
		<rect x="343.8" y="250" class="st7" width="31.3" height="31.3"/>
		<rect x="343.8" y="218.8" class="st7" width="31.3" height="31.3"/>
		<rect x="312.5" y="343.8" class="st7" width="31.3" height="31.3"/>
		<rect x="343.8" y="187.5" class="st7" width="31.3" height="31.3"/>
		<rect x="343.8" y="343.8" class="st7" width="31.3" height="31.3"/>
		<rect x="125" y="281.3" class="st7" width="31.3" height="31.3"/>
		<rect x="343.8" y="281.3" class="st7" width="31.3" height="31.3"/>
		<rect x="312.5" y="218.8" class="st7" width="31.3" height="31.3"/>
		<rect x="125" y="250" class="st7" width="31.3" height="31.3"/>
		<rect x="281.3" y="125" class="st7" width="31.3" height="31.3"/>
		<rect x="312.5" y="156.3" class="st7" width="31.3" height="31.3"/>
		<rect x="312.5" y="187.5" class="st7" width="31.3" height="31.3"/>
		<rect x="312.5" y="250" class="st7" width="31.3" height="31.3"/>
		<rect x="312.5" y="281.3" class="st7" width="31.3" height="31.3"/>
		<rect x="250" y="125" class="st7" width="31.3" height="31.3"/>
		<rect x="312.5" y="125" class="st7" width="31.3" height="31.3"/>
		<rect x="125" y="187.5" class="st7" width="31.3" height="31.3"/>
		<rect x="125" y="218.8" class="st7" width="31.3" height="31.3"/>
		<rect x="125" y="156.3" class="st7" width="31.3" height="31.3"/>
		<rect x="156.3" y="125" class="st7" width="31.3" height="31.3"/>
		<rect x="187.5" y="125" class="st7" width="31.3" height="31.3"/>
		<rect x="125" y="125" class="st7" width="31.3" height="31.3"/>
		<rect x="218.8" y="125" class="st7" width="31.3" height="31.3"/>
		<rect x="343.8" y="62.5" class="st7" width="31.3" height="31.3"/>
		<rect y="93.8" class="st7" width="31.3" height="31.3"/>
		<rect y="125" class="st7" width="31.3" height="31.3"/>
		<rect y="62.5" class="st7" width="31.3" height="31.3"/>
		<rect y="156.3" class="st7" width="31.3" height="31.3"/>
		<rect class="st7" width="31.3" height="31.3"/>
		<rect x="31.3" class="st7" width="31.3" height="31.3"/>
		<rect y="187.5" class="st7" width="31.3" height="31.3"/>
		<rect y="31.3" class="st7" width="31.3" height="31.3"/>
		<rect y="343.8" class="st7" width="31.3" height="31.3"/>
		<rect x="62.5" class="st7" width="31.3" height="31.3"/>
		<rect y="375" class="st7" width="31.3" height="31.3"/>
		<rect y="218.8" class="st7" width="31.3" height="31.3"/>
		<rect y="406.3" class="st7" width="31.3" height="31.3"/>
		<rect y="250" class="st7" width="31.3" height="31.3"/>
		<rect y="312.5" class="st7" width="31.3" height="31.3"/>
		<rect y="281.3" class="st7" width="31.3" height="31.3"/>
		<rect x="312.5" class="st7" width="31.3" height="31.3"/>
		<rect x="406.3" class="st7" width="31.3" height="31.3"/>
		<rect x="375" class="st7" width="31.3" height="31.3"/>
		<rect x="437.5" class="st7" width="31.3" height="31.3"/>
		<rect x="437.5" y="31.3" class="st7" width="31.3" height="31.3"/>
		<rect x="437.5" y="93.8" class="st7" width="31.3" height="31.3"/>
		<rect x="437.5" y="62.5" class="st7" width="31.3" height="31.3"/>
		<rect x="93.8" class="st7" width="31.3" height="31.3"/>
		<rect x="343.8" class="st7" width="31.3" height="31.3"/>
		<rect x="156.3" class="st7" width="31.3" height="31.3"/>
		<rect x="125" class="st7" width="31.3" height="31.3"/>
		<rect x="437.5" y="125" class="st7" width="31.3" height="31.3"/>
		<rect x="281.3" class="st7" width="31.3" height="31.3"/>
		<rect x="218.8" class="st7" width="31.3" height="31.3"/>
		<rect y="437.5" class="st7" width="31.3" height="31.3"/>
		<rect x="250" class="st7" width="31.3" height="31.3"/>
		<rect x="187.5" class="st7" width="31.3" height="31.3"/>
		<rect x="468.8" y="281.3" class="st7" width="31.3" height="31.3"/>
		<rect x="468.8" y="312.5" class="st7" width="31.3" height="31.3"/>
		<rect x="468.8" y="250" class="st7" width="31.3" height="31.3"/>
		<rect x="468.8" y="375" class="st7" width="31.3" height="31.3"/>
		<rect x="468.8" y="406.3" class="st7" width="31.3" height="31.3"/>
		<rect x="468.8" y="218.8" class="st7" width="31.3" height="31.3"/>
		<rect x="468.8" y="343.8" class="st7" width="31.3" height="31.3"/>
		<rect x="468.8" y="437.5" class="st7" width="31.3" height="31.3"/>
		<rect x="468.8" y="62.5" class="st7" width="31.3" height="31.3"/>
		<rect x="468.8" y="31.3" class="st7" width="31.3" height="31.3"/>
		<rect x="468.8" class="st7" width="31.3" height="31.3"/>
		<rect x="468.8" y="125" class="st7" width="31.3" height="31.3"/>
		<rect x="468.8" y="156.3" class="st7" width="31.3" height="31.3"/>
		<rect x="468.8" y="93.8" class="st7" width="31.3" height="31.3"/>
		<rect x="468.8" y="187.5" class="st7" width="31.3" height="31.3"/>
		<rect x="343.8" y="468.8" class="st7" width="31.3" height="31.3"/>
		<rect x="218.8" y="468.8" class="st7" width="31.3" height="31.3"/>
		<rect x="125" y="468.8" class="st7" width="31.3" height="31.3"/>
		<rect x="468.8" y="468.8" class="st7" width="31.3" height="31.3"/>
		<rect x="156.3" y="468.8" class="st7" width="31.3" height="31.3"/>
		<rect x="93.8" y="468.8" class="st7" width="31.3" height="31.3"/>
		<rect x="31.3" y="468.8" class="st7" width="31.3" height="31.3"/>
		<rect x="62.5" y="468.8" class="st7" width="31.3" height="31.3"/>
		<rect x="187.5" y="468.8" class="st7" width="31.3" height="31.3"/>
		<rect x="406.3" y="468.8" class="st7" width="31.3" height="31.3"/>
		<rect x="250" y="468.8" class="st7" width="31.3" height="31.3"/>
		<rect x="437.5" y="468.8" class="st7" width="31.3" height="31.3"/>
		<rect x="375" y="468.8" class="st7" width="31.3" height="31.3"/>
		<rect x="281.3" y="468.8" class="st7" width="31.3" height="31.3"/>
		<rect x="312.5" y="468.8" class="st7" width="31.3" height="31.3"/>
		<rect y="468.8" class="st7" width="31.3" height="31.3"/>
		<rect x="187.5" y="31.3" class="st7" width="31.3" height="31.3"/>
		<rect x="281.3" y="31.3" class="st7" width="31.3" height="31.3"/>
		<rect x="250" y="31.3" class="st7" width="31.3" height="31.3"/>
		<rect x="218.8" y="31.3" class="st7" width="31.3" height="31.3"/>
		<rect x="343.8" y="31.3" class="st7" width="31.3" height="31.3"/>
		<rect x="375" y="31.3" class="st7" width="31.3" height="31.3"/>
		<rect x="312.5" y="31.3" class="st7" width="31.3" height="31.3"/>
		<rect x="281.3" y="406.3" class="st7" width="31.3" height="31.3"/>
		<rect x="31.3" y="31.3" class="st7" width="31.3" height="31.3"/>
		<rect x="406.3" y="31.3" class="st7" width="31.3" height="31.3"/>
		<rect x="156.3" y="31.3" class="st7" width="31.3" height="31.3"/>
		<rect x="31.3" y="93.8" class="st7" width="31.3" height="31.3"/>
		<rect x="31.3" y="62.5" class="st7" width="31.3" height="31.3"/>
		<rect x="62.5" y="31.3" class="st7" width="31.3" height="31.3"/>
		<rect x="125" y="31.3" class="st7" width="31.3" height="31.3"/>
		<rect x="93.8" y="31.3" class="st7" width="31.3" height="31.3"/>
		<rect x="312.5" y="406.3" class="st7" width="31.3" height="31.3"/>
		<rect x="406.3" y="312.5" class="st7" width="31.3" height="31.3"/>
		<rect x="406.3" y="343.8" class="st7" width="31.3" height="31.3"/>
		<rect x="406.3" y="406.3" class="st7" width="31.3" height="31.3"/>
		<rect x="406.3" y="62.5" class="st7" width="31.3" height="31.3"/>
		<rect x="31.3" y="125" class="st7" width="31.3" height="31.3"/>
		<rect x="343.8" y="406.3" class="st7" width="31.3" height="31.3"/>
		<rect x="375" y="406.3" class="st7" width="31.3" height="31.3"/>
		<rect x="406.3" y="375" class="st7" width="31.3" height="31.3"/>
		<rect x="406.3" y="156.3" class="st7" width="31.3" height="31.3"/>
		<rect x="406.3" y="125" class="st7" width="31.3" height="31.3"/>
		<rect x="406.3" y="93.8" class="st7" width="31.3" height="31.3"/>
		<rect x="406.3" y="281.3" class="st7" width="31.3" height="31.3"/>
		<rect x="406.3" y="250" class="st7" width="31.3" height="31.3"/>
		<rect x="406.3" y="187.5" class="st7" width="31.3" height="31.3"/>
		<rect x="406.3" y="218.8" class="st7" width="31.3" height="31.3"/>
		<rect x="437.5" y="187.5" class="st7" width="31.3" height="31.3"/>
		<rect x="31.3" y="156.3" class="st7" width="31.3" height="31.3"/>
		<rect x="375" y="437.5" class="st7" width="31.3" height="31.3"/>
		<rect x="250" y="437.5" class="st7" width="31.3" height="31.3"/>
		<rect x="437.5" y="406.3" class="st7" width="31.3" height="31.3"/>
		<rect x="281.3" y="437.5" class="st7" width="31.3" height="31.3"/>
		<rect x="312.5" y="437.5" class="st7" width="31.3" height="31.3"/>
		<rect x="343.8" y="437.5" class="st7" width="31.3" height="31.3"/>
		<rect x="437.5" y="437.5" class="st7" width="31.3" height="31.3"/>
		<rect x="437.5" y="218.8" class="st7" width="31.3" height="31.3"/>
		<rect x="437.5" y="156.3" class="st7" width="31.3" height="31.3"/>
		<rect x="437.5" y="250" class="st7" width="31.3" height="31.3"/>
		<rect x="437.5" y="375" class="st7" width="31.3" height="31.3"/>
		<rect x="437.5" y="343.8" class="st7" width="31.3" height="31.3"/>
		<rect x="437.5" y="312.5" class="st7" width="31.3" height="31.3"/>
		<rect x="437.5" y="281.3" class="st7" width="31.3" height="31.3"/>
		<rect x="406.3" y="437.5" class="st7" width="31.3" height="31.3"/>
		<rect x="31.3" y="312.5" class="st7" width="31.3" height="31.3"/>
		<rect x="31.3" y="343.8" class="st7" width="31.3" height="31.3"/>
		<rect x="31.3" y="281.3" class="st7" width="31.3" height="31.3"/>
		<rect x="31.3" y="218.8" class="st7" width="31.3" height="31.3"/>
		<rect x="31.3" y="187.5" class="st7" width="31.3" height="31.3"/>
		<rect x="31.3" y="375" class="st7" width="31.3" height="31.3"/>
		<rect x="31.3" y="250" class="st7" width="31.3" height="31.3"/>
		<rect x="187.5" y="437.5" class="st7" width="31.3" height="31.3"/>
		<rect x="125" y="437.5" class="st7" width="31.3" height="31.3"/>
		<rect x="156.3" y="437.5" class="st7" width="31.3" height="31.3"/>
		<rect x="218.8" y="437.5" class="st7" width="31.3" height="31.3"/>
		<rect x="93.8" y="437.5" class="st7" width="31.3" height="31.3"/>
		<rect x="31.3" y="406.3" class="st7" width="31.3" height="31.3"/>
		<rect x="31.3" y="437.5" class="st7" width="31.3" height="31.3"/>
		<rect x="62.5" y="437.5" class="st7" width="31.3" height="31.3"/>
	</g>
	<g class="st6">
		<rect class="st8" width="500" height="500"/>
		<rect class="st8" width="62.5" height="62.5"/>
		<rect x="437.5" class="st8" width="62.5" height="62.5"/>
		<rect y="437.5" class="st8" width="62.5" height="62.5"/>
		<rect x="437.5" y="437.5" class="st8" width="62.5" height="62.5"/>
		<rect x="62.5" y="62.5" class="st8" width="187.5" height="187.5"/>
		<rect x="250" y="62.5" class="st8" width="187.5" height="187.5"/>
		<rect x="62.5" y="250" class="st8" width="187.5" height="187.5"/>
		<rect x="250" y="250" class="st8" width="187.5" height="187.5"/>
		<line class="st8" x1="0" y1="0" x2="500" y2="500"/>
		<line class="st8" x1="500" y1="0" x2="0" y2="500"/>
		<circle class="st8" cx="250" cy="250" r="187.5"/>
		<circle class="st8" cx="250" cy="250" r="250"/>
	</g>
	<rect x="62.5" class="st9" width="375" height="500"/>
	<line class="st9" x1="343.8" y1="0" x2="437.5" y2="93.8"/>
</g>
</svg>
