<?xml version="1.0" encoding="utf-8"?>
<!-- Generator: Adobe Illustrator 23.1.0, SVG Export Plug-In . SVG Version: 6.00 Build 0)  -->
<svg version="1.1" id="Layer_1" xmlns="http://www.w3.org/2000/svg" xmlns:xlink="http://www.w3.org/1999/xlink" x="0px" y="0px"
	 viewBox="0 0 500 500" style="enable-background:new 0 0 500 500;" xml:space="preserve">
<style type="text/css">
	.st0{fill:#FFFFFF;}
	.st1{opacity:0.5;fill:url(#SVGID_1_);enable-background:new    ;}
	.st2{fill:#FF6700;}
	.st3{opacity:0.5;fill:url(#SVGID_2_);enable-background:new    ;}
	.st4{fill:#007F7F;}
	.st5{fill:#00A9B2;}
	.st6{enable-background:new    ;}
	.st7{fill:url(#SVGID_3_);}
	.st8{display:none;}
	.st9{display:inline;}
	.st10{fill:none;stroke:#EDEDED;stroke-width:0.5;stroke-miterlimit:10;}
	.st11{fill:none;stroke:#BDBDBD;stroke-miterlimit:10;}
	.st12{display:inline;fill:none;stroke:#BDBDBD;stroke-miterlimit:10;}
</style>
<g id="Layer_4">
	<g id="Layer_3">
		<g>
			<path class="st0" d="M100.3,497.5c-19.5,0-35.3-15.8-35.3-35.3V37.8c0-19.5,15.8-35.3,35.3-35.3h301.5
				c18.3,0,33.2,14.9,33.3,33.2l0.1,58.1v368.5c-0.2,19.4-16.1,35.2-35.4,35.2H100.3z"/>
			<path d="M401.8,5c16.9,0,30.7,13.8,30.8,30.7l0.1,58.1l0,368.5c-0.2,18.1-14.9,32.7-32.9,32.7H100.3c-18.1,0-32.8-14.7-32.8-32.8
				V37.8C67.5,19.7,82.2,5,100.3,5H401.8 M401.8,0H100.3C79.4,0,62.5,16.9,62.5,37.8v424.4c0,20.9,17,37.8,37.8,37.8h299.5
				c20.8,0,37.7-16.9,37.9-37.7V93.8l-0.1-58.1C437.5,16,421.5,0,401.8,0L401.8,0z"/>
		</g>
		
			<linearGradient id="SVGID_1_" gradientUnits="userSpaceOnUse" x1="498.4644" y1="669.581" x2="151.416" y2="469.2126" gradientTransform="matrix(1 0 0 1 0 -290)">
			<stop  offset="0" style="stop-color:#FF6600"/>
			<stop  offset="1" style="stop-color:#231F20"/>
		</linearGradient>
		<path class="st1" d="M218.8,62.5H250L343.8,196l62.5-10l32.1,60v185c0,49.6,7.5,69-32.1,69V186l-70.3,1.5l-86-1.5"/>
		<g id="Layer_5_1_">
			<path class="st2" d="M250,186V62.5H93.8V500H249l0,0h157.3V186H250z M156.3,312.5H125v-31.3h31.3V312.5z M156.3,250H125v-31.3
				h31.3V250z M156.3,187.5H125v-31.3h31.3V187.5z M156.3,125H125V93.8h31.3V125z M218.8,312.5h-31.3v-31.3h31.3V312.5z M218.8,250
				h-31.3v-31.3h31.3V250z M218.8,187.5h-31.3v-31.3h31.3V187.5z M218.8,125h-31.3V93.8h31.3V125z M312.5,312.5h-31.3v-31.3h31.3
				V312.5z M312.5,250h-31.3v-31.3h31.3V250z M375,312.5h-31.3v-31.3H375V312.5z M375,250h-31.3v-31.3H375V250z"/>
			
				<linearGradient id="SVGID_2_" gradientUnits="userSpaceOnUse" x1="409.7415" y1="813.6788" x2="86.8025" y2="627.2299" gradientTransform="matrix(1 0 0 1 0 -290)">
				<stop  offset="0" style="stop-color:#FF6600"/>
				<stop  offset="1" style="stop-color:#231F20"/>
			</linearGradient>
			<path class="st3" d="M323.3,436.5l19.5-110.2l95.6,99.1l0,0l-0.3,12.3c0,49.6-5.1,62.3-44.7,62.3l-299.6,0l-31.2-37.8l-39-15.5"
				/>
			<polyline class="st4" points="10.2,441.7 62.3,463 62.8,446.7 			"/>
		</g>
		<path class="st5" d="M330.6,446.8H23.4c-10.1,0-18.3-8.2-18.3-18.2V340c0-10.1,8.2-18.3,18.3-18.3h307.3
			c10.1,0,18.3,8.2,18.3,18.3v88.5C348.9,438.5,340.7,446.8,330.6,446.8z"/>
		<g class="st6">
			<path class="st0" d="M122.9,389.9c0,7.4-1.2,14.3-3.7,20.6c-2.5,6.3-5.9,11.8-10.4,16.4s-9.9,8.2-16.2,10.8
				c-6.3,2.6-13.3,3.9-21,3.9c-7.7,0-14.6-1.3-20.9-3.9c-6.3-2.6-11.7-6.2-16.2-10.8c-4.5-4.6-8-10.1-10.5-16.4
				c-2.5-6.3-3.7-13.2-3.7-20.6s1.2-14.3,3.7-20.6c2.5-6.3,6-11.8,10.5-16.4c4.5-4.6,9.9-8.2,16.2-10.8c6.3-2.6,13.3-3.9,20.9-3.9
				c5.1,0,10,0.6,14.5,1.8c4.5,1.2,8.7,2.9,12.5,5c3.8,2.2,7.2,4.8,10.2,7.9c3,3.1,5.6,6.6,7.7,10.4c2.1,3.8,3.7,8,4.8,12.5
				C122.4,380.2,122.9,384.9,122.9,389.9z M103.6,389.9c0-5.6-0.7-10.5-2.2-14.9c-1.5-4.4-3.6-8.2-6.4-11.2c-2.8-3.1-6.1-5.4-10-7.1
				c-3.9-1.6-8.4-2.4-13.3-2.4c-4.9,0-9.4,0.8-13.3,2.4c-3.9,1.6-7.3,4-10.1,7.1c-2.8,3.1-4.9,6.8-6.4,11.2
				c-1.5,4.4-2.2,9.4-2.2,14.9c0,5.6,0.7,10.5,2.2,14.9c1.5,4.4,3.6,8.1,6.4,11.2c2.8,3.1,6.1,5.4,10.1,7c3.9,1.6,8.4,2.4,13.3,2.4
				c4.9,0,9.4-0.8,13.3-2.4c3.9-1.6,7.3-4,10-7c2.8-3.1,4.9-6.8,6.4-11.2C102.9,400.4,103.6,395.4,103.6,389.9z"/>
			<path class="st0" d="M193.4,357.7c-0.6,1-1.2,1.7-1.8,2.1c-0.6,0.4-1.4,0.7-2.3,0.7c-1,0-2-0.4-3.2-1.1c-1.1-0.7-2.5-1.5-4.1-2.4
				c-1.6-0.9-3.4-1.7-5.6-2.4c-2.1-0.7-4.6-1.1-7.5-1.1c-2.6,0-4.9,0.3-6.9,0.9c-2,0.6-3.6,1.5-4.9,2.6c-1.3,1.1-2.3,2.5-3,4
				c-0.7,1.6-1,3.3-1,5.1c0,2.4,0.7,4.4,2,5.9c1.3,1.6,3.1,2.9,5.3,4.1c2.2,1.1,4.7,2.1,7.5,3c2.8,0.9,5.7,1.8,8.6,2.8
				c2.9,1,5.8,2.2,8.6,3.5c2.8,1.3,5.3,3,7.5,5c2.2,2,4,4.5,5.3,7.5c1.3,2.9,2,6.5,2,10.7c0,4.6-0.8,8.9-2.3,12.8
				c-1.6,4-3.9,7.5-6.9,10.4c-3,3-6.7,5.3-11,7c-4.3,1.7-9.3,2.6-14.9,2.6c-3.2,0-6.4-0.3-9.5-0.9c-3.1-0.6-6.1-1.5-9-2.7
				c-2.9-1.2-5.6-2.6-8.1-4.2c-2.5-1.6-4.8-3.5-6.7-5.5l5.5-9c0.5-0.7,1.1-1.2,1.8-1.6c0.7-0.4,1.5-0.7,2.4-0.7
				c1.2,0,2.4,0.5,3.8,1.4c1.4,1,3,2,4.8,3.2c1.9,1.2,4,2.2,6.5,3.2c2.5,1,5.5,1.4,9,1.4c5.4,0,9.5-1.3,12.5-3.8
				c2.9-2.5,4.4-6.2,4.4-11c0-2.7-0.7-4.8-2-6.5c-1.3-1.7-3.1-3.1-5.3-4.2c-2.2-1.1-4.7-2.1-7.5-2.9c-2.8-0.8-5.6-1.7-8.5-2.6
				c-2.9-0.9-5.7-2.1-8.5-3.4c-2.8-1.3-5.3-3-7.5-5.1c-2.2-2.1-4-4.7-5.3-7.9c-1.3-3.2-2-7-2-11.7c0-3.7,0.7-7.3,2.2-10.8
				c1.5-3.5,3.6-6.6,6.4-9.3c2.8-2.7,6.3-4.9,10.4-6.5c4.1-1.6,8.8-2.5,14.1-2.5c6,0,11.5,0.9,16.5,2.8c5,1.9,9.3,4.5,12.9,7.8
				L193.4,357.7z"/>
			<path class="st0" d="M326,339.3v101.2h-16.6v-65.4c0-2.6,0.1-5.4,0.4-8.5l-30.6,57.5c-1.4,2.8-3.7,4.1-6.6,4.1H270
				c-3,0-5.2-1.4-6.7-4.1l-30.9-57.7c0.1,1.5,0.3,3.1,0.4,4.5c0.1,1.5,0.1,2.9,0.1,4.1v65.4h-16.6V339.3h14.2c0.8,0,1.6,0,2.2,0.1
				c0.6,0,1.2,0.2,1.6,0.4c0.5,0.2,0.9,0.5,1.3,0.9c0.4,0.4,0.8,1,1.2,1.7l30.3,56.2c0.8,1.5,1.5,3,2.2,4.6c0.7,1.6,1.3,3.2,2,4.9
				c0.7-1.7,1.3-3.4,2-5c0.7-1.6,1.4-3.2,2.2-4.7l29.9-56.1c0.4-0.7,0.8-1.3,1.2-1.7s0.9-0.7,1.4-0.9s1-0.3,1.6-0.4
				c0.6,0,1.3-0.1,2.2-0.1H326z"/>
		</g>
	</g>
</g>
<g id="Layer_3_copy">
	
		<linearGradient id="SVGID_3_" gradientUnits="userSpaceOnUse" x1="771" y1="158.6" x2="771" y2="158.6" gradientTransform="matrix(1 0 0 -1 0 502)">
		<stop  offset="0" style="stop-color:#FF6600"/>
		<stop  offset="1" style="stop-color:#231F20"/>
	</linearGradient>
	<path class="st7" d="M771,343.4"/>
</g>
<g class="st8">
	<g class="st9">
		<rect x="250" y="375" class="st10" width="31.3" height="31.3"/>
		<rect x="156.3" y="375" class="st10" width="31.3" height="31.3"/>
		<rect x="218.8" y="375" class="st10" width="31.3" height="31.3"/>
		<rect x="187.5" y="375" class="st10" width="31.3" height="31.3"/>
		<rect x="93.8" y="343.8" class="st10" width="31.3" height="31.3"/>
		<rect x="93.8" y="375" class="st10" width="31.3" height="31.3"/>
		<rect x="125" y="375" class="st10" width="31.3" height="31.3"/>
		<rect x="281.3" y="375" class="st10" width="31.3" height="31.3"/>
		<rect x="375" y="312.5" class="st10" width="31.3" height="31.3"/>
		<rect x="93.8" y="312.5" class="st10" width="31.3" height="31.3"/>
		<rect x="375" y="343.8" class="st10" width="31.3" height="31.3"/>
		<rect x="375" y="281.3" class="st10" width="31.3" height="31.3"/>
		<rect x="312.5" y="375" class="st10" width="31.3" height="31.3"/>
		<rect x="375" y="375" class="st10" width="31.3" height="31.3"/>
		<rect x="375" y="250" class="st10" width="31.3" height="31.3"/>
		<rect x="343.8" y="375" class="st10" width="31.3" height="31.3"/>
		<rect x="250" y="93.8" class="st10" width="31.3" height="31.3"/>
		<rect x="218.8" y="93.8" class="st10" width="31.3" height="31.3"/>
		<rect x="187.5" y="93.8" class="st10" width="31.3" height="31.3"/>
		<rect x="312.5" y="93.8" class="st10" width="31.3" height="31.3"/>
		<rect x="343.8" y="93.8" class="st10" width="31.3" height="31.3"/>
		<rect x="156.3" y="93.8" class="st10" width="31.3" height="31.3"/>
		<rect x="281.3" y="93.8" class="st10" width="31.3" height="31.3"/>
		<rect x="93.8" y="156.3" class="st10" width="31.3" height="31.3"/>
		<rect x="93.8" y="187.5" class="st10" width="31.3" height="31.3"/>
		<rect x="93.8" y="218.8" class="st10" width="31.3" height="31.3"/>
		<rect x="93.8" y="250" class="st10" width="31.3" height="31.3"/>
		<rect x="93.8" y="281.3" class="st10" width="31.3" height="31.3"/>
		<rect x="125" y="93.8" class="st10" width="31.3" height="31.3"/>
		<rect x="93.8" y="93.8" class="st10" width="31.3" height="31.3"/>
		<rect x="93.8" y="125" class="st10" width="31.3" height="31.3"/>
		<rect x="375" y="125" class="st10" width="31.3" height="31.3"/>
		<rect x="62.5" y="281.3" class="st10" width="31.3" height="31.3"/>
		<rect x="62.5" y="312.5" class="st10" width="31.3" height="31.3"/>
		<rect x="62.5" y="250" class="st10" width="31.3" height="31.3"/>
		<rect x="62.5" y="156.3" class="st10" width="31.3" height="31.3"/>
		<rect x="62.5" y="125" class="st10" width="31.3" height="31.3"/>
		<rect x="62.5" y="187.5" class="st10" width="31.3" height="31.3"/>
		<rect x="62.5" y="218.8" class="st10" width="31.3" height="31.3"/>
		<rect x="62.5" y="343.8" class="st10" width="31.3" height="31.3"/>
		<rect x="187.5" y="406.3" class="st10" width="31.3" height="31.3"/>
		<rect x="218.8" y="406.3" class="st10" width="31.3" height="31.3"/>
		<polyline class="st10" points="187.5,406.3 156.3,406.3 156.3,437.5 187.5,437.5 		"/>
		<rect x="125" y="406.3" class="st10" width="31.3" height="31.3"/>
		<rect x="62.5" y="406.3" class="st10" width="31.3" height="31.3"/>
		<rect x="93.8" y="406.3" class="st10" width="31.3" height="31.3"/>
		<rect x="62.5" y="375" class="st10" width="31.3" height="31.3"/>
		<rect x="62.5" y="93.8" class="st10" width="31.3" height="31.3"/>
		<rect x="375" y="62.5" class="st10" width="31.3" height="31.3"/>
		<rect x="312.5" y="62.5" class="st10" width="31.3" height="31.3"/>
		<rect x="281.3" y="62.5" class="st10" width="31.3" height="31.3"/>
		<rect x="375" y="93.8" class="st10" width="31.3" height="31.3"/>
		<rect x="343.8" y="125" class="st10" width="31.3" height="31.3"/>
		<rect x="375" y="187.5" class="st10" width="31.3" height="31.3"/>
		<rect x="375" y="156.3" class="st10" width="31.3" height="31.3"/>
		<rect x="62.5" y="62.5" class="st10" width="31.3" height="31.3"/>
		<rect x="93.8" y="62.5" class="st10" width="31.3" height="31.3"/>
		<rect x="375" y="218.8" class="st10" width="31.3" height="31.3"/>
		<rect x="125" y="62.5" class="st10" width="31.3" height="31.3"/>
		<rect x="250" y="62.5" class="st10" width="31.3" height="31.3"/>
		<rect x="218.8" y="62.5" class="st10" width="31.3" height="31.3"/>
		<rect x="187.5" y="62.5" class="st10" width="31.3" height="31.3"/>
		<rect x="156.3" y="62.5" class="st10" width="31.3" height="31.3"/>
		<rect x="281.3" y="156.3" class="st10" width="31.3" height="31.3"/>
		<rect x="156.3" y="156.3" class="st10" width="31.3" height="31.3"/>
		<rect x="156.3" y="218.8" class="st10" width="31.3" height="31.3"/>
		<rect x="156.3" y="187.5" class="st10" width="31.3" height="31.3"/>
		<rect x="187.5" y="156.3" class="st10" width="31.3" height="31.3"/>
		<rect x="250" y="406.3" class="st10" width="31.3" height="31.3"/>
		<rect x="250" y="156.3" class="st10" width="31.3" height="31.3"/>
		<rect x="281.3" y="187.5" class="st10" width="31.3" height="31.3"/>
		<rect x="218.8" y="156.3" class="st10" width="31.3" height="31.3"/>
		<rect x="250" y="312.5" class="st10" width="31.3" height="31.3"/>
		<rect x="312.5" y="312.5" class="st10" width="31.3" height="31.3"/>
		<rect x="281.3" y="312.5" class="st10" width="31.3" height="31.3"/>
		<rect x="218.8" y="312.5" class="st10" width="31.3" height="31.3"/>
		<rect x="156.3" y="281.3" class="st10" width="31.3" height="31.3"/>
		<rect x="156.3" y="312.5" class="st10" width="31.3" height="31.3"/>
		<rect x="187.5" y="312.5" class="st10" width="31.3" height="31.3"/>
		<rect x="156.3" y="250" class="st10" width="31.3" height="31.3"/>
		<rect x="187.5" y="187.5" class="st10" width="31.3" height="31.3"/>
		<rect x="218.8" y="187.5" class="st10" width="31.3" height="31.3"/>
		<rect x="250" y="218.8" class="st10" width="31.3" height="31.3"/>
		<rect x="250" y="187.5" class="st10" width="31.3" height="31.3"/>
		<rect x="281.3" y="218.8" class="st10" width="31.3" height="31.3"/>
		<rect x="218.8" y="250" class="st10" width="31.3" height="31.3"/>
		<rect x="250" y="250" class="st10" width="31.3" height="31.3"/>
		<rect x="218.8" y="218.8" class="st10" width="31.3" height="31.3"/>
		<rect x="281.3" y="281.3" class="st10" width="31.3" height="31.3"/>
		<rect x="250" y="281.3" class="st10" width="31.3" height="31.3"/>
		<rect x="281.3" y="250" class="st10" width="31.3" height="31.3"/>
		<rect x="187.5" y="218.8" class="st10" width="31.3" height="31.3"/>
		<rect x="187.5" y="250" class="st10" width="31.3" height="31.3"/>
		<rect x="187.5" y="281.3" class="st10" width="31.3" height="31.3"/>
		<rect x="218.8" y="281.3" class="st10" width="31.3" height="31.3"/>
		<rect x="343.8" y="156.3" class="st10" width="31.3" height="31.3"/>
		<rect x="218.8" y="343.8" class="st10" width="31.3" height="31.3"/>
		<rect x="187.5" y="343.8" class="st10" width="31.3" height="31.3"/>
		<rect x="250" y="343.8" class="st10" width="31.3" height="31.3"/>
		<rect x="156.3" y="343.8" class="st10" width="31.3" height="31.3"/>
		<rect x="125" y="312.5" class="st10" width="31.3" height="31.3"/>
		<rect x="125" y="343.8" class="st10" width="31.3" height="31.3"/>
		<rect x="281.3" y="343.8" class="st10" width="31.3" height="31.3"/>
		<rect x="343.8" y="312.5" class="st10" width="31.3" height="31.3"/>
		<rect x="343.8" y="250" class="st10" width="31.3" height="31.3"/>
		<rect x="343.8" y="218.8" class="st10" width="31.3" height="31.3"/>
		<rect x="312.5" y="343.8" class="st10" width="31.3" height="31.3"/>
		<rect x="343.8" y="187.5" class="st10" width="31.3" height="31.3"/>
		<rect x="343.8" y="343.8" class="st10" width="31.3" height="31.3"/>
		<rect x="125" y="281.3" class="st10" width="31.3" height="31.3"/>
		<rect x="343.8" y="281.3" class="st10" width="31.3" height="31.3"/>
		<rect x="312.5" y="218.8" class="st10" width="31.3" height="31.3"/>
		<rect x="125" y="250" class="st10" width="31.3" height="31.3"/>
		<rect x="281.3" y="125" class="st10" width="31.3" height="31.3"/>
		<rect x="312.5" y="156.3" class="st10" width="31.3" height="31.3"/>
		<rect x="312.5" y="187.5" class="st10" width="31.3" height="31.3"/>
		<rect x="312.5" y="250" class="st10" width="31.3" height="31.3"/>
		<rect x="312.5" y="281.3" class="st10" width="31.3" height="31.3"/>
		<rect x="250" y="125" class="st10" width="31.3" height="31.3"/>
		<rect x="312.5" y="125" class="st10" width="31.3" height="31.3"/>
		<rect x="125" y="187.5" class="st10" width="31.3" height="31.3"/>
		<rect x="125" y="218.8" class="st10" width="31.3" height="31.3"/>
		<rect x="125" y="156.3" class="st10" width="31.3" height="31.3"/>
		<rect x="156.3" y="125" class="st10" width="31.3" height="31.3"/>
		<rect x="187.5" y="125" class="st10" width="31.3" height="31.3"/>
		<rect x="125" y="125" class="st10" width="31.3" height="31.3"/>
		<rect x="218.8" y="125" class="st10" width="31.3" height="31.3"/>
		<rect x="343.8" y="62.5" class="st10" width="31.3" height="31.3"/>
		<rect y="93.8" class="st10" width="31.3" height="31.3"/>
		<rect y="125" class="st10" width="31.3" height="31.3"/>
		<rect y="62.5" class="st10" width="31.3" height="31.3"/>
		<rect y="156.3" class="st10" width="31.3" height="31.3"/>
		<rect class="st10" width="31.3" height="31.3"/>
		<rect x="31.3" class="st10" width="31.3" height="31.3"/>
		<rect y="187.5" class="st10" width="31.3" height="31.3"/>
		<rect y="31.3" class="st10" width="31.3" height="31.3"/>
		<rect y="343.8" class="st10" width="31.3" height="31.3"/>
		<rect x="62.5" class="st10" width="31.3" height="31.3"/>
		<rect y="375" class="st10" width="31.3" height="31.3"/>
		<rect y="218.8" class="st10" width="31.3" height="31.3"/>
		<rect y="406.3" class="st10" width="31.3" height="31.3"/>
		<rect y="250" class="st10" width="31.3" height="31.3"/>
		<rect y="312.5" class="st10" width="31.3" height="31.3"/>
		<rect y="281.3" class="st10" width="31.3" height="31.3"/>
		<rect x="312.5" class="st10" width="31.3" height="31.3"/>
		<rect x="406.3" class="st10" width="31.3" height="31.3"/>
		<rect x="375" class="st10" width="31.3" height="31.3"/>
		<rect x="437.5" class="st10" width="31.3" height="31.3"/>
		<rect x="437.5" y="31.3" class="st10" width="31.3" height="31.3"/>
		<rect x="437.5" y="93.8" class="st10" width="31.3" height="31.3"/>
		<rect x="437.5" y="62.5" class="st10" width="31.3" height="31.3"/>
		<rect x="93.8" class="st10" width="31.3" height="31.3"/>
		<rect x="343.8" class="st10" width="31.3" height="31.3"/>
		<rect x="156.3" class="st10" width="31.3" height="31.3"/>
		<rect x="125" class="st10" width="31.3" height="31.3"/>
		<rect x="437.5" y="125" class="st10" width="31.3" height="31.3"/>
		<rect x="281.3" class="st10" width="31.3" height="31.3"/>
		<rect x="218.8" class="st10" width="31.3" height="31.3"/>
		<rect y="437.5" class="st10" width="31.3" height="31.3"/>
		<rect x="250" class="st10" width="31.3" height="31.3"/>
		<rect x="187.5" class="st10" width="31.3" height="31.3"/>
		<rect x="468.8" y="281.3" class="st10" width="31.3" height="31.3"/>
		<rect x="468.8" y="312.5" class="st10" width="31.3" height="31.3"/>
		<rect x="468.8" y="250" class="st10" width="31.3" height="31.3"/>
		<rect x="468.8" y="375" class="st10" width="31.3" height="31.3"/>
		<rect x="468.8" y="406.3" class="st10" width="31.3" height="31.3"/>
		<rect x="468.8" y="218.8" class="st10" width="31.3" height="31.3"/>
		<rect x="468.8" y="343.8" class="st10" width="31.3" height="31.3"/>
		<rect x="468.8" y="437.5" class="st10" width="31.3" height="31.3"/>
		<rect x="468.8" y="62.5" class="st10" width="31.3" height="31.3"/>
		<rect x="468.8" y="31.3" class="st10" width="31.3" height="31.3"/>
		<rect x="468.8" class="st10" width="31.3" height="31.3"/>
		<rect x="468.8" y="125" class="st10" width="31.3" height="31.3"/>
		<rect x="468.8" y="156.3" class="st10" width="31.3" height="31.3"/>
		<rect x="468.8" y="93.8" class="st10" width="31.3" height="31.3"/>
		<rect x="468.8" y="187.5" class="st10" width="31.3" height="31.3"/>
		<rect x="343.8" y="468.8" class="st10" width="31.3" height="31.3"/>
		<rect x="218.8" y="468.8" class="st10" width="31.3" height="31.3"/>
		<rect x="125" y="468.8" class="st10" width="31.3" height="31.3"/>
		<rect x="468.8" y="468.8" class="st10" width="31.3" height="31.3"/>
		<rect x="156.3" y="468.8" class="st10" width="31.3" height="31.3"/>
		<rect x="93.8" y="468.8" class="st10" width="31.3" height="31.3"/>
		<rect x="31.3" y="468.8" class="st10" width="31.3" height="31.3"/>
		<rect x="62.5" y="468.8" class="st10" width="31.3" height="31.3"/>
		<rect x="187.5" y="468.8" class="st10" width="31.3" height="31.3"/>
		<rect x="406.3" y="468.8" class="st10" width="31.3" height="31.3"/>
		<rect x="250" y="468.8" class="st10" width="31.3" height="31.3"/>
		<rect x="437.5" y="468.8" class="st10" width="31.3" height="31.3"/>
		<rect x="375" y="468.8" class="st10" width="31.3" height="31.3"/>
		<rect x="281.3" y="468.8" class="st10" width="31.3" height="31.3"/>
		<rect x="312.5" y="468.8" class="st10" width="31.3" height="31.3"/>
		<rect y="468.8" class="st10" width="31.3" height="31.3"/>
		<rect x="187.5" y="31.3" class="st10" width="31.3" height="31.3"/>
		<rect x="281.3" y="31.3" class="st10" width="31.3" height="31.3"/>
		<rect x="250" y="31.3" class="st10" width="31.3" height="31.3"/>
		<rect x="218.8" y="31.3" class="st10" width="31.3" height="31.3"/>
		<rect x="343.8" y="31.3" class="st10" width="31.3" height="31.3"/>
		<rect x="375" y="31.3" class="st10" width="31.3" height="31.3"/>
		<rect x="312.5" y="31.3" class="st10" width="31.3" height="31.3"/>
		<rect x="281.3" y="406.3" class="st10" width="31.3" height="31.3"/>
		<rect x="31.3" y="31.3" class="st10" width="31.3" height="31.3"/>
		<rect x="406.3" y="31.3" class="st10" width="31.3" height="31.3"/>
		<rect x="156.3" y="31.3" class="st10" width="31.3" height="31.3"/>
		<rect x="31.3" y="93.8" class="st10" width="31.3" height="31.3"/>
		<rect x="31.3" y="62.5" class="st10" width="31.3" height="31.3"/>
		<rect x="62.5" y="31.3" class="st10" width="31.3" height="31.3"/>
		<rect x="125" y="31.3" class="st10" width="31.3" height="31.3"/>
		<rect x="93.8" y="31.3" class="st10" width="31.3" height="31.3"/>
		<rect x="312.5" y="406.3" class="st10" width="31.3" height="31.3"/>
		<rect x="406.3" y="312.5" class="st10" width="31.3" height="31.3"/>
		<rect x="406.3" y="343.8" class="st10" width="31.3" height="31.3"/>
		<rect x="406.3" y="406.3" class="st10" width="31.3" height="31.3"/>
		<rect x="406.3" y="62.5" class="st10" width="31.3" height="31.3"/>
		<rect x="31.3" y="125" class="st10" width="31.3" height="31.3"/>
		<rect x="343.8" y="406.3" class="st10" width="31.3" height="31.3"/>
		<rect x="375" y="406.3" class="st10" width="31.3" height="31.3"/>
		<rect x="406.3" y="375" class="st10" width="31.3" height="31.3"/>
		<rect x="406.3" y="156.3" class="st10" width="31.3" height="31.3"/>
		<rect x="406.3" y="125" class="st10" width="31.3" height="31.3"/>
		<rect x="406.3" y="93.8" class="st10" width="31.3" height="31.3"/>
		<rect x="406.3" y="281.3" class="st10" width="31.3" height="31.3"/>
		<rect x="406.3" y="250" class="st10" width="31.3" height="31.3"/>
		<rect x="406.3" y="187.5" class="st10" width="31.3" height="31.3"/>
		<rect x="406.3" y="218.8" class="st10" width="31.3" height="31.3"/>
		<rect x="437.5" y="187.5" class="st10" width="31.3" height="31.3"/>
		<rect x="31.3" y="156.3" class="st10" width="31.3" height="31.3"/>
		<rect x="375" y="437.5" class="st10" width="31.3" height="31.3"/>
		<rect x="250" y="437.5" class="st10" width="31.3" height="31.3"/>
		<rect x="437.5" y="406.3" class="st10" width="31.3" height="31.3"/>
		<rect x="281.3" y="437.5" class="st10" width="31.3" height="31.3"/>
		<rect x="312.5" y="437.5" class="st10" width="31.3" height="31.3"/>
		<rect x="343.8" y="437.5" class="st10" width="31.3" height="31.3"/>
		<rect x="437.5" y="437.5" class="st10" width="31.3" height="31.3"/>
		<rect x="437.5" y="218.8" class="st10" width="31.3" height="31.3"/>
		<rect x="437.5" y="156.3" class="st10" width="31.3" height="31.3"/>
		<rect x="437.5" y="250" class="st10" width="31.3" height="31.3"/>
		<rect x="437.5" y="375" class="st10" width="31.3" height="31.3"/>
		<rect x="437.5" y="343.8" class="st10" width="31.3" height="31.3"/>
		<rect x="437.5" y="312.5" class="st10" width="31.3" height="31.3"/>
		<rect x="437.5" y="281.3" class="st10" width="31.3" height="31.3"/>
		<rect x="406.3" y="437.5" class="st10" width="31.3" height="31.3"/>
		<rect x="31.3" y="312.5" class="st10" width="31.3" height="31.3"/>
		<rect x="31.3" y="343.8" class="st10" width="31.3" height="31.3"/>
		<rect x="31.3" y="281.3" class="st10" width="31.3" height="31.3"/>
		<rect x="31.3" y="218.8" class="st10" width="31.3" height="31.3"/>
		<rect x="31.3" y="187.5" class="st10" width="31.3" height="31.3"/>
		<rect x="31.3" y="375" class="st10" width="31.3" height="31.3"/>
		<rect x="31.3" y="250" class="st10" width="31.3" height="31.3"/>
		<rect x="187.5" y="437.5" class="st10" width="31.3" height="31.3"/>
		<rect x="125" y="437.5" class="st10" width="31.3" height="31.3"/>
		<rect x="156.3" y="437.5" class="st10" width="31.3" height="31.3"/>
		<rect x="218.8" y="437.5" class="st10" width="31.3" height="31.3"/>
		<rect x="93.8" y="437.5" class="st10" width="31.3" height="31.3"/>
		<rect x="31.3" y="406.3" class="st10" width="31.3" height="31.3"/>
		<rect x="31.3" y="437.5" class="st10" width="31.3" height="31.3"/>
		<rect x="62.5" y="437.5" class="st10" width="31.3" height="31.3"/>
	</g>
	<g class="st9">
		<rect class="st11" width="500" height="500"/>
		<rect class="st11" width="62.5" height="62.5"/>
		<rect x="437.5" class="st11" width="62.5" height="62.5"/>
		<rect y="437.5" class="st11" width="62.5" height="62.5"/>
		<rect x="437.5" y="437.5" class="st11" width="62.5" height="62.5"/>
		<rect x="62.5" y="62.5" class="st11" width="187.5" height="187.5"/>
		<rect x="250" y="62.5" class="st11" width="187.5" height="187.5"/>
		<rect x="62.5" y="250" class="st11" width="187.5" height="187.5"/>
		<rect x="250" y="250" class="st11" width="187.5" height="187.5"/>
		<line class="st11" x1="0" y1="0" x2="500" y2="500"/>
		<line class="st11" x1="500" y1="0" x2="0" y2="500"/>
		<circle class="st11" cx="250" cy="250" r="187.5"/>
		<circle class="st11" cx="250" cy="250" r="250"/>
	</g>
	<rect x="62.5" class="st12" width="375" height="500"/>
</g>
</svg>
