<?xml version="1.0" encoding="utf-8"?>
<!-- Generator: Adobe Illustrator 22.1.0, SVG Export Plug-In . SVG Version: 6.00 Build 0)  -->
<svg version="1.1" id="Layer_1" xmlns="http://www.w3.org/2000/svg" xmlns:xlink="http://www.w3.org/1999/xlink" x="0px" y="0px"
	 viewBox="0 0 500 500" style="enable-background:new 0 0 500 500;" xml:space="preserve">
<style type="text/css">
	.st0{fill:#084745;}
	.st1{fill:#0B7070;}
	.st2{fill:#00A9B2;}
	.st3{fill:url(#SVGID_1_);}
	.st4{fill:#B5B5B5;}
	.st5{display:none;}
	.st6{display:inline;}
	.st7{fill:none;stroke:#EDEDED;stroke-width:0.5;stroke-miterlimit:10;}
	.st8{fill:none;stroke:#BDBDBD;stroke-miterlimit:10;}
	.st9{fill:#FF6600;}
	.st10{fill:none;stroke:#FFFFFF;stroke-width:30;stroke-linecap:round;stroke-miterlimit:10;}
</style>
<circle class="st0" cx="242.5" cy="265.6" r="93.2"/>
<circle class="st1" cx="264.5" cy="203.6" r="93.2"/>
<circle class="st2" cx="295.7" cy="137.8" r="93.2"/>
<g id="Layer_1_1_">
	<g id="Layer_3_copy">
		
			<linearGradient id="SVGID_1_" gradientUnits="userSpaceOnUse" x1="771" y1="-131.4" x2="771" y2="-131.4" gradientTransform="matrix(1 0 0 -1 0 212)">
			<stop  offset="0" style="stop-color:#FF6600"/>
			<stop  offset="1" style="stop-color:#231F20"/>
		</linearGradient>
		<path class="st3" d="M771,343.4"/>
	</g>
	<path class="st4" d="M68.8,358.8"/>
</g>
<g id="Layer_7" class="st5">
	<g id="Layer_1_2_" class="st6">
		<g>
			<rect x="250" y="375" class="st7" width="31.3" height="31.3"/>
			<rect x="156.3" y="375" class="st7" width="31.3" height="31.3"/>
			<rect x="218.8" y="375" class="st7" width="31.3" height="31.3"/>
			<rect x="187.5" y="375" class="st7" width="31.3" height="31.3"/>
			<rect x="93.8" y="343.8" class="st7" width="31.3" height="31.3"/>
			<rect x="93.8" y="375" class="st7" width="31.3" height="31.3"/>
			<rect x="125" y="375" class="st7" width="31.3" height="31.3"/>
			<rect x="281.3" y="375" class="st7" width="31.3" height="31.3"/>
			<rect x="375" y="312.5" class="st7" width="31.3" height="31.3"/>
			<rect x="93.8" y="312.5" class="st7" width="31.3" height="31.3"/>
			<rect x="375" y="343.8" class="st7" width="31.3" height="31.3"/>
			<rect x="375" y="281.3" class="st7" width="31.3" height="31.3"/>
			<rect x="312.5" y="375" class="st7" width="31.3" height="31.3"/>
			<rect x="375" y="375" class="st7" width="31.3" height="31.3"/>
			<rect x="375" y="250" class="st7" width="31.3" height="31.3"/>
			<rect x="343.8" y="375" class="st7" width="31.3" height="31.3"/>
			<rect x="250" y="93.8" class="st7" width="31.3" height="31.3"/>
			<rect x="218.8" y="93.8" class="st7" width="31.3" height="31.3"/>
			<rect x="187.5" y="93.8" class="st7" width="31.3" height="31.3"/>
			<rect x="312.5" y="93.8" class="st7" width="31.3" height="31.3"/>
			<rect x="343.8" y="93.8" class="st7" width="31.3" height="31.3"/>
			<rect x="156.3" y="93.8" class="st7" width="31.3" height="31.3"/>
			<rect x="281.3" y="93.8" class="st7" width="31.3" height="31.3"/>
			<rect x="93.8" y="156.3" class="st7" width="31.3" height="31.3"/>
			<rect x="93.8" y="187.5" class="st7" width="31.3" height="31.3"/>
			<rect x="93.8" y="218.8" class="st7" width="31.3" height="31.3"/>
			<rect x="93.8" y="250" class="st7" width="31.3" height="31.3"/>
			<rect x="93.8" y="281.3" class="st7" width="31.3" height="31.3"/>
			<rect x="125" y="93.8" class="st7" width="31.3" height="31.3"/>
			<rect x="93.8" y="93.8" class="st7" width="31.3" height="31.3"/>
			<rect x="93.8" y="125" class="st7" width="31.3" height="31.3"/>
			<rect x="375" y="125" class="st7" width="31.3" height="31.3"/>
			<rect x="62.5" y="281.3" class="st7" width="31.3" height="31.3"/>
			<rect x="62.5" y="312.5" class="st7" width="31.3" height="31.3"/>
			<rect x="62.5" y="250" class="st7" width="31.3" height="31.3"/>
			<rect x="62.5" y="156.3" class="st7" width="31.3" height="31.3"/>
			<rect x="62.5" y="125" class="st7" width="31.3" height="31.3"/>
			<rect x="62.5" y="187.5" class="st7" width="31.3" height="31.3"/>
			<rect x="62.5" y="218.8" class="st7" width="31.3" height="31.3"/>
			<rect x="62.5" y="343.8" class="st7" width="31.3" height="31.3"/>
			<rect x="187.5" y="406.3" class="st7" width="31.3" height="31.3"/>
			<rect x="218.8" y="406.3" class="st7" width="31.3" height="31.3"/>
			<rect x="156.3" y="406.3" class="st7" width="31.3" height="31.3"/>
			<rect x="125" y="406.3" class="st7" width="31.3" height="31.3"/>
			<rect x="62.5" y="406.3" class="st7" width="31.3" height="31.3"/>
			<rect x="93.8" y="406.3" class="st7" width="31.3" height="31.3"/>
			<rect x="62.5" y="375" class="st7" width="31.3" height="31.3"/>
			<rect x="62.5" y="93.8" class="st7" width="31.3" height="31.3"/>
			<rect x="375" y="62.5" class="st7" width="31.3" height="31.3"/>
			<rect x="312.5" y="62.5" class="st7" width="31.3" height="31.3"/>
			<rect x="281.3" y="62.5" class="st7" width="31.3" height="31.3"/>
			<rect x="375" y="93.8" class="st7" width="31.3" height="31.3"/>
			<rect x="343.8" y="125" class="st7" width="31.3" height="31.3"/>
			<rect x="375" y="187.5" class="st7" width="31.3" height="31.3"/>
			<rect x="375" y="156.3" class="st7" width="31.3" height="31.3"/>
			<rect x="62.5" y="62.5" class="st7" width="31.3" height="31.3"/>
			<rect x="93.8" y="62.5" class="st7" width="31.3" height="31.3"/>
			<rect x="375" y="218.8" class="st7" width="31.3" height="31.3"/>
			<rect x="125" y="62.5" class="st7" width="31.3" height="31.3"/>
			<rect x="250" y="62.5" class="st7" width="31.3" height="31.3"/>
			<rect x="218.8" y="62.5" class="st7" width="31.3" height="31.3"/>
			<rect x="187.5" y="62.5" class="st7" width="31.3" height="31.3"/>
			<rect x="156.3" y="62.5" class="st7" width="31.3" height="31.3"/>
			<rect x="281.3" y="156.3" class="st7" width="31.3" height="31.3"/>
			<rect x="156.3" y="156.3" class="st7" width="31.3" height="31.3"/>
			<rect x="156.3" y="218.8" class="st7" width="31.3" height="31.3"/>
			<rect x="156.3" y="187.5" class="st7" width="31.3" height="31.3"/>
			<rect x="187.5" y="156.3" class="st7" width="31.3" height="31.3"/>
			<rect x="250" y="406.3" class="st7" width="31.3" height="31.3"/>
			<rect x="250" y="156.3" class="st7" width="31.3" height="31.3"/>
			<rect x="281.3" y="187.5" class="st7" width="31.3" height="31.3"/>
			<rect x="218.8" y="156.3" class="st7" width="31.3" height="31.3"/>
			<rect x="250" y="312.5" class="st7" width="31.3" height="31.3"/>
			<rect x="312.5" y="312.5" class="st7" width="31.3" height="31.3"/>
			<rect x="281.3" y="312.5" class="st7" width="31.3" height="31.3"/>
			<rect x="218.8" y="312.5" class="st7" width="31.3" height="31.3"/>
			<rect x="156.3" y="281.3" class="st7" width="31.3" height="31.3"/>
			<rect x="156.3" y="312.5" class="st7" width="31.3" height="31.3"/>
			<rect x="187.5" y="312.5" class="st7" width="31.3" height="31.3"/>
			<rect x="156.3" y="250" class="st7" width="31.3" height="31.3"/>
			<rect x="187.5" y="187.5" class="st7" width="31.3" height="31.3"/>
			<rect x="218.8" y="187.5" class="st7" width="31.3" height="31.3"/>
			<rect x="250" y="218.8" class="st7" width="31.3" height="31.3"/>
			<rect x="250" y="187.5" class="st7" width="31.3" height="31.3"/>
			<rect x="281.3" y="218.8" class="st7" width="31.3" height="31.3"/>
			<rect x="218.8" y="250" class="st7" width="31.3" height="31.3"/>
			<rect x="250" y="250" class="st7" width="31.3" height="31.3"/>
			<rect x="218.8" y="218.8" class="st7" width="31.3" height="31.3"/>
			<rect x="281.3" y="281.3" class="st7" width="31.3" height="31.3"/>
			<rect x="250" y="281.3" class="st7" width="31.3" height="31.3"/>
			<rect x="281.3" y="250" class="st7" width="31.3" height="31.3"/>
			<rect x="187.5" y="218.8" class="st7" width="31.3" height="31.3"/>
			<rect x="187.5" y="250" class="st7" width="31.3" height="31.3"/>
			<rect x="187.5" y="281.3" class="st7" width="31.3" height="31.3"/>
			<rect x="218.8" y="281.3" class="st7" width="31.3" height="31.3"/>
			<rect x="343.8" y="156.3" class="st7" width="31.3" height="31.3"/>
			<rect x="218.8" y="343.8" class="st7" width="31.3" height="31.3"/>
			<rect x="187.5" y="343.8" class="st7" width="31.3" height="31.3"/>
			<rect x="250" y="343.8" class="st7" width="31.3" height="31.3"/>
			<rect x="156.3" y="343.8" class="st7" width="31.3" height="31.3"/>
			<rect x="125" y="312.5" class="st7" width="31.3" height="31.3"/>
			<rect x="125" y="343.8" class="st7" width="31.3" height="31.3"/>
			<rect x="281.3" y="343.8" class="st7" width="31.3" height="31.3"/>
			<rect x="343.8" y="312.5" class="st7" width="31.3" height="31.3"/>
			<rect x="343.8" y="250" class="st7" width="31.3" height="31.3"/>
			<rect x="343.8" y="218.8" class="st7" width="31.3" height="31.3"/>
			<rect x="312.5" y="343.8" class="st7" width="31.3" height="31.3"/>
			<rect x="343.8" y="187.5" class="st7" width="31.3" height="31.3"/>
			<rect x="343.8" y="343.8" class="st7" width="31.3" height="31.3"/>
			<rect x="125" y="281.3" class="st7" width="31.3" height="31.3"/>
			<rect x="343.8" y="281.3" class="st7" width="31.3" height="31.3"/>
			<rect x="312.5" y="218.8" class="st7" width="31.3" height="31.3"/>
			<rect x="125" y="250" class="st7" width="31.3" height="31.3"/>
			<rect x="281.3" y="125" class="st7" width="31.3" height="31.3"/>
			<rect x="312.5" y="156.3" class="st7" width="31.3" height="31.3"/>
			<rect x="312.5" y="187.5" class="st7" width="31.3" height="31.3"/>
			<rect x="312.5" y="250" class="st7" width="31.3" height="31.3"/>
			<rect x="312.5" y="281.3" class="st7" width="31.3" height="31.3"/>
			<rect x="250" y="125" class="st7" width="31.3" height="31.3"/>
			<rect x="312.5" y="125" class="st7" width="31.3" height="31.3"/>
			<rect x="125" y="187.5" class="st7" width="31.3" height="31.3"/>
			<rect x="125" y="218.8" class="st7" width="31.3" height="31.3"/>
			<rect x="125" y="156.3" class="st7" width="31.3" height="31.3"/>
			<rect x="156.3" y="125" class="st7" width="31.3" height="31.3"/>
			<rect x="187.5" y="125" class="st7" width="31.3" height="31.3"/>
			<rect x="125" y="125" class="st7" width="31.3" height="31.3"/>
			<rect x="218.8" y="125" class="st7" width="31.3" height="31.3"/>
			<rect x="343.8" y="62.5" class="st7" width="31.3" height="31.3"/>
			<rect y="93.8" class="st7" width="31.3" height="31.3"/>
			<rect y="125" class="st7" width="31.3" height="31.3"/>
			<rect y="62.5" class="st7" width="31.3" height="31.3"/>
			<rect y="156.3" class="st7" width="31.3" height="31.3"/>
			<rect class="st7" width="31.3" height="31.3"/>
			<rect x="31.3" class="st7" width="31.3" height="31.3"/>
			<rect y="187.5" class="st7" width="31.3" height="31.3"/>
			<rect y="31.3" class="st7" width="31.3" height="31.3"/>
			<rect y="343.8" class="st7" width="31.3" height="31.3"/>
			<rect x="62.5" class="st7" width="31.3" height="31.3"/>
			<rect y="375" class="st7" width="31.3" height="31.3"/>
			<rect y="218.8" class="st7" width="31.3" height="31.3"/>
			<rect y="406.3" class="st7" width="31.3" height="31.3"/>
			<rect y="250" class="st7" width="31.3" height="31.3"/>
			<rect y="312.5" class="st7" width="31.3" height="31.3"/>
			<rect y="281.3" class="st7" width="31.3" height="31.3"/>
			<rect x="312.5" class="st7" width="31.3" height="31.3"/>
			<rect x="406.3" class="st7" width="31.3" height="31.3"/>
			<rect x="375" class="st7" width="31.3" height="31.3"/>
			<rect x="437.5" class="st7" width="31.3" height="31.3"/>
			<rect x="437.5" y="31.3" class="st7" width="31.3" height="31.3"/>
			<rect x="437.5" y="93.8" class="st7" width="31.3" height="31.3"/>
			<rect x="437.5" y="62.5" class="st7" width="31.3" height="31.3"/>
			<rect x="93.8" class="st7" width="31.3" height="31.3"/>
			<rect x="343.8" class="st7" width="31.3" height="31.3"/>
			<rect x="156.3" class="st7" width="31.3" height="31.3"/>
			<rect x="125" class="st7" width="31.3" height="31.3"/>
			<rect x="437.5" y="125" class="st7" width="31.3" height="31.3"/>
			<rect x="281.3" class="st7" width="31.3" height="31.3"/>
			<rect x="218.8" class="st7" width="31.3" height="31.3"/>
			<rect y="437.5" class="st7" width="31.3" height="31.3"/>
			<rect x="250" class="st7" width="31.3" height="31.3"/>
			<rect x="187.5" class="st7" width="31.3" height="31.3"/>
			<rect x="468.8" y="281.3" class="st7" width="31.3" height="31.3"/>
			<rect x="468.8" y="312.5" class="st7" width="31.3" height="31.3"/>
			<rect x="468.8" y="250" class="st7" width="31.3" height="31.3"/>
			<rect x="468.8" y="375" class="st7" width="31.3" height="31.3"/>
			<rect x="468.8" y="406.3" class="st7" width="31.3" height="31.3"/>
			<rect x="468.8" y="218.8" class="st7" width="31.3" height="31.3"/>
			<rect x="468.8" y="343.8" class="st7" width="31.3" height="31.3"/>
			<rect x="468.8" y="437.5" class="st7" width="31.3" height="31.3"/>
			<rect x="468.8" y="62.5" class="st7" width="31.3" height="31.3"/>
			<rect x="468.8" y="31.3" class="st7" width="31.3" height="31.3"/>
			<rect x="468.8" class="st7" width="31.3" height="31.3"/>
			<rect x="468.8" y="125" class="st7" width="31.3" height="31.3"/>
			<rect x="468.8" y="156.3" class="st7" width="31.3" height="31.3"/>
			<rect x="468.8" y="93.8" class="st7" width="31.3" height="31.3"/>
			<rect x="468.8" y="187.5" class="st7" width="31.3" height="31.3"/>
			<rect x="343.8" y="468.8" class="st7" width="31.3" height="31.3"/>
			<rect x="218.8" y="468.8" class="st7" width="31.3" height="31.3"/>
			<rect x="125" y="468.8" class="st7" width="31.3" height="31.3"/>
			<rect x="468.8" y="468.8" class="st7" width="31.3" height="31.3"/>
			<rect x="156.3" y="468.8" class="st7" width="31.3" height="31.3"/>
			<rect x="93.8" y="468.8" class="st7" width="31.3" height="31.3"/>
			<rect x="31.3" y="468.8" class="st7" width="31.3" height="31.3"/>
			<rect x="62.5" y="468.8" class="st7" width="31.3" height="31.3"/>
			<rect x="187.5" y="468.8" class="st7" width="31.3" height="31.3"/>
			<rect x="406.3" y="468.8" class="st7" width="31.3" height="31.3"/>
			<rect x="250" y="468.8" class="st7" width="31.3" height="31.3"/>
			<rect x="437.5" y="468.8" class="st7" width="31.3" height="31.3"/>
			<rect x="375" y="468.8" class="st7" width="31.3" height="31.3"/>
			<rect x="281.3" y="468.8" class="st7" width="31.3" height="31.3"/>
			<rect x="312.5" y="468.8" class="st7" width="31.3" height="31.3"/>
			<rect y="468.8" class="st7" width="31.3" height="31.3"/>
			<rect x="187.5" y="31.3" class="st7" width="31.3" height="31.3"/>
			<rect x="281.3" y="31.3" class="st7" width="31.3" height="31.3"/>
			<rect x="250" y="31.3" class="st7" width="31.3" height="31.3"/>
			<rect x="218.8" y="31.3" class="st7" width="31.3" height="31.3"/>
			<rect x="343.8" y="31.3" class="st7" width="31.3" height="31.3"/>
			<rect x="375" y="31.3" class="st7" width="31.3" height="31.3"/>
			<rect x="312.5" y="31.3" class="st7" width="31.3" height="31.3"/>
			<rect x="281.3" y="406.3" class="st7" width="31.3" height="31.3"/>
			<rect x="31.3" y="31.3" class="st7" width="31.3" height="31.3"/>
			<rect x="406.3" y="31.3" class="st7" width="31.3" height="31.3"/>
			<rect x="156.3" y="31.3" class="st7" width="31.3" height="31.3"/>
			<rect x="31.3" y="93.8" class="st7" width="31.3" height="31.3"/>
			<rect x="31.3" y="62.5" class="st7" width="31.3" height="31.3"/>
			<rect x="62.5" y="31.3" class="st7" width="31.3" height="31.3"/>
			<rect x="125" y="31.3" class="st7" width="31.3" height="31.3"/>
			<rect x="93.8" y="31.3" class="st7" width="31.3" height="31.3"/>
			<rect x="312.5" y="406.3" class="st7" width="31.3" height="31.3"/>
			<rect x="406.3" y="312.5" class="st7" width="31.3" height="31.3"/>
			<rect x="406.3" y="343.8" class="st7" width="31.3" height="31.3"/>
			<rect x="406.3" y="406.3" class="st7" width="31.3" height="31.3"/>
			<rect x="406.3" y="62.5" class="st7" width="31.3" height="31.3"/>
			<rect x="31.3" y="125" class="st7" width="31.3" height="31.3"/>
			<rect x="343.8" y="406.3" class="st7" width="31.3" height="31.3"/>
			<rect x="375" y="406.3" class="st7" width="31.3" height="31.3"/>
			<rect x="406.3" y="375" class="st7" width="31.3" height="31.3"/>
			<rect x="406.3" y="156.3" class="st7" width="31.3" height="31.3"/>
			<rect x="406.3" y="125" class="st7" width="31.3" height="31.3"/>
			<rect x="406.3" y="93.8" class="st7" width="31.3" height="31.3"/>
			<rect x="406.3" y="281.3" class="st7" width="31.3" height="31.3"/>
			<rect x="406.3" y="250" class="st7" width="31.3" height="31.3"/>
			<rect x="406.3" y="187.5" class="st7" width="31.3" height="31.3"/>
			<rect x="406.3" y="218.8" class="st7" width="31.3" height="31.3"/>
			<rect x="437.5" y="187.5" class="st7" width="31.3" height="31.3"/>
			<rect x="31.3" y="156.3" class="st7" width="31.3" height="31.3"/>
			<rect x="375" y="437.5" class="st7" width="31.3" height="31.3"/>
			<rect x="250" y="437.5" class="st7" width="31.3" height="31.3"/>
			<rect x="437.5" y="406.3" class="st7" width="31.3" height="31.3"/>
			<rect x="281.3" y="437.5" class="st7" width="31.3" height="31.3"/>
			<rect x="312.5" y="437.5" class="st7" width="31.3" height="31.3"/>
			<rect x="343.8" y="437.5" class="st7" width="31.3" height="31.3"/>
			<rect x="437.5" y="437.5" class="st7" width="31.3" height="31.3"/>
			<rect x="437.5" y="218.8" class="st7" width="31.3" height="31.3"/>
			<rect x="437.5" y="156.3" class="st7" width="31.3" height="31.3"/>
			<rect x="437.5" y="250" class="st7" width="31.3" height="31.3"/>
			<rect x="437.5" y="375" class="st7" width="31.3" height="31.3"/>
			<rect x="437.5" y="343.8" class="st7" width="31.3" height="31.3"/>
			<rect x="437.5" y="312.5" class="st7" width="31.3" height="31.3"/>
			<rect x="437.5" y="281.3" class="st7" width="31.3" height="31.3"/>
			<rect x="406.3" y="437.5" class="st7" width="31.3" height="31.3"/>
			<rect x="31.3" y="312.5" class="st7" width="31.3" height="31.3"/>
			<rect x="31.3" y="343.8" class="st7" width="31.3" height="31.3"/>
			<rect x="31.3" y="281.3" class="st7" width="31.3" height="31.3"/>
			<rect x="31.3" y="218.8" class="st7" width="31.3" height="31.3"/>
			<rect x="31.3" y="187.5" class="st7" width="31.3" height="31.3"/>
			<rect x="31.3" y="375" class="st7" width="31.3" height="31.3"/>
			<rect x="31.3" y="250" class="st7" width="31.3" height="31.3"/>
			<rect x="187.5" y="437.5" class="st7" width="31.3" height="31.3"/>
			<rect x="125" y="437.5" class="st7" width="31.3" height="31.3"/>
			<rect x="156.3" y="437.5" class="st7" width="31.3" height="31.3"/>
			<rect x="218.8" y="437.5" class="st7" width="31.3" height="31.3"/>
			<rect x="93.8" y="437.5" class="st7" width="31.3" height="31.3"/>
			<rect x="31.3" y="406.3" class="st7" width="31.3" height="31.3"/>
			<rect x="31.3" y="437.5" class="st7" width="31.3" height="31.3"/>
			<rect x="62.5" y="437.5" class="st7" width="31.3" height="31.3"/>
		</g>
		<g>
			<rect class="st8" width="500" height="500"/>
			<rect class="st8" width="62.5" height="62.5"/>
			<rect x="437.5" class="st8" width="62.5" height="62.5"/>
			<rect y="437.5" class="st8" width="62.5" height="62.5"/>
			<rect x="437.5" y="437.5" class="st8" width="62.5" height="62.5"/>
			<rect x="62.5" y="62.5" class="st8" width="187.5" height="187.5"/>
			<rect x="250" y="62.5" class="st8" width="187.5" height="187.5"/>
			<rect x="62.5" y="250" class="st8" width="187.5" height="187.5"/>
			<rect x="250" y="250" class="st8" width="187.5" height="187.5"/>
			<line class="st8" x1="0" y1="0" x2="500" y2="500"/>
			<line class="st8" x1="500" y1="0" x2="0" y2="500"/>
			<circle class="st8" cx="250" cy="250" r="187.5"/>
			<circle class="st8" cx="250" cy="250" r="250"/>
		</g>
		<rect x="62.5" class="st8" width="375" height="500"/>
	</g>
</g>
<circle class="st9" cx="352.7" cy="105.4" r="93.2"/>
<path class="st10" d="M20,283.5c0,0,21.5,109,122.6,109c125.3,0,86-287.2,209.7-287.2c87.1,0,122.6,124.1,122.6,124.1"/>
</svg>
