<?xml version="1.0" encoding="utf-8"?>
<!-- Generator: Adobe Illustrator 22.1.0, SVG Export Plug-In . SVG Version: 6.00 Build 0)  -->
<svg version="1.1" xmlns="http://www.w3.org/2000/svg" xmlns:xlink="http://www.w3.org/1999/xlink" x="0px" y="0px"
	 viewBox="0 0 500 500" style="enable-background:new 0 0 500 500;" xml:space="preserve">
<style type="text/css">
	.st0{display:none;}
	.st1{fill:#FFFFFF;}
	.st2{fill:#FF6700;}
	.st3{opacity:0.5;fill:url(#SVGID_1_);}
	.st4{opacity:0.5;fill:url(#SVGID_2_);}
	.st5{fill:#BDBDBD;}
	.st6{opacity:0.5;fill:url(#SVGID_3_);}
	.st7{display:inline;}
	.st8{fill:none;stroke:#EDEDED;stroke-width:0.5;stroke-miterlimit:10;}
	.st9{fill:none;stroke:#BDBDBD;stroke-miterlimit:10;}
	.st10{display:inline;fill:none;stroke:#BDBDBD;stroke-miterlimit:10;}
</style>
<g id="Layer_7" class="st0">
</g>
<g id="Layer_5">
	<path class="st1" d="M428.7,500H71.3C31.9,500,0,468.1,0,428.7V71.3C0,31.9,31.9,0,71.3,0h272.4c34,37.3,118.9,122.3,156.3,156.3
		v272.4C500,468.1,468.1,500,428.7,500z"/>
</g>
<g id="Layer_9">
	<path class="st2" d="M406.3,468.8H93.8c-38.5,0-62.5-24-62.5-62.5V93.8c0-38.5,24-62.5,62.5-62.5h250C426.4,78.5,369.7,68,466,137
		l2.8,269.3C468.8,444.8,444.8,468.8,406.3,468.8z"/>
</g>
<g id="Layer_8">
	<linearGradient id="SVGID_1_" gradientUnits="userSpaceOnUse" x1="485.9519" y1="401.2065" x2="199.179" y2="235.6381">
		<stop  offset="0" style="stop-color:#FF6600"/>
		<stop  offset="1" style="stop-color:#231F20"/>
	</linearGradient>
	<path class="st3" d="M353.2,361.6l65-230.3l49.1,140.6l1.4,140.6c0,43.3-28.6,55.7-70.3,55.7l-195.3,0.5l-95.7-74.2"/>
	<linearGradient id="SVGID_2_" gradientUnits="userSpaceOnUse" x1="358.0751" y1="314.4577" x2="135.6044" y2="186.0142">
		<stop  offset="0" style="stop-color:#FF6600"/>
		<stop  offset="1" style="stop-color:#231F20"/>
	</linearGradient>
	<path class="st4" d="M195.2,82.8l78.8,86.3l85.8,7.8l-7.2,46.6l25.5,31.4c0,43.3-30.5,84-72.3,84l-28.6,67.4L160.9,322"/>
	<path class="st1" d="M332.4,82.8h-81v56.3l28.1,56.3l-28.1,28.1l14.1,56.3l-42.2,56.3l28.1-56.3l-28.1-59l28.1-25.3l-56.3-56.3
		V82.8h-24.7c-49.7,0-90,40.3-90,90v157.5c0,49.7,40.3,90,90,90h162c49.7,0,90-40.3,90-90V172.8C422.4,123.1,382.1,82.8,332.4,82.8z
		"/>
</g>
<g id="Layer_4">
	<polyline class="st5" points="500,156.3 343.8,156.3 343.8,0 	"/>
	<linearGradient id="SVGID_3_" gradientUnits="userSpaceOnUse" x1="517.9373" y1="211.6945" x2="363.333" y2="122.4337">
		<stop  offset="0" style="stop-color:#FFFFFF"/>
		<stop  offset="1" style="stop-color:#231F20"/>
	</linearGradient>
	<polyline class="st6" points="500,156.3 499.9,242.9 466.8,218.7 466.6,195 422.4,185.5 422.4,168.6 343.8,156.3 	"/>
</g>
<g id="Layer_6">
</g>
<g id="Layer_1" class="st0">
	<g class="st7">
		<rect x="250" y="375" class="st8" width="31.3" height="31.3"/>
		<rect x="156.3" y="375" class="st8" width="31.3" height="31.3"/>
		<rect x="218.8" y="375" class="st8" width="31.3" height="31.3"/>
		<rect x="187.5" y="375" class="st8" width="31.3" height="31.3"/>
		<rect x="93.8" y="343.8" class="st8" width="31.3" height="31.3"/>
		<rect x="93.8" y="375" class="st8" width="31.3" height="31.3"/>
		<rect x="125" y="375" class="st8" width="31.3" height="31.3"/>
		<rect x="281.3" y="375" class="st8" width="31.3" height="31.3"/>
		<rect x="375" y="312.5" class="st8" width="31.3" height="31.3"/>
		<rect x="93.8" y="312.5" class="st8" width="31.3" height="31.3"/>
		<rect x="375" y="343.8" class="st8" width="31.3" height="31.3"/>
		<rect x="375" y="281.3" class="st8" width="31.3" height="31.3"/>
		<rect x="312.5" y="375" class="st8" width="31.3" height="31.3"/>
		<rect x="375" y="375" class="st8" width="31.3" height="31.3"/>
		<rect x="375" y="250" class="st8" width="31.3" height="31.3"/>
		<rect x="343.8" y="375" class="st8" width="31.3" height="31.3"/>
		<rect x="250" y="93.8" class="st8" width="31.3" height="31.3"/>
		<rect x="218.8" y="93.8" class="st8" width="31.3" height="31.3"/>
		<rect x="187.5" y="93.8" class="st8" width="31.3" height="31.3"/>
		<rect x="312.5" y="93.8" class="st8" width="31.3" height="31.3"/>
		<rect x="343.8" y="93.8" class="st8" width="31.3" height="31.3"/>
		<rect x="156.3" y="93.8" class="st8" width="31.3" height="31.3"/>
		<rect x="281.3" y="93.8" class="st8" width="31.3" height="31.3"/>
		<rect x="93.8" y="156.3" class="st8" width="31.3" height="31.3"/>
		<rect x="93.8" y="187.5" class="st8" width="31.3" height="31.3"/>
		<rect x="93.8" y="218.8" class="st8" width="31.3" height="31.3"/>
		<rect x="93.8" y="250" class="st8" width="31.3" height="31.3"/>
		<rect x="93.8" y="281.3" class="st8" width="31.3" height="31.3"/>
		<rect x="125" y="93.8" class="st8" width="31.3" height="31.3"/>
		<rect x="93.8" y="93.8" class="st8" width="31.3" height="31.3"/>
		<rect x="93.8" y="125" class="st8" width="31.3" height="31.3"/>
		<rect x="375" y="125" class="st8" width="31.3" height="31.3"/>
		<rect x="62.5" y="281.3" class="st8" width="31.3" height="31.3"/>
		<rect x="62.5" y="312.5" class="st8" width="31.3" height="31.3"/>
		<rect x="62.5" y="156.3" class="st8" width="31.3" height="31.3"/>
		<rect x="62.5" y="125" class="st8" width="31.3" height="31.3"/>
		<rect x="62.5" y="187.5" class="st8" width="31.3" height="31.3"/>
		<rect x="62.5" y="218.8" class="st8" width="31.3" height="31.3"/>
		<rect x="62.5" y="343.8" class="st8" width="31.3" height="31.3"/>
		<rect x="187.5" y="406.3" class="st8" width="31.3" height="31.3"/>
		<rect x="218.8" y="406.3" class="st8" width="31.3" height="31.3"/>
		<rect x="156.3" y="406.3" class="st8" width="31.3" height="31.3"/>
		<rect x="125" y="406.3" class="st8" width="31.3" height="31.3"/>
		<rect x="62.5" y="406.3" class="st8" width="31.3" height="31.3"/>
		<rect x="93.8" y="406.3" class="st8" width="31.3" height="31.3"/>
		<rect x="62.5" y="375" class="st8" width="31.3" height="31.3"/>
		<rect x="62.5" y="93.8" class="st8" width="31.3" height="31.3"/>
		<rect x="375" y="62.5" class="st8" width="31.3" height="31.3"/>
		<rect x="312.5" y="62.5" class="st8" width="31.3" height="31.3"/>
		<rect x="281.3" y="62.5" class="st8" width="31.3" height="31.3"/>
		<rect x="375" y="93.8" class="st8" width="31.3" height="31.3"/>
		<rect x="343.8" y="125" class="st8" width="31.3" height="31.3"/>
		<rect x="375" y="187.5" class="st8" width="31.3" height="31.3"/>
		<rect x="375" y="156.3" class="st8" width="31.3" height="31.3"/>
		<rect x="62.5" y="62.5" class="st8" width="31.3" height="31.3"/>
		<rect x="93.8" y="62.5" class="st8" width="31.3" height="31.3"/>
		<rect x="375" y="218.8" class="st8" width="31.3" height="31.3"/>
		<rect x="125" y="62.5" class="st8" width="31.3" height="31.3"/>
		<rect x="250" y="62.5" class="st8" width="31.3" height="31.3"/>
		<rect x="218.8" y="62.5" class="st8" width="31.3" height="31.3"/>
		<rect x="187.5" y="62.5" class="st8" width="31.3" height="31.3"/>
		<rect x="156.3" y="62.5" class="st8" width="31.3" height="31.3"/>
		<rect x="281.3" y="156.3" class="st8" width="31.3" height="31.3"/>
		<rect x="156.3" y="156.3" class="st8" width="31.3" height="31.3"/>
		<rect x="156.3" y="218.8" class="st8" width="31.3" height="31.3"/>
		<rect x="156.3" y="187.5" class="st8" width="31.3" height="31.3"/>
		<rect x="187.5" y="156.3" class="st8" width="31.3" height="31.3"/>
		<rect x="250" y="406.3" class="st8" width="31.3" height="31.3"/>
		<rect x="250" y="156.3" class="st8" width="31.3" height="31.3"/>
		<rect x="281.3" y="187.5" class="st8" width="31.3" height="31.3"/>
		<rect x="218.8" y="156.3" class="st8" width="31.3" height="31.3"/>
		<rect x="250" y="312.5" class="st8" width="31.3" height="31.3"/>
		<rect x="312.5" y="312.5" class="st8" width="31.3" height="31.3"/>
		<rect x="281.3" y="312.5" class="st8" width="31.3" height="31.3"/>
		<rect x="218.8" y="312.5" class="st8" width="31.3" height="31.3"/>
		<rect x="156.3" y="281.3" class="st8" width="31.3" height="31.3"/>
		<rect x="156.3" y="312.5" class="st8" width="31.3" height="31.3"/>
		<rect x="187.5" y="312.5" class="st8" width="31.3" height="31.3"/>
		<rect x="156.3" y="250" class="st8" width="31.3" height="31.3"/>
		<rect x="187.5" y="187.5" class="st8" width="31.3" height="31.3"/>
		<rect x="218.8" y="187.5" class="st8" width="31.3" height="31.3"/>
		<rect x="250" y="218.8" class="st8" width="31.3" height="31.3"/>
		<rect x="250" y="187.5" class="st8" width="31.3" height="31.3"/>
		<rect x="281.3" y="218.8" class="st8" width="31.3" height="31.3"/>
		<rect x="218.8" y="250" class="st8" width="31.3" height="31.3"/>
		<rect x="250" y="250" class="st8" width="31.3" height="31.3"/>
		<rect x="218.8" y="218.8" class="st8" width="31.3" height="31.3"/>
		<rect x="281.3" y="281.3" class="st8" width="31.3" height="31.3"/>
		<rect x="250" y="281.3" class="st8" width="31.3" height="31.3"/>
		<rect x="281.3" y="250" class="st8" width="31.3" height="31.3"/>
		<rect x="187.5" y="218.8" class="st8" width="31.3" height="31.3"/>
		<rect x="187.5" y="250" class="st8" width="31.3" height="31.3"/>
		<rect x="187.5" y="281.3" class="st8" width="31.3" height="31.3"/>
		<rect x="218.8" y="281.3" class="st8" width="31.3" height="31.3"/>
		<rect x="343.8" y="156.3" class="st8" width="31.3" height="31.3"/>
		<rect x="218.8" y="343.8" class="st8" width="31.3" height="31.3"/>
		<rect x="187.5" y="343.8" class="st8" width="31.3" height="31.3"/>
		<rect x="250" y="343.8" class="st8" width="31.3" height="31.3"/>
		<rect x="156.3" y="343.8" class="st8" width="31.3" height="31.3"/>
		<rect x="125" y="312.5" class="st8" width="31.3" height="31.3"/>
		<rect x="125" y="343.8" class="st8" width="31.3" height="31.3"/>
		<rect x="281.3" y="343.8" class="st8" width="31.3" height="31.3"/>
		<rect x="343.8" y="312.5" class="st8" width="31.3" height="31.3"/>
		<rect x="343.8" y="250" class="st8" width="31.3" height="31.3"/>
		<rect x="343.8" y="218.8" class="st8" width="31.3" height="31.3"/>
		<rect x="312.5" y="343.8" class="st8" width="31.3" height="31.3"/>
		<rect x="343.8" y="187.5" class="st8" width="31.3" height="31.3"/>
		<rect x="343.8" y="343.8" class="st8" width="31.3" height="31.3"/>
		<rect x="125" y="281.3" class="st8" width="31.3" height="31.3"/>
		<rect x="343.8" y="281.3" class="st8" width="31.3" height="31.3"/>
		<rect x="312.5" y="218.8" class="st8" width="31.3" height="31.3"/>
		<rect x="125" y="250" class="st8" width="31.3" height="31.3"/>
		<rect x="281.3" y="125" class="st8" width="31.3" height="31.3"/>
		<rect x="312.5" y="156.3" class="st8" width="31.3" height="31.3"/>
		<rect x="312.5" y="187.5" class="st8" width="31.3" height="31.3"/>
		<rect x="312.5" y="250" class="st8" width="31.3" height="31.3"/>
		<rect x="312.5" y="281.3" class="st8" width="31.3" height="31.3"/>
		<rect x="250" y="125" class="st8" width="31.3" height="31.3"/>
		<rect x="312.5" y="125" class="st8" width="31.3" height="31.3"/>
		<rect x="125" y="187.5" class="st8" width="31.3" height="31.3"/>
		<rect x="125" y="218.8" class="st8" width="31.3" height="31.3"/>
		<rect x="125" y="156.3" class="st8" width="31.3" height="31.3"/>
		<rect x="156.3" y="125" class="st8" width="31.3" height="31.3"/>
		<rect x="187.5" y="125" class="st8" width="31.3" height="31.3"/>
		<rect x="125" y="125" class="st8" width="31.3" height="31.3"/>
		<rect x="218.8" y="125" class="st8" width="31.3" height="31.3"/>
		<rect x="343.8" y="62.5" class="st8" width="31.3" height="31.3"/>
		<rect y="93.8" class="st8" width="31.3" height="31.3"/>
		<rect y="125" class="st8" width="31.3" height="31.3"/>
		<rect y="62.5" class="st8" width="31.3" height="31.3"/>
		<rect y="156.3" class="st8" width="31.3" height="31.3"/>
		<rect class="st8" width="31.3" height="31.3"/>
		<rect x="31.3" class="st8" width="31.3" height="31.3"/>
		<rect y="187.5" class="st8" width="31.3" height="31.3"/>
		<rect y="31.3" class="st8" width="31.3" height="31.3"/>
		<rect y="343.8" class="st8" width="31.3" height="31.3"/>
		<rect x="62.5" class="st8" width="31.3" height="31.3"/>
		<rect y="375" class="st8" width="31.3" height="31.3"/>
		<rect y="218.8" class="st8" width="31.3" height="31.3"/>
		<rect y="406.3" class="st8" width="31.3" height="31.3"/>
		<rect y="250" class="st8" width="31.3" height="31.3"/>
		<rect y="312.5" class="st8" width="31.3" height="31.3"/>
		<rect y="281.3" class="st8" width="31.3" height="31.3"/>
		<rect x="312.5" class="st8" width="31.3" height="31.3"/>
		<rect x="406.3" class="st8" width="31.3" height="31.3"/>
		<rect x="375" class="st8" width="31.3" height="31.3"/>
		<rect x="437.5" class="st8" width="31.3" height="31.3"/>
		<rect x="437.5" y="31.3" class="st8" width="31.3" height="31.3"/>
		<rect x="437.5" y="93.8" class="st8" width="31.3" height="31.3"/>
		<rect x="437.5" y="62.5" class="st8" width="31.3" height="31.3"/>
		<rect x="93.8" class="st8" width="31.3" height="31.3"/>
		<rect x="343.8" class="st8" width="31.3" height="31.3"/>
		<rect x="156.3" class="st8" width="31.3" height="31.3"/>
		<rect x="125" class="st8" width="31.3" height="31.3"/>
		<rect x="437.5" y="125" class="st8" width="31.3" height="31.3"/>
		<rect x="281.3" class="st8" width="31.3" height="31.3"/>
		<rect x="218.8" class="st8" width="31.3" height="31.3"/>
		<rect y="437.5" class="st8" width="31.3" height="31.3"/>
		<rect x="250" class="st8" width="31.3" height="31.3"/>
		<rect x="187.5" class="st8" width="31.3" height="31.3"/>
		<rect x="468.8" y="281.3" class="st8" width="31.3" height="31.3"/>
		<rect x="468.8" y="312.5" class="st8" width="31.3" height="31.3"/>
		<rect x="468.8" y="250" class="st8" width="31.3" height="31.3"/>
		<rect x="468.8" y="375" class="st8" width="31.3" height="31.3"/>
		<rect x="468.8" y="406.3" class="st8" width="31.3" height="31.3"/>
		<rect x="468.8" y="218.8" class="st8" width="31.3" height="31.3"/>
		<rect x="468.8" y="343.8" class="st8" width="31.3" height="31.3"/>
		<rect x="468.8" y="437.5" class="st8" width="31.3" height="31.3"/>
		<rect x="468.8" y="62.5" class="st8" width="31.3" height="31.3"/>
		<rect x="468.8" y="31.3" class="st8" width="31.3" height="31.3"/>
		<rect x="468.8" class="st8" width="31.3" height="31.3"/>
		<rect x="468.8" y="125" class="st8" width="31.3" height="31.3"/>
		<rect x="468.8" y="156.3" class="st8" width="31.3" height="31.3"/>
		<rect x="468.8" y="93.8" class="st8" width="31.3" height="31.3"/>
		<rect x="468.8" y="187.5" class="st8" width="31.3" height="31.3"/>
		<rect x="343.8" y="468.8" class="st8" width="31.3" height="31.3"/>
		<rect x="218.8" y="468.8" class="st8" width="31.3" height="31.3"/>
		<rect x="125" y="468.8" class="st8" width="31.3" height="31.3"/>
		<rect x="468.8" y="468.8" class="st8" width="31.3" height="31.3"/>
		<rect x="156.3" y="468.8" class="st8" width="31.3" height="31.3"/>
		<rect x="93.8" y="468.8" class="st8" width="31.3" height="31.3"/>
		<rect x="31.3" y="468.8" class="st8" width="31.3" height="31.3"/>
		<rect x="62.5" y="468.8" class="st8" width="31.3" height="31.3"/>
		<rect x="187.5" y="468.8" class="st8" width="31.3" height="31.3"/>
		<rect x="406.3" y="468.8" class="st8" width="31.3" height="31.3"/>
		<rect x="250" y="468.8" class="st8" width="31.3" height="31.3"/>
		<rect x="437.5" y="468.8" class="st8" width="31.3" height="31.3"/>
		<rect x="375" y="468.8" class="st8" width="31.3" height="31.3"/>
		<rect x="281.3" y="468.8" class="st8" width="31.3" height="31.3"/>
		<rect x="312.5" y="468.8" class="st8" width="31.3" height="31.3"/>
		<rect y="468.8" class="st8" width="31.3" height="31.3"/>
		<rect x="187.5" y="31.3" class="st8" width="31.3" height="31.3"/>
		<rect x="281.3" y="31.3" class="st8" width="31.3" height="31.3"/>
		<rect x="250" y="31.3" class="st8" width="31.3" height="31.3"/>
		<rect x="218.8" y="31.3" class="st8" width="31.3" height="31.3"/>
		<rect x="343.8" y="31.3" class="st8" width="31.3" height="31.3"/>
		<rect x="375" y="31.3" class="st8" width="31.3" height="31.3"/>
		<rect x="312.5" y="31.3" class="st8" width="31.3" height="31.3"/>
		<rect x="281.3" y="406.3" class="st8" width="31.3" height="31.3"/>
		<rect x="31.3" y="31.3" class="st8" width="31.3" height="31.3"/>
		<rect x="406.3" y="31.3" class="st8" width="31.3" height="31.3"/>
		<rect x="156.3" y="31.3" class="st8" width="31.3" height="31.3"/>
		<rect x="31.3" y="93.8" class="st8" width="31.3" height="31.3"/>
		<rect x="31.3" y="62.5" class="st8" width="31.3" height="31.3"/>
		<rect x="62.5" y="31.3" class="st8" width="31.3" height="31.3"/>
		<rect x="125" y="31.3" class="st8" width="31.3" height="31.3"/>
		<rect x="93.8" y="31.3" class="st8" width="31.3" height="31.3"/>
		<rect x="312.5" y="406.3" class="st8" width="31.3" height="31.3"/>
		<rect x="406.3" y="312.5" class="st8" width="31.3" height="31.3"/>
		<rect x="406.3" y="343.8" class="st8" width="31.3" height="31.3"/>
		<rect x="406.3" y="406.3" class="st8" width="31.3" height="31.3"/>
		<rect x="406.3" y="62.5" class="st8" width="31.3" height="31.3"/>
		<rect x="31.3" y="125" class="st8" width="31.3" height="31.3"/>
		<rect x="343.8" y="406.3" class="st8" width="31.3" height="31.3"/>
		<rect x="375" y="406.3" class="st8" width="31.3" height="31.3"/>
		<rect x="406.3" y="375" class="st8" width="31.3" height="31.3"/>
		<rect x="406.3" y="156.3" class="st8" width="31.3" height="31.3"/>
		<rect x="406.3" y="125" class="st8" width="31.3" height="31.3"/>
		<rect x="406.3" y="93.8" class="st8" width="31.3" height="31.3"/>
		<rect x="406.3" y="281.3" class="st8" width="31.3" height="31.3"/>
		<rect x="406.3" y="250" class="st8" width="31.3" height="31.3"/>
		<rect x="406.3" y="187.5" class="st8" width="31.3" height="31.3"/>
		<rect x="406.3" y="218.8" class="st8" width="31.3" height="31.3"/>
		<rect x="437.5" y="187.5" class="st8" width="31.3" height="31.3"/>
		<rect x="31.3" y="156.3" class="st8" width="31.3" height="31.3"/>
		<rect x="375" y="437.5" class="st8" width="31.3" height="31.3"/>
		<rect x="250" y="437.5" class="st8" width="31.3" height="31.3"/>
		<rect x="437.5" y="406.3" class="st8" width="31.3" height="31.3"/>
		<rect x="281.3" y="437.5" class="st8" width="31.3" height="31.3"/>
		<rect x="312.5" y="437.5" class="st8" width="31.3" height="31.3"/>
		<rect x="343.8" y="437.5" class="st8" width="31.3" height="31.3"/>
		<rect x="437.5" y="437.5" class="st8" width="31.3" height="31.3"/>
		<rect x="437.5" y="218.8" class="st8" width="31.3" height="31.3"/>
		<rect x="437.5" y="156.3" class="st8" width="31.3" height="31.3"/>
		<rect x="437.5" y="250" class="st8" width="31.3" height="31.3"/>
		<rect x="437.5" y="375" class="st8" width="31.3" height="31.3"/>
		<rect x="437.5" y="343.8" class="st8" width="31.3" height="31.3"/>
		<rect x="437.5" y="312.5" class="st8" width="31.3" height="31.3"/>
		<rect x="437.5" y="281.3" class="st8" width="31.3" height="31.3"/>
		<rect x="406.3" y="437.5" class="st8" width="31.3" height="31.3"/>
		<rect x="31.3" y="312.5" class="st8" width="31.3" height="31.3"/>
		<rect x="31.3" y="343.8" class="st8" width="31.3" height="31.3"/>
		<rect x="31.3" y="281.3" class="st8" width="31.3" height="31.3"/>
		<rect x="31.3" y="218.8" class="st8" width="31.3" height="31.3"/>
		<rect x="31.3" y="187.5" class="st8" width="31.3" height="31.3"/>
		<rect x="31.3" y="375" class="st8" width="31.3" height="31.3"/>
		<rect x="31.3" y="250" class="st8" width="31.3" height="31.3"/>
		<rect x="187.5" y="437.5" class="st8" width="31.3" height="31.3"/>
		<rect x="125" y="437.5" class="st8" width="31.3" height="31.3"/>
		<rect x="156.3" y="437.5" class="st8" width="31.3" height="31.3"/>
		<rect x="218.8" y="437.5" class="st8" width="31.3" height="31.3"/>
		<rect x="93.8" y="437.5" class="st8" width="31.3" height="31.3"/>
		<rect x="31.3" y="406.3" class="st8" width="31.3" height="31.3"/>
		<rect x="31.3" y="437.5" class="st8" width="31.3" height="31.3"/>
		<rect x="62.5" y="437.5" class="st8" width="31.3" height="31.3"/>
	</g>
	<g class="st7">
		<rect class="st9" width="500" height="500"/>
		<rect class="st9" width="62.5" height="62.5"/>
		<rect x="437.5" class="st9" width="62.5" height="62.5"/>
		<rect y="437.5" class="st9" width="62.5" height="62.5"/>
		<rect x="437.5" y="437.5" class="st9" width="62.5" height="62.5"/>
		<rect x="62.5" y="62.5" class="st9" width="187.5" height="187.5"/>
		<rect x="250" y="62.5" class="st9" width="187.5" height="187.5"/>
		<rect x="62.5" y="250" class="st9" width="187.5" height="187.5"/>
		<rect x="250" y="250" class="st9" width="187.5" height="187.5"/>
		<line class="st9" x1="0" y1="0" x2="500" y2="500"/>
		<line class="st9" x1="500" y1="0" x2="0" y2="500"/>
		<circle class="st9" cx="250" cy="250" r="187.5"/>
		<circle class="st9" cx="250" cy="250" r="250"/>
	</g>
	<rect x="62.5" class="st10" width="375" height="500"/>
	<line class="st10" x1="343.8" y1="0" x2="437.5" y2="93.8"/>
</g>
</svg>
