<?xml version="1.0" encoding="utf-8"?>
<!-- Generator: Adobe Illustrator 22.1.0, SVG Export Plug-In . SVG Version: 6.00 Build 0)  -->
<svg version="1.1" id="Layer_1" xmlns="http://www.w3.org/2000/svg" xmlns:xlink="http://www.w3.org/1999/xlink" x="0px" y="0px"
	 viewBox="0 0 500 500" style="enable-background:new 0 0 500 500;" xml:space="preserve">
<style type="text/css">
	.st0{display:none;}
	.st1{fill:none;stroke:#FFFFFF;stroke-width:10;stroke-miterlimit:10;}
	.st2{display:inline;}
	.st3{fill:none;stroke:#EDEDED;stroke-width:0.5;stroke-miterlimit:10;}
	.st4{fill:none;stroke:#BDBDBD;stroke-miterlimit:10;}
	.st5{display:inline;fill:none;stroke:#BDBDBD;stroke-miterlimit:10;}
	.st6{fill:none;stroke:#FF6600;stroke-width:10;stroke-miterlimit:10;}
	.st7{fill:#FFFFFF;}
	.st8{fill:#FF6600;}
</style>
<g id="Layer_7" class="st0">
</g>
<g id="Layer_6">
</g>
<path class="st1" d="M558,109.5"/>
<path class="st1" d="M-18,109.5"/>
<g id="Layer_1_1_" class="st0">
	<g class="st2">
		<rect x="250" y="375" class="st3" width="31.3" height="31.3"/>
		<rect x="156.3" y="375" class="st3" width="31.3" height="31.3"/>
		<rect x="218.8" y="375" class="st3" width="31.3" height="31.3"/>
		<rect x="187.5" y="375" class="st3" width="31.3" height="31.3"/>
		<rect x="93.8" y="343.8" class="st3" width="31.3" height="31.3"/>
		<rect x="93.8" y="375" class="st3" width="31.3" height="31.3"/>
		<rect x="125" y="375" class="st3" width="31.3" height="31.3"/>
		<rect x="281.3" y="375" class="st3" width="31.3" height="31.3"/>
		<rect x="375" y="312.5" class="st3" width="31.3" height="31.3"/>
		<rect x="93.8" y="312.5" class="st3" width="31.3" height="31.3"/>
		<rect x="375" y="343.8" class="st3" width="31.3" height="31.3"/>
		<rect x="375" y="281.3" class="st3" width="31.3" height="31.3"/>
		<rect x="312.5" y="375" class="st3" width="31.3" height="31.3"/>
		<rect x="375" y="375" class="st3" width="31.3" height="31.3"/>
		<rect x="375" y="250" class="st3" width="31.3" height="31.3"/>
		<rect x="343.8" y="375" class="st3" width="31.3" height="31.3"/>
		<rect x="250" y="93.8" class="st3" width="31.3" height="31.3"/>
		<rect x="218.8" y="93.8" class="st3" width="31.3" height="31.3"/>
		<rect x="187.5" y="93.8" class="st3" width="31.3" height="31.3"/>
		<rect x="312.5" y="93.8" class="st3" width="31.3" height="31.3"/>
		<rect x="343.8" y="93.8" class="st3" width="31.3" height="31.3"/>
		<rect x="156.3" y="93.8" class="st3" width="31.3" height="31.3"/>
		<rect x="281.3" y="93.8" class="st3" width="31.3" height="31.3"/>
		<rect x="93.8" y="156.3" class="st3" width="31.3" height="31.3"/>
		<rect x="93.8" y="187.5" class="st3" width="31.3" height="31.3"/>
		<rect x="93.8" y="218.8" class="st3" width="31.3" height="31.3"/>
		<rect x="93.8" y="250" class="st3" width="31.3" height="31.3"/>
		<rect x="93.8" y="281.3" class="st3" width="31.3" height="31.3"/>
		<rect x="125" y="93.8" class="st3" width="31.3" height="31.3"/>
		<rect x="93.8" y="93.8" class="st3" width="31.3" height="31.3"/>
		<rect x="93.8" y="125" class="st3" width="31.3" height="31.3"/>
		<rect x="375" y="125" class="st3" width="31.3" height="31.3"/>
		<rect x="62.5" y="281.3" class="st3" width="31.3" height="31.3"/>
		<rect x="62.5" y="312.5" class="st3" width="31.3" height="31.3"/>
		<rect x="62.5" y="156.3" class="st3" width="31.3" height="31.3"/>
		<rect x="62.5" y="125" class="st3" width="31.3" height="31.3"/>
		<rect x="62.5" y="187.5" class="st3" width="31.3" height="31.3"/>
		<rect x="62.5" y="218.8" class="st3" width="31.3" height="31.3"/>
		<rect x="62.5" y="343.8" class="st3" width="31.3" height="31.3"/>
		<rect x="187.5" y="406.3" class="st3" width="31.3" height="31.3"/>
		<rect x="218.8" y="406.3" class="st3" width="31.3" height="31.3"/>
		<rect x="156.3" y="406.3" class="st3" width="31.3" height="31.3"/>
		<rect x="125" y="406.3" class="st3" width="31.3" height="31.3"/>
		<rect x="62.5" y="406.3" class="st3" width="31.3" height="31.3"/>
		<rect x="93.8" y="406.3" class="st3" width="31.3" height="31.3"/>
		<rect x="62.5" y="375" class="st3" width="31.3" height="31.3"/>
		<rect x="62.5" y="93.8" class="st3" width="31.3" height="31.3"/>
		<rect x="375" y="62.5" class="st3" width="31.3" height="31.3"/>
		<rect x="312.5" y="62.5" class="st3" width="31.3" height="31.3"/>
		<rect x="281.3" y="62.5" class="st3" width="31.3" height="31.3"/>
		<rect x="375" y="93.8" class="st3" width="31.3" height="31.3"/>
		<rect x="343.8" y="125" class="st3" width="31.3" height="31.3"/>
		<rect x="375" y="187.5" class="st3" width="31.3" height="31.3"/>
		<rect x="375" y="156.3" class="st3" width="31.3" height="31.3"/>
		<rect x="62.5" y="62.5" class="st3" width="31.3" height="31.3"/>
		<rect x="93.8" y="62.5" class="st3" width="31.3" height="31.3"/>
		<rect x="375" y="218.8" class="st3" width="31.3" height="31.3"/>
		<rect x="125" y="62.5" class="st3" width="31.3" height="31.3"/>
		<rect x="250" y="62.5" class="st3" width="31.3" height="31.3"/>
		<rect x="218.8" y="62.5" class="st3" width="31.3" height="31.3"/>
		<rect x="187.5" y="62.5" class="st3" width="31.3" height="31.3"/>
		<rect x="156.3" y="62.5" class="st3" width="31.3" height="31.3"/>
		<rect x="281.3" y="156.3" class="st3" width="31.3" height="31.3"/>
		<rect x="156.3" y="156.3" class="st3" width="31.3" height="31.3"/>
		<rect x="156.3" y="218.8" class="st3" width="31.3" height="31.3"/>
		<rect x="156.3" y="187.5" class="st3" width="31.3" height="31.3"/>
		<rect x="187.5" y="156.3" class="st3" width="31.3" height="31.3"/>
		<rect x="250" y="406.3" class="st3" width="31.3" height="31.3"/>
		<rect x="250" y="156.3" class="st3" width="31.3" height="31.3"/>
		<rect x="281.3" y="187.5" class="st3" width="31.3" height="31.3"/>
		<rect x="218.8" y="156.3" class="st3" width="31.3" height="31.3"/>
		<rect x="250" y="312.5" class="st3" width="31.3" height="31.3"/>
		<rect x="312.5" y="312.5" class="st3" width="31.3" height="31.3"/>
		<rect x="281.3" y="312.5" class="st3" width="31.3" height="31.3"/>
		<rect x="218.8" y="312.5" class="st3" width="31.3" height="31.3"/>
		<rect x="156.3" y="281.3" class="st3" width="31.3" height="31.3"/>
		<rect x="156.3" y="312.5" class="st3" width="31.3" height="31.3"/>
		<rect x="187.5" y="312.5" class="st3" width="31.3" height="31.3"/>
		<rect x="156.3" y="250" class="st3" width="31.3" height="31.3"/>
		<rect x="187.5" y="187.5" class="st3" width="31.3" height="31.3"/>
		<rect x="218.8" y="187.5" class="st3" width="31.3" height="31.3"/>
		<rect x="250" y="218.8" class="st3" width="31.3" height="31.3"/>
		<rect x="250" y="187.5" class="st3" width="31.3" height="31.3"/>
		<rect x="281.3" y="218.8" class="st3" width="31.3" height="31.3"/>
		<rect x="218.8" y="250" class="st3" width="31.3" height="31.3"/>
		<rect x="250" y="250" class="st3" width="31.3" height="31.3"/>
		<rect x="218.8" y="218.8" class="st3" width="31.3" height="31.3"/>
		<rect x="281.3" y="281.3" class="st3" width="31.3" height="31.3"/>
		<rect x="250" y="281.3" class="st3" width="31.3" height="31.3"/>
		<rect x="281.3" y="250" class="st3" width="31.3" height="31.3"/>
		<rect x="187.5" y="218.8" class="st3" width="31.3" height="31.3"/>
		<rect x="187.5" y="250" class="st3" width="31.3" height="31.3"/>
		<rect x="187.5" y="281.3" class="st3" width="31.3" height="31.3"/>
		<rect x="218.8" y="281.3" class="st3" width="31.3" height="31.3"/>
		<rect x="343.8" y="156.3" class="st3" width="31.3" height="31.3"/>
		<rect x="218.8" y="343.8" class="st3" width="31.3" height="31.3"/>
		<rect x="187.5" y="343.8" class="st3" width="31.3" height="31.3"/>
		<rect x="250" y="343.8" class="st3" width="31.3" height="31.3"/>
		<rect x="156.3" y="343.8" class="st3" width="31.3" height="31.3"/>
		<rect x="125" y="312.5" class="st3" width="31.3" height="31.3"/>
		<rect x="125" y="343.8" class="st3" width="31.3" height="31.3"/>
		<rect x="281.3" y="343.8" class="st3" width="31.3" height="31.3"/>
		<rect x="343.8" y="312.5" class="st3" width="31.3" height="31.3"/>
		<rect x="343.8" y="250" class="st3" width="31.3" height="31.3"/>
		<rect x="343.8" y="218.8" class="st3" width="31.3" height="31.3"/>
		<rect x="312.5" y="343.8" class="st3" width="31.3" height="31.3"/>
		<rect x="343.8" y="187.5" class="st3" width="31.3" height="31.3"/>
		<rect x="343.8" y="343.8" class="st3" width="31.3" height="31.3"/>
		<rect x="125" y="281.3" class="st3" width="31.3" height="31.3"/>
		<rect x="343.8" y="281.3" class="st3" width="31.3" height="31.3"/>
		<rect x="312.5" y="218.8" class="st3" width="31.3" height="31.3"/>
		<rect x="125" y="250" class="st3" width="31.3" height="31.3"/>
		<rect x="281.3" y="125" class="st3" width="31.3" height="31.3"/>
		<rect x="312.5" y="156.3" class="st3" width="31.3" height="31.3"/>
		<rect x="312.5" y="187.5" class="st3" width="31.3" height="31.3"/>
		<rect x="312.5" y="250" class="st3" width="31.3" height="31.3"/>
		<rect x="312.5" y="281.3" class="st3" width="31.3" height="31.3"/>
		<rect x="250" y="125" class="st3" width="31.3" height="31.3"/>
		<rect x="312.5" y="125" class="st3" width="31.3" height="31.3"/>
		<rect x="125" y="187.5" class="st3" width="31.3" height="31.3"/>
		<rect x="125" y="218.8" class="st3" width="31.3" height="31.3"/>
		<rect x="125" y="156.3" class="st3" width="31.3" height="31.3"/>
		<rect x="156.3" y="125" class="st3" width="31.3" height="31.3"/>
		<rect x="187.5" y="125" class="st3" width="31.3" height="31.3"/>
		<rect x="125" y="125" class="st3" width="31.3" height="31.3"/>
		<rect x="218.8" y="125" class="st3" width="31.3" height="31.3"/>
		<rect x="343.8" y="62.5" class="st3" width="31.3" height="31.3"/>
		<rect y="93.8" class="st3" width="31.3" height="31.3"/>
		<rect y="125" class="st3" width="31.3" height="31.3"/>
		<rect y="62.5" class="st3" width="31.3" height="31.3"/>
		<rect y="156.3" class="st3" width="31.3" height="31.3"/>
		<rect class="st3" width="31.3" height="31.3"/>
		<rect x="31.3" class="st3" width="31.3" height="31.3"/>
		<rect y="187.5" class="st3" width="31.3" height="31.3"/>
		<rect y="31.3" class="st3" width="31.3" height="31.3"/>
		<rect y="343.8" class="st3" width="31.3" height="31.3"/>
		<rect x="62.5" class="st3" width="31.3" height="31.3"/>
		<rect y="375" class="st3" width="31.3" height="31.3"/>
		<rect y="218.8" class="st3" width="31.3" height="31.3"/>
		<rect y="406.3" class="st3" width="31.3" height="31.3"/>
		<rect y="250" class="st3" width="31.3" height="31.3"/>
		<rect y="312.5" class="st3" width="31.3" height="31.3"/>
		<rect y="281.3" class="st3" width="31.3" height="31.3"/>
		<rect x="312.5" class="st3" width="31.3" height="31.3"/>
		<rect x="406.3" class="st3" width="31.3" height="31.3"/>
		<rect x="375" class="st3" width="31.3" height="31.3"/>
		<rect x="437.5" class="st3" width="31.3" height="31.3"/>
		<rect x="437.5" y="31.3" class="st3" width="31.3" height="31.3"/>
		<rect x="437.5" y="93.8" class="st3" width="31.3" height="31.3"/>
		<rect x="437.5" y="62.5" class="st3" width="31.3" height="31.3"/>
		<rect x="93.8" class="st3" width="31.3" height="31.3"/>
		<rect x="343.8" class="st3" width="31.3" height="31.3"/>
		<rect x="156.3" class="st3" width="31.3" height="31.3"/>
		<rect x="125" class="st3" width="31.3" height="31.3"/>
		<rect x="437.5" y="125" class="st3" width="31.3" height="31.3"/>
		<rect x="281.3" class="st3" width="31.3" height="31.3"/>
		<rect x="218.8" class="st3" width="31.3" height="31.3"/>
		<rect y="437.5" class="st3" width="31.3" height="31.3"/>
		<rect x="250" class="st3" width="31.3" height="31.3"/>
		<rect x="187.5" class="st3" width="31.3" height="31.3"/>
		<rect x="468.8" y="281.3" class="st3" width="31.3" height="31.3"/>
		<rect x="468.8" y="312.5" class="st3" width="31.3" height="31.3"/>
		<rect x="468.8" y="250" class="st3" width="31.3" height="31.3"/>
		<rect x="468.8" y="375" class="st3" width="31.3" height="31.3"/>
		<rect x="468.8" y="406.3" class="st3" width="31.3" height="31.3"/>
		<rect x="468.8" y="218.8" class="st3" width="31.3" height="31.3"/>
		<rect x="468.8" y="343.8" class="st3" width="31.3" height="31.3"/>
		<rect x="468.8" y="437.5" class="st3" width="31.3" height="31.3"/>
		<rect x="468.8" y="62.5" class="st3" width="31.3" height="31.3"/>
		<rect x="468.8" y="31.3" class="st3" width="31.3" height="31.3"/>
		<rect x="468.8" class="st3" width="31.3" height="31.3"/>
		<rect x="468.8" y="125" class="st3" width="31.3" height="31.3"/>
		<rect x="468.8" y="156.3" class="st3" width="31.3" height="31.3"/>
		<rect x="468.8" y="93.8" class="st3" width="31.3" height="31.3"/>
		<rect x="468.8" y="187.5" class="st3" width="31.3" height="31.3"/>
		<rect x="343.8" y="468.8" class="st3" width="31.3" height="31.3"/>
		<rect x="218.8" y="468.8" class="st3" width="31.3" height="31.3"/>
		<rect x="125" y="468.8" class="st3" width="31.3" height="31.3"/>
		<rect x="468.8" y="468.8" class="st3" width="31.3" height="31.3"/>
		<rect x="156.3" y="468.8" class="st3" width="31.3" height="31.3"/>
		<rect x="93.8" y="468.8" class="st3" width="31.3" height="31.3"/>
		<rect x="31.3" y="468.8" class="st3" width="31.3" height="31.3"/>
		<rect x="62.5" y="468.8" class="st3" width="31.3" height="31.3"/>
		<rect x="187.5" y="468.8" class="st3" width="31.3" height="31.3"/>
		<rect x="406.3" y="468.8" class="st3" width="31.3" height="31.3"/>
		<rect x="250" y="468.8" class="st3" width="31.3" height="31.3"/>
		<rect x="437.5" y="468.8" class="st3" width="31.3" height="31.3"/>
		<rect x="375" y="468.8" class="st3" width="31.3" height="31.3"/>
		<rect x="281.3" y="468.8" class="st3" width="31.3" height="31.3"/>
		<rect x="312.5" y="468.8" class="st3" width="31.3" height="31.3"/>
		<rect y="468.8" class="st3" width="31.3" height="31.3"/>
		<rect x="187.5" y="31.3" class="st3" width="31.3" height="31.3"/>
		<rect x="281.3" y="31.3" class="st3" width="31.3" height="31.3"/>
		<rect x="250" y="31.3" class="st3" width="31.3" height="31.3"/>
		<rect x="218.8" y="31.3" class="st3" width="31.3" height="31.3"/>
		<rect x="343.8" y="31.3" class="st3" width="31.3" height="31.3"/>
		<rect x="375" y="31.3" class="st3" width="31.3" height="31.3"/>
		<rect x="312.5" y="31.3" class="st3" width="31.3" height="31.3"/>
		<rect x="281.3" y="406.3" class="st3" width="31.3" height="31.3"/>
		<rect x="31.3" y="31.3" class="st3" width="31.3" height="31.3"/>
		<rect x="406.3" y="31.3" class="st3" width="31.3" height="31.3"/>
		<rect x="156.3" y="31.3" class="st3" width="31.3" height="31.3"/>
		<rect x="31.3" y="93.8" class="st3" width="31.3" height="31.3"/>
		<rect x="31.3" y="62.5" class="st3" width="31.3" height="31.3"/>
		<rect x="62.5" y="31.3" class="st3" width="31.3" height="31.3"/>
		<rect x="125" y="31.3" class="st3" width="31.3" height="31.3"/>
		<rect x="93.8" y="31.3" class="st3" width="31.3" height="31.3"/>
		<rect x="312.5" y="406.3" class="st3" width="31.3" height="31.3"/>
		<rect x="406.3" y="312.5" class="st3" width="31.3" height="31.3"/>
		<rect x="406.3" y="343.8" class="st3" width="31.3" height="31.3"/>
		<rect x="406.3" y="406.3" class="st3" width="31.3" height="31.3"/>
		<rect x="406.3" y="62.5" class="st3" width="31.3" height="31.3"/>
		<rect x="31.3" y="125" class="st3" width="31.3" height="31.3"/>
		<rect x="343.8" y="406.3" class="st3" width="31.3" height="31.3"/>
		<rect x="375" y="406.3" class="st3" width="31.3" height="31.3"/>
		<rect x="406.3" y="375" class="st3" width="31.3" height="31.3"/>
		<rect x="406.3" y="156.3" class="st3" width="31.3" height="31.3"/>
		<rect x="406.3" y="125" class="st3" width="31.3" height="31.3"/>
		<rect x="406.3" y="93.8" class="st3" width="31.3" height="31.3"/>
		<rect x="406.3" y="281.3" class="st3" width="31.3" height="31.3"/>
		<rect x="406.3" y="250" class="st3" width="31.3" height="31.3"/>
		<rect x="406.3" y="187.5" class="st3" width="31.3" height="31.3"/>
		<rect x="406.3" y="218.8" class="st3" width="31.3" height="31.3"/>
		<rect x="437.5" y="187.5" class="st3" width="31.3" height="31.3"/>
		<rect x="31.3" y="156.3" class="st3" width="31.3" height="31.3"/>
		<rect x="375" y="437.5" class="st3" width="31.3" height="31.3"/>
		<rect x="250" y="437.5" class="st3" width="31.3" height="31.3"/>
		<rect x="437.5" y="406.3" class="st3" width="31.3" height="31.3"/>
		<rect x="281.3" y="437.5" class="st3" width="31.3" height="31.3"/>
		<rect x="312.5" y="437.5" class="st3" width="31.3" height="31.3"/>
		<rect x="343.8" y="437.5" class="st3" width="31.3" height="31.3"/>
		<rect x="437.5" y="437.5" class="st3" width="31.3" height="31.3"/>
		<rect x="437.5" y="218.8" class="st3" width="31.3" height="31.3"/>
		<rect x="437.5" y="156.3" class="st3" width="31.3" height="31.3"/>
		<rect x="437.5" y="250" class="st3" width="31.3" height="31.3"/>
		<rect x="437.5" y="375" class="st3" width="31.3" height="31.3"/>
		<rect x="437.5" y="343.8" class="st3" width="31.3" height="31.3"/>
		<rect x="437.5" y="312.5" class="st3" width="31.3" height="31.3"/>
		<rect x="437.5" y="281.3" class="st3" width="31.3" height="31.3"/>
		<rect x="406.3" y="437.5" class="st3" width="31.3" height="31.3"/>
		<rect x="31.3" y="312.5" class="st3" width="31.3" height="31.3"/>
		<rect x="31.3" y="343.8" class="st3" width="31.3" height="31.3"/>
		<rect x="31.3" y="281.3" class="st3" width="31.3" height="31.3"/>
		<rect x="31.3" y="218.8" class="st3" width="31.3" height="31.3"/>
		<rect x="31.3" y="187.5" class="st3" width="31.3" height="31.3"/>
		<rect x="31.3" y="375" class="st3" width="31.3" height="31.3"/>
		<rect x="31.3" y="250" class="st3" width="31.3" height="31.3"/>
		<rect x="187.5" y="437.5" class="st3" width="31.3" height="31.3"/>
		<rect x="125" y="437.5" class="st3" width="31.3" height="31.3"/>
		<rect x="156.3" y="437.5" class="st3" width="31.3" height="31.3"/>
		<rect x="218.8" y="437.5" class="st3" width="31.3" height="31.3"/>
		<rect x="93.8" y="437.5" class="st3" width="31.3" height="31.3"/>
		<rect x="31.3" y="406.3" class="st3" width="31.3" height="31.3"/>
		<rect x="31.3" y="437.5" class="st3" width="31.3" height="31.3"/>
		<rect x="62.5" y="437.5" class="st3" width="31.3" height="31.3"/>
	</g>
	<g class="st2">
		<rect class="st4" width="500" height="500"/>
		<rect class="st4" width="62.5" height="62.5"/>
		<rect x="437.5" class="st4" width="62.5" height="62.5"/>
		<rect y="437.5" class="st4" width="62.5" height="62.5"/>
		<rect x="437.5" y="437.5" class="st4" width="62.5" height="62.5"/>
		<rect x="62.5" y="62.5" class="st4" width="187.5" height="187.5"/>
		<rect x="250" y="62.5" class="st4" width="187.5" height="187.5"/>
		<rect x="62.5" y="250" class="st4" width="187.5" height="187.5"/>
		<rect x="250" y="250" class="st4" width="187.5" height="187.5"/>
		<line class="st4" x1="0" y1="0" x2="500" y2="500"/>
		<line class="st4" x1="500" y1="0" x2="0" y2="500"/>
		<circle class="st4" cx="250" cy="250" r="187.5"/>
		<circle class="st4" cx="250" cy="250" r="250"/>
	</g>
	<rect x="62.5" class="st5" width="375" height="500"/>
	<line class="st5" x1="343.8" y1="0" x2="437.5" y2="93.8"/>
</g>
<path class="st6" d="M448,400"/>
<path class="st6" d="M45,400"/>
<path class="st6" d="M450.5,302"/>
<path class="st6" d="M47.5,302"/>
<rect x="156.5" y="156.5" transform="matrix(0.708 -0.7062 0.7062 0.708 -103.5531 249.5371)" class="st7" width="187" height="187"/>
<path class="st8" d="M448.3,184l-66.2,66L250,117.6l66.2-66c36.6-36.5,95.8-36.4,132.2,0.2l0,0C484.9,88.3,484.8,147.5,448.3,184z"
	/>
<path class="st8" d="M250,382.4l-66.2,66c-36.6,36.5-95.8,36.4-132.2-0.2l0,0c-36.5-36.6-36.4-95.8,0.2-132.2l66.2-66L250,382.4z"/>
<path class="st8" d="M284.1,241.6l22-22c4.7-4.7,12.2-4.7,16.9,0l22,22c4.7,4.7,4.7,12.2,0,16.9l-22,22c-4.7,4.7-12.2,4.7-16.9,0
	l-22-22C279.4,253.8,279.4,246.2,284.1,241.6z"/>
<path class="st8" d="M222.6,303.1l22-22c4.7-4.7,12.2-4.7,16.9,0l22,22c4.7,4.7,4.7,12.2,0,16.9l-22,22c-4.7,4.7-12.2,4.7-16.9,0
	l-22-22C217.9,315.3,217.9,307.7,222.6,303.1z"/>
<path class="st8" d="M161.1,241.6l22-22c4.7-4.7,12.2-4.7,16.9,0l22,22c4.7,4.7,4.7,12.2,0,16.9l-22,22c-4.7,4.7-12.2,4.7-16.9,0
	l-22-22C156.4,253.8,156.4,246.2,161.1,241.6z"/>
<path class="st8" d="M222.6,180.1l22-22c4.7-4.7,12.2-4.7,16.9,0l22,22c4.7,4.7,4.7,12.2,0,16.9l-22,22c-4.7,4.7-12.2,4.7-16.9,0
	l-22-22C217.9,192.3,217.9,184.7,222.6,180.1z"/>
</svg>
