<?xml version="1.0" encoding="utf-8"?>
<!-- Generator: Adobe Illustrator 23.1.0, SVG Export Plug-In . SVG Version: 6.00 Build 0)  -->
<svg version="1.1" id="Layer_1" xmlns="http://www.w3.org/2000/svg" xmlns:xlink="http://www.w3.org/1999/xlink" x="0px" y="0px"
	 viewBox="0 0 500 500" style="enable-background:new 0 0 500 500;" xml:space="preserve">
<style type="text/css">
	.st0{display:none;}
	.st1{display:inline;}
	.st2{display:none;opacity:0.5;fill:url(#SVGID_1_);enable-background:new    ;}
	.st3{display:inline;fill:#FF6700;}
	.st4{display:inline;opacity:0.5;fill:url(#SVGID_2_);enable-background:new    ;}
	.st5{display:inline;fill:#007F7F;}
	.st6{fill:none;stroke:#EDEDED;stroke-width:0.5;stroke-miterlimit:10;}
	.st7{fill:none;stroke:#BDBDBD;stroke-miterlimit:10;}
	.st8{fill:#FFFFFF;}
</style>
<rect width="500" height="500"/>
<g class="st0">
	<g id="Layer_4" class="st1">
		<g id="Layer_3">
			
				<linearGradient id="SVGID_1_" gradientUnits="userSpaceOnUse" x1="498.4644" y1="959.581" x2="151.416" y2="759.2126" gradientTransform="matrix(1 0 0 1 0 -580)">
				<stop  offset="0" style="stop-color:#FF6600"/>
				<stop  offset="1" style="stop-color:#231F20"/>
			</linearGradient>
			<path class="st2" d="M218.8,62.5H250L343.8,196l62.5-10l32.1,60v185c0,49.6,7.5,69-32.1,69V186l-70.3,1.5l-86-1.5"/>
			<g id="Layer_5_1_" class="st0">
				<path class="st3" d="M250,186V62.5H93.8V500H249l0,0h157.3V186H250z M156.3,312.5H125v-31.3h31.3V312.5z M156.3,250H125v-31.3
					h31.3V250z M156.3,187.5H125v-31.3h31.3V187.5z M156.3,125H125V93.8h31.3V125z M218.8,312.5h-31.3v-31.3h31.3V312.5z M218.8,250
					h-31.3v-31.3h31.3V250z M218.8,187.5h-31.3v-31.3h31.3V187.5z M218.8,125h-31.3V93.8h31.3V125z M312.5,312.5h-31.3v-31.3h31.3
					V312.5z M312.5,250h-31.3v-31.3h31.3V250z M375,312.5h-31.3v-31.3H375V312.5z M375,250h-31.3v-31.3H375V250z"/>
				
					<linearGradient id="SVGID_2_" gradientUnits="userSpaceOnUse" x1="409.7415" y1="1103.6787" x2="86.8025" y2="917.2299" gradientTransform="matrix(1 0 0 1 0 -580)">
					<stop  offset="0" style="stop-color:#FF6600"/>
					<stop  offset="1" style="stop-color:#231F20"/>
				</linearGradient>
				<path class="st4" d="M323.3,436.5l19.5-110.2l95.6,99.1l0,0l-0.3,12.3c0,49.6-5.1,62.3-44.7,62.3H93.8l-31.2-37.8l-39-15.5"/>
				<polyline class="st5" points="10.2,441.7 62.3,463 62.8,446.7 				"/>
			</g>
		</g>
	</g>
	<g id="Layer_2_1_" class="st1">
	</g>
	<g id="Layer_1_1_" class="st1">
		<g>
			<rect x="250" y="375" class="st6" width="31.3" height="31.3"/>
			<rect x="156.3" y="375" class="st6" width="31.3" height="31.3"/>
			<rect x="218.8" y="375" class="st6" width="31.3" height="31.3"/>
			<rect x="187.5" y="375" class="st6" width="31.3" height="31.3"/>
			<rect x="93.8" y="343.8" class="st6" width="31.3" height="31.3"/>
			<rect x="93.8" y="375" class="st6" width="31.3" height="31.3"/>
			<rect x="125" y="375" class="st6" width="31.3" height="31.3"/>
			<rect x="281.3" y="375" class="st6" width="31.3" height="31.3"/>
			<rect x="375" y="312.5" class="st6" width="31.3" height="31.3"/>
			<rect x="93.8" y="312.5" class="st6" width="31.3" height="31.3"/>
			<rect x="375" y="343.8" class="st6" width="31.3" height="31.3"/>
			<rect x="375" y="281.3" class="st6" width="31.3" height="31.3"/>
			<rect x="312.5" y="375" class="st6" width="31.3" height="31.3"/>
			<rect x="375" y="375" class="st6" width="31.3" height="31.3"/>
			<rect x="375" y="250" class="st6" width="31.3" height="31.3"/>
			<rect x="343.8" y="375" class="st6" width="31.3" height="31.3"/>
			<rect x="250" y="93.8" class="st6" width="31.3" height="31.3"/>
			<rect x="218.8" y="93.8" class="st6" width="31.3" height="31.3"/>
			<rect x="187.5" y="93.8" class="st6" width="31.3" height="31.3"/>
			<rect x="312.5" y="93.8" class="st6" width="31.3" height="31.3"/>
			<rect x="343.8" y="93.8" class="st6" width="31.3" height="31.3"/>
			<rect x="156.3" y="93.8" class="st6" width="31.3" height="31.3"/>
			<rect x="281.3" y="93.8" class="st6" width="31.3" height="31.3"/>
			<rect x="93.8" y="156.3" class="st6" width="31.3" height="31.3"/>
			<rect x="93.8" y="187.5" class="st6" width="31.3" height="31.3"/>
			<rect x="93.8" y="218.8" class="st6" width="31.3" height="31.3"/>
			<rect x="93.8" y="250" class="st6" width="31.3" height="31.3"/>
			<rect x="93.8" y="281.3" class="st6" width="31.3" height="31.3"/>
			<rect x="125" y="93.8" class="st6" width="31.3" height="31.3"/>
			<rect x="93.8" y="93.8" class="st6" width="31.3" height="31.3"/>
			<rect x="93.8" y="125" class="st6" width="31.3" height="31.3"/>
			<rect x="375" y="125" class="st6" width="31.3" height="31.3"/>
			<rect x="62.5" y="281.3" class="st6" width="31.3" height="31.3"/>
			<rect x="62.5" y="312.5" class="st6" width="31.3" height="31.3"/>
			<rect x="62.5" y="250" class="st6" width="31.3" height="31.3"/>
			<rect x="62.5" y="156.3" class="st6" width="31.3" height="31.3"/>
			<rect x="62.5" y="125" class="st6" width="31.3" height="31.3"/>
			<rect x="62.5" y="187.5" class="st6" width="31.3" height="31.3"/>
			<rect x="62.5" y="218.8" class="st6" width="31.3" height="31.3"/>
			<rect x="62.5" y="343.8" class="st6" width="31.3" height="31.3"/>
			<rect x="187.5" y="406.3" class="st6" width="31.3" height="31.3"/>
			<rect x="218.8" y="406.3" class="st6" width="31.3" height="31.3"/>
			<polyline class="st6" points="187.5,406.3 156.3,406.3 156.3,437.5 187.5,437.5 			"/>
			<rect x="125" y="406.3" class="st6" width="31.3" height="31.3"/>
			<rect x="62.5" y="406.3" class="st6" width="31.3" height="31.3"/>
			<rect x="93.8" y="406.3" class="st6" width="31.3" height="31.3"/>
			<rect x="62.5" y="375" class="st6" width="31.3" height="31.3"/>
			<rect x="62.5" y="93.8" class="st6" width="31.3" height="31.3"/>
			<rect x="375" y="62.5" class="st6" width="31.3" height="31.3"/>
			<rect x="312.5" y="62.5" class="st6" width="31.3" height="31.3"/>
			<rect x="281.3" y="62.5" class="st6" width="31.3" height="31.3"/>
			<rect x="375" y="93.8" class="st6" width="31.3" height="31.3"/>
			<rect x="343.8" y="125" class="st6" width="31.3" height="31.3"/>
			<rect x="375" y="187.5" class="st6" width="31.3" height="31.3"/>
			<rect x="375" y="156.3" class="st6" width="31.3" height="31.3"/>
			<rect x="62.5" y="62.5" class="st6" width="31.3" height="31.3"/>
			<rect x="93.8" y="62.5" class="st6" width="31.3" height="31.3"/>
			<rect x="375" y="218.8" class="st6" width="31.3" height="31.3"/>
			<rect x="125" y="62.5" class="st6" width="31.3" height="31.3"/>
			<rect x="250" y="62.5" class="st6" width="31.3" height="31.3"/>
			<rect x="218.8" y="62.5" class="st6" width="31.3" height="31.3"/>
			<rect x="187.5" y="62.5" class="st6" width="31.3" height="31.3"/>
			<rect x="156.3" y="62.5" class="st6" width="31.3" height="31.3"/>
			<rect x="281.3" y="156.3" class="st6" width="31.3" height="31.3"/>
			<rect x="156.3" y="156.3" class="st6" width="31.3" height="31.3"/>
			<rect x="156.3" y="218.8" class="st6" width="31.3" height="31.3"/>
			<rect x="156.3" y="187.5" class="st6" width="31.3" height="31.3"/>
			<rect x="187.5" y="156.3" class="st6" width="31.3" height="31.3"/>
			<rect x="250" y="406.3" class="st6" width="31.3" height="31.3"/>
			<rect x="250" y="156.3" class="st6" width="31.3" height="31.3"/>
			<rect x="281.3" y="187.5" class="st6" width="31.3" height="31.3"/>
			<rect x="218.8" y="156.3" class="st6" width="31.3" height="31.3"/>
			<rect x="250" y="312.5" class="st6" width="31.3" height="31.3"/>
			<rect x="312.5" y="312.5" class="st6" width="31.3" height="31.3"/>
			<rect x="281.3" y="312.5" class="st6" width="31.3" height="31.3"/>
			<rect x="218.8" y="312.5" class="st6" width="31.3" height="31.3"/>
			<rect x="156.3" y="281.3" class="st6" width="31.3" height="31.3"/>
			<rect x="156.3" y="312.5" class="st6" width="31.3" height="31.3"/>
			<rect x="187.5" y="312.5" class="st6" width="31.3" height="31.3"/>
			<rect x="156.3" y="250" class="st6" width="31.3" height="31.3"/>
			<rect x="187.5" y="187.5" class="st6" width="31.3" height="31.3"/>
			<rect x="218.8" y="187.5" class="st6" width="31.3" height="31.3"/>
			<rect x="250" y="218.8" class="st6" width="31.3" height="31.3"/>
			<rect x="250" y="187.5" class="st6" width="31.3" height="31.3"/>
			<rect x="281.3" y="218.8" class="st6" width="31.3" height="31.3"/>
			<rect x="218.8" y="250" class="st6" width="31.3" height="31.3"/>
			<rect x="250" y="250" class="st6" width="31.3" height="31.3"/>
			<rect x="218.8" y="218.8" class="st6" width="31.3" height="31.3"/>
			<rect x="281.3" y="281.3" class="st6" width="31.3" height="31.3"/>
			<rect x="250" y="281.3" class="st6" width="31.3" height="31.3"/>
			<rect x="281.3" y="250" class="st6" width="31.3" height="31.3"/>
			<rect x="187.5" y="218.8" class="st6" width="31.3" height="31.3"/>
			<rect x="187.5" y="250" class="st6" width="31.3" height="31.3"/>
			<rect x="187.5" y="281.3" class="st6" width="31.3" height="31.3"/>
			<rect x="218.8" y="281.3" class="st6" width="31.3" height="31.3"/>
			<rect x="343.8" y="156.3" class="st6" width="31.3" height="31.3"/>
			<rect x="218.8" y="343.8" class="st6" width="31.3" height="31.3"/>
			<rect x="187.5" y="343.8" class="st6" width="31.3" height="31.3"/>
			<rect x="250" y="343.8" class="st6" width="31.3" height="31.3"/>
			<rect x="156.3" y="343.8" class="st6" width="31.3" height="31.3"/>
			<rect x="125" y="312.5" class="st6" width="31.3" height="31.3"/>
			<rect x="125" y="343.8" class="st6" width="31.3" height="31.3"/>
			<rect x="281.3" y="343.8" class="st6" width="31.3" height="31.3"/>
			<rect x="343.8" y="312.5" class="st6" width="31.3" height="31.3"/>
			<rect x="343.8" y="250" class="st6" width="31.3" height="31.3"/>
			<rect x="343.8" y="218.8" class="st6" width="31.3" height="31.3"/>
			<rect x="312.5" y="343.8" class="st6" width="31.3" height="31.3"/>
			<rect x="343.8" y="187.5" class="st6" width="31.3" height="31.3"/>
			<rect x="343.8" y="343.8" class="st6" width="31.3" height="31.3"/>
			<rect x="125" y="281.3" class="st6" width="31.3" height="31.3"/>
			<rect x="343.8" y="281.3" class="st6" width="31.3" height="31.3"/>
			<rect x="312.5" y="218.8" class="st6" width="31.3" height="31.3"/>
			<rect x="125" y="250" class="st6" width="31.3" height="31.3"/>
			<rect x="281.3" y="125" class="st6" width="31.3" height="31.3"/>
			<rect x="312.5" y="156.3" class="st6" width="31.3" height="31.3"/>
			<rect x="312.5" y="187.5" class="st6" width="31.3" height="31.3"/>
			<rect x="312.5" y="250" class="st6" width="31.3" height="31.3"/>
			<rect x="312.5" y="281.3" class="st6" width="31.3" height="31.3"/>
			<rect x="250" y="125" class="st6" width="31.3" height="31.3"/>
			<rect x="312.5" y="125" class="st6" width="31.3" height="31.3"/>
			<rect x="125" y="187.5" class="st6" width="31.3" height="31.3"/>
			<rect x="125" y="218.8" class="st6" width="31.3" height="31.3"/>
			<rect x="125" y="156.3" class="st6" width="31.3" height="31.3"/>
			<rect x="156.3" y="125" class="st6" width="31.3" height="31.3"/>
			<rect x="187.5" y="125" class="st6" width="31.3" height="31.3"/>
			<rect x="125" y="125" class="st6" width="31.3" height="31.3"/>
			<rect x="218.8" y="125" class="st6" width="31.3" height="31.3"/>
			<rect x="343.8" y="62.5" class="st6" width="31.3" height="31.3"/>
			<rect y="93.8" class="st6" width="31.3" height="31.3"/>
			<rect y="125" class="st6" width="31.3" height="31.3"/>
			<rect y="62.5" class="st6" width="31.3" height="31.3"/>
			<rect y="156.3" class="st6" width="31.3" height="31.3"/>
			<rect class="st6" width="31.3" height="31.3"/>
			<rect x="31.3" class="st6" width="31.3" height="31.3"/>
			<rect y="187.5" class="st6" width="31.3" height="31.3"/>
			<rect y="31.3" class="st6" width="31.3" height="31.3"/>
			<rect y="343.8" class="st6" width="31.3" height="31.3"/>
			<rect x="62.5" class="st6" width="31.3" height="31.3"/>
			<rect y="375" class="st6" width="31.3" height="31.3"/>
			<rect y="218.8" class="st6" width="31.3" height="31.3"/>
			<rect y="406.3" class="st6" width="31.3" height="31.3"/>
			<rect y="250" class="st6" width="31.3" height="31.3"/>
			<rect y="312.5" class="st6" width="31.3" height="31.3"/>
			<rect y="281.3" class="st6" width="31.3" height="31.3"/>
			<rect x="312.5" class="st6" width="31.3" height="31.3"/>
			<rect x="406.3" class="st6" width="31.3" height="31.3"/>
			<rect x="375" class="st6" width="31.3" height="31.3"/>
			<rect x="437.5" class="st6" width="31.3" height="31.3"/>
			<rect x="437.5" y="31.3" class="st6" width="31.3" height="31.3"/>
			<rect x="437.5" y="93.8" class="st6" width="31.3" height="31.3"/>
			<rect x="437.5" y="62.5" class="st6" width="31.3" height="31.3"/>
			<rect x="93.8" class="st6" width="31.3" height="31.3"/>
			<rect x="343.8" class="st6" width="31.3" height="31.3"/>
			<rect x="156.3" class="st6" width="31.3" height="31.3"/>
			<rect x="125" class="st6" width="31.3" height="31.3"/>
			<rect x="437.5" y="125" class="st6" width="31.3" height="31.3"/>
			<rect x="281.3" class="st6" width="31.3" height="31.3"/>
			<rect x="218.8" class="st6" width="31.3" height="31.3"/>
			<rect y="437.5" class="st6" width="31.3" height="31.3"/>
			<rect x="250" class="st6" width="31.3" height="31.3"/>
			<rect x="187.5" class="st6" width="31.3" height="31.3"/>
			<rect x="468.8" y="281.3" class="st6" width="31.3" height="31.3"/>
			<rect x="468.8" y="312.5" class="st6" width="31.3" height="31.3"/>
			<rect x="468.8" y="250" class="st6" width="31.3" height="31.3"/>
			<rect x="468.8" y="375" class="st6" width="31.3" height="31.3"/>
			<rect x="468.8" y="406.3" class="st6" width="31.3" height="31.3"/>
			<rect x="468.8" y="218.8" class="st6" width="31.3" height="31.3"/>
			<rect x="468.8" y="343.8" class="st6" width="31.3" height="31.3"/>
			<rect x="468.8" y="437.5" class="st6" width="31.3" height="31.3"/>
			<rect x="468.8" y="62.5" class="st6" width="31.3" height="31.3"/>
			<rect x="468.8" y="31.3" class="st6" width="31.3" height="31.3"/>
			<rect x="468.8" class="st6" width="31.3" height="31.3"/>
			<rect x="468.8" y="125" class="st6" width="31.3" height="31.3"/>
			<rect x="468.8" y="156.3" class="st6" width="31.3" height="31.3"/>
			<rect x="468.8" y="93.8" class="st6" width="31.3" height="31.3"/>
			<rect x="468.8" y="187.5" class="st6" width="31.3" height="31.3"/>
			<rect x="343.8" y="468.8" class="st6" width="31.3" height="31.3"/>
			<rect x="218.8" y="468.8" class="st6" width="31.3" height="31.3"/>
			<rect x="125" y="468.8" class="st6" width="31.3" height="31.3"/>
			<rect x="468.8" y="468.8" class="st6" width="31.3" height="31.3"/>
			<rect x="156.3" y="468.8" class="st6" width="31.3" height="31.3"/>
			<rect x="93.8" y="468.8" class="st6" width="31.3" height="31.3"/>
			<rect x="31.3" y="468.8" class="st6" width="31.3" height="31.3"/>
			<rect x="62.5" y="468.8" class="st6" width="31.3" height="31.3"/>
			<rect x="187.5" y="468.8" class="st6" width="31.3" height="31.3"/>
			<rect x="406.3" y="468.8" class="st6" width="31.3" height="31.3"/>
			<rect x="250" y="468.8" class="st6" width="31.3" height="31.3"/>
			<rect x="437.5" y="468.8" class="st6" width="31.3" height="31.3"/>
			<rect x="375" y="468.8" class="st6" width="31.3" height="31.3"/>
			<rect x="281.3" y="468.8" class="st6" width="31.3" height="31.3"/>
			<rect x="312.5" y="468.8" class="st6" width="31.3" height="31.3"/>
			<rect y="468.8" class="st6" width="31.3" height="31.3"/>
			<rect x="187.5" y="31.3" class="st6" width="31.3" height="31.3"/>
			<rect x="281.3" y="31.3" class="st6" width="31.3" height="31.3"/>
			<rect x="250" y="31.3" class="st6" width="31.3" height="31.3"/>
			<rect x="218.8" y="31.3" class="st6" width="31.3" height="31.3"/>
			<rect x="343.8" y="31.3" class="st6" width="31.3" height="31.3"/>
			<rect x="375" y="31.3" class="st6" width="31.3" height="31.3"/>
			<rect x="312.5" y="31.3" class="st6" width="31.3" height="31.3"/>
			<rect x="281.3" y="406.3" class="st6" width="31.3" height="31.3"/>
			<rect x="31.3" y="31.3" class="st6" width="31.3" height="31.3"/>
			<rect x="406.3" y="31.3" class="st6" width="31.3" height="31.3"/>
			<rect x="156.3" y="31.3" class="st6" width="31.3" height="31.3"/>
			<rect x="31.3" y="93.8" class="st6" width="31.3" height="31.3"/>
			<rect x="31.3" y="62.5" class="st6" width="31.3" height="31.3"/>
			<rect x="62.5" y="31.3" class="st6" width="31.3" height="31.3"/>
			<rect x="125" y="31.3" class="st6" width="31.3" height="31.3"/>
			<rect x="93.8" y="31.3" class="st6" width="31.3" height="31.3"/>
			<rect x="312.5" y="406.3" class="st6" width="31.3" height="31.3"/>
			<rect x="406.3" y="312.5" class="st6" width="31.3" height="31.3"/>
			<rect x="406.3" y="343.8" class="st6" width="31.3" height="31.3"/>
			<rect x="406.3" y="406.3" class="st6" width="31.3" height="31.3"/>
			<rect x="406.3" y="62.5" class="st6" width="31.3" height="31.3"/>
			<rect x="31.3" y="125" class="st6" width="31.3" height="31.3"/>
			<rect x="343.8" y="406.3" class="st6" width="31.3" height="31.3"/>
			<rect x="375" y="406.3" class="st6" width="31.3" height="31.3"/>
			<rect x="406.3" y="375" class="st6" width="31.3" height="31.3"/>
			<rect x="406.3" y="156.3" class="st6" width="31.3" height="31.3"/>
			<rect x="406.3" y="125" class="st6" width="31.3" height="31.3"/>
			<rect x="406.3" y="93.8" class="st6" width="31.3" height="31.3"/>
			<rect x="406.3" y="281.3" class="st6" width="31.3" height="31.3"/>
			<rect x="406.3" y="250" class="st6" width="31.3" height="31.3"/>
			<rect x="406.3" y="187.5" class="st6" width="31.3" height="31.3"/>
			<rect x="406.3" y="218.8" class="st6" width="31.3" height="31.3"/>
			<rect x="437.5" y="187.5" class="st6" width="31.3" height="31.3"/>
			<rect x="31.3" y="156.3" class="st6" width="31.3" height="31.3"/>
			<rect x="375" y="437.5" class="st6" width="31.3" height="31.3"/>
			<rect x="250" y="437.5" class="st6" width="31.3" height="31.3"/>
			<rect x="437.5" y="406.3" class="st6" width="31.3" height="31.3"/>
			<rect x="281.3" y="437.5" class="st6" width="31.3" height="31.3"/>
			<rect x="312.5" y="437.5" class="st6" width="31.3" height="31.3"/>
			<rect x="343.8" y="437.5" class="st6" width="31.3" height="31.3"/>
			<rect x="437.5" y="437.5" class="st6" width="31.3" height="31.3"/>
			<rect x="437.5" y="218.8" class="st6" width="31.3" height="31.3"/>
			<rect x="437.5" y="156.3" class="st6" width="31.3" height="31.3"/>
			<rect x="437.5" y="250" class="st6" width="31.3" height="31.3"/>
			<rect x="437.5" y="375" class="st6" width="31.3" height="31.3"/>
			<rect x="437.5" y="343.8" class="st6" width="31.3" height="31.3"/>
			<rect x="437.5" y="312.5" class="st6" width="31.3" height="31.3"/>
			<rect x="437.5" y="281.3" class="st6" width="31.3" height="31.3"/>
			<rect x="406.3" y="437.5" class="st6" width="31.3" height="31.3"/>
			<rect x="31.3" y="312.5" class="st6" width="31.3" height="31.3"/>
			<rect x="31.3" y="343.8" class="st6" width="31.3" height="31.3"/>
			<rect x="31.3" y="281.3" class="st6" width="31.3" height="31.3"/>
			<rect x="31.3" y="218.8" class="st6" width="31.3" height="31.3"/>
			<rect x="31.3" y="187.5" class="st6" width="31.3" height="31.3"/>
			<rect x="31.3" y="375" class="st6" width="31.3" height="31.3"/>
			<rect x="31.3" y="250" class="st6" width="31.3" height="31.3"/>
			<rect x="187.5" y="437.5" class="st6" width="31.3" height="31.3"/>
			<rect x="125" y="437.5" class="st6" width="31.3" height="31.3"/>
			<rect x="156.3" y="437.5" class="st6" width="31.3" height="31.3"/>
			<rect x="218.8" y="437.5" class="st6" width="31.3" height="31.3"/>
			<rect x="93.8" y="437.5" class="st6" width="31.3" height="31.3"/>
			<rect x="31.3" y="406.3" class="st6" width="31.3" height="31.3"/>
			<rect x="31.3" y="437.5" class="st6" width="31.3" height="31.3"/>
			<rect x="62.5" y="437.5" class="st6" width="31.3" height="31.3"/>
		</g>
		<g>
			<rect class="st7" width="500" height="500"/>
			<rect class="st7" width="62.5" height="62.5"/>
			<rect x="437.5" class="st7" width="62.5" height="62.5"/>
			<rect y="437.5" class="st7" width="62.5" height="62.5"/>
			<rect x="437.5" y="437.5" class="st7" width="62.5" height="62.5"/>
			<rect x="62.5" y="62.5" class="st7" width="187.5" height="187.5"/>
			<rect x="250" y="62.5" class="st7" width="187.5" height="187.5"/>
			<rect x="62.5" y="250" class="st7" width="187.5" height="187.5"/>
			<rect x="250" y="250" class="st7" width="187.5" height="187.5"/>
			<line class="st7" x1="0" y1="0" x2="500" y2="500"/>
			<line class="st7" x1="500" y1="0" x2="0" y2="500"/>
			<circle class="st7" cx="250" cy="250" r="187.5"/>
			<circle class="st7" cx="250" cy="250" r="250"/>
		</g>
		<rect x="62.5" class="st7" width="375" height="500"/>
	</g>
</g>
<g>
	<rect x="332.6" y="335.1" class="st8" width="164.9" height="162.4"/>
	<path d="M495,337.6V495H335.1V337.6H495 M500,332.6H330.1V500H500V332.6L500,332.6z"/>
</g>
<g>
	<polygon class="st8" points="3.3,497.5 3.3,243.1 292.1,243.1 292.1,288.8 275.8,305 275.8,450.2 292.1,466.4 292.1,497.5 	"/>
	<path d="M289.6,245.6v42.1l-14.8,14.7l-1.5,1.5v2.1v143.2v2.1l1.5,1.5l14.8,14.7V495H5.8V245.6H289.6 M294.6,240.6H0.8V500h293.8
		v-34.6l-16.3-16.2V306l16.3-16.2V240.6L294.6,240.6z"/>
</g>
<g>
	<polygon class="st8" points="236.7,201.3 214.2,178.9 69.1,178.9 46.6,201.3 2.5,201.3 2.5,2.5 292.1,2.5 292.1,170.8 261.6,201.3 
			"/>
	<path d="M289.6,5v164.7l-29.1,29.1h-22.8l-21-20.9l-1.5-1.5h-2.1H70.1H68l-1.5,1.5l-21,20.9H5V5H289.6 M294.6,0H0v203.8h47.6
		l22.5-22.4h143.1l22.5,22.4h26.9l32-32V0L294.6,0z"/>
</g>
<g>
	<polygon class="st8" points="371,307 345.2,281.2 345.3,243.6 370.9,218 370.9,72.9 346.1,48 346.3,2.5 500,2.5 498.8,307 	"/>
	<path d="M497.5,5l-1.2,299.5H372.1l-24.4-24.4l0.1-35.5l24.1-24.1l1.5-1.5V217V73.9v-2.1l-1.5-1.5l-23.3-23.4L348.8,5H497.5
		 M502.5,0H343.8l-0.2,49l24.8,24.9V217l-25.6,25.6l-0.1,39.6l27.3,27.3h131.3L502.5,0L502.5,0z"/>
</g>
</svg>
