<?xml version="1.0" encoding="utf-8"?>
<!-- Generator: Adobe Illustrator 22.1.0, SVG Export Plug-In . SVG Version: 6.00 Build 0)  -->
<svg version="1.1" xmlns="http://www.w3.org/2000/svg" xmlns:xlink="http://www.w3.org/1999/xlink" x="0px" y="0px"
	 viewBox="0 0 500 500" style="enable-background:new 0 0 500 500;" xml:space="preserve">
<style type="text/css">
	.st0{fill:#FF6600;}
	.st1{opacity:0.5;fill:url(#SVGID_1_);}
	.st2{fill:url(#SVGID_2_);}
	.st3{opacity:0.5;fill:url(#SVGID_3_);}
	.st4{fill:#FFFFFF;}
	.st5{fill:#E3E4E5;}
	.st6{display:none;}
	.st7{display:inline;}
	.st8{fill:none;stroke:#EDEDED;stroke-width:0.5;stroke-miterlimit:10;}
	.st9{fill:none;stroke:#BDBDBD;stroke-miterlimit:10;}
	.st10{display:inline;fill:none;stroke:#BDBDBD;stroke-miterlimit:10;}
</style>
<g id="Layer_2">
	<path class="st0" d="M400,500H100C44.8,500,0,455.2,0,400V100C0,44.8,44.8,0,100,0h300c55.2,0,100,44.8,100,100v300
		C500,455.2,455.2,500,400,500z"/>
</g>
<g id="Layer_3_copy">
	<linearGradient id="SVGID_1_" gradientUnits="userSpaceOnUse" x1="423.6173" y1="501.0089" x2="253.9875" y2="207.2014">
		<stop  offset="0" style="stop-color:#FF6600"/>
		<stop  offset="1" style="stop-color:#231F20"/>
	</linearGradient>
	<path class="st1" d="M433.1,103.8l66.9,72v121.1V398c0,56.3-45.7,102-102,102H174.3l-48.2-56.8"/>
	<linearGradient id="SVGID_2_" gradientUnits="userSpaceOnUse" x1="895" y1="359.375" x2="895" y2="359.375">
		<stop  offset="0" style="stop-color:#FF6600"/>
		<stop  offset="1" style="stop-color:#231F20"/>
	</linearGradient>
	<path class="st2" d="M895,359.4"/>
	<linearGradient id="SVGID_3_" gradientUnits="userSpaceOnUse" x1="179.766" y1="312.5" x2="179.766" y2="182.8068">
		<stop  offset="0" style="stop-color:#FF6600"/>
		<stop  offset="1" style="stop-color:#231F20"/>
	</linearGradient>
	<polyline class="st3" points="51.5,182.8 125,312.5 308,296.9 	"/>
</g>
<g id="Layer_3">
	<circle class="st4" cx="250" cy="156.3" r="121.9"/>
	<path class="st4" d="M453.2,156.3c0,43.5-37.4,81.3-81.3,81.3s-81.3-37.7-81.3-81.3s37.4-81.3,81.3-81.3c21.3,0,41.2,8.9,55.9,23.1
		C443.3,113.2,453.2,134,453.2,156.3z"/>
	<circle class="st4" cx="128.1" cy="156.3" r="81.3"/>
	<path class="st4" d="M373.9,443.2L373.9,443.2c-31,35.9-216.8,35.9-247.8,0l0,0V156.3h247.8V443.2z"/>
</g>
<g id="Layer_3_copy_2">
	<path class="st5" d="M373.9,443.2V237.5c43-1.1,79.3-38.3,79.3-81.2c0-22.3-9.9-43.2-25.4-58.1c-14.7-14.2-34.5-23.1-55.9-23.1
		c-9.7,0-19.1,1.9-27.8,5.2c-22.6-27.6-56.8-45.8-94.1-45.8v435.8C304.2,470.2,358.4,461.2,373.9,443.2z"/>
</g>
<g id="Layer_6">
</g>
<g id="Layer_4">
</g>
<g id="Layer_1" class="st6">
	<g class="st7">
		<rect x="250" y="375" class="st8" width="31.3" height="31.3"/>
		<rect x="156.3" y="375" class="st8" width="31.3" height="31.3"/>
		<rect x="218.8" y="375" class="st8" width="31.3" height="31.3"/>
		<rect x="187.5" y="375" class="st8" width="31.3" height="31.3"/>
		<rect x="93.8" y="343.8" class="st8" width="31.3" height="31.3"/>
		<rect x="93.8" y="375" class="st8" width="31.3" height="31.3"/>
		<rect x="125" y="375" class="st8" width="31.3" height="31.3"/>
		<rect x="281.3" y="375" class="st8" width="31.3" height="31.3"/>
		<rect x="375" y="312.5" class="st8" width="31.3" height="31.3"/>
		<rect x="93.8" y="312.5" class="st8" width="31.3" height="31.3"/>
		<rect x="375" y="343.8" class="st8" width="31.3" height="31.3"/>
		<rect x="375" y="281.3" class="st8" width="31.3" height="31.3"/>
		<rect x="312.5" y="375" class="st8" width="31.3" height="31.3"/>
		<rect x="375" y="375" class="st8" width="31.3" height="31.3"/>
		<rect x="375" y="250" class="st8" width="31.3" height="31.3"/>
		<rect x="343.8" y="375" class="st8" width="31.3" height="31.3"/>
		<rect x="250" y="93.8" class="st8" width="31.3" height="31.3"/>
		<rect x="218.8" y="93.8" class="st8" width="31.3" height="31.3"/>
		<rect x="187.5" y="93.8" class="st8" width="31.3" height="31.3"/>
		<rect x="312.5" y="93.8" class="st8" width="31.3" height="31.3"/>
		<rect x="343.8" y="93.8" class="st8" width="31.3" height="31.3"/>
		<rect x="156.3" y="93.8" class="st8" width="31.3" height="31.3"/>
		<rect x="281.3" y="93.8" class="st8" width="31.3" height="31.3"/>
		<rect x="93.8" y="156.3" class="st8" width="31.3" height="31.3"/>
		<rect x="93.8" y="187.5" class="st8" width="31.3" height="31.3"/>
		<rect x="93.8" y="218.8" class="st8" width="31.3" height="31.3"/>
		<rect x="93.8" y="250" class="st8" width="31.3" height="31.3"/>
		<rect x="93.8" y="281.3" class="st8" width="31.3" height="31.3"/>
		<rect x="125" y="93.8" class="st8" width="31.3" height="31.3"/>
		<rect x="93.8" y="93.8" class="st8" width="31.3" height="31.3"/>
		<rect x="93.8" y="125" class="st8" width="31.3" height="31.3"/>
		<rect x="375" y="125" class="st8" width="31.3" height="31.3"/>
		<rect x="62.5" y="281.3" class="st8" width="31.3" height="31.3"/>
		<rect x="62.5" y="312.5" class="st8" width="31.3" height="31.3"/>
		<rect x="62.5" y="250" class="st8" width="31.3" height="31.3"/>
		<rect x="62.5" y="156.3" class="st8" width="31.3" height="31.3"/>
		<rect x="62.5" y="125" class="st8" width="31.3" height="31.3"/>
		<rect x="62.5" y="187.5" class="st8" width="31.3" height="31.3"/>
		<rect x="62.5" y="218.8" class="st8" width="31.3" height="31.3"/>
		<rect x="62.5" y="343.8" class="st8" width="31.3" height="31.3"/>
		<rect x="187.5" y="406.3" class="st8" width="31.3" height="31.3"/>
		<rect x="218.8" y="406.3" class="st8" width="31.3" height="31.3"/>
		<rect x="156.3" y="406.3" class="st8" width="31.3" height="31.3"/>
		<rect x="125" y="406.3" class="st8" width="31.3" height="31.3"/>
		<rect x="62.5" y="406.3" class="st8" width="31.3" height="31.3"/>
		<rect x="93.8" y="406.3" class="st8" width="31.3" height="31.3"/>
		<rect x="62.5" y="375" class="st8" width="31.3" height="31.3"/>
		<rect x="62.5" y="93.8" class="st8" width="31.3" height="31.3"/>
		<rect x="375" y="62.5" class="st8" width="31.3" height="31.3"/>
		<rect x="312.5" y="62.5" class="st8" width="31.3" height="31.3"/>
		<rect x="281.3" y="62.5" class="st8" width="31.3" height="31.3"/>
		<rect x="375" y="93.8" class="st8" width="31.3" height="31.3"/>
		<rect x="343.8" y="125" class="st8" width="31.3" height="31.3"/>
		<rect x="375" y="187.5" class="st8" width="31.3" height="31.3"/>
		<rect x="375" y="156.3" class="st8" width="31.3" height="31.3"/>
		<rect x="62.5" y="62.5" class="st8" width="31.3" height="31.3"/>
		<rect x="93.8" y="62.5" class="st8" width="31.3" height="31.3"/>
		<rect x="375" y="218.8" class="st8" width="31.3" height="31.3"/>
		<rect x="125" y="62.5" class="st8" width="31.3" height="31.3"/>
		<rect x="250" y="62.5" class="st8" width="31.3" height="31.3"/>
		<rect x="218.8" y="62.5" class="st8" width="31.3" height="31.3"/>
		<rect x="187.5" y="62.5" class="st8" width="31.3" height="31.3"/>
		<rect x="156.3" y="62.5" class="st8" width="31.3" height="31.3"/>
		<rect x="281.3" y="156.3" class="st8" width="31.3" height="31.3"/>
		<rect x="156.3" y="156.3" class="st8" width="31.3" height="31.3"/>
		<rect x="156.3" y="218.8" class="st8" width="31.3" height="31.3"/>
		<rect x="156.3" y="187.5" class="st8" width="31.3" height="31.3"/>
		<rect x="187.5" y="156.3" class="st8" width="31.3" height="31.3"/>
		<rect x="250" y="406.3" class="st8" width="31.3" height="31.3"/>
		<rect x="250" y="156.3" class="st8" width="31.3" height="31.3"/>
		<rect x="281.3" y="187.5" class="st8" width="31.3" height="31.3"/>
		<rect x="218.8" y="156.3" class="st8" width="31.3" height="31.3"/>
		<rect x="250" y="312.5" class="st8" width="31.3" height="31.3"/>
		<rect x="312.5" y="312.5" class="st8" width="31.3" height="31.3"/>
		<rect x="281.3" y="312.5" class="st8" width="31.3" height="31.3"/>
		<rect x="218.8" y="312.5" class="st8" width="31.3" height="31.3"/>
		<rect x="156.3" y="281.3" class="st8" width="31.3" height="31.3"/>
		<rect x="156.3" y="312.5" class="st8" width="31.3" height="31.3"/>
		<rect x="187.5" y="312.5" class="st8" width="31.3" height="31.3"/>
		<rect x="156.3" y="250" class="st8" width="31.3" height="31.3"/>
		<rect x="187.5" y="187.5" class="st8" width="31.3" height="31.3"/>
		<rect x="218.8" y="187.5" class="st8" width="31.3" height="31.3"/>
		<rect x="250" y="218.8" class="st8" width="31.3" height="31.3"/>
		<rect x="250" y="187.5" class="st8" width="31.3" height="31.3"/>
		<rect x="281.3" y="218.8" class="st8" width="31.3" height="31.3"/>
		<rect x="218.8" y="250" class="st8" width="31.3" height="31.3"/>
		<rect x="250" y="250" class="st8" width="31.3" height="31.3"/>
		<rect x="218.8" y="218.8" class="st8" width="31.3" height="31.3"/>
		<rect x="281.3" y="281.3" class="st8" width="31.3" height="31.3"/>
		<rect x="250" y="281.3" class="st8" width="31.3" height="31.3"/>
		<rect x="281.3" y="250" class="st8" width="31.3" height="31.3"/>
		<rect x="187.5" y="218.8" class="st8" width="31.3" height="31.3"/>
		<rect x="187.5" y="250" class="st8" width="31.3" height="31.3"/>
		<rect x="187.5" y="281.3" class="st8" width="31.3" height="31.3"/>
		<rect x="218.8" y="281.3" class="st8" width="31.3" height="31.3"/>
		<rect x="343.8" y="156.3" class="st8" width="31.3" height="31.3"/>
		<rect x="218.8" y="343.8" class="st8" width="31.3" height="31.3"/>
		<rect x="187.5" y="343.8" class="st8" width="31.3" height="31.3"/>
		<rect x="250" y="343.8" class="st8" width="31.3" height="31.3"/>
		<rect x="156.3" y="343.8" class="st8" width="31.3" height="31.3"/>
		<rect x="125" y="312.5" class="st8" width="31.3" height="31.3"/>
		<rect x="125" y="343.8" class="st8" width="31.3" height="31.3"/>
		<rect x="281.3" y="343.8" class="st8" width="31.3" height="31.3"/>
		<rect x="343.8" y="312.5" class="st8" width="31.3" height="31.3"/>
		<rect x="343.8" y="250" class="st8" width="31.3" height="31.3"/>
		<rect x="343.8" y="218.8" class="st8" width="31.3" height="31.3"/>
		<rect x="312.5" y="343.8" class="st8" width="31.3" height="31.3"/>
		<rect x="343.8" y="187.5" class="st8" width="31.3" height="31.3"/>
		<rect x="343.8" y="343.8" class="st8" width="31.3" height="31.3"/>
		<rect x="125" y="281.3" class="st8" width="31.3" height="31.3"/>
		<rect x="343.8" y="281.3" class="st8" width="31.3" height="31.3"/>
		<rect x="312.5" y="218.8" class="st8" width="31.3" height="31.3"/>
		<rect x="125" y="250" class="st8" width="31.3" height="31.3"/>
		<rect x="281.3" y="125" class="st8" width="31.3" height="31.3"/>
		<rect x="312.5" y="156.3" class="st8" width="31.3" height="31.3"/>
		<rect x="312.5" y="187.5" class="st8" width="31.3" height="31.3"/>
		<rect x="312.5" y="250" class="st8" width="31.3" height="31.3"/>
		<rect x="312.5" y="281.3" class="st8" width="31.3" height="31.3"/>
		<rect x="250" y="125" class="st8" width="31.3" height="31.3"/>
		<rect x="312.5" y="125" class="st8" width="31.3" height="31.3"/>
		<rect x="125" y="187.5" class="st8" width="31.3" height="31.3"/>
		<rect x="125" y="218.8" class="st8" width="31.3" height="31.3"/>
		<rect x="125" y="156.3" class="st8" width="31.3" height="31.3"/>
		<rect x="156.3" y="125" class="st8" width="31.3" height="31.3"/>
		<rect x="187.5" y="125" class="st8" width="31.3" height="31.3"/>
		<rect x="125" y="125" class="st8" width="31.3" height="31.3"/>
		<rect x="218.8" y="125" class="st8" width="31.3" height="31.3"/>
		<rect x="343.8" y="62.5" class="st8" width="31.3" height="31.3"/>
		<rect y="93.8" class="st8" width="31.3" height="31.3"/>
		<rect y="125" class="st8" width="31.3" height="31.3"/>
		<rect y="62.5" class="st8" width="31.3" height="31.3"/>
		<rect y="156.3" class="st8" width="31.3" height="31.3"/>
		<rect class="st8" width="31.3" height="31.3"/>
		<rect x="31.3" class="st8" width="31.3" height="31.3"/>
		<rect y="187.5" class="st8" width="31.3" height="31.3"/>
		<rect y="31.3" class="st8" width="31.3" height="31.3"/>
		<rect y="343.8" class="st8" width="31.3" height="31.3"/>
		<rect x="62.5" class="st8" width="31.3" height="31.3"/>
		<rect y="375" class="st8" width="31.3" height="31.3"/>
		<rect y="218.8" class="st8" width="31.3" height="31.3"/>
		<rect y="406.3" class="st8" width="31.3" height="31.3"/>
		<rect y="250" class="st8" width="31.3" height="31.3"/>
		<rect y="312.5" class="st8" width="31.3" height="31.3"/>
		<rect y="281.3" class="st8" width="31.3" height="31.3"/>
		<rect x="312.5" class="st8" width="31.3" height="31.3"/>
		<rect x="406.3" class="st8" width="31.3" height="31.3"/>
		<rect x="375" class="st8" width="31.3" height="31.3"/>
		<rect x="437.5" class="st8" width="31.3" height="31.3"/>
		<rect x="437.5" y="31.3" class="st8" width="31.3" height="31.3"/>
		<rect x="437.5" y="93.8" class="st8" width="31.3" height="31.3"/>
		<rect x="437.5" y="62.5" class="st8" width="31.3" height="31.3"/>
		<rect x="93.8" class="st8" width="31.3" height="31.3"/>
		<rect x="343.8" class="st8" width="31.3" height="31.3"/>
		<rect x="156.3" class="st8" width="31.3" height="31.3"/>
		<rect x="125" class="st8" width="31.3" height="31.3"/>
		<rect x="437.5" y="125" class="st8" width="31.3" height="31.3"/>
		<rect x="281.3" class="st8" width="31.3" height="31.3"/>
		<rect x="218.8" class="st8" width="31.3" height="31.3"/>
		<rect y="437.5" class="st8" width="31.3" height="31.3"/>
		<rect x="250" class="st8" width="31.3" height="31.3"/>
		<rect x="187.5" class="st8" width="31.3" height="31.3"/>
		<rect x="468.8" y="281.3" class="st8" width="31.3" height="31.3"/>
		<rect x="468.8" y="312.5" class="st8" width="31.3" height="31.3"/>
		<rect x="468.8" y="250" class="st8" width="31.3" height="31.3"/>
		<rect x="468.8" y="375" class="st8" width="31.3" height="31.3"/>
		<rect x="468.8" y="406.3" class="st8" width="31.3" height="31.3"/>
		<rect x="468.8" y="218.8" class="st8" width="31.3" height="31.3"/>
		<rect x="468.8" y="343.8" class="st8" width="31.3" height="31.3"/>
		<rect x="468.8" y="437.5" class="st8" width="31.3" height="31.3"/>
		<rect x="468.8" y="62.5" class="st8" width="31.3" height="31.3"/>
		<rect x="468.8" y="31.3" class="st8" width="31.3" height="31.3"/>
		<rect x="468.8" class="st8" width="31.3" height="31.3"/>
		<rect x="468.8" y="125" class="st8" width="31.3" height="31.3"/>
		<rect x="468.8" y="156.3" class="st8" width="31.3" height="31.3"/>
		<rect x="468.8" y="93.8" class="st8" width="31.3" height="31.3"/>
		<rect x="468.8" y="187.5" class="st8" width="31.3" height="31.3"/>
		<rect x="343.8" y="468.8" class="st8" width="31.3" height="31.3"/>
		<rect x="218.8" y="468.8" class="st8" width="31.3" height="31.3"/>
		<rect x="125" y="468.8" class="st8" width="31.3" height="31.3"/>
		<rect x="468.8" y="468.8" class="st8" width="31.3" height="31.3"/>
		<rect x="156.3" y="468.8" class="st8" width="31.3" height="31.3"/>
		<rect x="93.8" y="468.8" class="st8" width="31.3" height="31.3"/>
		<rect x="31.3" y="468.8" class="st8" width="31.3" height="31.3"/>
		<rect x="62.5" y="468.8" class="st8" width="31.3" height="31.3"/>
		<rect x="187.5" y="468.8" class="st8" width="31.3" height="31.3"/>
		<rect x="406.3" y="468.8" class="st8" width="31.3" height="31.3"/>
		<rect x="250" y="468.8" class="st8" width="31.3" height="31.3"/>
		<rect x="437.5" y="468.8" class="st8" width="31.3" height="31.3"/>
		<rect x="375" y="468.8" class="st8" width="31.3" height="31.3"/>
		<rect x="281.3" y="468.8" class="st8" width="31.3" height="31.3"/>
		<rect x="312.5" y="468.8" class="st8" width="31.3" height="31.3"/>
		<rect y="468.8" class="st8" width="31.3" height="31.3"/>
		<rect x="187.5" y="31.3" class="st8" width="31.3" height="31.3"/>
		<rect x="281.3" y="31.3" class="st8" width="31.3" height="31.3"/>
		<rect x="250" y="31.3" class="st8" width="31.3" height="31.3"/>
		<rect x="218.8" y="31.3" class="st8" width="31.3" height="31.3"/>
		<rect x="343.8" y="31.3" class="st8" width="31.3" height="31.3"/>
		<rect x="375" y="31.3" class="st8" width="31.3" height="31.3"/>
		<rect x="312.5" y="31.3" class="st8" width="31.3" height="31.3"/>
		<rect x="281.3" y="406.3" class="st8" width="31.3" height="31.3"/>
		<rect x="31.3" y="31.3" class="st8" width="31.3" height="31.3"/>
		<rect x="406.3" y="31.3" class="st8" width="31.3" height="31.3"/>
		<rect x="156.3" y="31.3" class="st8" width="31.3" height="31.3"/>
		<rect x="31.3" y="93.8" class="st8" width="31.3" height="31.3"/>
		<rect x="31.3" y="62.5" class="st8" width="31.3" height="31.3"/>
		<rect x="62.5" y="31.3" class="st8" width="31.3" height="31.3"/>
		<rect x="125" y="31.3" class="st8" width="31.3" height="31.3"/>
		<rect x="93.8" y="31.3" class="st8" width="31.3" height="31.3"/>
		<rect x="312.5" y="406.3" class="st8" width="31.3" height="31.3"/>
		<rect x="406.3" y="312.5" class="st8" width="31.3" height="31.3"/>
		<rect x="406.3" y="343.8" class="st8" width="31.3" height="31.3"/>
		<rect x="406.3" y="406.3" class="st8" width="31.3" height="31.3"/>
		<rect x="406.3" y="62.5" class="st8" width="31.3" height="31.3"/>
		<rect x="31.3" y="125" class="st8" width="31.3" height="31.3"/>
		<rect x="343.8" y="406.3" class="st8" width="31.3" height="31.3"/>
		<rect x="375" y="406.3" class="st8" width="31.3" height="31.3"/>
		<rect x="406.3" y="375" class="st8" width="31.3" height="31.3"/>
		<rect x="406.3" y="156.3" class="st8" width="31.3" height="31.3"/>
		<rect x="406.3" y="125" class="st8" width="31.3" height="31.3"/>
		<rect x="406.3" y="93.8" class="st8" width="31.3" height="31.3"/>
		<rect x="406.3" y="281.3" class="st8" width="31.3" height="31.3"/>
		<rect x="406.3" y="250" class="st8" width="31.3" height="31.3"/>
		<rect x="406.3" y="187.5" class="st8" width="31.3" height="31.3"/>
		<rect x="406.3" y="218.8" class="st8" width="31.3" height="31.3"/>
		<rect x="437.5" y="187.5" class="st8" width="31.3" height="31.3"/>
		<rect x="31.3" y="156.3" class="st8" width="31.3" height="31.3"/>
		<rect x="375" y="437.5" class="st8" width="31.3" height="31.3"/>
		<rect x="250" y="437.5" class="st8" width="31.3" height="31.3"/>
		<rect x="437.5" y="406.3" class="st8" width="31.3" height="31.3"/>
		<rect x="281.3" y="437.5" class="st8" width="31.3" height="31.3"/>
		<rect x="312.5" y="437.5" class="st8" width="31.3" height="31.3"/>
		<rect x="343.8" y="437.5" class="st8" width="31.3" height="31.3"/>
		<rect x="437.5" y="437.5" class="st8" width="31.3" height="31.3"/>
		<rect x="437.5" y="218.8" class="st8" width="31.3" height="31.3"/>
		<rect x="437.5" y="156.3" class="st8" width="31.3" height="31.3"/>
		<rect x="437.5" y="250" class="st8" width="31.3" height="31.3"/>
		<rect x="437.5" y="375" class="st8" width="31.3" height="31.3"/>
		<rect x="437.5" y="343.8" class="st8" width="31.3" height="31.3"/>
		<rect x="437.5" y="312.5" class="st8" width="31.3" height="31.3"/>
		<rect x="437.5" y="281.3" class="st8" width="31.3" height="31.3"/>
		<rect x="406.3" y="437.5" class="st8" width="31.3" height="31.3"/>
		<rect x="31.3" y="312.5" class="st8" width="31.3" height="31.3"/>
		<rect x="31.3" y="343.8" class="st8" width="31.3" height="31.3"/>
		<rect x="31.3" y="281.3" class="st8" width="31.3" height="31.3"/>
		<rect x="31.3" y="218.8" class="st8" width="31.3" height="31.3"/>
		<rect x="31.3" y="187.5" class="st8" width="31.3" height="31.3"/>
		<rect x="31.3" y="375" class="st8" width="31.3" height="31.3"/>
		<rect x="31.3" y="250" class="st8" width="31.3" height="31.3"/>
		<rect x="187.5" y="437.5" class="st8" width="31.3" height="31.3"/>
		<rect x="125" y="437.5" class="st8" width="31.3" height="31.3"/>
		<rect x="156.3" y="437.5" class="st8" width="31.3" height="31.3"/>
		<rect x="218.8" y="437.5" class="st8" width="31.3" height="31.3"/>
		<rect x="93.8" y="437.5" class="st8" width="31.3" height="31.3"/>
		<rect x="31.3" y="406.3" class="st8" width="31.3" height="31.3"/>
		<rect x="31.3" y="437.5" class="st8" width="31.3" height="31.3"/>
		<rect x="62.5" y="437.5" class="st8" width="31.3" height="31.3"/>
	</g>
	<g class="st7">
		<rect class="st9" width="500" height="500"/>
		<rect class="st9" width="62.5" height="62.5"/>
		<rect x="437.5" class="st9" width="62.5" height="62.5"/>
		<rect y="437.5" class="st9" width="62.5" height="62.5"/>
		<rect x="437.5" y="437.5" class="st9" width="62.5" height="62.5"/>
		<rect x="62.5" y="62.5" class="st9" width="187.5" height="187.5"/>
		<rect x="250" y="62.5" class="st9" width="187.5" height="187.5"/>
		<rect x="62.5" y="250" class="st9" width="187.5" height="187.5"/>
		<rect x="250" y="250" class="st9" width="187.5" height="187.5"/>
		<line class="st9" x1="0" y1="0" x2="500" y2="500"/>
		<line class="st9" x1="500" y1="0" x2="0" y2="500"/>
		<circle class="st9" cx="250" cy="250" r="187.5"/>
		<circle class="st9" cx="250" cy="250" r="250"/>
	</g>
	<rect x="62.5" class="st10" width="375" height="500"/>
</g>
</svg>
