<?xml version="1.0" encoding="utf-8"?>
<!-- Generator: Adobe Illustrator 22.1.0, SVG Export Plug-In . SVG Version: 6.00 Build 0)  -->
<svg version="1.1" xmlns="http://www.w3.org/2000/svg" xmlns:xlink="http://www.w3.org/1999/xlink" x="0px" y="0px"
	 viewBox="0 0 500 500" style="enable-background:new 0 0 500 500;" xml:space="preserve">
<style type="text/css">
	.st0{fill:#FF6600;}
	.st1{fill:url(#SVGID_1_);}
	.st2{fill:#B5B5B5;}
	.st3{opacity:0.5;fill:url(#SVGID_2_);enable-background:new    ;}
	.st4{fill:#FFFFFF;}
	.st5{display:none;}
	.st6{display:inline;}
	.st7{fill:none;stroke:#EDEDED;stroke-width:0.5;stroke-miterlimit:10;}
	.st8{fill:none;stroke:#BDBDBD;stroke-miterlimit:10;}
</style>
<g id="Layer_1">
	<g id="Layer_2_1_">
		<path class="st0" d="M400,500H100C44.8,500,0,455.2,0,400V100C0,44.8,44.8,0,100,0h300c55.2,0,100,44.8,100,100v300
			C500,455.2,455.2,500,400,500z"/>
	</g>
	<g id="Layer_3_copy">
		
			<linearGradient id="SVGID_1_" gradientUnits="userSpaceOnUse" x1="771" y1="158.6" x2="771" y2="158.6" gradientTransform="matrix(1 0 0 -1 0 502)">
			<stop  offset="0" style="stop-color:#FF6600"/>
			<stop  offset="1" style="stop-color:#231F20"/>
		</linearGradient>
		<path class="st1" d="M771,343.4"/>
	</g>
	<path class="st2" d="M68.8,358.8"/>
	
		<linearGradient id="SVGID_2_" gradientUnits="userSpaceOnUse" x1="518.817" y1="107.6469" x2="195.1622" y2="294.5091" gradientTransform="matrix(1 0 0 -1 0 502)">
		<stop  offset="0" style="stop-color:#FF6600"/>
		<stop  offset="1" style="stop-color:#231F20"/>
	</linearGradient>
	<path class="st3" d="M217,169.7L437.5,62.5L500,169v136v95c0,51.5-41.3,101-97.3,100H208.3l-83.2-62.5l0,0"/>
</g>
<g id="Layer_3">
	<path class="st4" d="M437.5,62.5l-125,0.1l31.3,31.2l-17.4,17.4c-8,8-31.6,12.2-42.4,8.5c-37-12.5-76.8-8.3-110.1,15.2
		c-38.9,27.4-52.3,71.4-42.3,111.4c8.1,32.4,6,57.3-17.3,81.8C85.2,358.8,62.6,375,62.6,375l62.4,62.5c0,0,56-53.7,65.3-62.4
		c21.8-20.3,28.5-24.2,28.5-62.6c0-43-24.5-80.8,8.9-110.8c37.2-33.5,95.3,38.7,147.3-14.2l31.3-31.2l31.2,31.3"/>
</g>
<g id="Layer_7" class="st5">
	<g id="Layer_1_1_" class="st6">
		<g>
			<rect x="250" y="375" class="st7" width="31.3" height="31.3"/>
			<rect x="156.3" y="375" class="st7" width="31.3" height="31.3"/>
			<rect x="218.8" y="375" class="st7" width="31.3" height="31.3"/>
			<rect x="187.5" y="375" class="st7" width="31.3" height="31.3"/>
			<rect x="93.8" y="343.8" class="st7" width="31.3" height="31.3"/>
			<rect x="93.8" y="375" class="st7" width="31.3" height="31.3"/>
			<rect x="125" y="375" class="st7" width="31.3" height="31.3"/>
			<rect x="281.3" y="375" class="st7" width="31.3" height="31.3"/>
			<rect x="375" y="312.5" class="st7" width="31.3" height="31.3"/>
			<rect x="93.8" y="312.5" class="st7" width="31.3" height="31.3"/>
			<rect x="375" y="343.8" class="st7" width="31.3" height="31.3"/>
			<rect x="375" y="281.3" class="st7" width="31.3" height="31.3"/>
			<rect x="312.5" y="375" class="st7" width="31.3" height="31.3"/>
			<rect x="375" y="375" class="st7" width="31.3" height="31.3"/>
			<rect x="375" y="250" class="st7" width="31.3" height="31.3"/>
			<rect x="343.8" y="375" class="st7" width="31.3" height="31.3"/>
			<rect x="250" y="93.8" class="st7" width="31.3" height="31.3"/>
			<rect x="218.8" y="93.8" class="st7" width="31.3" height="31.3"/>
			<rect x="187.5" y="93.8" class="st7" width="31.3" height="31.3"/>
			<rect x="312.5" y="93.8" class="st7" width="31.3" height="31.3"/>
			<rect x="343.8" y="93.8" class="st7" width="31.3" height="31.3"/>
			<rect x="156.3" y="93.8" class="st7" width="31.3" height="31.3"/>
			<rect x="281.3" y="93.8" class="st7" width="31.3" height="31.3"/>
			<rect x="93.8" y="156.3" class="st7" width="31.3" height="31.3"/>
			<rect x="93.8" y="187.5" class="st7" width="31.3" height="31.3"/>
			<rect x="93.8" y="218.8" class="st7" width="31.3" height="31.3"/>
			<rect x="93.8" y="250" class="st7" width="31.3" height="31.3"/>
			<rect x="93.8" y="281.3" class="st7" width="31.3" height="31.3"/>
			<rect x="125" y="93.8" class="st7" width="31.3" height="31.3"/>
			<rect x="93.8" y="93.8" class="st7" width="31.3" height="31.3"/>
			<rect x="93.8" y="125" class="st7" width="31.3" height="31.3"/>
			<rect x="375" y="125" class="st7" width="31.3" height="31.3"/>
			<rect x="62.5" y="281.3" class="st7" width="31.3" height="31.3"/>
			<rect x="62.5" y="312.5" class="st7" width="31.3" height="31.3"/>
			<rect x="62.5" y="250" class="st7" width="31.3" height="31.3"/>
			<rect x="62.5" y="156.3" class="st7" width="31.3" height="31.3"/>
			<rect x="62.5" y="125" class="st7" width="31.3" height="31.3"/>
			<rect x="62.5" y="187.5" class="st7" width="31.3" height="31.3"/>
			<rect x="62.5" y="218.8" class="st7" width="31.3" height="31.3"/>
			<rect x="62.5" y="343.8" class="st7" width="31.3" height="31.3"/>
			<rect x="187.5" y="406.3" class="st7" width="31.3" height="31.3"/>
			<rect x="218.8" y="406.3" class="st7" width="31.3" height="31.3"/>
			<rect x="156.3" y="406.3" class="st7" width="31.3" height="31.3"/>
			<rect x="125" y="406.3" class="st7" width="31.3" height="31.3"/>
			<rect x="62.5" y="406.3" class="st7" width="31.3" height="31.3"/>
			<rect x="93.8" y="406.3" class="st7" width="31.3" height="31.3"/>
			<rect x="62.5" y="375" class="st7" width="31.3" height="31.3"/>
			<rect x="62.5" y="93.8" class="st7" width="31.3" height="31.3"/>
			<rect x="375" y="62.5" class="st7" width="31.3" height="31.3"/>
			<rect x="312.5" y="62.5" class="st7" width="31.3" height="31.3"/>
			<rect x="281.3" y="62.5" class="st7" width="31.3" height="31.3"/>
			<rect x="375" y="93.8" class="st7" width="31.3" height="31.3"/>
			<rect x="343.8" y="125" class="st7" width="31.3" height="31.3"/>
			<rect x="375" y="187.5" class="st7" width="31.3" height="31.3"/>
			<rect x="375" y="156.3" class="st7" width="31.3" height="31.3"/>
			<rect x="62.5" y="62.5" class="st7" width="31.3" height="31.3"/>
			<rect x="93.8" y="62.5" class="st7" width="31.3" height="31.3"/>
			<rect x="375" y="218.8" class="st7" width="31.3" height="31.3"/>
			<rect x="125" y="62.5" class="st7" width="31.3" height="31.3"/>
			<rect x="250" y="62.5" class="st7" width="31.3" height="31.3"/>
			<rect x="218.8" y="62.5" class="st7" width="31.3" height="31.3"/>
			<rect x="187.5" y="62.5" class="st7" width="31.3" height="31.3"/>
			<rect x="156.3" y="62.5" class="st7" width="31.3" height="31.3"/>
			<rect x="281.3" y="156.3" class="st7" width="31.3" height="31.3"/>
			<rect x="156.3" y="156.3" class="st7" width="31.3" height="31.3"/>
			<rect x="156.3" y="218.8" class="st7" width="31.3" height="31.3"/>
			<rect x="156.3" y="187.5" class="st7" width="31.3" height="31.3"/>
			<rect x="187.5" y="156.3" class="st7" width="31.3" height="31.3"/>
			<rect x="250" y="406.3" class="st7" width="31.3" height="31.3"/>
			<rect x="250" y="156.3" class="st7" width="31.3" height="31.3"/>
			<rect x="281.3" y="187.5" class="st7" width="31.3" height="31.3"/>
			<rect x="218.8" y="156.3" class="st7" width="31.3" height="31.3"/>
			<rect x="250" y="312.5" class="st7" width="31.3" height="31.3"/>
			<rect x="312.5" y="312.5" class="st7" width="31.3" height="31.3"/>
			<rect x="281.3" y="312.5" class="st7" width="31.3" height="31.3"/>
			<rect x="218.8" y="312.5" class="st7" width="31.3" height="31.3"/>
			<rect x="156.3" y="281.3" class="st7" width="31.3" height="31.3"/>
			<rect x="156.3" y="312.5" class="st7" width="31.3" height="31.3"/>
			<rect x="187.5" y="312.5" class="st7" width="31.3" height="31.3"/>
			<rect x="156.3" y="250" class="st7" width="31.3" height="31.3"/>
			<rect x="187.5" y="187.5" class="st7" width="31.3" height="31.3"/>
			<rect x="218.8" y="187.5" class="st7" width="31.3" height="31.3"/>
			<rect x="250" y="218.8" class="st7" width="31.3" height="31.3"/>
			<rect x="250" y="187.5" class="st7" width="31.3" height="31.3"/>
			<rect x="281.3" y="218.8" class="st7" width="31.3" height="31.3"/>
			<rect x="218.8" y="250" class="st7" width="31.3" height="31.3"/>
			<rect x="250" y="250" class="st7" width="31.3" height="31.3"/>
			<rect x="218.8" y="218.8" class="st7" width="31.3" height="31.3"/>
			<rect x="281.3" y="281.3" class="st7" width="31.3" height="31.3"/>
			<rect x="250" y="281.3" class="st7" width="31.3" height="31.3"/>
			<rect x="281.3" y="250" class="st7" width="31.3" height="31.3"/>
			<rect x="187.5" y="218.8" class="st7" width="31.3" height="31.3"/>
			<rect x="187.5" y="250" class="st7" width="31.3" height="31.3"/>
			<rect x="187.5" y="281.3" class="st7" width="31.3" height="31.3"/>
			<rect x="218.8" y="281.3" class="st7" width="31.3" height="31.3"/>
			<rect x="343.8" y="156.3" class="st7" width="31.3" height="31.3"/>
			<rect x="218.8" y="343.8" class="st7" width="31.3" height="31.3"/>
			<rect x="187.5" y="343.8" class="st7" width="31.3" height="31.3"/>
			<rect x="250" y="343.8" class="st7" width="31.3" height="31.3"/>
			<rect x="156.3" y="343.8" class="st7" width="31.3" height="31.3"/>
			<rect x="125" y="312.5" class="st7" width="31.3" height="31.3"/>
			<rect x="125" y="343.8" class="st7" width="31.3" height="31.3"/>
			<rect x="281.3" y="343.8" class="st7" width="31.3" height="31.3"/>
			<rect x="343.8" y="312.5" class="st7" width="31.3" height="31.3"/>
			<rect x="343.8" y="250" class="st7" width="31.3" height="31.3"/>
			<rect x="343.8" y="218.8" class="st7" width="31.3" height="31.3"/>
			<rect x="312.5" y="343.8" class="st7" width="31.3" height="31.3"/>
			<rect x="343.8" y="187.5" class="st7" width="31.3" height="31.3"/>
			<rect x="343.8" y="343.8" class="st7" width="31.3" height="31.3"/>
			<rect x="125" y="281.3" class="st7" width="31.3" height="31.3"/>
			<rect x="343.8" y="281.3" class="st7" width="31.3" height="31.3"/>
			<rect x="312.5" y="218.8" class="st7" width="31.3" height="31.3"/>
			<rect x="125" y="250" class="st7" width="31.3" height="31.3"/>
			<rect x="281.3" y="125" class="st7" width="31.3" height="31.3"/>
			<rect x="312.5" y="156.3" class="st7" width="31.3" height="31.3"/>
			<rect x="312.5" y="187.5" class="st7" width="31.3" height="31.3"/>
			<rect x="312.5" y="250" class="st7" width="31.3" height="31.3"/>
			<rect x="312.5" y="281.3" class="st7" width="31.3" height="31.3"/>
			<rect x="250" y="125" class="st7" width="31.3" height="31.3"/>
			<rect x="312.5" y="125" class="st7" width="31.3" height="31.3"/>
			<rect x="125" y="187.5" class="st7" width="31.3" height="31.3"/>
			<rect x="125" y="218.8" class="st7" width="31.3" height="31.3"/>
			<rect x="125" y="156.3" class="st7" width="31.3" height="31.3"/>
			<rect x="156.3" y="125" class="st7" width="31.3" height="31.3"/>
			<rect x="187.5" y="125" class="st7" width="31.3" height="31.3"/>
			<rect x="125" y="125" class="st7" width="31.3" height="31.3"/>
			<rect x="218.8" y="125" class="st7" width="31.3" height="31.3"/>
			<rect x="343.8" y="62.5" class="st7" width="31.3" height="31.3"/>
			<rect y="93.8" class="st7" width="31.3" height="31.3"/>
			<rect y="125" class="st7" width="31.3" height="31.3"/>
			<rect y="62.5" class="st7" width="31.3" height="31.3"/>
			<rect y="156.3" class="st7" width="31.3" height="31.3"/>
			<rect class="st7" width="31.3" height="31.3"/>
			<rect x="31.3" class="st7" width="31.3" height="31.3"/>
			<rect y="187.5" class="st7" width="31.3" height="31.3"/>
			<rect y="31.3" class="st7" width="31.3" height="31.3"/>
			<rect y="343.8" class="st7" width="31.3" height="31.3"/>
			<rect x="62.5" class="st7" width="31.3" height="31.3"/>
			<rect y="375" class="st7" width="31.3" height="31.3"/>
			<rect y="218.8" class="st7" width="31.3" height="31.3"/>
			<rect y="406.3" class="st7" width="31.3" height="31.3"/>
			<rect y="250" class="st7" width="31.3" height="31.3"/>
			<rect y="312.5" class="st7" width="31.3" height="31.3"/>
			<rect y="281.3" class="st7" width="31.3" height="31.3"/>
			<rect x="312.5" class="st7" width="31.3" height="31.3"/>
			<rect x="406.3" class="st7" width="31.3" height="31.3"/>
			<rect x="375" class="st7" width="31.3" height="31.3"/>
			<rect x="437.5" class="st7" width="31.3" height="31.3"/>
			<rect x="437.5" y="31.3" class="st7" width="31.3" height="31.3"/>
			<rect x="437.5" y="93.8" class="st7" width="31.3" height="31.3"/>
			<rect x="437.5" y="62.5" class="st7" width="31.3" height="31.3"/>
			<rect x="93.8" class="st7" width="31.3" height="31.3"/>
			<rect x="343.8" class="st7" width="31.3" height="31.3"/>
			<rect x="156.3" class="st7" width="31.3" height="31.3"/>
			<rect x="125" class="st7" width="31.3" height="31.3"/>
			<rect x="437.5" y="125" class="st7" width="31.3" height="31.3"/>
			<rect x="281.3" class="st7" width="31.3" height="31.3"/>
			<rect x="218.8" class="st7" width="31.3" height="31.3"/>
			<rect y="437.5" class="st7" width="31.3" height="31.3"/>
			<rect x="250" class="st7" width="31.3" height="31.3"/>
			<rect x="187.5" class="st7" width="31.3" height="31.3"/>
			<rect x="468.8" y="281.3" class="st7" width="31.3" height="31.3"/>
			<rect x="468.8" y="312.5" class="st7" width="31.3" height="31.3"/>
			<rect x="468.8" y="250" class="st7" width="31.3" height="31.3"/>
			<rect x="468.8" y="375" class="st7" width="31.3" height="31.3"/>
			<rect x="468.8" y="406.3" class="st7" width="31.3" height="31.3"/>
			<rect x="468.8" y="218.8" class="st7" width="31.3" height="31.3"/>
			<rect x="468.8" y="343.8" class="st7" width="31.3" height="31.3"/>
			<rect x="468.8" y="437.5" class="st7" width="31.3" height="31.3"/>
			<rect x="468.8" y="62.5" class="st7" width="31.3" height="31.3"/>
			<rect x="468.8" y="31.3" class="st7" width="31.3" height="31.3"/>
			<rect x="468.8" class="st7" width="31.3" height="31.3"/>
			<rect x="468.8" y="125" class="st7" width="31.3" height="31.3"/>
			<rect x="468.8" y="156.3" class="st7" width="31.3" height="31.3"/>
			<rect x="468.8" y="93.8" class="st7" width="31.3" height="31.3"/>
			<rect x="468.8" y="187.5" class="st7" width="31.3" height="31.3"/>
			<rect x="343.8" y="468.8" class="st7" width="31.3" height="31.3"/>
			<rect x="218.8" y="468.8" class="st7" width="31.3" height="31.3"/>
			<rect x="125" y="468.8" class="st7" width="31.3" height="31.3"/>
			<rect x="468.8" y="468.8" class="st7" width="31.3" height="31.3"/>
			<rect x="156.3" y="468.8" class="st7" width="31.3" height="31.3"/>
			<rect x="93.8" y="468.8" class="st7" width="31.3" height="31.3"/>
			<rect x="31.3" y="468.8" class="st7" width="31.3" height="31.3"/>
			<rect x="62.5" y="468.8" class="st7" width="31.3" height="31.3"/>
			<rect x="187.5" y="468.8" class="st7" width="31.3" height="31.3"/>
			<rect x="406.3" y="468.8" class="st7" width="31.3" height="31.3"/>
			<rect x="250" y="468.8" class="st7" width="31.3" height="31.3"/>
			<rect x="437.5" y="468.8" class="st7" width="31.3" height="31.3"/>
			<rect x="375" y="468.8" class="st7" width="31.3" height="31.3"/>
			<rect x="281.3" y="468.8" class="st7" width="31.3" height="31.3"/>
			<rect x="312.5" y="468.8" class="st7" width="31.3" height="31.3"/>
			<rect y="468.8" class="st7" width="31.3" height="31.3"/>
			<rect x="187.5" y="31.3" class="st7" width="31.3" height="31.3"/>
			<rect x="281.3" y="31.3" class="st7" width="31.3" height="31.3"/>
			<rect x="250" y="31.3" class="st7" width="31.3" height="31.3"/>
			<rect x="218.8" y="31.3" class="st7" width="31.3" height="31.3"/>
			<rect x="343.8" y="31.3" class="st7" width="31.3" height="31.3"/>
			<rect x="375" y="31.3" class="st7" width="31.3" height="31.3"/>
			<rect x="312.5" y="31.3" class="st7" width="31.3" height="31.3"/>
			<rect x="281.3" y="406.3" class="st7" width="31.3" height="31.3"/>
			<rect x="31.3" y="31.3" class="st7" width="31.3" height="31.3"/>
			<rect x="406.3" y="31.3" class="st7" width="31.3" height="31.3"/>
			<rect x="156.3" y="31.3" class="st7" width="31.3" height="31.3"/>
			<rect x="31.3" y="93.8" class="st7" width="31.3" height="31.3"/>
			<rect x="31.3" y="62.5" class="st7" width="31.3" height="31.3"/>
			<rect x="62.5" y="31.3" class="st7" width="31.3" height="31.3"/>
			<rect x="125" y="31.3" class="st7" width="31.3" height="31.3"/>
			<rect x="93.8" y="31.3" class="st7" width="31.3" height="31.3"/>
			<rect x="312.5" y="406.3" class="st7" width="31.3" height="31.3"/>
			<rect x="406.3" y="312.5" class="st7" width="31.3" height="31.3"/>
			<rect x="406.3" y="343.8" class="st7" width="31.3" height="31.3"/>
			<rect x="406.3" y="406.3" class="st7" width="31.3" height="31.3"/>
			<rect x="406.3" y="62.5" class="st7" width="31.3" height="31.3"/>
			<rect x="31.3" y="125" class="st7" width="31.3" height="31.3"/>
			<rect x="343.8" y="406.3" class="st7" width="31.3" height="31.3"/>
			<rect x="375" y="406.3" class="st7" width="31.3" height="31.3"/>
			<rect x="406.3" y="375" class="st7" width="31.3" height="31.3"/>
			<rect x="406.3" y="156.3" class="st7" width="31.3" height="31.3"/>
			<rect x="406.3" y="125" class="st7" width="31.3" height="31.3"/>
			<rect x="406.3" y="93.8" class="st7" width="31.3" height="31.3"/>
			<rect x="406.3" y="281.3" class="st7" width="31.3" height="31.3"/>
			<rect x="406.3" y="250" class="st7" width="31.3" height="31.3"/>
			<rect x="406.3" y="187.5" class="st7" width="31.3" height="31.3"/>
			<rect x="406.3" y="218.8" class="st7" width="31.3" height="31.3"/>
			<rect x="437.5" y="187.5" class="st7" width="31.3" height="31.3"/>
			<rect x="31.3" y="156.3" class="st7" width="31.3" height="31.3"/>
			<rect x="375" y="437.5" class="st7" width="31.3" height="31.3"/>
			<rect x="250" y="437.5" class="st7" width="31.3" height="31.3"/>
			<rect x="437.5" y="406.3" class="st7" width="31.3" height="31.3"/>
			<rect x="281.3" y="437.5" class="st7" width="31.3" height="31.3"/>
			<rect x="312.5" y="437.5" class="st7" width="31.3" height="31.3"/>
			<rect x="343.8" y="437.5" class="st7" width="31.3" height="31.3"/>
			<rect x="437.5" y="437.5" class="st7" width="31.3" height="31.3"/>
			<rect x="437.5" y="218.8" class="st7" width="31.3" height="31.3"/>
			<rect x="437.5" y="156.3" class="st7" width="31.3" height="31.3"/>
			<rect x="437.5" y="250" class="st7" width="31.3" height="31.3"/>
			<rect x="437.5" y="375" class="st7" width="31.3" height="31.3"/>
			<rect x="437.5" y="343.8" class="st7" width="31.3" height="31.3"/>
			<rect x="437.5" y="312.5" class="st7" width="31.3" height="31.3"/>
			<rect x="437.5" y="281.3" class="st7" width="31.3" height="31.3"/>
			<rect x="406.3" y="437.5" class="st7" width="31.3" height="31.3"/>
			<rect x="31.3" y="312.5" class="st7" width="31.3" height="31.3"/>
			<rect x="31.3" y="343.8" class="st7" width="31.3" height="31.3"/>
			<rect x="31.3" y="281.3" class="st7" width="31.3" height="31.3"/>
			<rect x="31.3" y="218.8" class="st7" width="31.3" height="31.3"/>
			<rect x="31.3" y="187.5" class="st7" width="31.3" height="31.3"/>
			<rect x="31.3" y="375" class="st7" width="31.3" height="31.3"/>
			<rect x="31.3" y="250" class="st7" width="31.3" height="31.3"/>
			<rect x="187.5" y="437.5" class="st7" width="31.3" height="31.3"/>
			<rect x="125" y="437.5" class="st7" width="31.3" height="31.3"/>
			<rect x="156.3" y="437.5" class="st7" width="31.3" height="31.3"/>
			<rect x="218.8" y="437.5" class="st7" width="31.3" height="31.3"/>
			<rect x="93.8" y="437.5" class="st7" width="31.3" height="31.3"/>
			<rect x="31.3" y="406.3" class="st7" width="31.3" height="31.3"/>
			<rect x="31.3" y="437.5" class="st7" width="31.3" height="31.3"/>
			<rect x="62.5" y="437.5" class="st7" width="31.3" height="31.3"/>
		</g>
		<g>
			<rect class="st8" width="500" height="500"/>
			<rect class="st8" width="62.5" height="62.5"/>
			<rect x="437.5" class="st8" width="62.5" height="62.5"/>
			<rect y="437.5" class="st8" width="62.5" height="62.5"/>
			<rect x="437.5" y="437.5" class="st8" width="62.5" height="62.5"/>
			<rect x="62.5" y="62.5" class="st8" width="187.5" height="187.5"/>
			<rect x="250" y="62.5" class="st8" width="187.5" height="187.5"/>
			<rect x="62.5" y="250" class="st8" width="187.5" height="187.5"/>
			<rect x="250" y="250" class="st8" width="187.5" height="187.5"/>
			<line class="st8" x1="0" y1="0" x2="500" y2="500"/>
			<line class="st8" x1="500" y1="0" x2="0" y2="500"/>
			<circle class="st8" cx="250" cy="250" r="187.5"/>
			<circle class="st8" cx="250" cy="250" r="250"/>
		</g>
		<rect x="62.5" class="st8" width="375" height="500"/>
	</g>
</g>
</svg>
