<?xml version="1.0" encoding="utf-8"?>
<!-- Generator: Adobe Illustrator 23.1.0, SVG Export Plug-In . SVG Version: 6.00 Build 0)  -->
<svg version="1.1" id="Layer_1" xmlns="http://www.w3.org/2000/svg" xmlns:xlink="http://www.w3.org/1999/xlink" x="0px" y="0px"
	 viewBox="0 0 500 500" style="enable-background:new 0 0 500 500;" xml:space="preserve">
<style type="text/css">
	.st0{display:none;}
	.st1{fill:#FFFFFF;}
	.st2{opacity:0.5;fill:url(#SVGID_1_);enable-background:new    ;}
	.st3{fill:#004949;}
	.st4{fill:#00A9B2;}
	.st5{enable-background:new    ;}
	.st6{display:inline;}
	.st7{fill:none;stroke:#EDEDED;stroke-width:0.5;stroke-miterlimit:10;}
	.st8{fill:none;stroke:#BDBDBD;stroke-miterlimit:10;}
	.st9{display:inline;fill:none;stroke:#BDBDBD;stroke-miterlimit:10;}
</style>
<g id="Layer_7" class="st0">
</g>
<g id="Layer_3">
	<g>
		<path class="st1" d="M100.3,497.5c-19.5,0-35.3-15.8-35.3-35.3V37.8c0-19.5,15.8-35.3,35.3-35.3h300c19.2,0,34.8,15.6,34.8,34.8
			v425c-0.1,19.4-15.9,35.2-35.3,35.2H100.3z"/>
		<path d="M400.3,5c17.8,0,32.3,14.5,32.3,32.3v56.5l0,368.5c-0.1,18-14.8,32.7-32.8,32.7H100.3c-18.1,0-32.8-14.7-32.8-32.8V37.8
			C67.5,19.7,82.2,5,100.3,5H400.3 M400.3,0h-300C79.4,0,62.5,16.9,62.5,37.8v424.4c0,20.9,17,37.8,37.8,37.8h299.5
			c20.8,0,37.7-16.9,37.8-37.7V93.8V37.3C437.6,16.7,420.9,0,400.3,0L400.3,0z"/>
	</g>
	<g id="Layer_5">
		
			<linearGradient id="SVGID_1_" gradientUnits="userSpaceOnUse" x1="436.6325" y1="-276.0351" x2="54.5226" y2="-55.4238" gradientTransform="matrix(1 0 0 -1 0 212)">
			<stop  offset="0" style="stop-color:#FFFFFF"/>
			<stop  offset="1" style="stop-color:#231F20"/>
		</linearGradient>
		<path class="st2" d="M325.5,250l112.3,95.5l-0.3,29.5v46.9v15.6c0,48.1,5.5,67.5-31.3,62.5h-250L64,377.8l-53.4-34.3"/>
		<polyline class="st3" points="6.7,341 64,377.8 64,346.5 		"/>
	</g>
	<path class="st4" d="M481.3,345.4H18.7c-10.1,0-18.3-8.2-18.3-18.3V141.6c0-10.1,8.2-18.3,18.3-18.3h462.6
		c10.1,0,18.3,8.2,18.3,18.3v185.6C499.5,337.2,491.4,345.4,481.3,345.4z"/>
	<g class="st5">
		<path class="st1" d="M83,156.8c9.7,0,18,1.1,25.1,3.4c7.1,2.3,12.9,5.4,17.5,9.5c4.6,4.1,8,8.9,10.3,14.6
			c2.2,5.7,3.3,11.9,3.3,18.6c0,7-1.2,13.4-3.5,19.3c-2.3,5.8-5.8,10.8-10.5,15c-4.7,4.2-10.5,7.5-17.5,9.8
			c-7,2.3-15.3,3.5-24.6,3.5H62.9v50.9H36V156.8H83z M83,229.5c4.9,0,9.2-0.6,12.9-1.8c3.7-1.2,6.7-3,9.1-5.3
			c2.4-2.3,4.3-5.1,5.5-8.4c1.2-3.3,1.8-7,1.8-11c0-3.9-0.6-7.4-1.8-10.5c-1.2-3.1-3-5.8-5.4-8c-2.4-2.2-5.4-3.9-9.1-5
			c-3.7-1.2-8-1.8-13-1.8H62.9v51.9H83z"/>
		<path class="st1" d="M236.8,183.1c-0.8,1.4-1.6,2.4-2.6,3c-0.9,0.6-2,1-3.3,1c-1.4,0-2.9-0.5-4.6-1.5c-1.6-1-3.6-2.2-5.9-3.5
			c-2.3-1.3-4.9-2.4-7.9-3.5c-3-1-6.6-1.5-10.8-1.5c-3.7,0-7,0.5-9.8,1.3c-2.8,0.9-5.1,2.2-7,3.8c-1.9,1.6-3.3,3.5-4.3,5.8
			c-0.9,2.2-1.4,4.7-1.4,7.4c0,3.4,0.9,6.2,2.9,8.5c1.9,2.3,4.4,4.2,7.5,5.8c3.1,1.6,6.7,3,10.7,4.3c4,1.3,8.1,2.6,12.3,4
			c4.2,1.4,8.3,3.1,12.3,5c4,1.9,7.6,4.3,10.7,7.2c3.1,2.9,5.6,6.5,7.5,10.7c1.9,4.2,2.9,9.3,2.9,15.3c0,6.5-1.1,12.6-3.4,18.3
			c-2.2,5.7-5.5,10.7-9.8,14.9c-4.3,4.2-9.5,7.6-15.8,10s-13.3,3.6-21.3,3.6c-4.6,0-9.1-0.4-13.6-1.3c-4.5-0.9-8.8-2.2-12.9-3.8
			c-4.1-1.7-8-3.7-11.5-6c-3.6-2.3-6.8-4.9-9.6-7.8l7.9-12.9c0.7-0.9,1.5-1.7,2.6-2.4c1.1-0.6,2.2-0.9,3.4-0.9c1.7,0,3.5,0.7,5.4,2
			c1.9,1.4,4.2,2.9,6.9,4.5c2.7,1.7,5.8,3.2,9.4,4.5c3.6,1.4,7.9,2,12.9,2c7.7,0,13.6-1.8,17.8-5.4c4.2-3.6,6.3-8.9,6.3-15.7
			c0-3.8-1-6.9-2.9-9.3c-1.9-2.4-4.4-4.4-7.5-6c-3.1-1.6-6.7-3-10.7-4.2c-4-1.1-8.1-2.4-12.2-3.7c-4.1-1.3-8.2-2.9-12.2-4.8
			c-4-1.9-7.6-4.3-10.7-7.3c-3.1-3-5.6-6.8-7.5-11.3s-2.9-10-2.9-16.7c0-5.3,1-10.4,3.1-15.4s5.1-9.4,9.1-13.3c4-3.9,8.9-7,14.8-9.3
			c5.9-2.3,12.6-3.5,20.2-3.5c8.5,0,16.4,1.3,23.6,4c7.2,2.7,13.3,6.4,18.4,11.2L236.8,183.1z"/>
		<path class="st1" d="M397.9,229.1c0,10.6-1.8,20.3-5.3,29.2c-3.5,8.9-8.5,16.5-14.9,22.9c-6.4,6.4-14.1,11.4-23.1,14.9
			c-9,3.5-19,5.3-30,5.3h-55.1V156.8h55.1c11,0,21,1.8,30,5.3c9,3.6,16.7,8.5,23.1,14.9c6.4,6.4,11.4,14,14.9,22.8
			C396.2,208.8,397.9,218.5,397.9,229.1z M370.3,229.1c0-7.9-1.1-15-3.2-21.4c-2.1-6.3-5.1-11.6-9.1-16c-4-4.4-8.8-7.7-14.4-10
			c-5.6-2.3-12-3.5-19-3.5h-28.1V280h28.1c7.1,0,13.4-1.2,19-3.5c5.6-2.3,10.4-5.7,14.4-10c4-4.4,7-9.7,9.1-16
			S370.3,237,370.3,229.1z"/>
	</g>
</g>
<g id="Layer_6">
</g>
<g id="Layer_1_1_" class="st0">
	<g class="st6">
		<rect x="250" y="375" class="st7" width="31.3" height="31.3"/>
		<rect x="156.3" y="375" class="st7" width="31.3" height="31.3"/>
		<rect x="218.8" y="375" class="st7" width="31.3" height="31.3"/>
		<rect x="187.5" y="375" class="st7" width="31.3" height="31.3"/>
		<rect x="93.8" y="343.8" class="st7" width="31.3" height="31.3"/>
		<rect x="93.8" y="375" class="st7" width="31.3" height="31.3"/>
		<rect x="125" y="375" class="st7" width="31.3" height="31.3"/>
		<rect x="281.3" y="375" class="st7" width="31.3" height="31.3"/>
		<rect x="375" y="312.5" class="st7" width="31.3" height="31.3"/>
		<rect x="93.8" y="312.5" class="st7" width="31.3" height="31.3"/>
		<rect x="375" y="343.8" class="st7" width="31.3" height="31.3"/>
		<rect x="375" y="281.3" class="st7" width="31.3" height="31.3"/>
		<rect x="312.5" y="375" class="st7" width="31.3" height="31.3"/>
		<rect x="375" y="375" class="st7" width="31.3" height="31.3"/>
		<rect x="375" y="250" class="st7" width="31.3" height="31.3"/>
		<rect x="343.8" y="375" class="st7" width="31.3" height="31.3"/>
		<rect x="250" y="93.8" class="st7" width="31.3" height="31.3"/>
		<rect x="218.8" y="93.8" class="st7" width="31.3" height="31.3"/>
		<rect x="187.5" y="93.8" class="st7" width="31.3" height="31.3"/>
		<rect x="312.5" y="93.8" class="st7" width="31.3" height="31.3"/>
		<rect x="343.8" y="93.8" class="st7" width="31.3" height="31.3"/>
		<rect x="156.3" y="93.8" class="st7" width="31.3" height="31.3"/>
		<rect x="281.3" y="93.8" class="st7" width="31.3" height="31.3"/>
		<rect x="93.8" y="156.3" class="st7" width="31.3" height="31.3"/>
		<rect x="93.8" y="187.5" class="st7" width="31.3" height="31.3"/>
		<rect x="93.8" y="218.8" class="st7" width="31.3" height="31.3"/>
		<rect x="93.8" y="250" class="st7" width="31.3" height="31.3"/>
		<rect x="93.8" y="281.3" class="st7" width="31.3" height="31.3"/>
		<rect x="125" y="93.8" class="st7" width="31.3" height="31.3"/>
		<rect x="93.8" y="93.8" class="st7" width="31.3" height="31.3"/>
		<rect x="93.8" y="125" class="st7" width="31.3" height="31.3"/>
		<rect x="375" y="125" class="st7" width="31.3" height="31.3"/>
		<rect x="62.5" y="281.3" class="st7" width="31.3" height="31.3"/>
		<rect x="62.5" y="312.5" class="st7" width="31.3" height="31.3"/>
		<rect x="62.5" y="156.3" class="st7" width="31.3" height="31.3"/>
		<rect x="62.5" y="125" class="st7" width="31.3" height="31.3"/>
		<rect x="62.5" y="187.5" class="st7" width="31.3" height="31.3"/>
		<rect x="62.5" y="218.8" class="st7" width="31.3" height="31.3"/>
		<rect x="62.5" y="343.8" class="st7" width="31.3" height="31.3"/>
		<rect x="187.5" y="406.3" class="st7" width="31.3" height="31.3"/>
		<rect x="218.8" y="406.3" class="st7" width="31.3" height="31.3"/>
		<rect x="156.3" y="406.3" class="st7" width="31.3" height="31.3"/>
		<rect x="125" y="406.3" class="st7" width="31.3" height="31.3"/>
		<rect x="62.5" y="406.3" class="st7" width="31.3" height="31.3"/>
		<rect x="93.8" y="406.3" class="st7" width="31.3" height="31.3"/>
		<rect x="62.5" y="375" class="st7" width="31.3" height="31.3"/>
		<rect x="62.5" y="93.8" class="st7" width="31.3" height="31.3"/>
		<rect x="375" y="62.5" class="st7" width="31.3" height="31.3"/>
		<rect x="312.5" y="62.5" class="st7" width="31.3" height="31.3"/>
		<rect x="281.3" y="62.5" class="st7" width="31.3" height="31.3"/>
		<rect x="375" y="93.8" class="st7" width="31.3" height="31.3"/>
		<rect x="343.8" y="125" class="st7" width="31.3" height="31.3"/>
		<rect x="375" y="187.5" class="st7" width="31.3" height="31.3"/>
		<rect x="375" y="156.3" class="st7" width="31.3" height="31.3"/>
		<rect x="62.5" y="62.5" class="st7" width="31.3" height="31.3"/>
		<rect x="93.8" y="62.5" class="st7" width="31.3" height="31.3"/>
		<rect x="375" y="218.8" class="st7" width="31.3" height="31.3"/>
		<rect x="125" y="62.5" class="st7" width="31.3" height="31.3"/>
		<rect x="250" y="62.5" class="st7" width="31.3" height="31.3"/>
		<rect x="218.8" y="62.5" class="st7" width="31.3" height="31.3"/>
		<rect x="187.5" y="62.5" class="st7" width="31.3" height="31.3"/>
		<rect x="156.3" y="62.5" class="st7" width="31.3" height="31.3"/>
		<rect x="281.3" y="156.3" class="st7" width="31.3" height="31.3"/>
		<rect x="156.3" y="156.3" class="st7" width="31.3" height="31.3"/>
		<rect x="156.3" y="218.8" class="st7" width="31.3" height="31.3"/>
		<rect x="156.3" y="187.5" class="st7" width="31.3" height="31.3"/>
		<rect x="187.5" y="156.3" class="st7" width="31.3" height="31.3"/>
		<rect x="250" y="406.3" class="st7" width="31.3" height="31.3"/>
		<rect x="250" y="156.3" class="st7" width="31.3" height="31.3"/>
		<rect x="281.3" y="187.5" class="st7" width="31.3" height="31.3"/>
		<rect x="218.8" y="156.3" class="st7" width="31.3" height="31.3"/>
		<rect x="250" y="312.5" class="st7" width="31.3" height="31.3"/>
		<rect x="312.5" y="312.5" class="st7" width="31.3" height="31.3"/>
		<rect x="281.3" y="312.5" class="st7" width="31.3" height="31.3"/>
		<rect x="218.8" y="312.5" class="st7" width="31.3" height="31.3"/>
		<rect x="156.3" y="281.3" class="st7" width="31.3" height="31.3"/>
		<rect x="156.3" y="312.5" class="st7" width="31.3" height="31.3"/>
		<rect x="187.5" y="312.5" class="st7" width="31.3" height="31.3"/>
		<rect x="156.3" y="250" class="st7" width="31.3" height="31.3"/>
		<rect x="187.5" y="187.5" class="st7" width="31.3" height="31.3"/>
		<rect x="218.8" y="187.5" class="st7" width="31.3" height="31.3"/>
		<rect x="250" y="218.8" class="st7" width="31.3" height="31.3"/>
		<rect x="250" y="187.5" class="st7" width="31.3" height="31.3"/>
		<rect x="281.3" y="218.8" class="st7" width="31.3" height="31.3"/>
		<rect x="218.8" y="250" class="st7" width="31.3" height="31.3"/>
		<rect x="250" y="250" class="st7" width="31.3" height="31.3"/>
		<rect x="218.8" y="218.8" class="st7" width="31.3" height="31.3"/>
		<rect x="281.3" y="281.3" class="st7" width="31.3" height="31.3"/>
		<rect x="250" y="281.3" class="st7" width="31.3" height="31.3"/>
		<rect x="281.3" y="250" class="st7" width="31.3" height="31.3"/>
		<rect x="187.5" y="218.8" class="st7" width="31.3" height="31.3"/>
		<rect x="187.5" y="250" class="st7" width="31.3" height="31.3"/>
		<rect x="187.5" y="281.3" class="st7" width="31.3" height="31.3"/>
		<rect x="218.8" y="281.3" class="st7" width="31.3" height="31.3"/>
		<rect x="343.8" y="156.3" class="st7" width="31.3" height="31.3"/>
		<rect x="218.8" y="343.8" class="st7" width="31.3" height="31.3"/>
		<rect x="187.5" y="343.8" class="st7" width="31.3" height="31.3"/>
		<rect x="250" y="343.8" class="st7" width="31.3" height="31.3"/>
		<rect x="156.3" y="343.8" class="st7" width="31.3" height="31.3"/>
		<rect x="125" y="312.5" class="st7" width="31.3" height="31.3"/>
		<rect x="125" y="343.8" class="st7" width="31.3" height="31.3"/>
		<rect x="281.3" y="343.8" class="st7" width="31.3" height="31.3"/>
		<rect x="343.8" y="312.5" class="st7" width="31.3" height="31.3"/>
		<rect x="343.8" y="250" class="st7" width="31.3" height="31.3"/>
		<rect x="343.8" y="218.8" class="st7" width="31.3" height="31.3"/>
		<rect x="312.5" y="343.8" class="st7" width="31.3" height="31.3"/>
		<rect x="343.8" y="187.5" class="st7" width="31.3" height="31.3"/>
		<rect x="343.8" y="343.8" class="st7" width="31.3" height="31.3"/>
		<rect x="125" y="281.3" class="st7" width="31.3" height="31.3"/>
		<rect x="343.8" y="281.3" class="st7" width="31.3" height="31.3"/>
		<rect x="312.5" y="218.8" class="st7" width="31.3" height="31.3"/>
		<rect x="125" y="250" class="st7" width="31.3" height="31.3"/>
		<rect x="281.3" y="125" class="st7" width="31.3" height="31.3"/>
		<rect x="312.5" y="156.3" class="st7" width="31.3" height="31.3"/>
		<rect x="312.5" y="187.5" class="st7" width="31.3" height="31.3"/>
		<rect x="312.5" y="250" class="st7" width="31.3" height="31.3"/>
		<rect x="312.5" y="281.3" class="st7" width="31.3" height="31.3"/>
		<rect x="250" y="125" class="st7" width="31.3" height="31.3"/>
		<rect x="312.5" y="125" class="st7" width="31.3" height="31.3"/>
		<rect x="125" y="187.5" class="st7" width="31.3" height="31.3"/>
		<rect x="125" y="218.8" class="st7" width="31.3" height="31.3"/>
		<rect x="125" y="156.3" class="st7" width="31.3" height="31.3"/>
		<rect x="156.3" y="125" class="st7" width="31.3" height="31.3"/>
		<rect x="187.5" y="125" class="st7" width="31.3" height="31.3"/>
		<rect x="125" y="125" class="st7" width="31.3" height="31.3"/>
		<rect x="218.8" y="125" class="st7" width="31.3" height="31.3"/>
		<rect x="343.8" y="62.5" class="st7" width="31.3" height="31.3"/>
		<rect y="93.8" class="st7" width="31.3" height="31.3"/>
		<rect y="125" class="st7" width="31.3" height="31.3"/>
		<rect y="62.5" class="st7" width="31.3" height="31.3"/>
		<rect y="156.3" class="st7" width="31.3" height="31.3"/>
		<rect class="st7" width="31.3" height="31.3"/>
		<rect x="31.3" class="st7" width="31.3" height="31.3"/>
		<rect y="187.5" class="st7" width="31.3" height="31.3"/>
		<rect y="31.3" class="st7" width="31.3" height="31.3"/>
		<rect y="343.8" class="st7" width="31.3" height="31.3"/>
		<rect x="62.5" class="st7" width="31.3" height="31.3"/>
		<rect y="375" class="st7" width="31.3" height="31.3"/>
		<rect y="218.8" class="st7" width="31.3" height="31.3"/>
		<rect y="406.3" class="st7" width="31.3" height="31.3"/>
		<rect y="250" class="st7" width="31.3" height="31.3"/>
		<rect y="312.5" class="st7" width="31.3" height="31.3"/>
		<rect y="281.3" class="st7" width="31.3" height="31.3"/>
		<rect x="312.5" class="st7" width="31.3" height="31.3"/>
		<rect x="406.3" class="st7" width="31.3" height="31.3"/>
		<rect x="375" class="st7" width="31.3" height="31.3"/>
		<rect x="437.5" class="st7" width="31.3" height="31.3"/>
		<rect x="437.5" y="31.3" class="st7" width="31.3" height="31.3"/>
		<rect x="437.5" y="93.8" class="st7" width="31.3" height="31.3"/>
		<rect x="437.5" y="62.5" class="st7" width="31.3" height="31.3"/>
		<rect x="93.8" class="st7" width="31.3" height="31.3"/>
		<rect x="343.8" class="st7" width="31.3" height="31.3"/>
		<rect x="156.3" class="st7" width="31.3" height="31.3"/>
		<rect x="125" class="st7" width="31.3" height="31.3"/>
		<rect x="437.5" y="125" class="st7" width="31.3" height="31.3"/>
		<rect x="281.3" class="st7" width="31.3" height="31.3"/>
		<rect x="218.8" class="st7" width="31.3" height="31.3"/>
		<rect y="437.5" class="st7" width="31.3" height="31.3"/>
		<rect x="250" class="st7" width="31.3" height="31.3"/>
		<rect x="187.5" class="st7" width="31.3" height="31.3"/>
		<rect x="468.8" y="281.3" class="st7" width="31.3" height="31.3"/>
		<rect x="468.8" y="312.5" class="st7" width="31.3" height="31.3"/>
		<rect x="468.8" y="250" class="st7" width="31.3" height="31.3"/>
		<rect x="468.8" y="375" class="st7" width="31.3" height="31.3"/>
		<rect x="468.8" y="406.3" class="st7" width="31.3" height="31.3"/>
		<rect x="468.8" y="218.8" class="st7" width="31.3" height="31.3"/>
		<rect x="468.8" y="343.8" class="st7" width="31.3" height="31.3"/>
		<rect x="468.8" y="437.5" class="st7" width="31.3" height="31.3"/>
		<rect x="468.8" y="62.5" class="st7" width="31.3" height="31.3"/>
		<rect x="468.8" y="31.3" class="st7" width="31.3" height="31.3"/>
		<rect x="468.8" class="st7" width="31.3" height="31.3"/>
		<rect x="468.8" y="125" class="st7" width="31.3" height="31.3"/>
		<rect x="468.8" y="156.3" class="st7" width="31.3" height="31.3"/>
		<rect x="468.8" y="93.8" class="st7" width="31.3" height="31.3"/>
		<rect x="468.8" y="187.5" class="st7" width="31.3" height="31.3"/>
		<rect x="343.8" y="468.8" class="st7" width="31.3" height="31.3"/>
		<rect x="218.8" y="468.8" class="st7" width="31.3" height="31.3"/>
		<rect x="125" y="468.8" class="st7" width="31.3" height="31.3"/>
		<rect x="468.8" y="468.8" class="st7" width="31.3" height="31.3"/>
		<rect x="156.3" y="468.8" class="st7" width="31.3" height="31.3"/>
		<rect x="93.8" y="468.8" class="st7" width="31.3" height="31.3"/>
		<rect x="31.3" y="468.8" class="st7" width="31.3" height="31.3"/>
		<rect x="62.5" y="468.8" class="st7" width="31.3" height="31.3"/>
		<rect x="187.5" y="468.8" class="st7" width="31.3" height="31.3"/>
		<rect x="406.3" y="468.8" class="st7" width="31.3" height="31.3"/>
		<rect x="250" y="468.8" class="st7" width="31.3" height="31.3"/>
		<rect x="437.5" y="468.8" class="st7" width="31.3" height="31.3"/>
		<rect x="375" y="468.8" class="st7" width="31.3" height="31.3"/>
		<rect x="281.3" y="468.8" class="st7" width="31.3" height="31.3"/>
		<rect x="312.5" y="468.8" class="st7" width="31.3" height="31.3"/>
		<rect y="468.8" class="st7" width="31.3" height="31.3"/>
		<rect x="187.5" y="31.3" class="st7" width="31.3" height="31.3"/>
		<rect x="281.3" y="31.3" class="st7" width="31.3" height="31.3"/>
		<rect x="250" y="31.3" class="st7" width="31.3" height="31.3"/>
		<rect x="218.8" y="31.3" class="st7" width="31.3" height="31.3"/>
		<rect x="343.8" y="31.3" class="st7" width="31.3" height="31.3"/>
		<rect x="375" y="31.3" class="st7" width="31.3" height="31.3"/>
		<rect x="312.5" y="31.3" class="st7" width="31.3" height="31.3"/>
		<rect x="281.3" y="406.3" class="st7" width="31.3" height="31.3"/>
		<rect x="31.3" y="31.3" class="st7" width="31.3" height="31.3"/>
		<rect x="406.3" y="31.3" class="st7" width="31.3" height="31.3"/>
		<rect x="156.3" y="31.3" class="st7" width="31.3" height="31.3"/>
		<rect x="31.3" y="93.8" class="st7" width="31.3" height="31.3"/>
		<rect x="31.3" y="62.5" class="st7" width="31.3" height="31.3"/>
		<rect x="62.5" y="31.3" class="st7" width="31.3" height="31.3"/>
		<rect x="125" y="31.3" class="st7" width="31.3" height="31.3"/>
		<rect x="93.8" y="31.3" class="st7" width="31.3" height="31.3"/>
		<rect x="312.5" y="406.3" class="st7" width="31.3" height="31.3"/>
		<rect x="406.3" y="312.5" class="st7" width="31.3" height="31.3"/>
		<rect x="406.3" y="343.8" class="st7" width="31.3" height="31.3"/>
		<rect x="406.3" y="406.3" class="st7" width="31.3" height="31.3"/>
		<rect x="406.3" y="62.5" class="st7" width="31.3" height="31.3"/>
		<rect x="31.3" y="125" class="st7" width="31.3" height="31.3"/>
		<rect x="343.8" y="406.3" class="st7" width="31.3" height="31.3"/>
		<rect x="375" y="406.3" class="st7" width="31.3" height="31.3"/>
		<rect x="406.3" y="375" class="st7" width="31.3" height="31.3"/>
		<rect x="406.3" y="156.3" class="st7" width="31.3" height="31.3"/>
		<rect x="406.3" y="125" class="st7" width="31.3" height="31.3"/>
		<rect x="406.3" y="93.8" class="st7" width="31.3" height="31.3"/>
		<rect x="406.3" y="281.3" class="st7" width="31.3" height="31.3"/>
		<rect x="406.3" y="250" class="st7" width="31.3" height="31.3"/>
		<rect x="406.3" y="187.5" class="st7" width="31.3" height="31.3"/>
		<rect x="406.3" y="218.8" class="st7" width="31.3" height="31.3"/>
		<rect x="437.5" y="187.5" class="st7" width="31.3" height="31.3"/>
		<rect x="31.3" y="156.3" class="st7" width="31.3" height="31.3"/>
		<rect x="375" y="437.5" class="st7" width="31.3" height="31.3"/>
		<rect x="250" y="437.5" class="st7" width="31.3" height="31.3"/>
		<rect x="437.5" y="406.3" class="st7" width="31.3" height="31.3"/>
		<rect x="281.3" y="437.5" class="st7" width="31.3" height="31.3"/>
		<rect x="312.5" y="437.5" class="st7" width="31.3" height="31.3"/>
		<rect x="343.8" y="437.5" class="st7" width="31.3" height="31.3"/>
		<rect x="437.5" y="437.5" class="st7" width="31.3" height="31.3"/>
		<rect x="437.5" y="218.8" class="st7" width="31.3" height="31.3"/>
		<rect x="437.5" y="156.3" class="st7" width="31.3" height="31.3"/>
		<rect x="437.5" y="250" class="st7" width="31.3" height="31.3"/>
		<rect x="437.5" y="375" class="st7" width="31.3" height="31.3"/>
		<rect x="437.5" y="343.8" class="st7" width="31.3" height="31.3"/>
		<rect x="437.5" y="312.5" class="st7" width="31.3" height="31.3"/>
		<rect x="437.5" y="281.3" class="st7" width="31.3" height="31.3"/>
		<rect x="406.3" y="437.5" class="st7" width="31.3" height="31.3"/>
		<rect x="31.3" y="312.5" class="st7" width="31.3" height="31.3"/>
		<rect x="31.3" y="343.8" class="st7" width="31.3" height="31.3"/>
		<rect x="31.3" y="281.3" class="st7" width="31.3" height="31.3"/>
		<rect x="31.3" y="218.8" class="st7" width="31.3" height="31.3"/>
		<rect x="31.3" y="187.5" class="st7" width="31.3" height="31.3"/>
		<rect x="31.3" y="375" class="st7" width="31.3" height="31.3"/>
		<rect x="31.3" y="250" class="st7" width="31.3" height="31.3"/>
		<rect x="187.5" y="437.5" class="st7" width="31.3" height="31.3"/>
		<rect x="125" y="437.5" class="st7" width="31.3" height="31.3"/>
		<rect x="156.3" y="437.5" class="st7" width="31.3" height="31.3"/>
		<rect x="218.8" y="437.5" class="st7" width="31.3" height="31.3"/>
		<rect x="93.8" y="437.5" class="st7" width="31.3" height="31.3"/>
		<rect x="31.3" y="406.3" class="st7" width="31.3" height="31.3"/>
		<rect x="31.3" y="437.5" class="st7" width="31.3" height="31.3"/>
		<rect x="62.5" y="437.5" class="st7" width="31.3" height="31.3"/>
	</g>
	<g class="st6">
		<rect class="st8" width="500" height="500"/>
		<rect class="st8" width="62.5" height="62.5"/>
		<rect x="437.5" class="st8" width="62.5" height="62.5"/>
		<rect y="437.5" class="st8" width="62.5" height="62.5"/>
		<rect x="437.5" y="437.5" class="st8" width="62.5" height="62.5"/>
		<rect x="62.5" y="62.5" class="st8" width="187.5" height="187.5"/>
		<rect x="250" y="62.5" class="st8" width="187.5" height="187.5"/>
		<rect x="62.5" y="250" class="st8" width="187.5" height="187.5"/>
		<rect x="250" y="250" class="st8" width="187.5" height="187.5"/>
		<line class="st8" x1="0" y1="0" x2="500" y2="500"/>
		<line class="st8" x1="500" y1="0" x2="0" y2="500"/>
		<circle class="st8" cx="250" cy="250" r="187.5"/>
		<circle class="st8" cx="250" cy="250" r="250"/>
	</g>
	<rect x="62.5" class="st9" width="375" height="500"/>
	<line class="st9" x1="343.8" y1="0" x2="437.5" y2="93.8"/>
</g>
</svg>
