<?xml version="1.0" encoding="utf-8"?>
<!-- Generator: Adobe Illustrator 22.1.0, SVG Export Plug-In . SVG Version: 6.00 Build 0)  -->
<svg version="1.1" id="Layer_1" xmlns="http://www.w3.org/2000/svg" xmlns:xlink="http://www.w3.org/1999/xlink" x="0px" y="0px"
	 viewBox="0 0 500 500" style="enable-background:new 0 0 500 500;" xml:space="preserve">
<style type="text/css">
	.st0{fill:#FCFCFC;}
	.st1{fill:none;stroke:#FF6600;stroke-width:60;stroke-miterlimit:10;}
	.st2{fill:#FF6600;}
	.st3{display:none;}
	.st4{display:inline;}
	.st5{fill:none;stroke:#EDEDED;stroke-width:0.5;stroke-miterlimit:10;}
	.st6{fill:none;stroke:#BDBDBD;stroke-miterlimit:10;}
	.st7{fill:#FCFCFC;stroke:#000000;stroke-width:9;stroke-miterlimit:10;}
</style>
<rect class="st0" width="250" height="250"/>
<rect x="250" y="250" class="st0" width="250" height="250"/>
<g>
	<g>
		<path class="st1" d="M281.3,62.6c116.7-0.1,116.9,31.6,117.8,105"/>
		<g>
			<polygon class="st2" points="472.2,155 400,203.1 325.5,158.6 325.5,158.1 472.2,154.5 			"/>
		</g>
	</g>
</g>
<g id="Layer_7" class="st3">
	<g id="Layer_1_2_" class="st4">
		<g>
			<rect x="250" y="375" class="st5" width="31.3" height="31.3"/>
			<rect x="156.3" y="375" class="st5" width="31.3" height="31.3"/>
			<rect x="218.8" y="375" class="st5" width="31.3" height="31.3"/>
			<rect x="187.5" y="375" class="st5" width="31.3" height="31.3"/>
			<rect x="93.8" y="343.8" class="st5" width="31.3" height="31.3"/>
			<rect x="93.8" y="375" class="st5" width="31.3" height="31.3"/>
			<rect x="125" y="375" class="st5" width="31.3" height="31.3"/>
			<rect x="281.3" y="375" class="st5" width="31.3" height="31.3"/>
			<rect x="375" y="312.5" class="st5" width="31.3" height="31.3"/>
			<rect x="93.8" y="312.5" class="st5" width="31.3" height="31.3"/>
			<rect x="375" y="343.8" class="st5" width="31.3" height="31.3"/>
			<rect x="375" y="281.3" class="st5" width="31.3" height="31.3"/>
			<rect x="312.5" y="375" class="st5" width="31.3" height="31.3"/>
			<rect x="375" y="375" class="st5" width="31.3" height="31.3"/>
			<rect x="375" y="250" class="st5" width="31.3" height="31.3"/>
			<rect x="343.8" y="375" class="st5" width="31.3" height="31.3"/>
			<rect x="250" y="93.8" class="st5" width="31.3" height="31.3"/>
			<rect x="218.8" y="93.8" class="st5" width="31.3" height="31.3"/>
			<rect x="187.5" y="93.8" class="st5" width="31.3" height="31.3"/>
			<rect x="312.5" y="93.8" class="st5" width="31.3" height="31.3"/>
			<rect x="343.8" y="93.8" class="st5" width="31.3" height="31.3"/>
			<rect x="156.3" y="93.8" class="st5" width="31.3" height="31.3"/>
			<rect x="281.3" y="93.8" class="st5" width="31.3" height="31.3"/>
			<rect x="93.8" y="156.3" class="st5" width="31.3" height="31.3"/>
			<rect x="93.8" y="187.5" class="st5" width="31.3" height="31.3"/>
			<rect x="93.8" y="218.8" class="st5" width="31.3" height="31.3"/>
			<rect x="93.8" y="250" class="st5" width="31.3" height="31.3"/>
			<rect x="93.8" y="281.3" class="st5" width="31.3" height="31.3"/>
			<rect x="125" y="93.8" class="st5" width="31.3" height="31.3"/>
			<rect x="93.8" y="93.8" class="st5" width="31.3" height="31.3"/>
			<rect x="93.8" y="125" class="st5" width="31.3" height="31.3"/>
			<rect x="375" y="125" class="st5" width="31.3" height="31.3"/>
			<rect x="62.5" y="281.3" class="st5" width="31.3" height="31.3"/>
			<rect x="62.5" y="312.5" class="st5" width="31.3" height="31.3"/>
			<rect x="62.5" y="250" class="st5" width="31.3" height="31.3"/>
			<rect x="62.5" y="156.3" class="st5" width="31.3" height="31.3"/>
			<rect x="62.5" y="125" class="st5" width="31.3" height="31.3"/>
			<rect x="62.5" y="187.5" class="st5" width="31.3" height="31.3"/>
			<rect x="62.5" y="218.8" class="st5" width="31.3" height="31.3"/>
			<rect x="62.5" y="343.8" class="st5" width="31.3" height="31.3"/>
			<rect x="187.5" y="406.3" class="st5" width="31.3" height="31.3"/>
			<rect x="218.8" y="406.3" class="st5" width="31.3" height="31.3"/>
			<rect x="156.3" y="406.3" class="st5" width="31.3" height="31.3"/>
			<rect x="125" y="406.3" class="st5" width="31.3" height="31.3"/>
			<rect x="62.5" y="406.3" class="st5" width="31.3" height="31.3"/>
			<rect x="93.8" y="406.3" class="st5" width="31.3" height="31.3"/>
			<rect x="62.5" y="375" class="st5" width="31.3" height="31.3"/>
			<rect x="62.5" y="93.8" class="st5" width="31.3" height="31.3"/>
			<rect x="375" y="62.5" class="st5" width="31.3" height="31.3"/>
			<rect x="312.5" y="62.5" class="st5" width="31.3" height="31.3"/>
			<rect x="281.3" y="62.5" class="st5" width="31.3" height="31.3"/>
			<rect x="375" y="93.8" class="st5" width="31.3" height="31.3"/>
			<rect x="343.8" y="125" class="st5" width="31.3" height="31.3"/>
			<rect x="375" y="187.5" class="st5" width="31.3" height="31.3"/>
			<rect x="375" y="156.3" class="st5" width="31.3" height="31.3"/>
			<rect x="62.5" y="62.5" class="st5" width="31.3" height="31.3"/>
			<rect x="93.8" y="62.5" class="st5" width="31.3" height="31.3"/>
			<rect x="375" y="218.8" class="st5" width="31.3" height="31.3"/>
			<rect x="125" y="62.5" class="st5" width="31.3" height="31.3"/>
			<rect x="250" y="62.5" class="st5" width="31.3" height="31.3"/>
			<rect x="218.8" y="62.5" class="st5" width="31.3" height="31.3"/>
			<rect x="187.5" y="62.5" class="st5" width="31.3" height="31.3"/>
			<rect x="156.3" y="62.5" class="st5" width="31.3" height="31.3"/>
			<rect x="281.3" y="156.3" class="st5" width="31.3" height="31.3"/>
			<rect x="156.3" y="156.3" class="st5" width="31.3" height="31.3"/>
			<rect x="156.3" y="218.8" class="st5" width="31.3" height="31.3"/>
			<rect x="156.3" y="187.5" class="st5" width="31.3" height="31.3"/>
			<rect x="187.5" y="156.3" class="st5" width="31.3" height="31.3"/>
			<rect x="250" y="406.3" class="st5" width="31.3" height="31.3"/>
			<rect x="250" y="156.3" class="st5" width="31.3" height="31.3"/>
			<rect x="281.3" y="187.5" class="st5" width="31.3" height="31.3"/>
			<rect x="218.8" y="156.3" class="st5" width="31.3" height="31.3"/>
			<rect x="250" y="312.5" class="st5" width="31.3" height="31.3"/>
			<rect x="312.5" y="312.5" class="st5" width="31.3" height="31.3"/>
			<rect x="281.3" y="312.5" class="st5" width="31.3" height="31.3"/>
			<rect x="218.8" y="312.5" class="st5" width="31.3" height="31.3"/>
			<rect x="156.3" y="281.3" class="st5" width="31.3" height="31.3"/>
			<rect x="156.3" y="312.5" class="st5" width="31.3" height="31.3"/>
			<rect x="187.5" y="312.5" class="st5" width="31.3" height="31.3"/>
			<rect x="156.3" y="250" class="st5" width="31.3" height="31.3"/>
			<rect x="187.5" y="187.5" class="st5" width="31.3" height="31.3"/>
			<rect x="218.8" y="187.5" class="st5" width="31.3" height="31.3"/>
			<rect x="250" y="218.8" class="st5" width="31.3" height="31.3"/>
			<rect x="250" y="187.5" class="st5" width="31.3" height="31.3"/>
			<rect x="281.3" y="218.8" class="st5" width="31.3" height="31.3"/>
			<rect x="218.8" y="250" class="st5" width="31.3" height="31.3"/>
			<rect x="250" y="250" class="st5" width="31.3" height="31.3"/>
			<rect x="218.8" y="218.8" class="st5" width="31.3" height="31.3"/>
			<rect x="281.3" y="281.3" class="st5" width="31.3" height="31.3"/>
			<rect x="250" y="281.3" class="st5" width="31.3" height="31.3"/>
			<rect x="281.3" y="250" class="st5" width="31.3" height="31.3"/>
			<rect x="187.5" y="218.8" class="st5" width="31.3" height="31.3"/>
			<rect x="187.5" y="250" class="st5" width="31.3" height="31.3"/>
			<rect x="187.5" y="281.3" class="st5" width="31.3" height="31.3"/>
			<rect x="218.8" y="281.3" class="st5" width="31.3" height="31.3"/>
			<rect x="343.8" y="156.3" class="st5" width="31.3" height="31.3"/>
			<rect x="218.8" y="343.8" class="st5" width="31.3" height="31.3"/>
			<rect x="187.5" y="343.8" class="st5" width="31.3" height="31.3"/>
			<rect x="250" y="343.8" class="st5" width="31.3" height="31.3"/>
			<rect x="156.3" y="343.8" class="st5" width="31.3" height="31.3"/>
			<rect x="125" y="312.5" class="st5" width="31.3" height="31.3"/>
			<rect x="125" y="343.8" class="st5" width="31.3" height="31.3"/>
			<rect x="281.3" y="343.8" class="st5" width="31.3" height="31.3"/>
			<rect x="343.8" y="312.5" class="st5" width="31.3" height="31.3"/>
			<rect x="343.8" y="250" class="st5" width="31.3" height="31.3"/>
			<rect x="343.8" y="218.8" class="st5" width="31.3" height="31.3"/>
			<rect x="312.5" y="343.8" class="st5" width="31.3" height="31.3"/>
			<rect x="343.8" y="187.5" class="st5" width="31.3" height="31.3"/>
			<rect x="343.8" y="343.8" class="st5" width="31.3" height="31.3"/>
			<rect x="125" y="281.3" class="st5" width="31.3" height="31.3"/>
			<rect x="343.8" y="281.3" class="st5" width="31.3" height="31.3"/>
			<rect x="312.5" y="218.8" class="st5" width="31.3" height="31.3"/>
			<rect x="125" y="250" class="st5" width="31.3" height="31.3"/>
			<rect x="281.3" y="125" class="st5" width="31.3" height="31.3"/>
			<rect x="312.5" y="156.3" class="st5" width="31.3" height="31.3"/>
			<rect x="312.5" y="187.5" class="st5" width="31.3" height="31.3"/>
			<rect x="312.5" y="250" class="st5" width="31.3" height="31.3"/>
			<rect x="312.5" y="281.3" class="st5" width="31.3" height="31.3"/>
			<rect x="250" y="125" class="st5" width="31.3" height="31.3"/>
			<rect x="312.5" y="125" class="st5" width="31.3" height="31.3"/>
			<rect x="125" y="187.5" class="st5" width="31.3" height="31.3"/>
			<rect x="125" y="218.8" class="st5" width="31.3" height="31.3"/>
			<rect x="125" y="156.3" class="st5" width="31.3" height="31.3"/>
			<rect x="156.3" y="125" class="st5" width="31.3" height="31.3"/>
			<rect x="187.5" y="125" class="st5" width="31.3" height="31.3"/>
			<rect x="125" y="125" class="st5" width="31.3" height="31.3"/>
			<rect x="218.8" y="125" class="st5" width="31.3" height="31.3"/>
			<rect x="343.8" y="62.5" class="st5" width="31.3" height="31.3"/>
			<rect y="93.8" class="st5" width="31.3" height="31.3"/>
			<rect y="125" class="st5" width="31.3" height="31.3"/>
			<rect y="62.5" class="st5" width="31.3" height="31.3"/>
			<rect y="156.3" class="st5" width="31.3" height="31.3"/>
			<rect class="st5" width="31.3" height="31.3"/>
			<rect x="31.3" class="st5" width="31.3" height="31.3"/>
			<rect y="187.5" class="st5" width="31.3" height="31.3"/>
			<rect y="31.3" class="st5" width="31.3" height="31.3"/>
			<rect y="343.8" class="st5" width="31.3" height="31.3"/>
			<rect x="62.5" class="st5" width="31.3" height="31.3"/>
			<rect y="375" class="st5" width="31.3" height="31.3"/>
			<rect y="218.8" class="st5" width="31.3" height="31.3"/>
			<rect y="406.3" class="st5" width="31.3" height="31.3"/>
			<rect y="250" class="st5" width="31.3" height="31.3"/>
			<rect y="312.5" class="st5" width="31.3" height="31.3"/>
			<rect y="281.3" class="st5" width="31.3" height="31.3"/>
			<rect x="312.5" class="st5" width="31.3" height="31.3"/>
			<rect x="406.3" class="st5" width="31.3" height="31.3"/>
			<rect x="375" class="st5" width="31.3" height="31.3"/>
			<rect x="437.5" class="st5" width="31.3" height="31.3"/>
			<rect x="437.5" y="31.3" class="st5" width="31.3" height="31.3"/>
			<rect x="437.5" y="93.8" class="st5" width="31.3" height="31.3"/>
			<rect x="437.5" y="62.5" class="st5" width="31.3" height="31.3"/>
			<rect x="93.8" class="st5" width="31.3" height="31.3"/>
			<rect x="343.8" class="st5" width="31.3" height="31.3"/>
			<rect x="156.3" class="st5" width="31.3" height="31.3"/>
			<rect x="125" class="st5" width="31.3" height="31.3"/>
			<rect x="437.5" y="125" class="st5" width="31.3" height="31.3"/>
			<rect x="281.3" class="st5" width="31.3" height="31.3"/>
			<rect x="218.8" class="st5" width="31.3" height="31.3"/>
			<rect y="437.5" class="st5" width="31.3" height="31.3"/>
			<rect x="250" class="st5" width="31.3" height="31.3"/>
			<rect x="187.5" class="st5" width="31.3" height="31.3"/>
			<rect x="468.8" y="281.3" class="st5" width="31.3" height="31.3"/>
			<rect x="468.8" y="312.5" class="st5" width="31.3" height="31.3"/>
			<rect x="468.8" y="250" class="st5" width="31.3" height="31.3"/>
			<rect x="468.8" y="375" class="st5" width="31.3" height="31.3"/>
			<rect x="468.8" y="406.3" class="st5" width="31.3" height="31.3"/>
			<rect x="468.8" y="218.8" class="st5" width="31.3" height="31.3"/>
			<rect x="468.8" y="343.8" class="st5" width="31.3" height="31.3"/>
			<rect x="468.8" y="437.5" class="st5" width="31.3" height="31.3"/>
			<rect x="468.8" y="62.5" class="st5" width="31.3" height="31.3"/>
			<rect x="468.8" y="31.3" class="st5" width="31.3" height="31.3"/>
			<rect x="468.8" class="st5" width="31.3" height="31.3"/>
			<rect x="468.8" y="125" class="st5" width="31.3" height="31.3"/>
			<rect x="468.8" y="156.3" class="st5" width="31.3" height="31.3"/>
			<rect x="468.8" y="93.8" class="st5" width="31.3" height="31.3"/>
			<rect x="468.8" y="187.5" class="st5" width="31.3" height="31.3"/>
			<rect x="343.8" y="468.8" class="st5" width="31.3" height="31.3"/>
			<rect x="218.8" y="468.8" class="st5" width="31.3" height="31.3"/>
			<rect x="125" y="468.8" class="st5" width="31.3" height="31.3"/>
			<rect x="468.8" y="468.8" class="st5" width="31.3" height="31.3"/>
			<rect x="156.3" y="468.8" class="st5" width="31.3" height="31.3"/>
			<rect x="93.8" y="468.8" class="st5" width="31.3" height="31.3"/>
			<rect x="31.3" y="468.8" class="st5" width="31.3" height="31.3"/>
			<rect x="62.5" y="468.8" class="st5" width="31.3" height="31.3"/>
			<rect x="187.5" y="468.8" class="st5" width="31.3" height="31.3"/>
			<rect x="406.3" y="468.8" class="st5" width="31.3" height="31.3"/>
			<rect x="250" y="468.8" class="st5" width="31.3" height="31.3"/>
			<rect x="437.5" y="468.8" class="st5" width="31.3" height="31.3"/>
			<rect x="375" y="468.8" class="st5" width="31.3" height="31.3"/>
			<rect x="281.3" y="468.8" class="st5" width="31.3" height="31.3"/>
			<rect x="312.5" y="468.8" class="st5" width="31.3" height="31.3"/>
			<rect y="468.8" class="st5" width="31.3" height="31.3"/>
			<rect x="187.5" y="31.3" class="st5" width="31.3" height="31.3"/>
			<rect x="281.3" y="31.3" class="st5" width="31.3" height="31.3"/>
			<rect x="250" y="31.3" class="st5" width="31.3" height="31.3"/>
			<rect x="218.8" y="31.3" class="st5" width="31.3" height="31.3"/>
			<rect x="343.8" y="31.3" class="st5" width="31.3" height="31.3"/>
			<rect x="375" y="31.3" class="st5" width="31.3" height="31.3"/>
			<rect x="312.5" y="31.3" class="st5" width="31.3" height="31.3"/>
			<rect x="281.3" y="406.3" class="st5" width="31.3" height="31.3"/>
			<rect x="31.3" y="31.3" class="st5" width="31.3" height="31.3"/>
			<rect x="406.3" y="31.3" class="st5" width="31.3" height="31.3"/>
			<rect x="156.3" y="31.3" class="st5" width="31.3" height="31.3"/>
			<rect x="31.3" y="93.8" class="st5" width="31.3" height="31.3"/>
			<rect x="31.3" y="62.5" class="st5" width="31.3" height="31.3"/>
			<rect x="62.5" y="31.3" class="st5" width="31.3" height="31.3"/>
			<rect x="125" y="31.3" class="st5" width="31.3" height="31.3"/>
			<rect x="93.8" y="31.3" class="st5" width="31.3" height="31.3"/>
			<rect x="312.5" y="406.3" class="st5" width="31.3" height="31.3"/>
			<rect x="406.3" y="312.5" class="st5" width="31.3" height="31.3"/>
			<rect x="406.3" y="343.8" class="st5" width="31.3" height="31.3"/>
			<rect x="406.3" y="406.3" class="st5" width="31.3" height="31.3"/>
			<rect x="406.3" y="62.5" class="st5" width="31.3" height="31.3"/>
			<rect x="31.3" y="125" class="st5" width="31.3" height="31.3"/>
			<rect x="343.8" y="406.3" class="st5" width="31.3" height="31.3"/>
			<rect x="375" y="406.3" class="st5" width="31.3" height="31.3"/>
			<rect x="406.3" y="375" class="st5" width="31.3" height="31.3"/>
			<rect x="406.3" y="156.3" class="st5" width="31.3" height="31.3"/>
			<rect x="406.3" y="125" class="st5" width="31.3" height="31.3"/>
			<rect x="406.3" y="93.8" class="st5" width="31.3" height="31.3"/>
			<rect x="406.3" y="281.3" class="st5" width="31.3" height="31.3"/>
			<rect x="406.3" y="250" class="st5" width="31.3" height="31.3"/>
			<rect x="406.3" y="187.5" class="st5" width="31.3" height="31.3"/>
			<rect x="406.3" y="218.8" class="st5" width="31.3" height="31.3"/>
			<rect x="437.5" y="187.5" class="st5" width="31.3" height="31.3"/>
			<rect x="31.3" y="156.3" class="st5" width="31.3" height="31.3"/>
			<rect x="375" y="437.5" class="st5" width="31.3" height="31.3"/>
			<rect x="250" y="437.5" class="st5" width="31.3" height="31.3"/>
			<rect x="437.5" y="406.3" class="st5" width="31.3" height="31.3"/>
			<rect x="281.3" y="437.5" class="st5" width="31.3" height="31.3"/>
			<rect x="312.5" y="437.5" class="st5" width="31.3" height="31.3"/>
			<rect x="343.8" y="437.5" class="st5" width="31.3" height="31.3"/>
			<rect x="437.5" y="437.5" class="st5" width="31.3" height="31.3"/>
			<rect x="437.5" y="218.8" class="st5" width="31.3" height="31.3"/>
			<rect x="437.5" y="156.3" class="st5" width="31.3" height="31.3"/>
			<rect x="437.5" y="250" class="st5" width="31.3" height="31.3"/>
			<rect x="437.5" y="375" class="st5" width="31.3" height="31.3"/>
			<rect x="437.5" y="343.8" class="st5" width="31.3" height="31.3"/>
			<rect x="437.5" y="312.5" class="st5" width="31.3" height="31.3"/>
			<rect x="437.5" y="281.3" class="st5" width="31.3" height="31.3"/>
			<rect x="406.3" y="437.5" class="st5" width="31.3" height="31.3"/>
			<rect x="31.3" y="312.5" class="st5" width="31.3" height="31.3"/>
			<rect x="31.3" y="343.8" class="st5" width="31.3" height="31.3"/>
			<rect x="31.3" y="281.3" class="st5" width="31.3" height="31.3"/>
			<rect x="31.3" y="218.8" class="st5" width="31.3" height="31.3"/>
			<rect x="31.3" y="187.5" class="st5" width="31.3" height="31.3"/>
			<rect x="31.3" y="375" class="st5" width="31.3" height="31.3"/>
			<rect x="31.3" y="250" class="st5" width="31.3" height="31.3"/>
			<rect x="187.5" y="437.5" class="st5" width="31.3" height="31.3"/>
			<rect x="125" y="437.5" class="st5" width="31.3" height="31.3"/>
			<rect x="156.3" y="437.5" class="st5" width="31.3" height="31.3"/>
			<rect x="218.8" y="437.5" class="st5" width="31.3" height="31.3"/>
			<rect x="93.8" y="437.5" class="st5" width="31.3" height="31.3"/>
			<rect x="31.3" y="406.3" class="st5" width="31.3" height="31.3"/>
			<rect x="31.3" y="437.5" class="st5" width="31.3" height="31.3"/>
			<rect x="62.5" y="437.5" class="st5" width="31.3" height="31.3"/>
		</g>
		<g>
			<rect class="st6" width="500" height="500"/>
			<rect class="st6" width="62.5" height="62.5"/>
			<rect x="437.5" class="st6" width="62.5" height="62.5"/>
			<rect y="437.5" class="st6" width="62.5" height="62.5"/>
			<rect x="437.5" y="437.5" class="st6" width="62.5" height="62.5"/>
			<rect x="62.5" y="62.5" class="st6" width="187.5" height="187.5"/>
			<rect x="250" y="62.5" class="st6" width="187.5" height="187.5"/>
			<rect x="62.5" y="250" class="st6" width="187.5" height="187.5"/>
			<rect x="250" y="250" class="st6" width="187.5" height="187.5"/>
			<line class="st6" x1="0" y1="0" x2="500" y2="500"/>
			<line class="st6" x1="500" y1="0" x2="0" y2="500"/>
			<circle class="st6" cx="250" cy="250" r="187.5"/>
			<circle class="st6" cx="250" cy="250" r="250"/>
		</g>
		<rect x="62.5" class="st6" width="375" height="500"/>
	</g>
</g>
<line class="st7" x1="375.1" y1="250" x2="375" y2="500.1"/>
<line class="st7" x1="250" y1="375" x2="500.1" y2="375"/>
<path class="st7" d="M628,437.5"/>
<rect x="125" y="125" width="125" height="125"/>
<rect x="0" y="0.1" width="125" height="125"/>
</svg>
