<?xml version="1.0" encoding="utf-8"?>
<!-- Generator: Adobe Illustrator 22.1.0, SVG Export Plug-In . SVG Version: 6.00 Build 0)  -->
<svg version="1.1" id="Layer_1" xmlns="http://www.w3.org/2000/svg" xmlns:xlink="http://www.w3.org/1999/xlink" x="0px" y="0px"
	 viewBox="0 0 500 500" style="enable-background:new 0 0 500 500;" xml:space="preserve">
<style type="text/css">
	.st0{display:none;}
	.st1{fill:#FFFFFF;}
	.st2{fill:#FF6700;}
	.st3{opacity:0.5;fill:url(#SVGID_1_);enable-background:new    ;}
	.st4{fill:#C9C9C9;}
	.st5{fill:#969696;}
	.st6{fill:#DDDDDD;}
	.st7{fill:#BDBDBD;}
	.st8{opacity:0.5;fill:url(#SVGID_2_);enable-background:new    ;}
	.st9{display:inline;}
	.st10{fill:none;stroke:#EDEDED;stroke-width:0.5;stroke-miterlimit:10;}
	.st11{fill:none;stroke:#BDBDBD;stroke-miterlimit:10;}
	.st12{display:inline;fill:none;stroke:#BDBDBD;stroke-miterlimit:10;}
</style>
<g id="Layer_7" class="st0">
</g>
<g id="Layer_5">
	<path class="st1" d="M428.7,500H71.3C31.9,500,0,468.1,0,428.7V71.3C0,31.9,31.9,0,71.3,0h272.4c34,37.3,118.9,122.3,156.3,156.3
		v272.4C500,468.1,468.1,500,428.7,500z"/>
</g>
<g id="Layer_9">
	<path class="st2" d="M406.3,468.8H93.8c-38.5,0-62.5-24-62.5-62.5V93.8c0-38.5,24-62.5,62.5-62.5h250C426.4,78.5,369.7,68,466,137
		l2.8,269.3C468.8,444.8,444.8,468.8,406.3,468.8z"/>
	
		<linearGradient id="SVGID_1_" gradientUnits="userSpaceOnUse" x1="422.4414" y1="31.0015" x2="303.151" y2="237.6186" gradientTransform="matrix(1 0 0 -1 0 502)">
		<stop  offset="0" style="stop-color:#FF6600"/>
		<stop  offset="1" style="stop-color:#231F20"/>
	</linearGradient>
	<path class="st3" d="M193,347l31-36.5c-1-2.7,117-53.9,119.8-54L464,203.1l4.8,36.9l0.4,144.8c0.1,0.4,0.2,0.8,0.2,1.3
		c-0.2,47.2-6.4,72.7-48.5,80.2c-0.6,0.1-1.2,0.5-1.8,0.5l-137.8,2c-1.6,0-56.3,0-56.3,0l-6.2-31.3"/>
</g>
<g id="Layer_5_1_">
	<path class="st4" d="M209.7,468.8l40.4,0L59.8,213.3c0,0-15.6-5.6-15.6,11.5"/>
</g>
<g id="Layer_4_1_">
	<polyline class="st5" points="348.2,312.4 306,269 328.1,261.7 359.4,296.9 359.4,317 	"/>
</g>
<g id="Layer_3">
	<path class="st6" d="M187.5,125c0,0,57.5,50,84.5,0s35-62.5,35-62.5L453.1,177c0,0,33.5,55.7-17.2,97.4
		c-111.5,91.6-92.1,6.9-92.1,6.9"/>
</g>
<g id="Layer_4">
	<polyline class="st7" points="500,156.3 343.8,156.3 343.8,0 	"/>
	
		<linearGradient id="SVGID_2_" gradientUnits="userSpaceOnUse" x1="517.8989" y1="290.275" x2="363.325" y2="379.5183" gradientTransform="matrix(1 0 0 -1 0 502)">
		<stop  offset="0" style="stop-color:#FFFFFF"/>
		<stop  offset="1" style="stop-color:#231F20"/>
	</linearGradient>
	<polyline class="st8" points="500,156.3 499.9,242.9 466.8,218.7 458.9,189.7 453.1,177 343.8,156.3 343.8,156.3 	"/>
</g>
<g id="Layer_6">
</g>
<g id="Layer_2">
	<path class="st1" d="M147.1,128c45.5-13.5,79,6.1,79,6.1l117.7,147.2c0,0-15.6-19.6-63.8,8c-45.5,26.1-72.3,102.3-61.2,148.2
		C229,457,83,250,62.6,218.8C71.1,178.3,110,139,147.1,128z"/>
</g>
<g id="Layer_1_1_" class="st0">
	<g class="st9">
		<rect x="250" y="375" class="st10" width="31.3" height="31.3"/>
		<rect x="156.3" y="375" class="st10" width="31.3" height="31.3"/>
		<rect x="218.8" y="375" class="st10" width="31.3" height="31.3"/>
		<rect x="187.5" y="375" class="st10" width="31.3" height="31.3"/>
		<rect x="93.8" y="343.8" class="st10" width="31.3" height="31.3"/>
		<rect x="93.8" y="375" class="st10" width="31.3" height="31.3"/>
		<rect x="125" y="375" class="st10" width="31.3" height="31.3"/>
		<rect x="281.3" y="375" class="st10" width="31.3" height="31.3"/>
		<rect x="375" y="312.5" class="st10" width="31.3" height="31.3"/>
		<rect x="93.8" y="312.5" class="st10" width="31.3" height="31.3"/>
		<rect x="375" y="343.8" class="st10" width="31.3" height="31.3"/>
		<rect x="375" y="281.3" class="st10" width="31.3" height="31.3"/>
		<rect x="312.5" y="375" class="st10" width="31.3" height="31.3"/>
		<rect x="375" y="375" class="st10" width="31.3" height="31.3"/>
		<rect x="375" y="250" class="st10" width="31.3" height="31.3"/>
		<rect x="343.8" y="375" class="st10" width="31.3" height="31.3"/>
		<rect x="250" y="93.8" class="st10" width="31.3" height="31.3"/>
		<rect x="218.8" y="93.8" class="st10" width="31.3" height="31.3"/>
		<rect x="187.5" y="93.8" class="st10" width="31.3" height="31.3"/>
		<rect x="312.5" y="93.8" class="st10" width="31.3" height="31.3"/>
		<rect x="343.8" y="93.8" class="st10" width="31.3" height="31.3"/>
		<rect x="156.3" y="93.8" class="st10" width="31.3" height="31.3"/>
		<rect x="281.3" y="93.8" class="st10" width="31.3" height="31.3"/>
		<rect x="93.8" y="156.3" class="st10" width="31.3" height="31.3"/>
		<rect x="93.8" y="187.5" class="st10" width="31.3" height="31.3"/>
		<rect x="93.8" y="218.8" class="st10" width="31.3" height="31.3"/>
		<rect x="93.8" y="250" class="st10" width="31.3" height="31.3"/>
		<rect x="93.8" y="281.3" class="st10" width="31.3" height="31.3"/>
		<rect x="125" y="93.8" class="st10" width="31.3" height="31.3"/>
		<rect x="93.8" y="93.8" class="st10" width="31.3" height="31.3"/>
		<rect x="93.8" y="125" class="st10" width="31.3" height="31.3"/>
		<rect x="375" y="125" class="st10" width="31.3" height="31.3"/>
		<rect x="62.5" y="281.3" class="st10" width="31.3" height="31.3"/>
		<rect x="62.5" y="312.5" class="st10" width="31.3" height="31.3"/>
		<rect x="62.5" y="156.3" class="st10" width="31.3" height="31.3"/>
		<rect x="62.5" y="125" class="st10" width="31.3" height="31.3"/>
		<rect x="62.5" y="187.5" class="st10" width="31.3" height="31.3"/>
		<rect x="62.5" y="218.8" class="st10" width="31.3" height="31.3"/>
		<rect x="62.5" y="343.8" class="st10" width="31.3" height="31.3"/>
		<rect x="187.5" y="406.3" class="st10" width="31.3" height="31.3"/>
		<rect x="218.8" y="406.3" class="st10" width="31.3" height="31.3"/>
		<rect x="156.3" y="406.3" class="st10" width="31.3" height="31.3"/>
		<rect x="125" y="406.3" class="st10" width="31.3" height="31.3"/>
		<rect x="62.5" y="406.3" class="st10" width="31.3" height="31.3"/>
		<rect x="93.8" y="406.3" class="st10" width="31.3" height="31.3"/>
		<rect x="62.5" y="375" class="st10" width="31.3" height="31.3"/>
		<rect x="62.5" y="93.8" class="st10" width="31.3" height="31.3"/>
		<rect x="375" y="62.5" class="st10" width="31.3" height="31.3"/>
		<rect x="312.5" y="62.5" class="st10" width="31.3" height="31.3"/>
		<rect x="281.3" y="62.5" class="st10" width="31.3" height="31.3"/>
		<rect x="375" y="93.8" class="st10" width="31.3" height="31.3"/>
		<rect x="343.8" y="125" class="st10" width="31.3" height="31.3"/>
		<rect x="375" y="187.5" class="st10" width="31.3" height="31.3"/>
		<rect x="375" y="156.3" class="st10" width="31.3" height="31.3"/>
		<rect x="62.5" y="62.5" class="st10" width="31.3" height="31.3"/>
		<rect x="93.8" y="62.5" class="st10" width="31.3" height="31.3"/>
		<rect x="375" y="218.8" class="st10" width="31.3" height="31.3"/>
		<rect x="125" y="62.5" class="st10" width="31.3" height="31.3"/>
		<rect x="250" y="62.5" class="st10" width="31.3" height="31.3"/>
		<rect x="218.8" y="62.5" class="st10" width="31.3" height="31.3"/>
		<rect x="187.5" y="62.5" class="st10" width="31.3" height="31.3"/>
		<rect x="156.3" y="62.5" class="st10" width="31.3" height="31.3"/>
		<rect x="281.3" y="156.3" class="st10" width="31.3" height="31.3"/>
		<rect x="156.3" y="156.3" class="st10" width="31.3" height="31.3"/>
		<rect x="156.3" y="218.8" class="st10" width="31.3" height="31.3"/>
		<rect x="156.3" y="187.5" class="st10" width="31.3" height="31.3"/>
		<rect x="187.5" y="156.3" class="st10" width="31.3" height="31.3"/>
		<rect x="250" y="406.3" class="st10" width="31.3" height="31.3"/>
		<rect x="250" y="156.3" class="st10" width="31.3" height="31.3"/>
		<rect x="281.3" y="187.5" class="st10" width="31.3" height="31.3"/>
		<rect x="218.8" y="156.3" class="st10" width="31.3" height="31.3"/>
		<rect x="250" y="312.5" class="st10" width="31.3" height="31.3"/>
		<rect x="312.5" y="312.5" class="st10" width="31.3" height="31.3"/>
		<rect x="281.3" y="312.5" class="st10" width="31.3" height="31.3"/>
		<rect x="218.8" y="312.5" class="st10" width="31.3" height="31.3"/>
		<rect x="156.3" y="281.3" class="st10" width="31.3" height="31.3"/>
		<rect x="156.3" y="312.5" class="st10" width="31.3" height="31.3"/>
		<rect x="187.5" y="312.5" class="st10" width="31.3" height="31.3"/>
		<rect x="156.3" y="250" class="st10" width="31.3" height="31.3"/>
		<rect x="187.5" y="187.5" class="st10" width="31.3" height="31.3"/>
		<rect x="218.8" y="187.5" class="st10" width="31.3" height="31.3"/>
		<rect x="250" y="218.8" class="st10" width="31.3" height="31.3"/>
		<rect x="250" y="187.5" class="st10" width="31.3" height="31.3"/>
		<rect x="281.3" y="218.8" class="st10" width="31.3" height="31.3"/>
		<rect x="218.8" y="250" class="st10" width="31.3" height="31.3"/>
		<rect x="250" y="250" class="st10" width="31.3" height="31.3"/>
		<rect x="218.8" y="218.8" class="st10" width="31.3" height="31.3"/>
		<rect x="281.3" y="281.3" class="st10" width="31.3" height="31.3"/>
		<rect x="250" y="281.3" class="st10" width="31.3" height="31.3"/>
		<rect x="281.3" y="250" class="st10" width="31.3" height="31.3"/>
		<rect x="187.5" y="218.8" class="st10" width="31.3" height="31.3"/>
		<rect x="187.5" y="250" class="st10" width="31.3" height="31.3"/>
		<rect x="187.5" y="281.3" class="st10" width="31.3" height="31.3"/>
		<rect x="218.8" y="281.3" class="st10" width="31.3" height="31.3"/>
		<rect x="343.8" y="156.3" class="st10" width="31.3" height="31.3"/>
		<rect x="218.8" y="343.8" class="st10" width="31.3" height="31.3"/>
		<rect x="187.5" y="343.8" class="st10" width="31.3" height="31.3"/>
		<rect x="250" y="343.8" class="st10" width="31.3" height="31.3"/>
		<rect x="156.3" y="343.8" class="st10" width="31.3" height="31.3"/>
		<rect x="125" y="312.5" class="st10" width="31.3" height="31.3"/>
		<rect x="125" y="343.8" class="st10" width="31.3" height="31.3"/>
		<rect x="281.3" y="343.8" class="st10" width="31.3" height="31.3"/>
		<rect x="343.8" y="312.5" class="st10" width="31.3" height="31.3"/>
		<rect x="343.8" y="250" class="st10" width="31.3" height="31.3"/>
		<rect x="343.8" y="218.8" class="st10" width="31.3" height="31.3"/>
		<rect x="312.5" y="343.8" class="st10" width="31.3" height="31.3"/>
		<rect x="343.8" y="187.5" class="st10" width="31.3" height="31.3"/>
		<rect x="343.8" y="343.8" class="st10" width="31.3" height="31.3"/>
		<rect x="125" y="281.3" class="st10" width="31.3" height="31.3"/>
		<rect x="343.8" y="281.3" class="st10" width="31.3" height="31.3"/>
		<rect x="312.5" y="218.8" class="st10" width="31.3" height="31.3"/>
		<rect x="125" y="250" class="st10" width="31.3" height="31.3"/>
		<rect x="281.3" y="125" class="st10" width="31.3" height="31.3"/>
		<rect x="312.5" y="156.3" class="st10" width="31.3" height="31.3"/>
		<rect x="312.5" y="187.5" class="st10" width="31.3" height="31.3"/>
		<rect x="312.5" y="250" class="st10" width="31.3" height="31.3"/>
		<rect x="312.5" y="281.3" class="st10" width="31.3" height="31.3"/>
		<rect x="250" y="125" class="st10" width="31.3" height="31.3"/>
		<rect x="312.5" y="125" class="st10" width="31.3" height="31.3"/>
		<rect x="125" y="187.5" class="st10" width="31.3" height="31.3"/>
		<rect x="125" y="218.8" class="st10" width="31.3" height="31.3"/>
		<rect x="125" y="156.3" class="st10" width="31.3" height="31.3"/>
		<rect x="156.3" y="125" class="st10" width="31.3" height="31.3"/>
		<rect x="187.5" y="125" class="st10" width="31.3" height="31.3"/>
		<rect x="125" y="125" class="st10" width="31.3" height="31.3"/>
		<rect x="218.8" y="125" class="st10" width="31.3" height="31.3"/>
		<rect x="343.8" y="62.5" class="st10" width="31.3" height="31.3"/>
		<rect y="93.8" class="st10" width="31.3" height="31.3"/>
		<rect y="125" class="st10" width="31.3" height="31.3"/>
		<rect y="62.5" class="st10" width="31.3" height="31.3"/>
		<rect y="156.3" class="st10" width="31.3" height="31.3"/>
		<rect class="st10" width="31.3" height="31.3"/>
		<rect x="31.3" class="st10" width="31.3" height="31.3"/>
		<rect y="187.5" class="st10" width="31.3" height="31.3"/>
		<rect y="31.3" class="st10" width="31.3" height="31.3"/>
		<rect y="343.8" class="st10" width="31.3" height="31.3"/>
		<rect x="62.5" class="st10" width="31.3" height="31.3"/>
		<rect y="375" class="st10" width="31.3" height="31.3"/>
		<rect y="218.8" class="st10" width="31.3" height="31.3"/>
		<rect y="406.3" class="st10" width="31.3" height="31.3"/>
		<rect y="250" class="st10" width="31.3" height="31.3"/>
		<rect y="312.5" class="st10" width="31.3" height="31.3"/>
		<rect y="281.3" class="st10" width="31.3" height="31.3"/>
		<rect x="312.5" class="st10" width="31.3" height="31.3"/>
		<rect x="406.3" class="st10" width="31.3" height="31.3"/>
		<rect x="375" class="st10" width="31.3" height="31.3"/>
		<rect x="437.5" class="st10" width="31.3" height="31.3"/>
		<rect x="437.5" y="31.3" class="st10" width="31.3" height="31.3"/>
		<rect x="437.5" y="93.8" class="st10" width="31.3" height="31.3"/>
		<rect x="437.5" y="62.5" class="st10" width="31.3" height="31.3"/>
		<rect x="93.8" class="st10" width="31.3" height="31.3"/>
		<rect x="343.8" class="st10" width="31.3" height="31.3"/>
		<rect x="156.3" class="st10" width="31.3" height="31.3"/>
		<rect x="125" class="st10" width="31.3" height="31.3"/>
		<rect x="437.5" y="125" class="st10" width="31.3" height="31.3"/>
		<rect x="281.3" class="st10" width="31.3" height="31.3"/>
		<rect x="218.8" class="st10" width="31.3" height="31.3"/>
		<rect y="437.5" class="st10" width="31.3" height="31.3"/>
		<rect x="250" class="st10" width="31.3" height="31.3"/>
		<rect x="187.5" class="st10" width="31.3" height="31.3"/>
		<rect x="468.8" y="281.3" class="st10" width="31.3" height="31.3"/>
		<rect x="468.8" y="312.5" class="st10" width="31.3" height="31.3"/>
		<rect x="468.8" y="250" class="st10" width="31.3" height="31.3"/>
		<rect x="468.8" y="375" class="st10" width="31.3" height="31.3"/>
		<rect x="468.8" y="406.3" class="st10" width="31.3" height="31.3"/>
		<rect x="468.8" y="218.8" class="st10" width="31.3" height="31.3"/>
		<rect x="468.8" y="343.8" class="st10" width="31.3" height="31.3"/>
		<rect x="468.8" y="437.5" class="st10" width="31.3" height="31.3"/>
		<rect x="468.8" y="62.5" class="st10" width="31.3" height="31.3"/>
		<rect x="468.8" y="31.3" class="st10" width="31.3" height="31.3"/>
		<rect x="468.8" class="st10" width="31.3" height="31.3"/>
		<rect x="468.8" y="125" class="st10" width="31.3" height="31.3"/>
		<rect x="468.8" y="156.3" class="st10" width="31.3" height="31.3"/>
		<rect x="468.8" y="93.8" class="st10" width="31.3" height="31.3"/>
		<rect x="468.8" y="187.5" class="st10" width="31.3" height="31.3"/>
		<rect x="343.8" y="468.8" class="st10" width="31.3" height="31.3"/>
		<rect x="218.8" y="468.8" class="st10" width="31.3" height="31.3"/>
		<rect x="125" y="468.8" class="st10" width="31.3" height="31.3"/>
		<rect x="468.8" y="468.8" class="st10" width="31.3" height="31.3"/>
		<rect x="156.3" y="468.8" class="st10" width="31.3" height="31.3"/>
		<rect x="93.8" y="468.8" class="st10" width="31.3" height="31.3"/>
		<rect x="31.3" y="468.8" class="st10" width="31.3" height="31.3"/>
		<rect x="62.5" y="468.8" class="st10" width="31.3" height="31.3"/>
		<rect x="187.5" y="468.8" class="st10" width="31.3" height="31.3"/>
		<rect x="406.3" y="468.8" class="st10" width="31.3" height="31.3"/>
		<rect x="250" y="468.8" class="st10" width="31.3" height="31.3"/>
		<rect x="437.5" y="468.8" class="st10" width="31.3" height="31.3"/>
		<rect x="375" y="468.8" class="st10" width="31.3" height="31.3"/>
		<rect x="281.3" y="468.8" class="st10" width="31.3" height="31.3"/>
		<rect x="312.5" y="468.8" class="st10" width="31.3" height="31.3"/>
		<rect y="468.8" class="st10" width="31.3" height="31.3"/>
		<rect x="187.5" y="31.3" class="st10" width="31.3" height="31.3"/>
		<rect x="281.3" y="31.3" class="st10" width="31.3" height="31.3"/>
		<rect x="250" y="31.3" class="st10" width="31.3" height="31.3"/>
		<rect x="218.8" y="31.3" class="st10" width="31.3" height="31.3"/>
		<rect x="343.8" y="31.3" class="st10" width="31.3" height="31.3"/>
		<rect x="375" y="31.3" class="st10" width="31.3" height="31.3"/>
		<rect x="312.5" y="31.3" class="st10" width="31.3" height="31.3"/>
		<rect x="281.3" y="406.3" class="st10" width="31.3" height="31.3"/>
		<rect x="31.3" y="31.3" class="st10" width="31.3" height="31.3"/>
		<rect x="406.3" y="31.3" class="st10" width="31.3" height="31.3"/>
		<rect x="156.3" y="31.3" class="st10" width="31.3" height="31.3"/>
		<rect x="31.3" y="93.8" class="st10" width="31.3" height="31.3"/>
		<rect x="31.3" y="62.5" class="st10" width="31.3" height="31.3"/>
		<rect x="62.5" y="31.3" class="st10" width="31.3" height="31.3"/>
		<rect x="125" y="31.3" class="st10" width="31.3" height="31.3"/>
		<rect x="93.8" y="31.3" class="st10" width="31.3" height="31.3"/>
		<rect x="312.5" y="406.3" class="st10" width="31.3" height="31.3"/>
		<rect x="406.3" y="312.5" class="st10" width="31.3" height="31.3"/>
		<rect x="406.3" y="343.8" class="st10" width="31.3" height="31.3"/>
		<rect x="406.3" y="406.3" class="st10" width="31.3" height="31.3"/>
		<rect x="406.3" y="62.5" class="st10" width="31.3" height="31.3"/>
		<rect x="31.3" y="125" class="st10" width="31.3" height="31.3"/>
		<rect x="343.8" y="406.3" class="st10" width="31.3" height="31.3"/>
		<rect x="375" y="406.3" class="st10" width="31.3" height="31.3"/>
		<rect x="406.3" y="375" class="st10" width="31.3" height="31.3"/>
		<rect x="406.3" y="156.3" class="st10" width="31.3" height="31.3"/>
		<rect x="406.3" y="125" class="st10" width="31.3" height="31.3"/>
		<rect x="406.3" y="93.8" class="st10" width="31.3" height="31.3"/>
		<rect x="406.3" y="281.3" class="st10" width="31.3" height="31.3"/>
		<rect x="406.3" y="250" class="st10" width="31.3" height="31.3"/>
		<rect x="406.3" y="187.5" class="st10" width="31.3" height="31.3"/>
		<rect x="406.3" y="218.8" class="st10" width="31.3" height="31.3"/>
		<rect x="437.5" y="187.5" class="st10" width="31.3" height="31.3"/>
		<rect x="31.3" y="156.3" class="st10" width="31.3" height="31.3"/>
		<rect x="375" y="437.5" class="st10" width="31.3" height="31.3"/>
		<rect x="250" y="437.5" class="st10" width="31.3" height="31.3"/>
		<rect x="437.5" y="406.3" class="st10" width="31.3" height="31.3"/>
		<rect x="281.3" y="437.5" class="st10" width="31.3" height="31.3"/>
		<rect x="312.5" y="437.5" class="st10" width="31.3" height="31.3"/>
		<rect x="343.8" y="437.5" class="st10" width="31.3" height="31.3"/>
		<rect x="437.5" y="437.5" class="st10" width="31.3" height="31.3"/>
		<rect x="437.5" y="218.8" class="st10" width="31.3" height="31.3"/>
		<rect x="437.5" y="156.3" class="st10" width="31.3" height="31.3"/>
		<rect x="437.5" y="250" class="st10" width="31.3" height="31.3"/>
		<rect x="437.5" y="375" class="st10" width="31.3" height="31.3"/>
		<rect x="437.5" y="343.8" class="st10" width="31.3" height="31.3"/>
		<rect x="437.5" y="312.5" class="st10" width="31.3" height="31.3"/>
		<rect x="437.5" y="281.3" class="st10" width="31.3" height="31.3"/>
		<rect x="406.3" y="437.5" class="st10" width="31.3" height="31.3"/>
		<rect x="31.3" y="312.5" class="st10" width="31.3" height="31.3"/>
		<rect x="31.3" y="343.8" class="st10" width="31.3" height="31.3"/>
		<rect x="31.3" y="281.3" class="st10" width="31.3" height="31.3"/>
		<rect x="31.3" y="218.8" class="st10" width="31.3" height="31.3"/>
		<rect x="31.3" y="187.5" class="st10" width="31.3" height="31.3"/>
		<rect x="31.3" y="375" class="st10" width="31.3" height="31.3"/>
		<rect x="31.3" y="250" class="st10" width="31.3" height="31.3"/>
		<rect x="187.5" y="437.5" class="st10" width="31.3" height="31.3"/>
		<rect x="125" y="437.5" class="st10" width="31.3" height="31.3"/>
		<rect x="156.3" y="437.5" class="st10" width="31.3" height="31.3"/>
		<rect x="218.8" y="437.5" class="st10" width="31.3" height="31.3"/>
		<rect x="93.8" y="437.5" class="st10" width="31.3" height="31.3"/>
		<rect x="31.3" y="406.3" class="st10" width="31.3" height="31.3"/>
		<rect x="31.3" y="437.5" class="st10" width="31.3" height="31.3"/>
		<rect x="62.5" y="437.5" class="st10" width="31.3" height="31.3"/>
	</g>
	<g class="st9">
		<rect class="st11" width="500" height="500"/>
		<rect class="st11" width="62.5" height="62.5"/>
		<rect x="437.5" class="st11" width="62.5" height="62.5"/>
		<rect y="437.5" class="st11" width="62.5" height="62.5"/>
		<rect x="437.5" y="437.5" class="st11" width="62.5" height="62.5"/>
		<rect x="62.5" y="62.5" class="st11" width="187.5" height="187.5"/>
		<rect x="250" y="62.5" class="st11" width="187.5" height="187.5"/>
		<rect x="62.5" y="250" class="st11" width="187.5" height="187.5"/>
		<rect x="250" y="250" class="st11" width="187.5" height="187.5"/>
		<line class="st11" x1="0" y1="0" x2="500" y2="500"/>
		<line class="st11" x1="500" y1="0" x2="0" y2="500"/>
		<circle class="st11" cx="250" cy="250" r="187.5"/>
		<circle class="st11" cx="250" cy="250" r="250"/>
	</g>
	<rect x="62.5" class="st12" width="375" height="500"/>
	<line class="st12" x1="343.8" y1="0" x2="437.5" y2="93.8"/>
</g>
</svg>
