<?xml version="1.0" encoding="utf-8"?>
<!-- Generator: Adobe Illustrator 22.1.0, SVG Export Plug-In . SVG Version: 6.00 Build 0)  -->
<svg version="1.1" xmlns="http://www.w3.org/2000/svg" xmlns:xlink="http://www.w3.org/1999/xlink" x="0px" y="0px"
	 viewBox="0 0 500 500" style="enable-background:new 0 0 500 500;" xml:space="preserve">
<style type="text/css">
	.st0{fill:#FF6600;}
	.st1{fill:url(#SVGID_1_);}
	.st2{fill:#B5B5B5;}
	.st3{opacity:0.5;fill:url(#SVGID_2_);enable-background:new    ;}
	.st4{fill:#FFFFFF;}
	.st5{fill:#D1D3D4;}
	.st6{display:none;}
	.st7{display:inline;}
	.st8{fill:none;stroke:#EDEDED;stroke-width:0.5;stroke-miterlimit:10;}
	.st9{display:inline;fill:none;stroke:#BDBDBD;stroke-miterlimit:10;}
</style>
<g id="Layer_1">
	<g id="Layer_2_1_">
		<path class="st0" d="M400,500H100C44.8,500,0,455.2,0,400V100C0,44.8,44.8,0,100,0h300c55.2,0,100,44.8,100,100v300
			C500,455.2,455.2,500,400,500z"/>
	</g>
	<g id="Layer_3_copy">
		
			<linearGradient id="SVGID_1_" gradientUnits="userSpaceOnUse" x1="771" y1="158.6" x2="771" y2="158.6" gradientTransform="matrix(1 0 0 -1 0 502)">
			<stop  offset="0" style="stop-color:#FF6600"/>
			<stop  offset="1" style="stop-color:#231F20"/>
		</linearGradient>
		<path class="st1" d="M771,343.4"/>
	</g>
	<path class="st2" d="M68.8,358.8"/>
	
		<linearGradient id="SVGID_2_" gradientUnits="userSpaceOnUse" x1="501.342" y1="77.3795" x2="197.5238" y2="252.789" gradientTransform="matrix(1 0 0 -1 0 502)">
		<stop  offset="0" style="stop-color:#FF6600"/>
		<stop  offset="1" style="stop-color:#231F20"/>
	</linearGradient>
	<path class="st3" d="M172,317l134.2-110l80.8-87l113,127l0,0v58v95c0,51.5-41.3,101-97.3,100l-183.9,0.1l-99.4-115.6L208,310"/>
</g>
<g id="Layer_3">
</g>
<g id="Layer_4">
	<circle class="st4" cx="250" cy="250" r="187.5"/>
	<path class="st5" d="M250,437.5c103.6,0,187.5-83.9,187.5-187.5c0-51.7-20.9-98.6-54.8-132.5L117.5,382.6
		C151.4,416.5,198.3,437.5,250,437.5z"/>
	<path d="M187.5,375H250v62.4c21.9,0,42.9-3.8,62.5-10.7V375H250v-62.4h62.5V375H375v14.7c5.2-4.6,10.1-9.6,14.7-14.7h-14.6v-62.5
		h51.7c6.9-19.5,10.7-40.6,10.7-62.5h-62.4v-62.5h51.7c-8.2-23.3-20.9-44.5-37-62.5h-14.7l-0.1,0.1v62.4h-62.4l-0.1,0.1V250H375
		v62.5h-62.5V250h-62.5l0,0v62.5h-62.5l-0.1,0.1L187.5,375h-62.5l0,0v14.7c18,16.1,39.2,28.8,62.5,37V375z"/>
</g>
<g id="Layer_7" class="st6">
	<g class="st7">
		<rect x="250" y="375" class="st8" width="31.3" height="31.3"/>
		<rect x="156.3" y="375" class="st8" width="31.3" height="31.3"/>
		<rect x="218.8" y="375" class="st8" width="31.3" height="31.3"/>
		<rect x="187.5" y="375" class="st8" width="31.3" height="31.3"/>
		<rect x="93.8" y="343.8" class="st8" width="31.3" height="31.3"/>
		<rect x="93.8" y="375" class="st8" width="31.3" height="31.3"/>
		<rect x="125" y="375" class="st8" width="31.3" height="31.3"/>
		<rect x="281.3" y="375" class="st8" width="31.3" height="31.3"/>
		<rect x="375" y="312.5" class="st8" width="31.3" height="31.3"/>
		<rect x="93.8" y="312.5" class="st8" width="31.3" height="31.3"/>
		<rect x="375" y="343.8" class="st8" width="31.3" height="31.3"/>
		<rect x="375" y="281.3" class="st8" width="31.3" height="31.3"/>
		<rect x="312.5" y="375" class="st8" width="31.3" height="31.3"/>
		<rect x="375" y="375" class="st8" width="31.3" height="31.3"/>
		<rect x="375" y="250" class="st8" width="31.3" height="31.3"/>
		<rect x="343.8" y="375" class="st8" width="31.3" height="31.3"/>
		<rect x="250" y="93.8" class="st8" width="31.3" height="31.3"/>
		<rect x="218.8" y="93.8" class="st8" width="31.3" height="31.3"/>
		<rect x="187.5" y="93.8" class="st8" width="31.3" height="31.3"/>
		<rect x="312.5" y="93.8" class="st8" width="31.3" height="31.3"/>
		<rect x="343.8" y="93.8" class="st8" width="31.3" height="31.3"/>
		<rect x="156.3" y="93.8" class="st8" width="31.3" height="31.3"/>
		<rect x="281.3" y="93.8" class="st8" width="31.3" height="31.3"/>
		<rect x="93.8" y="156.3" class="st8" width="31.3" height="31.3"/>
		<rect x="93.8" y="187.5" class="st8" width="31.3" height="31.3"/>
		<rect x="93.8" y="218.8" class="st8" width="31.3" height="31.3"/>
		<rect x="93.8" y="250" class="st8" width="31.3" height="31.3"/>
		<rect x="93.8" y="281.3" class="st8" width="31.3" height="31.3"/>
		<rect x="125" y="93.8" class="st8" width="31.3" height="31.3"/>
		<rect x="93.8" y="93.8" class="st8" width="31.3" height="31.3"/>
		<rect x="93.8" y="125" class="st8" width="31.3" height="31.3"/>
		<rect x="375" y="125" class="st8" width="31.3" height="31.3"/>
		<rect x="62.5" y="281.3" class="st8" width="31.3" height="31.3"/>
		<rect x="62.5" y="312.5" class="st8" width="31.3" height="31.3"/>
		<rect x="62.5" y="250" class="st8" width="31.3" height="31.3"/>
		<rect x="62.5" y="156.3" class="st8" width="31.3" height="31.3"/>
		<rect x="62.5" y="125" class="st8" width="31.3" height="31.3"/>
		<rect x="62.5" y="187.5" class="st8" width="31.3" height="31.3"/>
		<rect x="62.5" y="218.8" class="st8" width="31.3" height="31.3"/>
		<rect x="62.5" y="343.8" class="st8" width="31.3" height="31.3"/>
		<rect x="187.5" y="406.3" class="st8" width="31.3" height="31.3"/>
		<rect x="218.8" y="406.3" class="st8" width="31.3" height="31.3"/>
		<rect x="156.3" y="406.3" class="st8" width="31.3" height="31.3"/>
		<rect x="125" y="406.3" class="st8" width="31.3" height="31.3"/>
		<rect x="62.5" y="406.3" class="st8" width="31.3" height="31.3"/>
		<rect x="93.8" y="406.3" class="st8" width="31.3" height="31.3"/>
		<rect x="62.5" y="375" class="st8" width="31.3" height="31.3"/>
		<rect x="62.5" y="93.8" class="st8" width="31.3" height="31.3"/>
		<rect x="375" y="62.5" class="st8" width="31.3" height="31.3"/>
		<rect x="312.5" y="62.5" class="st8" width="31.3" height="31.3"/>
		<rect x="281.3" y="62.5" class="st8" width="31.3" height="31.3"/>
		<rect x="375" y="93.8" class="st8" width="31.3" height="31.3"/>
		<rect x="343.8" y="125" class="st8" width="31.3" height="31.3"/>
		<rect x="375" y="187.5" class="st8" width="31.3" height="31.3"/>
		<rect x="375" y="156.3" class="st8" width="31.3" height="31.3"/>
		<rect x="62.5" y="62.5" class="st8" width="31.3" height="31.3"/>
		<rect x="93.8" y="62.5" class="st8" width="31.3" height="31.3"/>
		<rect x="375" y="218.8" class="st8" width="31.3" height="31.3"/>
		<rect x="125" y="62.5" class="st8" width="31.3" height="31.3"/>
		<rect x="250" y="62.5" class="st8" width="31.3" height="31.3"/>
		<rect x="218.8" y="62.5" class="st8" width="31.3" height="31.3"/>
		<rect x="187.5" y="62.5" class="st8" width="31.3" height="31.3"/>
		<rect x="156.3" y="62.5" class="st8" width="31.3" height="31.3"/>
		<rect x="281.3" y="156.3" class="st8" width="31.3" height="31.3"/>
		<rect x="156.3" y="156.3" class="st8" width="31.3" height="31.3"/>
		<rect x="156.3" y="218.8" class="st8" width="31.3" height="31.3"/>
		<rect x="156.3" y="187.5" class="st8" width="31.3" height="31.3"/>
		<rect x="187.5" y="156.3" class="st8" width="31.3" height="31.3"/>
		<rect x="250" y="406.3" class="st8" width="31.3" height="31.3"/>
		<rect x="250" y="156.3" class="st8" width="31.3" height="31.3"/>
		<rect x="281.3" y="187.5" class="st8" width="31.3" height="31.3"/>
		<rect x="218.8" y="156.3" class="st8" width="31.3" height="31.3"/>
		<rect x="250" y="312.5" class="st8" width="31.3" height="31.3"/>
		<rect x="312.5" y="312.5" class="st8" width="31.3" height="31.3"/>
		<rect x="281.3" y="312.5" class="st8" width="31.3" height="31.3"/>
		<rect x="218.8" y="312.5" class="st8" width="31.3" height="31.3"/>
		<rect x="156.3" y="281.3" class="st8" width="31.3" height="31.3"/>
		<rect x="156.3" y="312.5" class="st8" width="31.3" height="31.3"/>
		<rect x="187.5" y="312.5" class="st8" width="31.3" height="31.3"/>
		<rect x="156.3" y="250" class="st8" width="31.3" height="31.3"/>
		<rect x="187.5" y="187.5" class="st8" width="31.3" height="31.3"/>
		<rect x="218.8" y="187.5" class="st8" width="31.3" height="31.3"/>
		<rect x="250" y="218.8" class="st8" width="31.3" height="31.3"/>
		<rect x="250" y="187.5" class="st8" width="31.3" height="31.3"/>
		<rect x="281.3" y="218.8" class="st8" width="31.3" height="31.3"/>
		<rect x="218.8" y="250" class="st8" width="31.3" height="31.3"/>
		<rect x="250" y="250" class="st8" width="31.3" height="31.3"/>
		<rect x="218.8" y="218.8" class="st8" width="31.3" height="31.3"/>
		<rect x="281.3" y="281.3" class="st8" width="31.3" height="31.3"/>
		<rect x="250" y="281.3" class="st8" width="31.3" height="31.3"/>
		<rect x="281.3" y="250" class="st8" width="31.3" height="31.3"/>
		<rect x="187.5" y="218.8" class="st8" width="31.3" height="31.3"/>
		<rect x="187.5" y="250" class="st8" width="31.3" height="31.3"/>
		<rect x="187.5" y="281.3" class="st8" width="31.3" height="31.3"/>
		<rect x="218.8" y="281.3" class="st8" width="31.3" height="31.3"/>
		<rect x="343.8" y="156.3" class="st8" width="31.3" height="31.3"/>
		<rect x="218.8" y="343.8" class="st8" width="31.3" height="31.3"/>
		<rect x="187.5" y="343.8" class="st8" width="31.3" height="31.3"/>
		<rect x="250" y="343.8" class="st8" width="31.3" height="31.3"/>
		<rect x="156.3" y="343.8" class="st8" width="31.3" height="31.3"/>
		<rect x="125" y="312.5" class="st8" width="31.3" height="31.3"/>
		<rect x="125" y="343.8" class="st8" width="31.3" height="31.3"/>
		<rect x="281.3" y="343.8" class="st8" width="31.3" height="31.3"/>
		<rect x="343.8" y="312.5" class="st8" width="31.3" height="31.3"/>
		<rect x="343.8" y="250" class="st8" width="31.3" height="31.3"/>
		<rect x="343.8" y="218.8" class="st8" width="31.3" height="31.3"/>
		<rect x="312.5" y="343.8" class="st8" width="31.3" height="31.3"/>
		<rect x="343.8" y="187.5" class="st8" width="31.3" height="31.3"/>
		<rect x="343.8" y="343.8" class="st8" width="31.3" height="31.3"/>
		<rect x="125" y="281.3" class="st8" width="31.3" height="31.3"/>
		<rect x="343.8" y="281.3" class="st8" width="31.3" height="31.3"/>
		<rect x="312.5" y="218.8" class="st8" width="31.3" height="31.3"/>
		<rect x="125" y="250" class="st8" width="31.3" height="31.3"/>
		<rect x="281.3" y="125" class="st8" width="31.3" height="31.3"/>
		<rect x="312.5" y="156.3" class="st8" width="31.3" height="31.3"/>
		<rect x="312.5" y="187.5" class="st8" width="31.3" height="31.3"/>
		<rect x="312.5" y="250" class="st8" width="31.3" height="31.3"/>
		<rect x="312.5" y="281.3" class="st8" width="31.3" height="31.3"/>
		<rect x="250" y="125" class="st8" width="31.3" height="31.3"/>
		<rect x="312.5" y="125" class="st8" width="31.3" height="31.3"/>
		<rect x="125" y="187.5" class="st8" width="31.3" height="31.3"/>
		<rect x="125" y="218.8" class="st8" width="31.3" height="31.3"/>
		<rect x="125" y="156.3" class="st8" width="31.3" height="31.3"/>
		<rect x="156.3" y="125" class="st8" width="31.3" height="31.3"/>
		<rect x="187.5" y="125" class="st8" width="31.3" height="31.3"/>
		<rect x="125" y="125" class="st8" width="31.3" height="31.3"/>
		<rect x="218.8" y="125" class="st8" width="31.3" height="31.3"/>
		<rect x="343.8" y="62.5" class="st8" width="31.3" height="31.3"/>
		<rect y="93.8" class="st8" width="31.3" height="31.3"/>
		<rect y="125" class="st8" width="31.3" height="31.3"/>
		<rect y="62.5" class="st8" width="31.3" height="31.3"/>
		<rect y="156.3" class="st8" width="31.3" height="31.3"/>
		<rect class="st8" width="31.3" height="31.3"/>
		<rect x="31.3" class="st8" width="31.3" height="31.3"/>
		<rect y="187.5" class="st8" width="31.3" height="31.3"/>
		<rect y="31.3" class="st8" width="31.3" height="31.3"/>
		<rect y="343.8" class="st8" width="31.3" height="31.3"/>
		<rect x="62.5" class="st8" width="31.3" height="31.3"/>
		<rect y="375" class="st8" width="31.3" height="31.3"/>
		<rect y="218.8" class="st8" width="31.3" height="31.3"/>
		<rect y="406.3" class="st8" width="31.3" height="31.3"/>
		<rect y="250" class="st8" width="31.3" height="31.3"/>
		<rect y="312.5" class="st8" width="31.3" height="31.3"/>
		<rect y="281.3" class="st8" width="31.3" height="31.3"/>
		<rect x="312.5" class="st8" width="31.3" height="31.3"/>
		<rect x="406.3" class="st8" width="31.3" height="31.3"/>
		<rect x="375" class="st8" width="31.3" height="31.3"/>
		<rect x="437.5" class="st8" width="31.3" height="31.3"/>
		<rect x="437.5" y="31.3" class="st8" width="31.3" height="31.3"/>
		<rect x="437.5" y="93.8" class="st8" width="31.3" height="31.3"/>
		<rect x="437.5" y="62.5" class="st8" width="31.3" height="31.3"/>
		<rect x="93.8" class="st8" width="31.3" height="31.3"/>
		<rect x="343.8" class="st8" width="31.3" height="31.3"/>
		<rect x="156.3" class="st8" width="31.3" height="31.3"/>
		<rect x="125" class="st8" width="31.3" height="31.3"/>
		<rect x="437.5" y="125" class="st8" width="31.3" height="31.3"/>
		<rect x="281.3" class="st8" width="31.3" height="31.3"/>
		<rect x="218.8" class="st8" width="31.3" height="31.3"/>
		<rect y="437.5" class="st8" width="31.3" height="31.3"/>
		<rect x="250" class="st8" width="31.3" height="31.3"/>
		<rect x="187.5" class="st8" width="31.3" height="31.3"/>
		<rect x="468.8" y="281.3" class="st8" width="31.3" height="31.3"/>
		<rect x="468.8" y="312.5" class="st8" width="31.3" height="31.3"/>
		<rect x="468.8" y="250" class="st8" width="31.3" height="31.3"/>
		<rect x="468.8" y="375" class="st8" width="31.3" height="31.3"/>
		<rect x="468.8" y="406.3" class="st8" width="31.3" height="31.3"/>
		<rect x="468.8" y="218.8" class="st8" width="31.3" height="31.3"/>
		<rect x="468.8" y="343.8" class="st8" width="31.3" height="31.3"/>
		<rect x="468.8" y="437.5" class="st8" width="31.3" height="31.3"/>
		<rect x="468.8" y="62.5" class="st8" width="31.3" height="31.3"/>
		<rect x="468.8" y="31.3" class="st8" width="31.3" height="31.3"/>
		<rect x="468.8" class="st8" width="31.3" height="31.3"/>
		<rect x="468.8" y="125" class="st8" width="31.3" height="31.3"/>
		<rect x="468.8" y="156.3" class="st8" width="31.3" height="31.3"/>
		<rect x="468.8" y="93.8" class="st8" width="31.3" height="31.3"/>
		<rect x="468.8" y="187.5" class="st8" width="31.3" height="31.3"/>
		<rect x="343.8" y="468.8" class="st8" width="31.3" height="31.3"/>
		<rect x="218.8" y="468.8" class="st8" width="31.3" height="31.3"/>
		<rect x="125" y="468.8" class="st8" width="31.3" height="31.3"/>
		<rect x="468.8" y="468.8" class="st8" width="31.3" height="31.3"/>
		<rect x="156.3" y="468.8" class="st8" width="31.3" height="31.3"/>
		<rect x="93.8" y="468.8" class="st8" width="31.3" height="31.3"/>
		<rect x="31.3" y="468.8" class="st8" width="31.3" height="31.3"/>
		<rect x="62.5" y="468.8" class="st8" width="31.3" height="31.3"/>
		<rect x="187.5" y="468.8" class="st8" width="31.3" height="31.3"/>
		<rect x="406.3" y="468.8" class="st8" width="31.3" height="31.3"/>
		<rect x="250" y="468.8" class="st8" width="31.3" height="31.3"/>
		<rect x="437.5" y="468.8" class="st8" width="31.3" height="31.3"/>
		<rect x="375" y="468.8" class="st8" width="31.3" height="31.3"/>
		<rect x="281.3" y="468.8" class="st8" width="31.3" height="31.3"/>
		<rect x="312.5" y="468.8" class="st8" width="31.3" height="31.3"/>
		<rect y="468.8" class="st8" width="31.3" height="31.3"/>
		<rect x="187.5" y="31.3" class="st8" width="31.3" height="31.3"/>
		<rect x="281.3" y="31.3" class="st8" width="31.3" height="31.3"/>
		<rect x="250" y="31.3" class="st8" width="31.3" height="31.3"/>
		<rect x="218.8" y="31.3" class="st8" width="31.3" height="31.3"/>
		<rect x="343.8" y="31.3" class="st8" width="31.3" height="31.3"/>
		<rect x="375" y="31.3" class="st8" width="31.3" height="31.3"/>
		<rect x="312.5" y="31.3" class="st8" width="31.3" height="31.3"/>
		<rect x="281.3" y="406.3" class="st8" width="31.3" height="31.3"/>
		<rect x="31.3" y="31.3" class="st8" width="31.3" height="31.3"/>
		<rect x="406.3" y="31.3" class="st8" width="31.3" height="31.3"/>
		<rect x="156.3" y="31.3" class="st8" width="31.3" height="31.3"/>
		<rect x="31.3" y="93.8" class="st8" width="31.3" height="31.3"/>
		<rect x="31.3" y="62.5" class="st8" width="31.3" height="31.3"/>
		<rect x="62.5" y="31.3" class="st8" width="31.3" height="31.3"/>
		<rect x="125" y="31.3" class="st8" width="31.3" height="31.3"/>
		<rect x="93.8" y="31.3" class="st8" width="31.3" height="31.3"/>
		<rect x="312.5" y="406.3" class="st8" width="31.3" height="31.3"/>
		<rect x="406.3" y="312.5" class="st8" width="31.3" height="31.3"/>
		<rect x="406.3" y="343.8" class="st8" width="31.3" height="31.3"/>
		<rect x="406.3" y="406.3" class="st8" width="31.3" height="31.3"/>
		<rect x="406.3" y="62.5" class="st8" width="31.3" height="31.3"/>
		<rect x="31.3" y="125" class="st8" width="31.3" height="31.3"/>
		<rect x="343.8" y="406.3" class="st8" width="31.3" height="31.3"/>
		<rect x="375" y="406.3" class="st8" width="31.3" height="31.3"/>
		<rect x="406.3" y="375" class="st8" width="31.3" height="31.3"/>
		<rect x="406.3" y="156.3" class="st8" width="31.3" height="31.3"/>
		<rect x="406.3" y="125" class="st8" width="31.3" height="31.3"/>
		<rect x="406.3" y="93.8" class="st8" width="31.3" height="31.3"/>
		<rect x="406.3" y="281.3" class="st8" width="31.3" height="31.3"/>
		<rect x="406.3" y="250" class="st8" width="31.3" height="31.3"/>
		<rect x="406.3" y="187.5" class="st8" width="31.3" height="31.3"/>
		<rect x="406.3" y="218.8" class="st8" width="31.3" height="31.3"/>
		<rect x="437.5" y="187.5" class="st8" width="31.3" height="31.3"/>
		<rect x="31.3" y="156.3" class="st8" width="31.3" height="31.3"/>
		<rect x="375" y="437.5" class="st8" width="31.3" height="31.3"/>
		<rect x="250" y="437.5" class="st8" width="31.3" height="31.3"/>
		<rect x="437.5" y="406.3" class="st8" width="31.3" height="31.3"/>
		<rect x="281.3" y="437.5" class="st8" width="31.3" height="31.3"/>
		<rect x="312.5" y="437.5" class="st8" width="31.3" height="31.3"/>
		<rect x="343.8" y="437.5" class="st8" width="31.3" height="31.3"/>
		<rect x="437.5" y="437.5" class="st8" width="31.3" height="31.3"/>
		<rect x="437.5" y="218.8" class="st8" width="31.3" height="31.3"/>
		<rect x="437.5" y="156.3" class="st8" width="31.3" height="31.3"/>
		<rect x="437.5" y="250" class="st8" width="31.3" height="31.3"/>
		<rect x="437.5" y="375" class="st8" width="31.3" height="31.3"/>
		<rect x="437.5" y="343.8" class="st8" width="31.3" height="31.3"/>
		<rect x="437.5" y="312.5" class="st8" width="31.3" height="31.3"/>
		<rect x="437.5" y="281.3" class="st8" width="31.3" height="31.3"/>
		<rect x="406.3" y="437.5" class="st8" width="31.3" height="31.3"/>
		<rect x="31.3" y="312.5" class="st8" width="31.3" height="31.3"/>
		<rect x="31.3" y="343.8" class="st8" width="31.3" height="31.3"/>
		<rect x="31.3" y="281.3" class="st8" width="31.3" height="31.3"/>
		<rect x="31.3" y="218.8" class="st8" width="31.3" height="31.3"/>
		<rect x="31.3" y="187.5" class="st8" width="31.3" height="31.3"/>
		<rect x="31.3" y="375" class="st8" width="31.3" height="31.3"/>
		<rect x="31.3" y="250" class="st8" width="31.3" height="31.3"/>
		<rect x="187.5" y="437.5" class="st8" width="31.3" height="31.3"/>
		<rect x="125" y="437.5" class="st8" width="31.3" height="31.3"/>
		<rect x="156.3" y="437.5" class="st8" width="31.3" height="31.3"/>
		<rect x="218.8" y="437.5" class="st8" width="31.3" height="31.3"/>
		<rect x="93.8" y="437.5" class="st8" width="31.3" height="31.3"/>
		<rect x="31.3" y="406.3" class="st8" width="31.3" height="31.3"/>
		<rect x="31.3" y="437.5" class="st8" width="31.3" height="31.3"/>
		<rect x="62.5" y="437.5" class="st8" width="31.3" height="31.3"/>
	</g>
	<rect class="st9" width="500" height="500"/>
	<rect class="st9" width="62.5" height="62.5"/>
	<rect x="437.5" class="st9" width="62.5" height="62.5"/>
	<rect y="437.5" class="st9" width="62.5" height="62.5"/>
	<rect x="437.5" y="437.5" class="st9" width="62.5" height="62.5"/>
	<rect x="62.5" y="62.5" class="st9" width="187.5" height="187.5"/>
	<rect x="250" y="62.5" class="st9" width="187.5" height="187.5"/>
	<rect x="62.5" y="250" class="st9" width="187.5" height="187.5"/>
	<rect x="250" y="250" class="st9" width="187.5" height="187.5"/>
	<line class="st9" x1="0" y1="0" x2="500" y2="500"/>
	<line class="st9" x1="500" y1="0" x2="0" y2="500"/>
	<circle class="st9" cx="250" cy="250" r="187.5"/>
	<circle class="st9" cx="250" cy="250" r="250"/>
	<rect x="62.5" class="st9" width="375" height="500"/>
</g>
</svg>
