<?xml version="1.0" encoding="utf-8"?>
<!-- Generator: Adobe Illustrator 22.1.0, SVG Export Plug-In . SVG Version: 6.00 Build 0)  -->
<svg version="1.1" xmlns="http://www.w3.org/2000/svg" xmlns:xlink="http://www.w3.org/1999/xlink" x="0px" y="0px"
	 viewBox="0 0 500 500" style="enable-background:new 0 0 500 500;" xml:space="preserve">
<style type="text/css">
	.st0{fill:#FF6600;}
	.st1{opacity:0.5;fill:url(#SVGID_1_);enable-background:new    ;}
	.st2{fill:url(#SVGID_2_);}
	.st3{fill:#D1D3D4;}
	.st4{fill:#FFFFFF;}
	.st5{fill:#A7A9AC;}
	.st6{fill:#B5B5B5;}
	.st7{display:none;}
	.st8{display:inline;}
	.st9{fill:none;stroke:#EDEDED;stroke-width:0.5;stroke-miterlimit:10;}
	.st10{fill:none;stroke:#BDBDBD;stroke-miterlimit:10;}
	.st11{display:inline;fill:none;stroke:#BDBDBD;stroke-miterlimit:10;}
	.st12{opacity:0.3;fill:url(#SVGID_3_);enable-background:new    ;}
	.st13{display:inline;fill:#B5B5B5;}
</style>
<g id="Layer_1">
	<g id="Layer_2_1_">
		<path class="st0" d="M400,500H100C44.8,500,0,455.2,0,400V100C0,44.8,44.8,0,100,0h300c55.2,0,100,44.8,100,100v300
			C500,455.2,455.2,500,400,500z"/>
	</g>
	<g id="Layer_3_copy">
		
			<linearGradient id="SVGID_1_" gradientUnits="userSpaceOnUse" x1="502.4087" y1="78.291" x2="149.0934" y2="282.2776" gradientTransform="matrix(1 0 0 -1 0 502)">
			<stop  offset="0" style="stop-color:#FF6600"/>
			<stop  offset="1" style="stop-color:#231F20"/>
		</linearGradient>
		<path class="st1" d="M249,105l182.3,36.3L500,250v62.5v93.8c0,48.1-47.4,93.8-93.8,93.8L216.5,500L68.8,358.8"/>
		
			<linearGradient id="SVGID_2_" gradientUnits="userSpaceOnUse" x1="771" y1="158.6" x2="771" y2="158.6" gradientTransform="matrix(1 0 0 -1 0 502)">
			<stop  offset="0" style="stop-color:#FF6600"/>
			<stop  offset="1" style="stop-color:#231F20"/>
		</linearGradient>
		<path class="st2" d="M771,343.4"/>
	</g>
	<polygon class="st3" points="250,32.5 68.8,141.3 68.8,358.8 250,467.5 431.3,358.8 431.3,141.3 	"/>
	<polyline class="st4" points="250,32.5 431.3,141.3 250,250 105.1,163.1 68.8,141.3 	"/>
	<polyline class="st5" points="250,467.5 250,250 431.3,141.3 431.3,358.8 	"/>
	<path class="st6" d="M68.8,358.8"/>
	<g id="Layer_1_1_" class="st7">
		<g class="st8">
			<rect x="250" y="375" class="st9" width="31.3" height="31.3"/>
			<rect x="156.3" y="375" class="st9" width="31.3" height="31.3"/>
			<rect x="218.8" y="375" class="st9" width="31.3" height="31.3"/>
			<rect x="187.5" y="375" class="st9" width="31.3" height="31.3"/>
			<rect x="93.8" y="343.8" class="st9" width="31.3" height="31.3"/>
			<rect x="93.8" y="375" class="st9" width="31.3" height="31.3"/>
			<rect x="125" y="375" class="st9" width="31.3" height="31.3"/>
			<rect x="281.3" y="375" class="st9" width="31.3" height="31.3"/>
			<rect x="375" y="312.5" class="st9" width="31.3" height="31.3"/>
			<rect x="93.8" y="312.5" class="st9" width="31.3" height="31.3"/>
			<rect x="375" y="343.8" class="st9" width="31.3" height="31.3"/>
			<rect x="375" y="281.3" class="st9" width="31.3" height="31.3"/>
			<rect x="312.5" y="375" class="st9" width="31.3" height="31.3"/>
			<rect x="375" y="375" class="st9" width="31.3" height="31.3"/>
			<rect x="375" y="250" class="st9" width="31.3" height="31.3"/>
			<rect x="343.8" y="375" class="st9" width="31.3" height="31.3"/>
			<rect x="250" y="93.8" class="st9" width="31.3" height="31.3"/>
			<rect x="218.8" y="93.8" class="st9" width="31.3" height="31.3"/>
			<rect x="187.5" y="93.8" class="st9" width="31.3" height="31.3"/>
			<rect x="312.5" y="93.8" class="st9" width="31.3" height="31.3"/>
			<rect x="343.8" y="93.8" class="st9" width="31.3" height="31.3"/>
			<rect x="156.3" y="93.8" class="st9" width="31.3" height="31.3"/>
			<rect x="281.3" y="93.8" class="st9" width="31.3" height="31.3"/>
			<rect x="93.8" y="156.3" class="st9" width="31.3" height="31.3"/>
			<rect x="93.8" y="187.5" class="st9" width="31.3" height="31.3"/>
			<rect x="93.8" y="218.8" class="st9" width="31.3" height="31.3"/>
			<rect x="93.8" y="250" class="st9" width="31.3" height="31.3"/>
			<rect x="93.8" y="281.3" class="st9" width="31.3" height="31.3"/>
			<rect x="125" y="93.8" class="st9" width="31.3" height="31.3"/>
			<rect x="93.8" y="93.8" class="st9" width="31.3" height="31.3"/>
			<rect x="93.8" y="125" class="st9" width="31.3" height="31.3"/>
			<rect x="375" y="125" class="st9" width="31.3" height="31.3"/>
			<rect x="62.5" y="281.3" class="st9" width="31.3" height="31.3"/>
			<rect x="62.5" y="312.5" class="st9" width="31.3" height="31.3"/>
			<rect x="62.5" y="250" class="st9" width="31.3" height="31.3"/>
			<rect x="62.5" y="156.3" class="st9" width="31.3" height="31.3"/>
			<rect x="62.5" y="125" class="st9" width="31.3" height="31.3"/>
			<rect x="62.5" y="187.5" class="st9" width="31.3" height="31.3"/>
			<rect x="62.5" y="218.8" class="st9" width="31.3" height="31.3"/>
			<rect x="62.5" y="343.8" class="st9" width="31.3" height="31.3"/>
			<rect x="187.5" y="406.3" class="st9" width="31.3" height="31.3"/>
			<rect x="218.8" y="406.3" class="st9" width="31.3" height="31.3"/>
			<rect x="156.3" y="406.3" class="st9" width="31.3" height="31.3"/>
			<rect x="125" y="406.3" class="st9" width="31.3" height="31.3"/>
			<rect x="62.5" y="406.3" class="st9" width="31.3" height="31.3"/>
			<rect x="93.8" y="406.3" class="st9" width="31.3" height="31.3"/>
			<rect x="62.5" y="375" class="st9" width="31.3" height="31.3"/>
			<rect x="62.5" y="93.8" class="st9" width="31.3" height="31.3"/>
			<rect x="375" y="62.5" class="st9" width="31.3" height="31.3"/>
			<rect x="312.5" y="62.5" class="st9" width="31.3" height="31.3"/>
			<rect x="281.3" y="62.5" class="st9" width="31.3" height="31.3"/>
			<rect x="375" y="93.8" class="st9" width="31.3" height="31.3"/>
			<rect x="343.8" y="125" class="st9" width="31.3" height="31.3"/>
			<rect x="375" y="187.5" class="st9" width="31.3" height="31.3"/>
			<rect x="375" y="156.3" class="st9" width="31.3" height="31.3"/>
			<rect x="62.5" y="62.5" class="st9" width="31.3" height="31.3"/>
			<rect x="93.8" y="62.5" class="st9" width="31.3" height="31.3"/>
			<rect x="375" y="218.8" class="st9" width="31.3" height="31.3"/>
			<rect x="125" y="62.5" class="st9" width="31.3" height="31.3"/>
			<rect x="250" y="62.5" class="st9" width="31.3" height="31.3"/>
			<rect x="218.8" y="62.5" class="st9" width="31.3" height="31.3"/>
			<rect x="187.5" y="62.5" class="st9" width="31.3" height="31.3"/>
			<rect x="156.3" y="62.5" class="st9" width="31.3" height="31.3"/>
			<rect x="281.3" y="156.3" class="st9" width="31.3" height="31.3"/>
			<rect x="156.3" y="156.3" class="st9" width="31.3" height="31.3"/>
			<rect x="156.3" y="218.8" class="st9" width="31.3" height="31.3"/>
			<rect x="156.3" y="187.5" class="st9" width="31.3" height="31.3"/>
			<rect x="187.5" y="156.3" class="st9" width="31.3" height="31.3"/>
			<rect x="250" y="406.3" class="st9" width="31.3" height="31.3"/>
			<rect x="250" y="156.3" class="st9" width="31.3" height="31.3"/>
			<rect x="281.3" y="187.5" class="st9" width="31.3" height="31.3"/>
			<rect x="218.8" y="156.3" class="st9" width="31.3" height="31.3"/>
			<rect x="250" y="312.5" class="st9" width="31.3" height="31.3"/>
			<rect x="312.5" y="312.5" class="st9" width="31.3" height="31.3"/>
			<rect x="281.3" y="312.5" class="st9" width="31.3" height="31.3"/>
			<rect x="218.8" y="312.5" class="st9" width="31.3" height="31.3"/>
			<rect x="156.3" y="281.3" class="st9" width="31.3" height="31.3"/>
			<rect x="156.3" y="312.5" class="st9" width="31.3" height="31.3"/>
			<rect x="187.5" y="312.5" class="st9" width="31.3" height="31.3"/>
			<rect x="156.3" y="250" class="st9" width="31.3" height="31.3"/>
			<rect x="187.5" y="187.5" class="st9" width="31.3" height="31.3"/>
			<rect x="218.8" y="187.5" class="st9" width="31.3" height="31.3"/>
			<rect x="250" y="218.8" class="st9" width="31.3" height="31.3"/>
			<rect x="250" y="187.5" class="st9" width="31.3" height="31.3"/>
			<rect x="281.3" y="218.8" class="st9" width="31.3" height="31.3"/>
			<rect x="218.8" y="250" class="st9" width="31.3" height="31.3"/>
			<rect x="250" y="250" class="st9" width="31.3" height="31.3"/>
			<rect x="218.8" y="218.8" class="st9" width="31.3" height="31.3"/>
			<rect x="281.3" y="281.3" class="st9" width="31.3" height="31.3"/>
			<rect x="250" y="281.3" class="st9" width="31.3" height="31.3"/>
			<rect x="281.3" y="250" class="st9" width="31.3" height="31.3"/>
			<rect x="187.5" y="218.8" class="st9" width="31.3" height="31.3"/>
			<rect x="187.5" y="250" class="st9" width="31.3" height="31.3"/>
			<rect x="187.5" y="281.3" class="st9" width="31.3" height="31.3"/>
			<rect x="218.8" y="281.3" class="st9" width="31.3" height="31.3"/>
			<rect x="343.8" y="156.3" class="st9" width="31.3" height="31.3"/>
			<rect x="218.8" y="343.8" class="st9" width="31.3" height="31.3"/>
			<rect x="187.5" y="343.8" class="st9" width="31.3" height="31.3"/>
			<rect x="250" y="343.8" class="st9" width="31.3" height="31.3"/>
			<rect x="156.3" y="343.8" class="st9" width="31.3" height="31.3"/>
			<rect x="125" y="312.5" class="st9" width="31.3" height="31.3"/>
			<rect x="125" y="343.8" class="st9" width="31.3" height="31.3"/>
			<rect x="281.3" y="343.8" class="st9" width="31.3" height="31.3"/>
			<rect x="343.8" y="312.5" class="st9" width="31.3" height="31.3"/>
			<rect x="343.8" y="250" class="st9" width="31.3" height="31.3"/>
			<rect x="343.8" y="218.8" class="st9" width="31.3" height="31.3"/>
			<rect x="312.5" y="343.8" class="st9" width="31.3" height="31.3"/>
			<rect x="343.8" y="187.5" class="st9" width="31.3" height="31.3"/>
			<rect x="343.8" y="343.8" class="st9" width="31.3" height="31.3"/>
			<rect x="125" y="281.3" class="st9" width="31.3" height="31.3"/>
			<rect x="343.8" y="281.3" class="st9" width="31.3" height="31.3"/>
			<rect x="312.5" y="218.8" class="st9" width="31.3" height="31.3"/>
			<rect x="125" y="250" class="st9" width="31.3" height="31.3"/>
			<rect x="281.3" y="125" class="st9" width="31.3" height="31.3"/>
			<rect x="312.5" y="156.3" class="st9" width="31.3" height="31.3"/>
			<rect x="312.5" y="187.5" class="st9" width="31.3" height="31.3"/>
			<rect x="312.5" y="250" class="st9" width="31.3" height="31.3"/>
			<rect x="312.5" y="281.3" class="st9" width="31.3" height="31.3"/>
			<rect x="250" y="125" class="st9" width="31.3" height="31.3"/>
			<rect x="312.5" y="125" class="st9" width="31.3" height="31.3"/>
			<rect x="125" y="187.5" class="st9" width="31.3" height="31.3"/>
			<rect x="125" y="218.8" class="st9" width="31.3" height="31.3"/>
			<rect x="125" y="156.3" class="st9" width="31.3" height="31.3"/>
			<rect x="156.3" y="125" class="st9" width="31.3" height="31.3"/>
			<rect x="187.5" y="125" class="st9" width="31.3" height="31.3"/>
			<rect x="125" y="125" class="st9" width="31.3" height="31.3"/>
			<rect x="218.8" y="125" class="st9" width="31.3" height="31.3"/>
			<rect x="343.8" y="62.5" class="st9" width="31.3" height="31.3"/>
			<rect y="93.8" class="st9" width="31.3" height="31.3"/>
			<rect y="125" class="st9" width="31.3" height="31.3"/>
			<rect y="62.5" class="st9" width="31.3" height="31.3"/>
			<rect y="156.3" class="st9" width="31.3" height="31.3"/>
			<rect class="st9" width="31.3" height="31.3"/>
			<rect x="31.3" class="st9" width="31.3" height="31.3"/>
			<rect y="187.5" class="st9" width="31.3" height="31.3"/>
			<rect y="31.3" class="st9" width="31.3" height="31.3"/>
			<rect y="343.8" class="st9" width="31.3" height="31.3"/>
			<rect x="62.5" class="st9" width="31.3" height="31.3"/>
			<rect y="375" class="st9" width="31.3" height="31.3"/>
			<rect y="218.8" class="st9" width="31.3" height="31.3"/>
			<rect y="406.3" class="st9" width="31.3" height="31.3"/>
			<rect y="250" class="st9" width="31.3" height="31.3"/>
			<rect y="312.5" class="st9" width="31.3" height="31.3"/>
			<rect y="281.3" class="st9" width="31.3" height="31.3"/>
			<rect x="312.5" class="st9" width="31.3" height="31.3"/>
			<rect x="406.3" class="st9" width="31.3" height="31.3"/>
			<rect x="375" class="st9" width="31.3" height="31.3"/>
			<rect x="437.5" class="st9" width="31.3" height="31.3"/>
			<rect x="437.5" y="31.3" class="st9" width="31.3" height="31.3"/>
			<rect x="437.5" y="93.8" class="st9" width="31.3" height="31.3"/>
			<rect x="437.5" y="62.5" class="st9" width="31.3" height="31.3"/>
			<rect x="93.8" class="st9" width="31.3" height="31.3"/>
			<rect x="343.8" class="st9" width="31.3" height="31.3"/>
			<rect x="156.3" class="st9" width="31.3" height="31.3"/>
			<rect x="125" class="st9" width="31.3" height="31.3"/>
			<rect x="437.5" y="125" class="st9" width="31.3" height="31.3"/>
			<rect x="281.3" class="st9" width="31.3" height="31.3"/>
			<rect x="218.8" class="st9" width="31.3" height="31.3"/>
			<rect y="437.5" class="st9" width="31.3" height="31.3"/>
			<rect x="250" class="st9" width="31.3" height="31.3"/>
			<rect x="187.5" class="st9" width="31.3" height="31.3"/>
			<rect x="468.8" y="281.3" class="st9" width="31.3" height="31.3"/>
			<rect x="468.8" y="312.5" class="st9" width="31.3" height="31.3"/>
			<rect x="468.8" y="250" class="st9" width="31.3" height="31.3"/>
			<rect x="468.8" y="375" class="st9" width="31.3" height="31.3"/>
			<rect x="468.8" y="406.3" class="st9" width="31.3" height="31.3"/>
			<rect x="468.8" y="218.8" class="st9" width="31.3" height="31.3"/>
			<rect x="468.8" y="343.8" class="st9" width="31.3" height="31.3"/>
			<rect x="468.8" y="437.5" class="st9" width="31.3" height="31.3"/>
			<rect x="468.8" y="62.5" class="st9" width="31.3" height="31.3"/>
			<rect x="468.8" y="31.3" class="st9" width="31.3" height="31.3"/>
			<rect x="468.8" class="st9" width="31.3" height="31.3"/>
			<rect x="468.8" y="125" class="st9" width="31.3" height="31.3"/>
			<rect x="468.8" y="156.3" class="st9" width="31.3" height="31.3"/>
			<rect x="468.8" y="93.8" class="st9" width="31.3" height="31.3"/>
			<rect x="468.8" y="187.5" class="st9" width="31.3" height="31.3"/>
			<rect x="343.8" y="468.8" class="st9" width="31.3" height="31.3"/>
			<rect x="218.8" y="468.8" class="st9" width="31.3" height="31.3"/>
			<rect x="125" y="468.8" class="st9" width="31.3" height="31.3"/>
			<rect x="468.8" y="468.8" class="st9" width="31.3" height="31.3"/>
			<rect x="156.3" y="468.8" class="st9" width="31.3" height="31.3"/>
			<rect x="93.8" y="468.8" class="st9" width="31.3" height="31.3"/>
			<rect x="31.3" y="468.8" class="st9" width="31.3" height="31.3"/>
			<rect x="62.5" y="468.8" class="st9" width="31.3" height="31.3"/>
			<rect x="187.5" y="468.8" class="st9" width="31.3" height="31.3"/>
			<rect x="406.3" y="468.8" class="st9" width="31.3" height="31.3"/>
			<rect x="250" y="468.8" class="st9" width="31.3" height="31.3"/>
			<rect x="437.5" y="468.8" class="st9" width="31.3" height="31.3"/>
			<rect x="375" y="468.8" class="st9" width="31.3" height="31.3"/>
			<rect x="281.3" y="468.8" class="st9" width="31.3" height="31.3"/>
			<rect x="312.5" y="468.8" class="st9" width="31.3" height="31.3"/>
			<rect y="468.8" class="st9" width="31.3" height="31.3"/>
			<rect x="187.5" y="31.3" class="st9" width="31.3" height="31.3"/>
			<rect x="281.3" y="31.3" class="st9" width="31.3" height="31.3"/>
			<rect x="250" y="31.3" class="st9" width="31.3" height="31.3"/>
			<rect x="218.8" y="31.3" class="st9" width="31.3" height="31.3"/>
			<rect x="343.8" y="31.3" class="st9" width="31.3" height="31.3"/>
			<rect x="375" y="31.3" class="st9" width="31.3" height="31.3"/>
			<rect x="312.5" y="31.3" class="st9" width="31.3" height="31.3"/>
			<rect x="281.3" y="406.3" class="st9" width="31.3" height="31.3"/>
			<rect x="31.3" y="31.3" class="st9" width="31.3" height="31.3"/>
			<rect x="406.3" y="31.3" class="st9" width="31.3" height="31.3"/>
			<rect x="156.3" y="31.3" class="st9" width="31.3" height="31.3"/>
			<rect x="31.3" y="93.8" class="st9" width="31.3" height="31.3"/>
			<rect x="31.3" y="62.5" class="st9" width="31.3" height="31.3"/>
			<rect x="62.5" y="31.3" class="st9" width="31.3" height="31.3"/>
			<rect x="125" y="31.3" class="st9" width="31.3" height="31.3"/>
			<rect x="93.8" y="31.3" class="st9" width="31.3" height="31.3"/>
			<rect x="312.5" y="406.3" class="st9" width="31.3" height="31.3"/>
			<rect x="406.3" y="312.5" class="st9" width="31.3" height="31.3"/>
			<rect x="406.3" y="343.8" class="st9" width="31.3" height="31.3"/>
			<rect x="406.3" y="406.3" class="st9" width="31.3" height="31.3"/>
			<rect x="406.3" y="62.5" class="st9" width="31.3" height="31.3"/>
			<rect x="31.3" y="125" class="st9" width="31.3" height="31.3"/>
			<rect x="343.8" y="406.3" class="st9" width="31.3" height="31.3"/>
			<rect x="375" y="406.3" class="st9" width="31.3" height="31.3"/>
			<rect x="406.3" y="375" class="st9" width="31.3" height="31.3"/>
			<rect x="406.3" y="156.3" class="st9" width="31.3" height="31.3"/>
			<rect x="406.3" y="125" class="st9" width="31.3" height="31.3"/>
			<rect x="406.3" y="93.8" class="st9" width="31.3" height="31.3"/>
			<rect x="406.3" y="281.3" class="st9" width="31.3" height="31.3"/>
			<rect x="406.3" y="250" class="st9" width="31.3" height="31.3"/>
			<rect x="406.3" y="187.5" class="st9" width="31.3" height="31.3"/>
			<rect x="406.3" y="218.8" class="st9" width="31.3" height="31.3"/>
			<rect x="437.5" y="187.5" class="st9" width="31.3" height="31.3"/>
			<rect x="31.3" y="156.3" class="st9" width="31.3" height="31.3"/>
			<rect x="375" y="437.5" class="st9" width="31.3" height="31.3"/>
			<rect x="250" y="437.5" class="st9" width="31.3" height="31.3"/>
			<rect x="437.5" y="406.3" class="st9" width="31.3" height="31.3"/>
			<rect x="281.3" y="437.5" class="st9" width="31.3" height="31.3"/>
			<rect x="312.5" y="437.5" class="st9" width="31.3" height="31.3"/>
			<rect x="343.8" y="437.5" class="st9" width="31.3" height="31.3"/>
			<rect x="437.5" y="437.5" class="st9" width="31.3" height="31.3"/>
			<rect x="437.5" y="218.8" class="st9" width="31.3" height="31.3"/>
			<rect x="437.5" y="156.3" class="st9" width="31.3" height="31.3"/>
			<rect x="437.5" y="250" class="st9" width="31.3" height="31.3"/>
			<rect x="437.5" y="375" class="st9" width="31.3" height="31.3"/>
			<rect x="437.5" y="343.8" class="st9" width="31.3" height="31.3"/>
			<rect x="437.5" y="312.5" class="st9" width="31.3" height="31.3"/>
			<rect x="437.5" y="281.3" class="st9" width="31.3" height="31.3"/>
			<rect x="406.3" y="437.5" class="st9" width="31.3" height="31.3"/>
			<rect x="31.3" y="312.5" class="st9" width="31.3" height="31.3"/>
			<rect x="31.3" y="343.8" class="st9" width="31.3" height="31.3"/>
			<rect x="31.3" y="281.3" class="st9" width="31.3" height="31.3"/>
			<rect x="31.3" y="218.8" class="st9" width="31.3" height="31.3"/>
			<rect x="31.3" y="187.5" class="st9" width="31.3" height="31.3"/>
			<rect x="31.3" y="375" class="st9" width="31.3" height="31.3"/>
			<rect x="31.3" y="250" class="st9" width="31.3" height="31.3"/>
			<rect x="187.5" y="437.5" class="st9" width="31.3" height="31.3"/>
			<rect x="125" y="437.5" class="st9" width="31.3" height="31.3"/>
			<rect x="156.3" y="437.5" class="st9" width="31.3" height="31.3"/>
			<rect x="218.8" y="437.5" class="st9" width="31.3" height="31.3"/>
			<rect x="93.8" y="437.5" class="st9" width="31.3" height="31.3"/>
			<rect x="31.3" y="406.3" class="st9" width="31.3" height="31.3"/>
			<rect x="31.3" y="437.5" class="st9" width="31.3" height="31.3"/>
			<rect x="62.5" y="437.5" class="st9" width="31.3" height="31.3"/>
		</g>
		<g class="st8">
			<rect class="st10" width="500" height="500"/>
			<rect class="st10" width="62.5" height="62.5"/>
			<rect x="437.5" class="st10" width="62.5" height="62.5"/>
			<rect y="437.5" class="st10" width="62.5" height="62.5"/>
			<rect x="437.5" y="437.5" class="st10" width="62.5" height="62.5"/>
			<rect x="62.5" y="62.5" class="st10" width="187.5" height="187.5"/>
			<rect x="250" y="62.5" class="st10" width="187.5" height="187.5"/>
			<rect x="62.5" y="250" class="st10" width="187.5" height="187.5"/>
			<rect x="250" y="250" class="st10" width="187.5" height="187.5"/>
			<line class="st10" x1="0" y1="0" x2="500" y2="500"/>
			<line class="st10" x1="500" y1="0" x2="0" y2="500"/>
			<circle class="st10" cx="250" cy="250" r="187.5"/>
			<circle class="st10" cx="250" cy="250" r="250"/>
		</g>
		<rect x="62.5" class="st11" width="375" height="500"/>
	</g>
</g>
<g id="Layer_4">
	<polygon class="st3" points="105.1,163.1 250,68.8 401,159.5 401,340.7 250,431.3 105.1,340.7 	"/>
	<polygon class="st4" points="105.1,340.7 250.1,250.1 401,340.7 250,431.3 	"/>
	<polygon class="st5" points="250,68.8 250.1,250.1 105.1,340.7 105.1,163.1 	"/>
	<polygon class="st5" points="250.6,107.5 250.7,250.1 136.7,321.3 136.7,181.7 	"/>
	
		<linearGradient id="SVGID_3_" gradientUnits="userSpaceOnUse" x1="363.0624" y1="95.5828" x2="157.4906" y2="214.2698" gradientTransform="matrix(1 0 0 -1 0 502)">
		<stop  offset="0" style="stop-color:#000000"/>
		<stop  offset="1" style="stop-color:#231F20"/>
	</linearGradient>
	<path class="st12" d="M321.7,292.3l79.4,48.3l-151,90.7l-23.6-14.7L141.7,315"/>
</g>
<g id="Layer_6">
	<polygon class="st3" points="250,120 141.7,185 141.7,315 250,380 358.4,315 358.4,185 	"/>
	<polyline class="st4" points="250,120 358.4,185 250,250 163.4,198.1 141.7,185 	"/>
	<polyline class="st5" points="250,380 250,250 358.4,185 358.4,315 	"/>
</g>
<g id="Layer_5">
</g>
<g id="Layer_3">
</g>
<g id="Layer_2" class="st7">
	<line class="st13" x1="93.8" y1="343.8" x2="93.8" y2="162"/>
</g>
</svg>
